<svg xmlns="http://www.w3.org/2000/svg" xmlns:xlink="http://www.w3.org/1999/xlink" width="846" zoomAndPan="magnify" viewBox="0 0 634.5 603.000004" height="804" preserveAspectRatio="xMidYMid meet" version="1.0"><defs><g/><clipPath id="650a81608b"><path d="M 44 90 L 509 90 L 509 499 L 44 499 Z M 44 90 " clip-rule="nonzero"/></clipPath><clipPath id="7d596a69c9"><path d="M 365.941406 0.00390625 L 613.242188 286.4375 L 247.398438 602.296875 L 0.0976562 315.859375 Z M 365.941406 0.00390625 " clip-rule="nonzero"/></clipPath><clipPath id="b2b900d28f"><path d="M 365.941406 0.00390625 L 613.242188 286.4375 L 247.398438 602.296875 L 0.0976562 315.859375 Z M 365.941406 0.00390625 " clip-rule="nonzero"/></clipPath><clipPath id="6f3e014ecd"><path d="M 365.941406 0.00390625 L 613.242188 286.4375 L 247.398438 602.296875 L 0.0976562 315.859375 Z M 365.941406 0.00390625 " clip-rule="nonzero"/></clipPath><clipPath id="053119642b"><path d="M 207.066406 196.617188 C 209.882812 192.222656 212.015625 187.4375 214.371094 182.78125 C 229.324219 153.234375 253.726562 128.707031 282.75 112.761719 C 311.777344 96.8125 345.273438 89.386719 378.355469 90.617188 C 397.945312 91.347656 417.507812 95.082031 435.609375 102.59375 C 453.710938 110.105469 470.328125 121.460938 483.132812 136.292969 C 495.9375 151.121094 504.835938 169.476562 507.539062 188.890625 C 510.246094 208.300781 506.59375 228.710938 496.453125 245.5 C 487.921875 259.625 475.296875 270.710938 463.203125 281.941406 C 451.109375 293.167969 439.085938 305.136719 432.320312 320.183594 C 424.109375 338.449219 424.492188 359.269531 425.386719 379.265625 C 426.277344 399.265625 427.4375 419.90625 420.542969 438.707031 C 415.171875 453.363281 405.058594 466.082031 392.605469 475.5 C 380.152344 484.917969 365.4375 491.117188 350.207031 494.535156 C 319.746094 501.363281 287.941406 497.214844 257.347656 491.066406 C 218.171875 483.195312 179.292969 471.949219 144.289062 452.695312 C 109.289062 433.441406 78.1875 405.683594 59.628906 370.3125 C 50.019531 351.996094 43.839844 331.492188 44.679688 310.816406 C 45.515625 290.144531 53.910156 269.339844 69.609375 255.847656 C 79.292969 247.523438 91.28125 242.261719 103.550781 238.734375 C 115.824219 235.207031 128.492188 233.308594 141.039062 230.960938 C 153.589844 228.613281 166.160156 225.773438 177.792969 220.507812 C 189.429688 215.242188 200.167969 207.363281 207.0625 196.617188 Z M 207.066406 196.617188 " clip-rule="nonzero"/></clipPath><linearGradient x1="2935.79537" gradientTransform="matrix(-1.020636, -1.18215, -1.183346, 1.021668, -2892.686543, 9496.906832)" y1="-5394.4302" x2="3330.621427" gradientUnits="userSpaceOnUse" y2="-5394.4302" id="a77bb7aa24"><stop stop-opacity="1" stop-color="rgb(36.099243%, 93.699646%, 100%)" offset="0"/><stop stop-opacity="1" stop-color="rgb(36.099243%, 93.699646%, 100%)" offset="0.125"/><stop stop-opacity="1" stop-color="rgb(36.105347%, 93.696594%, 99.998474%)" offset="0.15625"/><stop stop-opacity="1" stop-color="rgb(36.520386%, 93.580627%, 99.949646%)" offset="0.160156"/><stop stop-opacity="1" stop-color="rgb(36.927795%, 93.466187%, 99.902344%)" offset="0.164062"/><stop stop-opacity="1" stop-color="rgb(37.335205%, 93.35022%, 99.853516%)" offset="0.167969"/><stop stop-opacity="1" stop-color="rgb(37.742615%, 93.235779%, 99.806213%)" offset="0.171875"/><stop stop-opacity="1" stop-color="rgb(38.150024%, 93.121338%, 99.757385%)" offset="0.175781"/><stop stop-opacity="1" stop-color="rgb(38.55896%, 93.006897%, 99.710083%)" offset="0.179687"/><stop stop-opacity="1" stop-color="rgb(38.96637%, 92.89093%, 99.662781%)" offset="0.183594"/><stop stop-opacity="1" stop-color="rgb(39.373779%, 92.776489%, 99.615479%)" offset="0.1875"/><stop stop-opacity="1" stop-color="rgb(39.781189%, 92.662048%, 99.56665%)" offset="0.191406"/><stop stop-opacity="1" stop-color="rgb(40.190125%, 92.547607%, 99.519348%)" offset="0.195312"/><stop stop-opacity="1" stop-color="rgb(40.597534%, 92.431641%, 99.47052%)" offset="0.199219"/><stop stop-opacity="1" stop-color="rgb(41.004944%, 92.3172%, 99.423218%)" offset="0.203125"/><stop stop-opacity="1" stop-color="rgb(41.412354%, 92.202759%, 99.37439%)" offset="0.207031"/><stop stop-opacity="1" stop-color="rgb(41.819763%, 92.088318%, 99.327087%)" offset="0.210938"/><stop stop-opacity="1" stop-color="rgb(42.227173%, 91.972351%, 99.279785%)" offset="0.214844"/><stop stop-opacity="1" stop-color="rgb(42.636108%, 91.85791%, 99.232483%)" offset="0.21875"/><stop stop-opacity="1" stop-color="rgb(43.043518%, 91.743469%, 99.183655%)" offset="0.222656"/><stop stop-opacity="1" stop-color="rgb(43.450928%, 91.629028%, 99.136353%)" offset="0.226562"/><stop stop-opacity="1" stop-color="rgb(43.858337%, 91.513062%, 99.087524%)" offset="0.230469"/><stop stop-opacity="1" stop-color="rgb(44.265747%, 91.398621%, 99.040222%)" offset="0.234375"/><stop stop-opacity="1" stop-color="rgb(44.673157%, 91.282654%, 98.99292%)" offset="0.238281"/><stop stop-opacity="1" stop-color="rgb(45.082092%, 91.168213%, 98.945618%)" offset="0.242188"/><stop stop-opacity="1" stop-color="rgb(45.489502%, 91.053772%, 98.89679%)" offset="0.246094"/><stop stop-opacity="1" stop-color="rgb(45.896912%, 90.939331%, 98.849487%)" offset="0.25"/><stop stop-opacity="1" stop-color="rgb(46.304321%, 90.823364%, 98.800659%)" offset="0.253906"/><stop stop-opacity="1" stop-color="rgb(46.713257%, 90.708923%, 98.753357%)" offset="0.257812"/><stop stop-opacity="1" stop-color="rgb(47.120667%, 90.594482%, 98.704529%)" offset="0.261719"/><stop stop-opacity="1" stop-color="rgb(47.528076%, 90.480042%, 98.657227%)" offset="0.265625"/><stop stop-opacity="1" stop-color="rgb(47.935486%, 90.364075%, 98.609924%)" offset="0.269531"/><stop stop-opacity="1" stop-color="rgb(48.342896%, 90.249634%, 98.562622%)" offset="0.273438"/><stop stop-opacity="1" stop-color="rgb(48.750305%, 90.135193%, 98.513794%)" offset="0.277344"/><stop stop-opacity="1" stop-color="rgb(49.159241%, 90.020752%, 98.466492%)" offset="0.28125"/><stop stop-opacity="1" stop-color="rgb(49.56665%, 89.904785%, 98.417664%)" offset="0.285156"/><stop stop-opacity="1" stop-color="rgb(49.97406%, 89.790344%, 98.370361%)" offset="0.289062"/><stop stop-opacity="1" stop-color="rgb(50.38147%, 89.675903%, 98.323059%)" offset="0.292969"/><stop stop-opacity="1" stop-color="rgb(50.788879%, 89.561462%, 98.275757%)" offset="0.296875"/><stop stop-opacity="1" stop-color="rgb(51.196289%, 89.445496%, 98.226929%)" offset="0.300781"/><stop stop-opacity="1" stop-color="rgb(51.605225%, 89.331055%, 98.179626%)" offset="0.304687"/><stop stop-opacity="1" stop-color="rgb(52.012634%, 89.216614%, 98.130798%)" offset="0.308594"/><stop stop-opacity="1" stop-color="rgb(52.420044%, 89.102173%, 98.083496%)" offset="0.3125"/><stop stop-opacity="1" stop-color="rgb(52.827454%, 88.986206%, 98.034668%)" offset="0.316406"/><stop stop-opacity="1" stop-color="rgb(53.236389%, 88.871765%, 97.987366%)" offset="0.320312"/><stop stop-opacity="1" stop-color="rgb(53.643799%, 88.757324%, 97.940063%)" offset="0.324219"/><stop stop-opacity="1" stop-color="rgb(54.051208%, 88.642883%, 97.892761%)" offset="0.328125"/><stop stop-opacity="1" stop-color="rgb(54.458618%, 88.526917%, 97.843933%)" offset="0.332031"/><stop stop-opacity="1" stop-color="rgb(54.866028%, 88.412476%, 97.796631%)" offset="0.335937"/><stop stop-opacity="1" stop-color="rgb(55.273438%, 88.298035%, 97.747803%)" offset="0.339844"/><stop stop-opacity="1" stop-color="rgb(55.682373%, 88.183594%, 97.7005%)" offset="0.34375"/><stop stop-opacity="1" stop-color="rgb(56.089783%, 88.067627%, 97.651672%)" offset="0.347656"/><stop stop-opacity="1" stop-color="rgb(56.497192%, 87.953186%, 97.60437%)" offset="0.351562"/><stop stop-opacity="1" stop-color="rgb(56.904602%, 87.838745%, 97.557068%)" offset="0.355469"/><stop stop-opacity="1" stop-color="rgb(57.313538%, 87.724304%, 97.509766%)" offset="0.359375"/><stop stop-opacity="1" stop-color="rgb(57.720947%, 87.608337%, 97.460938%)" offset="0.363281"/><stop stop-opacity="1" stop-color="rgb(58.128357%, 87.493896%, 97.413635%)" offset="0.367188"/><stop stop-opacity="1" stop-color="rgb(58.535767%, 87.37793%, 97.364807%)" offset="0.371094"/><stop stop-opacity="1" stop-color="rgb(58.943176%, 87.263489%, 97.317505%)" offset="0.375"/><stop stop-opacity="1" stop-color="rgb(59.350586%, 87.149048%, 97.270203%)" offset="0.378906"/><stop stop-opacity="1" stop-color="rgb(59.759521%, 87.034607%, 97.2229%)" offset="0.382812"/><stop stop-opacity="1" stop-color="rgb(60.166931%, 86.91864%, 97.174072%)" offset="0.386719"/><stop stop-opacity="1" stop-color="rgb(60.574341%, 86.804199%, 97.12677%)" offset="0.390625"/><stop stop-opacity="1" stop-color="rgb(60.98175%, 86.689758%, 97.077942%)" offset="0.394531"/><stop stop-opacity="1" stop-color="rgb(61.38916%, 86.575317%, 97.03064%)" offset="0.398438"/><stop stop-opacity="1" stop-color="rgb(61.79657%, 86.459351%, 96.981812%)" offset="0.402344"/><stop stop-opacity="1" stop-color="rgb(62.205505%, 86.34491%, 96.934509%)" offset="0.40625"/><stop stop-opacity="1" stop-color="rgb(62.612915%, 86.230469%, 96.887207%)" offset="0.410156"/><stop stop-opacity="1" stop-color="rgb(63.020325%, 86.116028%, 96.839905%)" offset="0.414062"/><stop stop-opacity="1" stop-color="rgb(63.427734%, 86.000061%, 96.791077%)" offset="0.417969"/><stop stop-opacity="1" stop-color="rgb(63.83667%, 85.88562%, 96.743774%)" offset="0.421875"/><stop stop-opacity="1" stop-color="rgb(64.24408%, 85.771179%, 96.694946%)" offset="0.425781"/><stop stop-opacity="1" stop-color="rgb(64.651489%, 85.656738%, 96.647644%)" offset="0.429688"/><stop stop-opacity="1" stop-color="rgb(65.058899%, 85.540771%, 96.600342%)" offset="0.433594"/><stop stop-opacity="1" stop-color="rgb(65.466309%, 85.426331%, 96.55304%)" offset="0.4375"/><stop stop-opacity="1" stop-color="rgb(65.873718%, 85.31189%, 96.504211%)" offset="0.441406"/><stop stop-opacity="1" stop-color="rgb(66.282654%, 85.197449%, 96.456909%)" offset="0.445312"/><stop stop-opacity="1" stop-color="rgb(66.690063%, 85.081482%, 96.408081%)" offset="0.449219"/><stop stop-opacity="1" stop-color="rgb(67.097473%, 84.967041%, 96.360779%)" offset="0.453125"/><stop stop-opacity="1" stop-color="rgb(67.504883%, 84.8526%, 96.311951%)" offset="0.457031"/><stop stop-opacity="1" stop-color="rgb(67.912292%, 84.738159%, 96.264648%)" offset="0.460938"/><stop stop-opacity="1" stop-color="rgb(68.319702%, 84.622192%, 96.217346%)" offset="0.464844"/><stop stop-opacity="1" stop-color="rgb(68.728638%, 84.507751%, 96.170044%)" offset="0.46875"/><stop stop-opacity="1" stop-color="rgb(69.136047%, 84.393311%, 96.121216%)" offset="0.472656"/><stop stop-opacity="1" stop-color="rgb(69.543457%, 84.27887%, 96.073914%)" offset="0.476562"/><stop stop-opacity="1" stop-color="rgb(69.950867%, 84.162903%, 96.025085%)" offset="0.480469"/><stop stop-opacity="1" stop-color="rgb(70.359802%, 84.048462%, 95.977783%)" offset="0.484375"/><stop stop-opacity="1" stop-color="rgb(70.767212%, 83.934021%, 95.928955%)" offset="0.488281"/><stop stop-opacity="1" stop-color="rgb(71.174622%, 83.81958%, 95.881653%)" offset="0.492187"/><stop stop-opacity="1" stop-color="rgb(71.582031%, 83.703613%, 95.834351%)" offset="0.496094"/><stop stop-opacity="1" stop-color="rgb(71.989441%, 83.589172%, 95.787048%)" offset="0.5"/><stop stop-opacity="1" stop-color="rgb(72.396851%, 83.473206%, 95.73822%)" offset="0.503906"/><stop stop-opacity="1" stop-color="rgb(72.805786%, 83.358765%, 95.690918%)" offset="0.507812"/><stop stop-opacity="1" stop-color="rgb(73.213196%, 83.244324%, 95.64209%)" offset="0.511719"/><stop stop-opacity="1" stop-color="rgb(73.620605%, 83.129883%, 95.594788%)" offset="0.515625"/><stop stop-opacity="1" stop-color="rgb(74.028015%, 83.013916%, 95.547485%)" offset="0.519531"/><stop stop-opacity="1" stop-color="rgb(74.435425%, 82.899475%, 95.500183%)" offset="0.523438"/><stop stop-opacity="1" stop-color="rgb(74.842834%, 82.785034%, 95.451355%)" offset="0.527344"/><stop stop-opacity="1" stop-color="rgb(75.25177%, 82.670593%, 95.404053%)" offset="0.53125"/><stop stop-opacity="1" stop-color="rgb(75.65918%, 82.554626%, 95.355225%)" offset="0.535156"/><stop stop-opacity="1" stop-color="rgb(76.066589%, 82.440186%, 95.307922%)" offset="0.539062"/><stop stop-opacity="1" stop-color="rgb(76.473999%, 82.325745%, 95.259094%)" offset="0.542969"/><stop stop-opacity="1" stop-color="rgb(76.882935%, 82.211304%, 95.211792%)" offset="0.546875"/><stop stop-opacity="1" stop-color="rgb(77.290344%, 82.095337%, 95.16449%)" offset="0.550781"/><stop stop-opacity="1" stop-color="rgb(77.697754%, 81.980896%, 95.117188%)" offset="0.554688"/><stop stop-opacity="1" stop-color="rgb(78.105164%, 81.866455%, 95.068359%)" offset="0.558594"/><stop stop-opacity="1" stop-color="rgb(78.512573%, 81.752014%, 95.021057%)" offset="0.5625"/><stop stop-opacity="1" stop-color="rgb(78.919983%, 81.636047%, 94.972229%)" offset="0.566406"/><stop stop-opacity="1" stop-color="rgb(79.328918%, 81.521606%, 94.924927%)" offset="0.570312"/><stop stop-opacity="1" stop-color="rgb(79.736328%, 81.407166%, 94.877625%)" offset="0.574219"/><stop stop-opacity="1" stop-color="rgb(80.143738%, 81.292725%, 94.830322%)" offset="0.578125"/><stop stop-opacity="1" stop-color="rgb(80.551147%, 81.176758%, 94.781494%)" offset="0.582031"/><stop stop-opacity="1" stop-color="rgb(80.960083%, 81.062317%, 94.734192%)" offset="0.585938"/><stop stop-opacity="1" stop-color="rgb(81.367493%, 80.947876%, 94.685364%)" offset="0.589844"/><stop stop-opacity="1" stop-color="rgb(81.774902%, 80.833435%, 94.638062%)" offset="0.59375"/><stop stop-opacity="1" stop-color="rgb(82.182312%, 80.717468%, 94.589233%)" offset="0.597656"/><stop stop-opacity="1" stop-color="rgb(82.589722%, 80.603027%, 94.541931%)" offset="0.601563"/><stop stop-opacity="1" stop-color="rgb(82.997131%, 80.488586%, 94.494629%)" offset="0.605469"/><stop stop-opacity="1" stop-color="rgb(83.406067%, 80.374146%, 94.447327%)" offset="0.609375"/><stop stop-opacity="1" stop-color="rgb(83.813477%, 80.258179%, 94.398499%)" offset="0.613281"/><stop stop-opacity="1" stop-color="rgb(84.220886%, 80.143738%, 94.351196%)" offset="0.617188"/><stop stop-opacity="1" stop-color="rgb(84.628296%, 80.029297%, 94.302368%)" offset="0.621094"/><stop stop-opacity="1" stop-color="rgb(85.035706%, 79.914856%, 94.255066%)" offset="0.625"/><stop stop-opacity="1" stop-color="rgb(85.443115%, 79.798889%, 94.207764%)" offset="0.628906"/><stop stop-opacity="1" stop-color="rgb(85.852051%, 79.684448%, 94.160461%)" offset="0.632812"/><stop stop-opacity="1" stop-color="rgb(86.25946%, 79.568481%, 94.111633%)" offset="0.636719"/><stop stop-opacity="1" stop-color="rgb(86.66687%, 79.454041%, 94.064331%)" offset="0.640625"/><stop stop-opacity="1" stop-color="rgb(87.07428%, 79.3396%, 94.015503%)" offset="0.644531"/><stop stop-opacity="1" stop-color="rgb(87.483215%, 79.225159%, 93.968201%)" offset="0.648438"/><stop stop-opacity="1" stop-color="rgb(87.890625%, 79.109192%, 93.919373%)" offset="0.652344"/><stop stop-opacity="1" stop-color="rgb(88.298035%, 78.994751%, 93.87207%)" offset="0.65625"/><stop stop-opacity="1" stop-color="rgb(88.705444%, 78.88031%, 93.824768%)" offset="0.660156"/><stop stop-opacity="1" stop-color="rgb(89.112854%, 78.765869%, 93.777466%)" offset="0.664062"/><stop stop-opacity="1" stop-color="rgb(89.520264%, 78.649902%, 93.728638%)" offset="0.667969"/><stop stop-opacity="1" stop-color="rgb(89.929199%, 78.535461%, 93.681335%)" offset="0.671875"/><stop stop-opacity="1" stop-color="rgb(90.336609%, 78.421021%, 93.632507%)" offset="0.675781"/><stop stop-opacity="1" stop-color="rgb(90.744019%, 78.30658%, 93.585205%)" offset="0.679688"/><stop stop-opacity="1" stop-color="rgb(91.151428%, 78.190613%, 93.536377%)" offset="0.683594"/><stop stop-opacity="1" stop-color="rgb(91.558838%, 78.076172%, 93.489075%)" offset="0.6875"/><stop stop-opacity="1" stop-color="rgb(91.966248%, 77.961731%, 93.441772%)" offset="0.691406"/><stop stop-opacity="1" stop-color="rgb(92.375183%, 77.84729%, 93.39447%)" offset="0.695312"/><stop stop-opacity="1" stop-color="rgb(92.782593%, 77.731323%, 93.345642%)" offset="0.699219"/><stop stop-opacity="1" stop-color="rgb(93.190002%, 77.616882%, 93.29834%)" offset="0.703125"/><stop stop-opacity="1" stop-color="rgb(93.597412%, 77.502441%, 93.249512%)" offset="0.707031"/><stop stop-opacity="1" stop-color="rgb(94.006348%, 77.388%, 93.202209%)" offset="0.710937"/><stop stop-opacity="1" stop-color="rgb(94.413757%, 77.272034%, 93.154907%)" offset="0.714844"/><stop stop-opacity="1" stop-color="rgb(94.821167%, 77.157593%, 93.107605%)" offset="0.71875"/><stop stop-opacity="1" stop-color="rgb(95.228577%, 77.043152%, 93.058777%)" offset="0.722656"/><stop stop-opacity="1" stop-color="rgb(95.635986%, 76.928711%, 93.011475%)" offset="0.726562"/><stop stop-opacity="1" stop-color="rgb(96.043396%, 76.812744%, 92.962646%)" offset="0.730469"/><stop stop-opacity="1" stop-color="rgb(96.452332%, 76.698303%, 92.915344%)" offset="0.734375"/><stop stop-opacity="1" stop-color="rgb(96.859741%, 76.583862%, 92.866516%)" offset="0.738281"/><stop stop-opacity="1" stop-color="rgb(97.267151%, 76.469421%, 92.819214%)" offset="0.742188"/><stop stop-opacity="1" stop-color="rgb(97.674561%, 76.353455%, 92.771912%)" offset="0.746094"/><stop stop-opacity="1" stop-color="rgb(98.08197%, 76.239014%, 92.724609%)" offset="0.75"/><stop stop-opacity="1" stop-color="rgb(98.48938%, 76.124573%, 92.675781%)" offset="0.753906"/><stop stop-opacity="1" stop-color="rgb(98.898315%, 76.010132%, 92.628479%)" offset="0.757812"/><stop stop-opacity="1" stop-color="rgb(99.305725%, 75.894165%, 92.579651%)" offset="0.761719"/><stop stop-opacity="1" stop-color="rgb(99.713135%, 75.779724%, 92.532349%)" offset="0.765625"/><stop stop-opacity="1" stop-color="rgb(99.856567%, 75.738525%, 92.515564%)" offset="0.78125"/><stop stop-opacity="1" stop-color="rgb(100%, 75.698853%, 92.498779%)" offset="0.8125"/><stop stop-opacity="1" stop-color="rgb(100%, 75.698853%, 92.498779%)" offset="0.875"/><stop stop-opacity="1" stop-color="rgb(100%, 75.698853%, 92.498779%)" offset="1"/></linearGradient><clipPath id="af42054eb8"><path d="M 290 211 L 633 211 L 633 519 L 290 519 Z M 290 211 " clip-rule="nonzero"/></clipPath><clipPath id="430837db7c"><path d="M 429.730469 230.714844 C 465.851562 219.351562 503.339844 208.507812 541 212.421875 C 559.832031 214.378906 578.453125 220.152344 594.207031 230.644531 C 609.960938 241.140625 622.707031 256.535156 628.523438 274.542969 C 634.285156 292.398438 633.09375 311.726562 630.402344 330.289062 C 627.707031 348.855469 623.566406 367.335938 623.617188 386.09375 C 623.667969 405.269531 628.101562 424.175781 629.164062 443.324219 C 629.695312 452.898438 629.375 462.578125 627.261719 471.929688 C 625.148438 481.285156 621.183594 490.324219 614.988281 497.644531 C 606.875 507.226562 595.21875 513.464844 582.960938 516.210938 C 570.703125 518.960938 557.867188 518.382812 545.558594 515.878906 C 520.941406 510.878906 498.558594 498.492188 475.074219 489.578125 C 441.230469 476.734375 404.957031 471.070312 371.3125 457.714844 C 354.488281 451.039062 338.292969 442.375 324.585938 430.5625 C 310.875 418.75 299.714844 403.632812 294.214844 386.398438 C 288.042969 367.046875 289.308594 345.667969 296.351562 326.617188 C 303.398438 307.566406 316.011719 290.8125 331.433594 277.585938 C 359.1875 253.792969 394.851562 241.6875 429.730469 230.714844 Z M 429.730469 230.714844 " clip-rule="nonzero"/></clipPath><linearGradient x1="-1316.93266" gradientTransform="matrix(-1.252529, 0, 0, 1.251878, -1015.77099, 4168.092169)" y1="-3038.054" x2="-1040.945113" gradientUnits="userSpaceOnUse" y2="-3038.054" id="95d7f72cde"><stop stop-opacity="1" stop-color="rgb(100%, 92.89856%, 63.899231%)" offset="0"/><stop stop-opacity="1" stop-color="rgb(99.969482%, 92.825317%, 63.925171%)" offset="0.0078125"/><stop stop-opacity="1" stop-color="rgb(99.887085%, 92.628479%, 63.993835%)" offset="0.015625"/><stop stop-opacity="1" stop-color="rgb(99.784851%, 92.381287%, 64.080811%)" offset="0.0234375"/><stop stop-opacity="1" stop-color="rgb(99.684143%, 92.134094%, 64.167786%)" offset="0.03125"/><stop stop-opacity="1" stop-color="rgb(99.581909%, 91.886902%, 64.254761%)" offset="0.0390625"/><stop stop-opacity="1" stop-color="rgb(99.479675%, 91.641235%, 64.34021%)" offset="0.046875"/><stop stop-opacity="1" stop-color="rgb(99.378967%, 91.394043%, 64.427185%)" offset="0.0546875"/><stop stop-opacity="1" stop-color="rgb(99.276733%, 91.146851%, 64.51416%)" offset="0.0625"/><stop stop-opacity="1" stop-color="rgb(99.1745%, 90.899658%, 64.601135%)" offset="0.0703125"/><stop stop-opacity="1" stop-color="rgb(99.073792%, 90.652466%, 64.68811%)" offset="0.078125"/><stop stop-opacity="1" stop-color="rgb(98.971558%, 90.406799%, 64.775085%)" offset="0.0859375"/><stop stop-opacity="1" stop-color="rgb(98.869324%, 90.159607%, 64.862061%)" offset="0.09375"/><stop stop-opacity="1" stop-color="rgb(98.76709%, 89.912415%, 64.94751%)" offset="0.101563"/><stop stop-opacity="1" stop-color="rgb(98.666382%, 89.665222%, 65.034485%)" offset="0.109375"/><stop stop-opacity="1" stop-color="rgb(98.564148%, 89.41803%, 65.12146%)" offset="0.117188"/><stop stop-opacity="1" stop-color="rgb(98.461914%, 89.172363%, 65.208435%)" offset="0.125"/><stop stop-opacity="1" stop-color="rgb(98.361206%, 88.925171%, 65.29541%)" offset="0.132812"/><stop stop-opacity="1" stop-color="rgb(98.258972%, 88.677979%, 65.382385%)" offset="0.140625"/><stop stop-opacity="1" stop-color="rgb(98.156738%, 88.430786%, 65.46936%)" offset="0.148438"/><stop stop-opacity="1" stop-color="rgb(98.05603%, 88.18512%, 65.55481%)" offset="0.15625"/><stop stop-opacity="1" stop-color="rgb(97.953796%, 87.937927%, 65.641785%)" offset="0.164062"/><stop stop-opacity="1" stop-color="rgb(97.851562%, 87.690735%, 65.72876%)" offset="0.171875"/><stop stop-opacity="1" stop-color="rgb(97.750854%, 87.443542%, 65.815735%)" offset="0.179687"/><stop stop-opacity="1" stop-color="rgb(97.648621%, 87.19635%, 65.90271%)" offset="0.1875"/><stop stop-opacity="1" stop-color="rgb(97.546387%, 86.950684%, 65.989685%)" offset="0.195313"/><stop stop-opacity="1" stop-color="rgb(97.445679%, 86.703491%, 66.07666%)" offset="0.203125"/><stop stop-opacity="1" stop-color="rgb(97.343445%, 86.456299%, 66.162109%)" offset="0.210938"/><stop stop-opacity="1" stop-color="rgb(97.241211%, 86.209106%, 66.249084%)" offset="0.21875"/><stop stop-opacity="1" stop-color="rgb(97.140503%, 85.961914%, 66.33606%)" offset="0.226562"/><stop stop-opacity="1" stop-color="rgb(97.038269%, 85.716248%, 66.423035%)" offset="0.234375"/><stop stop-opacity="1" stop-color="rgb(96.936035%, 85.469055%, 66.51001%)" offset="0.242188"/><stop stop-opacity="1" stop-color="rgb(96.835327%, 85.221863%, 66.596985%)" offset="0.25"/><stop stop-opacity="1" stop-color="rgb(96.733093%, 84.97467%, 66.68396%)" offset="0.257812"/><stop stop-opacity="1" stop-color="rgb(96.630859%, 84.727478%, 66.770935%)" offset="0.265625"/><stop stop-opacity="1" stop-color="rgb(96.528625%, 84.481812%, 66.856384%)" offset="0.273438"/><stop stop-opacity="1" stop-color="rgb(96.427917%, 84.234619%, 66.943359%)" offset="0.28125"/><stop stop-opacity="1" stop-color="rgb(96.325684%, 83.987427%, 67.030334%)" offset="0.289062"/><stop stop-opacity="1" stop-color="rgb(96.22345%, 83.740234%, 67.11731%)" offset="0.296875"/><stop stop-opacity="1" stop-color="rgb(96.122742%, 83.493042%, 67.204285%)" offset="0.304688"/><stop stop-opacity="1" stop-color="rgb(96.020508%, 83.247375%, 67.29126%)" offset="0.3125"/><stop stop-opacity="1" stop-color="rgb(95.918274%, 83.000183%, 67.378235%)" offset="0.320312"/><stop stop-opacity="1" stop-color="rgb(95.817566%, 82.752991%, 67.463684%)" offset="0.328125"/><stop stop-opacity="1" stop-color="rgb(95.715332%, 82.505798%, 67.550659%)" offset="0.335937"/><stop stop-opacity="1" stop-color="rgb(95.613098%, 82.258606%, 67.637634%)" offset="0.34375"/><stop stop-opacity="1" stop-color="rgb(95.51239%, 82.012939%, 67.724609%)" offset="0.351562"/><stop stop-opacity="1" stop-color="rgb(95.410156%, 81.765747%, 67.811584%)" offset="0.359375"/><stop stop-opacity="1" stop-color="rgb(95.307922%, 81.518555%, 67.89856%)" offset="0.367188"/><stop stop-opacity="1" stop-color="rgb(95.207214%, 81.271362%, 67.985535%)" offset="0.375"/><stop stop-opacity="1" stop-color="rgb(95.10498%, 81.02417%, 68.070984%)" offset="0.382812"/><stop stop-opacity="1" stop-color="rgb(95.002747%, 80.778503%, 68.157959%)" offset="0.390625"/><stop stop-opacity="1" stop-color="rgb(94.902039%, 80.531311%, 68.244934%)" offset="0.398438"/><stop stop-opacity="1" stop-color="rgb(94.799805%, 80.284119%, 68.331909%)" offset="0.40625"/><stop stop-opacity="1" stop-color="rgb(94.697571%, 80.036926%, 68.418884%)" offset="0.414063"/><stop stop-opacity="1" stop-color="rgb(94.596863%, 79.789734%, 68.505859%)" offset="0.421875"/><stop stop-opacity="1" stop-color="rgb(94.494629%, 79.544067%, 68.592834%)" offset="0.429688"/><stop stop-opacity="1" stop-color="rgb(94.392395%, 79.296875%, 68.678284%)" offset="0.4375"/><stop stop-opacity="1" stop-color="rgb(94.290161%, 79.049683%, 68.765259%)" offset="0.445312"/><stop stop-opacity="1" stop-color="rgb(94.189453%, 78.80249%, 68.852234%)" offset="0.453125"/><stop stop-opacity="1" stop-color="rgb(94.087219%, 78.555298%, 68.939209%)" offset="0.460938"/><stop stop-opacity="1" stop-color="rgb(93.984985%, 78.309631%, 69.026184%)" offset="0.46875"/><stop stop-opacity="1" stop-color="rgb(93.884277%, 78.062439%, 69.113159%)" offset="0.476562"/><stop stop-opacity="1" stop-color="rgb(93.782043%, 77.815247%, 69.200134%)" offset="0.484375"/><stop stop-opacity="1" stop-color="rgb(93.67981%, 77.568054%, 69.285583%)" offset="0.492188"/><stop stop-opacity="1" stop-color="rgb(93.579102%, 77.320862%, 69.372559%)" offset="0.5"/><stop stop-opacity="1" stop-color="rgb(93.476868%, 77.075195%, 69.459534%)" offset="0.507812"/><stop stop-opacity="1" stop-color="rgb(93.374634%, 76.828003%, 69.546509%)" offset="0.515625"/><stop stop-opacity="1" stop-color="rgb(93.273926%, 76.580811%, 69.633484%)" offset="0.523437"/><stop stop-opacity="1" stop-color="rgb(93.171692%, 76.333618%, 69.720459%)" offset="0.53125"/><stop stop-opacity="1" stop-color="rgb(93.069458%, 76.087952%, 69.807434%)" offset="0.539062"/><stop stop-opacity="1" stop-color="rgb(92.96875%, 75.840759%, 69.894409%)" offset="0.546875"/><stop stop-opacity="1" stop-color="rgb(92.866516%, 75.593567%, 69.979858%)" offset="0.554687"/><stop stop-opacity="1" stop-color="rgb(92.764282%, 75.346375%, 70.066833%)" offset="0.5625"/><stop stop-opacity="1" stop-color="rgb(92.663574%, 75.099182%, 70.153809%)" offset="0.570312"/><stop stop-opacity="1" stop-color="rgb(92.56134%, 74.853516%, 70.240784%)" offset="0.578125"/><stop stop-opacity="1" stop-color="rgb(92.459106%, 74.606323%, 70.327759%)" offset="0.585937"/><stop stop-opacity="1" stop-color="rgb(92.356873%, 74.359131%, 70.414734%)" offset="0.59375"/><stop stop-opacity="1" stop-color="rgb(92.256165%, 74.111938%, 70.501709%)" offset="0.601562"/><stop stop-opacity="1" stop-color="rgb(92.153931%, 73.864746%, 70.587158%)" offset="0.609375"/><stop stop-opacity="1" stop-color="rgb(92.051697%, 73.61908%, 70.674133%)" offset="0.617187"/><stop stop-opacity="1" stop-color="rgb(91.950989%, 73.371887%, 70.761108%)" offset="0.625"/><stop stop-opacity="1" stop-color="rgb(91.848755%, 73.124695%, 70.848083%)" offset="0.632812"/><stop stop-opacity="1" stop-color="rgb(91.746521%, 72.877502%, 70.935059%)" offset="0.640625"/><stop stop-opacity="1" stop-color="rgb(91.645813%, 72.63031%, 71.022034%)" offset="0.648437"/><stop stop-opacity="1" stop-color="rgb(91.543579%, 72.384644%, 71.109009%)" offset="0.65625"/><stop stop-opacity="1" stop-color="rgb(91.441345%, 72.137451%, 71.194458%)" offset="0.664062"/><stop stop-opacity="1" stop-color="rgb(91.340637%, 71.890259%, 71.281433%)" offset="0.671875"/><stop stop-opacity="1" stop-color="rgb(91.238403%, 71.643066%, 71.368408%)" offset="0.679687"/><stop stop-opacity="1" stop-color="rgb(91.136169%, 71.395874%, 71.455383%)" offset="0.6875"/><stop stop-opacity="1" stop-color="rgb(91.035461%, 71.150208%, 71.542358%)" offset="0.695312"/><stop stop-opacity="1" stop-color="rgb(90.933228%, 70.903015%, 71.629333%)" offset="0.703125"/><stop stop-opacity="1" stop-color="rgb(90.830994%, 70.655823%, 71.716309%)" offset="0.710937"/><stop stop-opacity="1" stop-color="rgb(90.730286%, 70.40863%, 71.801758%)" offset="0.71875"/><stop stop-opacity="1" stop-color="rgb(90.628052%, 70.161438%, 71.888733%)" offset="0.726562"/><stop stop-opacity="1" stop-color="rgb(90.525818%, 69.915771%, 71.975708%)" offset="0.734375"/><stop stop-opacity="1" stop-color="rgb(90.42511%, 69.668579%, 72.062683%)" offset="0.742188"/><stop stop-opacity="1" stop-color="rgb(90.322876%, 69.421387%, 72.149658%)" offset="0.75"/><stop stop-opacity="1" stop-color="rgb(90.220642%, 69.174194%, 72.236633%)" offset="0.757812"/><stop stop-opacity="1" stop-color="rgb(90.118408%, 68.927002%, 72.323608%)" offset="0.765625"/><stop stop-opacity="1" stop-color="rgb(90.0177%, 68.681335%, 72.409058%)" offset="0.773438"/><stop stop-opacity="1" stop-color="rgb(89.915466%, 68.434143%, 72.496033%)" offset="0.78125"/><stop stop-opacity="1" stop-color="rgb(89.813232%, 68.186951%, 72.583008%)" offset="0.789063"/><stop stop-opacity="1" stop-color="rgb(89.712524%, 67.939758%, 72.669983%)" offset="0.796875"/><stop stop-opacity="1" stop-color="rgb(89.610291%, 67.692566%, 72.756958%)" offset="0.804688"/><stop stop-opacity="1" stop-color="rgb(89.508057%, 67.446899%, 72.843933%)" offset="0.8125"/><stop stop-opacity="1" stop-color="rgb(89.407349%, 67.199707%, 72.930908%)" offset="0.820313"/><stop stop-opacity="1" stop-color="rgb(89.305115%, 66.952515%, 73.017883%)" offset="0.828125"/><stop stop-opacity="1" stop-color="rgb(89.202881%, 66.705322%, 73.103333%)" offset="0.835938"/><stop stop-opacity="1" stop-color="rgb(89.102173%, 66.45813%, 73.190308%)" offset="0.84375"/><stop stop-opacity="1" stop-color="rgb(88.999939%, 66.212463%, 73.277283%)" offset="0.851563"/><stop stop-opacity="1" stop-color="rgb(88.897705%, 65.965271%, 73.364258%)" offset="0.859375"/><stop stop-opacity="1" stop-color="rgb(88.796997%, 65.718079%, 73.451233%)" offset="0.867188"/><stop stop-opacity="1" stop-color="rgb(88.694763%, 65.470886%, 73.538208%)" offset="0.875"/><stop stop-opacity="1" stop-color="rgb(88.592529%, 65.223694%, 73.625183%)" offset="0.882813"/><stop stop-opacity="1" stop-color="rgb(88.491821%, 64.978027%, 73.710632%)" offset="0.890625"/><stop stop-opacity="1" stop-color="rgb(88.389587%, 64.730835%, 73.797607%)" offset="0.898438"/><stop stop-opacity="1" stop-color="rgb(88.287354%, 64.483643%, 73.884583%)" offset="0.90625"/><stop stop-opacity="1" stop-color="rgb(88.18512%, 64.23645%, 73.971558%)" offset="0.914063"/><stop stop-opacity="1" stop-color="rgb(88.084412%, 63.990784%, 74.058533%)" offset="0.921875"/><stop stop-opacity="1" stop-color="rgb(87.982178%, 63.743591%, 74.145508%)" offset="0.929688"/><stop stop-opacity="1" stop-color="rgb(87.879944%, 63.496399%, 74.232483%)" offset="0.9375"/><stop stop-opacity="1" stop-color="rgb(87.779236%, 63.249207%, 74.317932%)" offset="0.945313"/><stop stop-opacity="1" stop-color="rgb(87.677002%, 63.002014%, 74.404907%)" offset="0.953125"/><stop stop-opacity="1" stop-color="rgb(87.574768%, 62.756348%, 74.491882%)" offset="0.960938"/><stop stop-opacity="1" stop-color="rgb(87.47406%, 62.509155%, 74.578857%)" offset="0.96875"/><stop stop-opacity="1" stop-color="rgb(87.371826%, 62.261963%, 74.665833%)" offset="0.976563"/><stop stop-opacity="1" stop-color="rgb(87.269592%, 62.014771%, 74.752808%)" offset="0.984375"/><stop stop-opacity="1" stop-color="rgb(87.158203%, 61.74469%, 74.847412%)" offset="1"/></linearGradient></defs><g clip-path="url(#650a81608b)"><g clip-path="url(#7d596a69c9)"><g clip-path="url(#b2b900d28f)"><g clip-path="url(#6f3e014ecd)"><g clip-path="url(#053119642b)"><path fill="url(#a77bb7aa24)" d="M 714.03125 325.421875 L 243.027344 732.074219 L -159.945312 265.332031 L 311.058594 -141.320312 Z M 714.03125 325.421875 " fill-rule="nonzero"/></g></g></g></g></g><g clip-path="url(#af42054eb8)"><g clip-path="url(#430837db7c)"><path fill="url(#95d7f72cde)" d="M 633.726562 208.507812 L 633.726562 518.960938 L 288.042969 518.960938 L 288.042969 208.507812 Z M 633.726562 208.507812 " fill-rule="nonzero"/></g></g><g fill="#444444" fill-opacity="1"><g transform="translate(93.469146, 341.852687)"><g><path d="M 7.390625 -61.546875 L 54.25 -61.546875 L 54.25 -49.234375 L 20.921875 -49.234375 L 20.921875 -36.140625 L 50.296875 -36.140625 L 50.296875 -23.828125 L 20.921875 -23.828125 L 20.921875 0 L 7.390625 0 Z M 7.390625 -61.546875 "/></g></g></g><g fill="#444444" fill-opacity="1"><g transform="translate(151.14445, 341.852687)"><g><path d="M 7.390625 -61.546875 L 53.8125 -61.546875 L 53.8125 -49.5 L 20.84375 -49.5 L 20.84375 -37.015625 L 49.859375 -37.015625 L 49.859375 -24.96875 L 20.84375 -24.96875 L 20.84375 -12.046875 L 54.25 -12.046875 L 54.25 0 L 7.390625 0 Z M 7.390625 -61.546875 "/></g></g></g><g fill="#444444" fill-opacity="1"><g transform="translate(210.050629, 341.852687)"><g><path d="M 28.484375 -61.984375 L 40.96875 -61.984375 L 67.34375 0 L 53.1875 0 L 47.5625 -13.796875 L 21.546875 -13.796875 L 15.90625 0 L 2.109375 0 Z M 42.734375 -25.765625 L 34.546875 -45.71875 L 26.375 -25.765625 Z M 42.734375 -25.765625 "/></g></g></g><g fill="#444444" fill-opacity="1"><g transform="translate(279.507164, 341.852687)"><g><path d="M 7.390625 -61.546875 L 35.515625 -61.546875 C 43.316406 -61.546875 49.296875 -59.460938 53.453125 -55.296875 C 56.972656 -51.785156 58.734375 -47.097656 58.734375 -41.234375 L 58.734375 -41.0625 C 58.734375 -36.082031 57.515625 -32.019531 55.078125 -28.875 C 52.648438 -25.738281 49.472656 -23.441406 45.546875 -21.984375 L 60.578125 0 L 44.75 0 L 31.5625 -19.6875 L 20.921875 -19.6875 L 20.921875 0 L 7.390625 0 Z M 34.640625 -31.65625 C 37.984375 -31.65625 40.546875 -32.445312 42.328125 -34.03125 C 44.117188 -35.613281 45.015625 -37.722656 45.015625 -40.359375 L 45.015625 -40.53125 C 45.015625 -43.457031 44.078125 -45.65625 42.203125 -47.125 C 40.328125 -48.59375 37.71875 -49.328125 34.375 -49.328125 L 20.921875 -49.328125 L 20.921875 -31.65625 Z M 34.640625 -31.65625 "/></g></g></g><g fill="#444444" fill-opacity="1"><g transform="translate(343.073066, 341.852687)"><g><path d="M 7.390625 -61.546875 L 20.921875 -61.546875 L 20.921875 -12.3125 L 51.609375 -12.3125 L 51.609375 0 L 7.390625 0 Z M 7.390625 -61.546875 "/></g></g></g><g fill="#444444" fill-opacity="1"><g transform="translate(397.495332, 341.852687)"><g><path d="M 7.390625 -61.546875 L 53.8125 -61.546875 L 53.8125 -49.5 L 20.84375 -49.5 L 20.84375 -37.015625 L 49.859375 -37.015625 L 49.859375 -24.96875 L 20.84375 -24.96875 L 20.84375 -12.046875 L 54.25 -12.046875 L 54.25 0 L 7.390625 0 Z M 7.390625 -61.546875 "/></g></g></g><g fill="#444444" fill-opacity="1"><g transform="translate(456.401523, 341.852687)"><g><path d="M 29.28125 0.875 C 24.59375 0.875 19.988281 0.0703125 15.46875 -1.53125 C 10.957031 -3.144531 6.859375 -5.625 3.171875 -8.96875 L 11.171875 -18.546875 C 13.984375 -16.265625 16.867188 -14.445312 19.828125 -13.09375 C 22.785156 -11.75 26.023438 -11.078125 29.546875 -11.078125 C 32.359375 -11.078125 34.539062 -11.585938 36.09375 -12.609375 C 37.644531 -13.640625 38.421875 -15.0625 38.421875 -16.875 L 38.421875 -17.0625 C 38.421875 -17.9375 38.257812 -18.707031 37.9375 -19.375 C 37.613281 -20.050781 37 -20.679688 36.09375 -21.265625 C 35.1875 -21.859375 33.925781 -22.445312 32.3125 -23.03125 C 30.695312 -23.625 28.601562 -24.238281 26.03125 -24.875 C 22.914062 -25.644531 20.097656 -26.5 17.578125 -27.4375 C 15.054688 -28.375 12.914062 -29.53125 11.15625 -30.90625 C 9.40625 -32.28125 8.046875 -33.992188 7.078125 -36.046875 C 6.109375 -38.097656 5.625 -40.648438 5.625 -43.703125 L 5.625 -43.875 C 5.625 -46.6875 6.148438 -49.21875 7.203125 -51.46875 C 8.265625 -53.726562 9.742188 -55.675781 11.640625 -57.3125 C 13.546875 -58.957031 15.816406 -60.21875 18.453125 -61.09375 C 21.097656 -61.976562 24.003906 -62.421875 27.171875 -62.421875 C 31.679688 -62.421875 35.828125 -61.742188 39.609375 -60.390625 C 43.390625 -59.046875 46.863281 -57.113281 50.03125 -54.59375 L 43 -44.40625 C 40.238281 -46.28125 37.539062 -47.757812 34.90625 -48.84375 C 32.269531 -49.925781 29.628906 -50.46875 26.984375 -50.46875 C 24.347656 -50.46875 22.367188 -49.953125 21.046875 -48.921875 C 19.734375 -47.898438 19.078125 -46.628906 19.078125 -45.109375 L 19.078125 -44.921875 C 19.078125 -43.929688 19.265625 -43.066406 19.640625 -42.328125 C 20.023438 -41.597656 20.71875 -40.941406 21.71875 -40.359375 C 22.71875 -39.773438 24.082031 -39.21875 25.8125 -38.6875 C 27.539062 -38.15625 29.722656 -37.539062 32.359375 -36.84375 C 35.460938 -36.019531 38.226562 -35.09375 40.65625 -34.0625 C 43.09375 -33.039062 45.144531 -31.8125 46.8125 -30.375 C 48.488281 -28.9375 49.75 -27.25 50.59375 -25.3125 C 51.445312 -23.382812 51.875 -21.070312 51.875 -18.375 L 51.875 -18.203125 C 51.875 -15.148438 51.316406 -12.4375 50.203125 -10.0625 C 49.085938 -7.6875 47.53125 -5.691406 45.53125 -4.078125 C 43.539062 -2.472656 41.171875 -1.242188 38.421875 -0.390625 C 35.671875 0.453125 32.625 0.875 29.28125 0.875 Z M 29.28125 0.875 "/></g></g></g><g fill="#444444" fill-opacity="1"><g transform="translate(512.670107, 341.852687)"><g><path d="M 29.28125 0.875 C 24.59375 0.875 19.988281 0.0703125 15.46875 -1.53125 C 10.957031 -3.144531 6.859375 -5.625 3.171875 -8.96875 L 11.171875 -18.546875 C 13.984375 -16.265625 16.867188 -14.445312 19.828125 -13.09375 C 22.785156 -11.75 26.023438 -11.078125 29.546875 -11.078125 C 32.359375 -11.078125 34.539062 -11.585938 36.09375 -12.609375 C 37.644531 -13.640625 38.421875 -15.0625 38.421875 -16.875 L 38.421875 -17.0625 C 38.421875 -17.9375 38.257812 -18.707031 37.9375 -19.375 C 37.613281 -20.050781 37 -20.679688 36.09375 -21.265625 C 35.1875 -21.859375 33.925781 -22.445312 32.3125 -23.03125 C 30.695312 -23.625 28.601562 -24.238281 26.03125 -24.875 C 22.914062 -25.644531 20.097656 -26.5 17.578125 -27.4375 C 15.054688 -28.375 12.914062 -29.53125 11.15625 -30.90625 C 9.40625 -32.28125 8.046875 -33.992188 7.078125 -36.046875 C 6.109375 -38.097656 5.625 -40.648438 5.625 -43.703125 L 5.625 -43.875 C 5.625 -46.6875 6.148438 -49.21875 7.203125 -51.46875 C 8.265625 -53.726562 9.742188 -55.675781 11.640625 -57.3125 C 13.546875 -58.957031 15.816406 -60.21875 18.453125 -61.09375 C 21.097656 -61.976562 24.003906 -62.421875 27.171875 -62.421875 C 31.679688 -62.421875 35.828125 -61.742188 39.609375 -60.390625 C 43.390625 -59.046875 46.863281 -57.113281 50.03125 -54.59375 L 43 -44.40625 C 40.238281 -46.28125 37.539062 -47.757812 34.90625 -48.84375 C 32.269531 -49.925781 29.628906 -50.46875 26.984375 -50.46875 C 24.347656 -50.46875 22.367188 -49.953125 21.046875 -48.921875 C 19.734375 -47.898438 19.078125 -46.628906 19.078125 -45.109375 L 19.078125 -44.921875 C 19.078125 -43.929688 19.265625 -43.066406 19.640625 -42.328125 C 20.023438 -41.597656 20.71875 -40.941406 21.71875 -40.359375 C 22.71875 -39.773438 24.082031 -39.21875 25.8125 -38.6875 C 27.539062 -38.15625 29.722656 -37.539062 32.359375 -36.84375 C 35.460938 -36.019531 38.226562 -35.09375 40.65625 -34.0625 C 43.09375 -33.039062 45.144531 -31.8125 46.8125 -30.375 C 48.488281 -28.9375 49.75 -27.25 50.59375 -25.3125 C 51.445312 -23.382812 51.875 -21.070312 51.875 -18.375 L 51.875 -18.203125 C 51.875 -15.148438 51.316406 -12.4375 50.203125 -10.0625 C 49.085938 -7.6875 47.53125 -5.691406 45.53125 -4.078125 C 43.539062 -2.472656 41.171875 -1.242188 38.421875 -0.390625 C 35.671875 0.453125 32.625 0.875 29.28125 0.875 Z M 29.28125 0.875 "/></g></g></g><g fill="#444444" fill-opacity="1"><g transform="translate(172.403632, 412.741065)"><g><path d="M 13.609375 0.359375 C 11.316406 0.359375 9.296875 -0.101562 7.546875 -1.03125 C 5.804688 -1.96875 4.441406 -3.394531 3.453125 -5.3125 C 2.460938 -7.238281 1.96875 -9.628906 1.96875 -12.484375 C 1.96875 -15.335938 2.460938 -17.722656 3.453125 -19.640625 C 4.441406 -21.554688 5.804688 -22.984375 7.546875 -23.921875 C 9.296875 -24.859375 11.316406 -25.328125 13.609375 -25.328125 C 15.898438 -25.328125 17.914062 -24.859375 19.65625 -23.921875 C 21.394531 -22.992188 22.753906 -21.566406 23.734375 -19.640625 C 24.722656 -17.722656 25.21875 -15.335938 25.21875 -12.484375 C 25.21875 -9.628906 24.722656 -7.238281 23.734375 -5.3125 C 22.753906 -3.382812 21.394531 -1.957031 19.65625 -1.03125 C 17.914062 -0.101562 15.898438 0.359375 13.609375 0.359375 Z M 13.609375 -3.921875 C 15.722656 -3.921875 17.335938 -4.601562 18.453125 -5.96875 C 19.566406 -7.332031 20.125 -9.503906 20.125 -12.484375 C 20.125 -15.460938 19.566406 -17.632812 18.453125 -19 C 17.335938 -20.363281 15.722656 -21.046875 13.609375 -21.046875 C 11.484375 -21.046875 9.859375 -20.363281 8.734375 -19 C 7.609375 -17.632812 7.046875 -15.460938 7.046875 -12.484375 C 7.046875 -9.503906 7.609375 -7.332031 8.734375 -5.96875 C 9.859375 -4.601562 11.484375 -3.921875 13.609375 -3.921875 Z M 13.609375 -3.921875 "/></g></g></g><g fill="#444444" fill-opacity="1"><g transform="translate(199.598026, 412.741065)"><g><path d="M 2.71875 0 L 2.71875 -18.828125 L 7.3125 -18.828125 L 7.3125 -16.03125 L 7.671875 -15.96875 C 8.117188 -17.007812 8.710938 -17.773438 9.453125 -18.265625 C 10.191406 -18.753906 11.09375 -19 12.15625 -19 C 13.226562 -19 14.039062 -18.816406 14.59375 -18.453125 L 13.796875 -14.375 L 13.4375 -14.3125 C 13.132812 -14.4375 12.835938 -14.523438 12.546875 -14.578125 C 12.265625 -14.640625 11.921875 -14.671875 11.515625 -14.671875 C 10.191406 -14.671875 9.179688 -14.207031 8.484375 -13.28125 C 7.785156 -12.351562 7.4375 -10.863281 7.4375 -8.8125 L 7.4375 0 Z M 2.71875 0 "/></g></g></g><g fill="#444444" fill-opacity="1"><g transform="translate(214.364598, 412.741065)"><g><path d="M 9.3125 0.359375 C 7.8125 0.359375 6.488281 0 5.34375 -0.71875 C 4.207031 -1.445312 3.3125 -2.539062 2.65625 -4 C 2.007812 -5.46875 1.6875 -7.269531 1.6875 -9.40625 C 1.6875 -11.5625 2.019531 -13.367188 2.6875 -14.828125 C 3.351562 -16.285156 4.273438 -17.375 5.453125 -18.09375 C 6.628906 -18.820312 7.992188 -19.1875 9.546875 -19.1875 C 10.710938 -19.1875 11.722656 -18.984375 12.578125 -18.578125 C 13.441406 -18.179688 14.171875 -17.554688 14.765625 -16.703125 L 15.125 -16.78125 L 15.125 -26.390625 L 19.859375 -26.390625 L 19.859375 0 L 15.125 0 L 15.125 -2.4375 L 14.765625 -2.515625 C 14.242188 -1.617188 13.523438 -0.914062 12.609375 -0.40625 C 11.703125 0.101562 10.601562 0.359375 9.3125 0.359375 Z M 10.84375 -3.65625 C 12.175781 -3.65625 13.226562 -4.128906 14 -5.078125 C 14.769531 -6.023438 15.15625 -7.46875 15.15625 -9.40625 C 15.15625 -11.34375 14.769531 -12.785156 14 -13.734375 C 13.226562 -14.691406 12.175781 -15.171875 10.84375 -15.171875 C 9.457031 -15.171875 8.394531 -14.707031 7.65625 -13.78125 C 6.925781 -12.851562 6.5625 -11.394531 6.5625 -9.40625 C 6.5625 -7.425781 6.925781 -5.972656 7.65625 -5.046875 C 8.394531 -4.117188 9.457031 -3.65625 10.84375 -3.65625 Z M 10.84375 -3.65625 "/></g></g></g><g fill="#444444" fill-opacity="1"><g transform="translate(236.932702, 412.741065)"><g><path d="M 18.609375 -8.34375 L 6.5 -8.34375 C 6.632812 -6.707031 7.097656 -5.515625 7.890625 -4.765625 C 8.691406 -4.023438 9.785156 -3.65625 11.171875 -3.65625 C 12.242188 -3.65625 13.113281 -3.851562 13.78125 -4.25 C 14.457031 -4.65625 15.003906 -5.269531 15.421875 -6.09375 L 15.78125 -6.09375 L 18.921875 -4.078125 C 18.304688 -2.753906 17.378906 -1.679688 16.140625 -0.859375 C 14.898438 -0.046875 13.242188 0.359375 11.171875 0.359375 C 9.222656 0.359375 7.539062 -0.0078125 6.125 -0.75 C 4.707031 -1.488281 3.613281 -2.585938 2.84375 -4.046875 C 2.070312 -5.515625 1.6875 -7.300781 1.6875 -9.40625 C 1.6875 -11.550781 2.085938 -13.351562 2.890625 -14.8125 C 3.703125 -16.28125 4.796875 -17.375 6.171875 -18.09375 C 7.554688 -18.820312 9.109375 -19.1875 10.828125 -19.1875 C 13.492188 -19.1875 15.535156 -18.476562 16.953125 -17.0625 C 18.367188 -15.65625 19.078125 -13.585938 19.078125 -10.859375 C 19.078125 -9.867188 19.039062 -9.097656 18.96875 -8.546875 Z M 14.546875 -11.40625 C 14.503906 -12.84375 14.171875 -13.882812 13.546875 -14.53125 C 12.929688 -15.1875 12.023438 -15.515625 10.828125 -15.515625 C 8.429688 -15.515625 7.023438 -14.144531 6.609375 -11.40625 Z M 14.546875 -11.40625 "/></g></g></g><g fill="#444444" fill-opacity="1"><g transform="translate(257.401049, 412.741065)"><g><path d="M 2.71875 0 L 2.71875 -18.828125 L 7.3125 -18.828125 L 7.3125 -16.03125 L 7.671875 -15.96875 C 8.117188 -17.007812 8.710938 -17.773438 9.453125 -18.265625 C 10.191406 -18.753906 11.09375 -19 12.15625 -19 C 13.226562 -19 14.039062 -18.816406 14.59375 -18.453125 L 13.796875 -14.375 L 13.4375 -14.3125 C 13.132812 -14.4375 12.835938 -14.523438 12.546875 -14.578125 C 12.265625 -14.640625 11.921875 -14.671875 11.515625 -14.671875 C 10.191406 -14.671875 9.179688 -14.207031 8.484375 -13.28125 C 7.785156 -12.351562 7.4375 -10.863281 7.4375 -8.8125 L 7.4375 0 Z M 2.71875 0 "/></g></g></g><g fill="#444444" fill-opacity="1"><g transform="translate(272.167622, 412.741065)"><g/></g></g><g fill="#444444" fill-opacity="1"><g transform="translate(280.413003, 412.741065)"><g><path d="M 10.109375 0 L 5.15625 0 L 0.6875 -18.828125 L 5.078125 -18.828125 L 7.84375 -6.09375 L 8.203125 -6.09375 L 11.78125 -18.828125 L 15.875 -18.828125 L 19.578125 -6.09375 L 19.9375 -6.09375 L 22.609375 -18.828125 L 26.875 -18.828125 L 22.453125 0 L 17.484375 0 L 13.921875 -12.828125 L 13.5625 -12.828125 Z M 10.109375 0 "/></g></g></g><g fill="#444444" fill-opacity="1"><g transform="translate(307.94882, 412.741065)"><g><path d="M 5.078125 -21.09375 C 4.222656 -21.09375 3.523438 -21.347656 2.984375 -21.859375 C 2.453125 -22.378906 2.1875 -23.050781 2.1875 -23.875 C 2.1875 -24.675781 2.453125 -25.335938 2.984375 -25.859375 C 3.523438 -26.378906 4.222656 -26.640625 5.078125 -26.640625 C 5.640625 -26.640625 6.140625 -26.519531 6.578125 -26.28125 C 7.023438 -26.039062 7.367188 -25.710938 7.609375 -25.296875 C 7.859375 -24.878906 7.984375 -24.40625 7.984375 -23.875 C 7.984375 -23.332031 7.859375 -22.847656 7.609375 -22.421875 C 7.367188 -22.003906 7.023438 -21.675781 6.578125 -21.4375 C 6.140625 -21.207031 5.640625 -21.09375 5.078125 -21.09375 Z M 2.71875 0 L 2.71875 -18.828125 L 7.4375 -18.828125 L 7.4375 0 Z M 2.71875 0 "/></g></g></g><g fill="#444444" fill-opacity="1"><g transform="translate(318.089102, 412.741065)"><g><path d="M 13 -4.484375 L 14.21875 -0.984375 C 13.707031 -0.566406 13.0625 -0.238281 12.28125 0 C 11.507812 0.238281 10.640625 0.359375 9.671875 0.359375 C 7.628906 0.359375 6.078125 -0.191406 5.015625 -1.296875 C 3.960938 -2.410156 3.4375 -4.023438 3.4375 -6.140625 L 3.4375 -15.09375 L 0.5625 -15.09375 L 0.5625 -18.84375 L 3.4375 -18.84375 L 3.4375 -22.515625 L 8.15625 -23.296875 L 8.15625 -18.84375 L 13.5 -18.84375 L 13.5 -15.09375 L 8.15625 -15.09375 L 8.15625 -6.484375 C 8.15625 -5.554688 8.347656 -4.878906 8.734375 -4.453125 C 9.128906 -4.023438 9.695312 -3.8125 10.4375 -3.8125 C 11.28125 -3.8125 12.015625 -4.035156 12.640625 -4.484375 Z M 13 -4.484375 "/></g></g></g><g fill="#444444" fill-opacity="1"><g transform="translate(332.719106, 412.741065)"><g><path d="M 2.71875 0 L 2.71875 -26.390625 L 7.4375 -26.390625 L 7.4375 -16.375 L 7.796875 -16.3125 C 8.429688 -17.226562 9.203125 -17.9375 10.109375 -18.4375 C 11.015625 -18.9375 12.113281 -19.1875 13.40625 -19.1875 C 17.5625 -19.1875 19.640625 -16.832031 19.640625 -12.125 L 19.640625 0 L 14.90625 0 L 14.90625 -11.53125 C 14.90625 -12.8125 14.648438 -13.742188 14.140625 -14.328125 C 13.628906 -14.910156 12.832031 -15.203125 11.75 -15.203125 C 10.425781 -15.203125 9.375 -14.757812 8.59375 -13.875 C 7.820312 -12.988281 7.4375 -11.613281 7.4375 -9.75 L 7.4375 0 Z M 2.71875 0 "/></g></g></g><g fill="#444444" fill-opacity="1"><g transform="translate(354.775074, 412.741065)"><g><path d="M 10.9375 0.359375 C 9.09375 0.359375 7.472656 -0.015625 6.078125 -0.765625 C 4.691406 -1.523438 3.613281 -2.632812 2.84375 -4.09375 C 2.070312 -5.5625 1.6875 -7.332031 1.6875 -9.40625 C 1.6875 -11.476562 2.070312 -13.25 2.84375 -14.71875 C 3.613281 -16.1875 4.691406 -17.296875 6.078125 -18.046875 C 7.472656 -18.804688 9.09375 -19.1875 10.9375 -19.1875 C 12.78125 -19.1875 14.398438 -18.804688 15.796875 -18.046875 C 17.191406 -17.296875 18.273438 -16.1875 19.046875 -14.71875 C 19.828125 -13.25 20.21875 -11.476562 20.21875 -9.40625 C 20.21875 -7.332031 19.828125 -5.5625 19.046875 -4.09375 C 18.273438 -2.632812 17.191406 -1.523438 15.796875 -0.765625 C 14.398438 -0.015625 12.78125 0.359375 10.9375 0.359375 Z M 10.9375 -3.65625 C 13.863281 -3.65625 15.328125 -5.570312 15.328125 -9.40625 C 15.328125 -11.394531 14.953125 -12.851562 14.203125 -13.78125 C 13.453125 -14.707031 12.363281 -15.171875 10.9375 -15.171875 C 8.019531 -15.171875 6.5625 -13.25 6.5625 -9.40625 C 6.5625 -5.570312 8.019531 -3.65625 10.9375 -3.65625 Z M 10.9375 -3.65625 "/></g></g></g><g fill="#444444" fill-opacity="1"><g transform="translate(376.660318, 412.741065)"><g><path d="M 8.625 0.359375 C 6.507812 0.359375 4.945312 -0.21875 3.9375 -1.375 C 2.925781 -2.53125 2.421875 -4.191406 2.421875 -6.359375 L 2.421875 -18.828125 L 7.15625 -18.828125 L 7.15625 -6.953125 C 7.15625 -5.796875 7.398438 -4.953125 7.890625 -4.421875 C 8.390625 -3.898438 9.15625 -3.640625 10.1875 -3.640625 C 11.5 -3.640625 12.519531 -4.066406 13.25 -4.921875 C 13.976562 -5.785156 14.34375 -7.140625 14.34375 -8.984375 L 14.34375 -18.828125 L 19.078125 -18.828125 L 19.078125 0 L 14.53125 0 L 14.53125 -2.765625 L 14.171875 -2.84375 C 13.566406 -1.769531 12.828125 -0.96875 11.953125 -0.4375 C 11.085938 0.09375 9.976562 0.359375 8.625 0.359375 Z M 8.625 0.359375 "/></g></g></g><g fill="#444444" fill-opacity="1"><g transform="translate(398.443147, 412.741065)"><g><path d="M 13 -4.484375 L 14.21875 -0.984375 C 13.707031 -0.566406 13.0625 -0.238281 12.28125 0 C 11.507812 0.238281 10.640625 0.359375 9.671875 0.359375 C 7.628906 0.359375 6.078125 -0.191406 5.015625 -1.296875 C 3.960938 -2.410156 3.4375 -4.023438 3.4375 -6.140625 L 3.4375 -15.09375 L 0.5625 -15.09375 L 0.5625 -18.84375 L 3.4375 -18.84375 L 3.4375 -22.515625 L 8.15625 -23.296875 L 8.15625 -18.84375 L 13.5 -18.84375 L 13.5 -15.09375 L 8.15625 -15.09375 L 8.15625 -6.484375 C 8.15625 -5.554688 8.347656 -4.878906 8.734375 -4.453125 C 9.128906 -4.023438 9.695312 -3.8125 10.4375 -3.8125 C 11.28125 -3.8125 12.015625 -4.035156 12.640625 -4.484375 Z M 13 -4.484375 "/></g></g></g><g fill="#444444" fill-opacity="1"><g transform="translate(413.073139, 412.741065)"><g/></g></g><g fill="#444444" fill-opacity="1"><g transform="translate(421.318532, 412.741065)"><g><path d="M 3.296875 0 L 3.296875 -15.09375 L 0.625 -15.09375 L 0.625 -18.84375 L 3.296875 -18.84375 C 3.097656 -19.644531 3 -20.394531 3 -21.09375 C 3 -22.28125 3.269531 -23.296875 3.8125 -24.140625 C 4.363281 -24.992188 5.148438 -25.640625 6.171875 -26.078125 C 7.203125 -26.523438 8.421875 -26.75 9.828125 -26.75 C 11.910156 -26.75 13.46875 -26.394531 14.5 -25.6875 L 13.390625 -22.203125 L 13.03125 -22.125 C 12.320312 -22.625 11.414062 -22.875 10.3125 -22.875 C 9.457031 -22.875 8.816406 -22.664062 8.390625 -22.25 C 7.960938 -21.84375 7.75 -21.28125 7.75 -20.5625 C 7.75 -20.25 7.769531 -19.960938 7.8125 -19.703125 C 7.851562 -19.453125 7.925781 -19.164062 8.03125 -18.84375 L 13.40625 -18.84375 L 13.40625 -15.09375 L 8.03125 -15.09375 L 8.03125 0 Z M 3.296875 0 "/></g></g></g><g fill="#444444" fill-opacity="1"><g transform="translate(434.907193, 412.741065)"><g><path d="M 18.609375 -8.34375 L 6.5 -8.34375 C 6.632812 -6.707031 7.097656 -5.515625 7.890625 -4.765625 C 8.691406 -4.023438 9.785156 -3.65625 11.171875 -3.65625 C 12.242188 -3.65625 13.113281 -3.851562 13.78125 -4.25 C 14.457031 -4.65625 15.003906 -5.269531 15.421875 -6.09375 L 15.78125 -6.09375 L 18.921875 -4.078125 C 18.304688 -2.753906 17.378906 -1.679688 16.140625 -0.859375 C 14.898438 -0.046875 13.242188 0.359375 11.171875 0.359375 C 9.222656 0.359375 7.539062 -0.0078125 6.125 -0.75 C 4.707031 -1.488281 3.613281 -2.585938 2.84375 -4.046875 C 2.070312 -5.515625 1.6875 -7.300781 1.6875 -9.40625 C 1.6875 -11.550781 2.085938 -13.351562 2.890625 -14.8125 C 3.703125 -16.28125 4.796875 -17.375 6.171875 -18.09375 C 7.554688 -18.820312 9.109375 -19.1875 10.828125 -19.1875 C 13.492188 -19.1875 15.535156 -18.476562 16.953125 -17.0625 C 18.367188 -15.65625 19.078125 -13.585938 19.078125 -10.859375 C 19.078125 -9.867188 19.039062 -9.097656 18.96875 -8.546875 Z M 14.546875 -11.40625 C 14.503906 -12.84375 14.171875 -13.882812 13.546875 -14.53125 C 12.929688 -15.1875 12.023438 -15.515625 10.828125 -15.515625 C 8.429688 -15.515625 7.023438 -14.144531 6.609375 -11.40625 Z M 14.546875 -11.40625 "/></g></g></g><g fill="#444444" fill-opacity="1"><g transform="translate(455.375552, 412.741065)"><g><path d="M 7.34375 0.359375 C 6.132812 0.359375 5.085938 0.140625 4.203125 -0.296875 C 3.316406 -0.742188 2.632812 -1.394531 2.15625 -2.25 C 1.675781 -3.113281 1.4375 -4.148438 1.4375 -5.359375 C 1.4375 -6.472656 1.675781 -7.410156 2.15625 -8.171875 C 2.632812 -8.929688 3.375 -9.550781 4.375 -10.03125 C 5.375 -10.507812 6.679688 -10.882812 8.296875 -11.15625 C 9.421875 -11.332031 10.273438 -11.53125 10.859375 -11.75 C 11.453125 -11.96875 11.847656 -12.210938 12.046875 -12.484375 C 12.253906 -12.753906 12.359375 -13.097656 12.359375 -13.515625 C 12.359375 -14.117188 12.144531 -14.582031 11.71875 -14.90625 C 11.300781 -15.226562 10.601562 -15.390625 9.625 -15.390625 C 8.582031 -15.390625 7.585938 -15.15625 6.640625 -14.6875 C 5.691406 -14.21875 4.875 -13.601562 4.1875 -12.84375 L 3.84375 -12.84375 L 1.859375 -15.828125 C 2.816406 -16.890625 3.984375 -17.710938 5.359375 -18.296875 C 6.734375 -18.890625 8.238281 -19.1875 9.875 -19.1875 C 12.363281 -19.1875 14.164062 -18.65625 15.28125 -17.59375 C 16.394531 -16.539062 16.953125 -15.039062 16.953125 -13.09375 L 16.953125 -4.921875 C 16.953125 -4.078125 17.320312 -3.65625 18.0625 -3.65625 C 18.34375 -3.65625 18.625 -3.707031 18.90625 -3.8125 L 19.140625 -3.734375 L 19.484375 -0.4375 C 19.222656 -0.269531 18.859375 -0.128906 18.390625 -0.015625 C 17.921875 0.0859375 17.410156 0.140625 16.859375 0.140625 C 15.722656 0.140625 14.835938 -0.0703125 14.203125 -0.5 C 13.578125 -0.9375 13.128906 -1.617188 12.859375 -2.546875 L 12.5 -2.578125 C 11.570312 -0.617188 9.851562 0.359375 7.34375 0.359375 Z M 8.84375 -3.171875 C 9.9375 -3.171875 10.8125 -3.535156 11.46875 -4.265625 C 12.125 -5.003906 12.453125 -6.03125 12.453125 -7.34375 L 12.453125 -9.25 L 12.125 -9.328125 C 11.84375 -9.097656 11.46875 -8.90625 11 -8.75 C 10.539062 -8.59375 9.878906 -8.441406 9.015625 -8.296875 C 7.992188 -8.128906 7.253906 -7.835938 6.796875 -7.421875 C 6.347656 -7.003906 6.125 -6.414062 6.125 -5.65625 C 6.125 -4.84375 6.363281 -4.222656 6.84375 -3.796875 C 7.320312 -3.378906 7.988281 -3.171875 8.84375 -3.171875 Z M 8.84375 -3.171875 "/></g></g></g><g fill="#444444" fill-opacity="1"><g transform="translate(475.229348, 412.741065)"><g><path d="M 2.71875 0 L 2.71875 -18.828125 L 7.3125 -18.828125 L 7.3125 -16.03125 L 7.671875 -15.96875 C 8.117188 -17.007812 8.710938 -17.773438 9.453125 -18.265625 C 10.191406 -18.753906 11.09375 -19 12.15625 -19 C 13.226562 -19 14.039062 -18.816406 14.59375 -18.453125 L 13.796875 -14.375 L 13.4375 -14.3125 C 13.132812 -14.4375 12.835938 -14.523438 12.546875 -14.578125 C 12.265625 -14.640625 11.921875 -14.671875 11.515625 -14.671875 C 10.191406 -14.671875 9.179688 -14.207031 8.484375 -13.28125 C 7.785156 -12.351562 7.4375 -10.863281 7.4375 -8.8125 L 7.4375 0 Z M 2.71875 0 "/></g></g></g></svg>