<svg xmlns="http://www.w3.org/2000/svg" xmlns:xlink="http://www.w3.org/1999/xlink" width="240" zoomAndPan="magnify" viewBox="0 0 180 48" height="64" preserveAspectRatio="xMidYMid meet" version="1.0"><defs><g/></defs><g fill="#444444" fill-opacity="1"><g transform="translate(4.788129, 35.955921)"><g><path d="M 12.640625 -27.515625 L 18.1875 -27.515625 L 29.890625 0 L 23.609375 0 L 21.109375 -6.125 L 9.5625 -6.125 L 7.0625 0 L 0.9375 0 Z M 18.96875 -11.4375 L 15.34375 -20.296875 L 11.703125 -11.4375 Z M 18.96875 -11.4375 "/></g></g></g><g fill="#444444" fill-opacity="1"><g transform="translate(41.478862, 35.955921)"><g><path d="M 3.28125 -27.328125 L 15.96875 -27.328125 C 19.113281 -27.328125 21.492188 -26.519531 23.109375 -24.90625 C 24.359375 -23.65625 24.984375 -22.101562 24.984375 -20.25 L 24.984375 -20.171875 C 24.984375 -19.398438 24.882812 -18.710938 24.6875 -18.109375 C 24.488281 -17.515625 24.226562 -16.972656 23.90625 -16.484375 C 23.582031 -16.003906 23.203125 -15.582031 22.765625 -15.21875 C 22.335938 -14.851562 21.878906 -14.539062 21.390625 -14.28125 C 22.972656 -13.6875 24.21875 -12.875 25.125 -11.84375 C 26.039062 -10.8125 26.5 -9.390625 26.5 -7.578125 L 26.5 -7.5 C 26.5 -6.25 26.257812 -5.15625 25.78125 -4.21875 C 25.300781 -3.28125 24.609375 -2.5 23.703125 -1.875 C 22.804688 -1.25 21.726562 -0.78125 20.46875 -0.46875 C 19.207031 -0.15625 17.8125 0 16.28125 0 L 3.28125 0 Z M 19.015625 -19.25 C 19.015625 -20.15625 18.675781 -20.847656 18 -21.328125 C 17.320312 -21.804688 16.34375 -22.046875 15.0625 -22.046875 L 9.140625 -22.046875 L 9.140625 -16.28125 L 14.671875 -16.28125 C 16.003906 -16.28125 17.0625 -16.503906 17.84375 -16.953125 C 18.625 -17.410156 19.015625 -18.148438 19.015625 -19.171875 Z M 20.53125 -8.3125 C 20.53125 -9.226562 20.175781 -9.953125 19.46875 -10.484375 C 18.769531 -11.015625 17.640625 -11.28125 16.078125 -11.28125 L 9.140625 -11.28125 L 9.140625 -5.265625 L 16.28125 -5.265625 C 17.601562 -5.265625 18.640625 -5.503906 19.390625 -5.984375 C 20.148438 -6.472656 20.53125 -7.222656 20.53125 -8.234375 Z M 20.53125 -8.3125 "/></g></g></g><g fill="#444444" fill-opacity="1"><g transform="translate(75.515549, 35.955921)"><g><path d="M 16.546875 0.46875 C 14.441406 0.46875 12.503906 0.0976562 10.734375 -0.640625 C 8.960938 -1.378906 7.429688 -2.378906 6.140625 -3.640625 C 4.859375 -4.910156 3.859375 -6.394531 3.140625 -8.09375 C 2.421875 -9.800781 2.0625 -11.628906 2.0625 -13.578125 L 2.0625 -13.65625 C 2.0625 -15.613281 2.425781 -17.441406 3.15625 -19.140625 C 3.882812 -20.847656 4.894531 -22.34375 6.1875 -23.625 C 7.476562 -24.914062 9.015625 -25.929688 10.796875 -26.671875 C 12.578125 -27.421875 14.519531 -27.796875 16.625 -27.796875 C 18.726562 -27.796875 20.664062 -27.421875 22.4375 -26.671875 C 24.207031 -25.929688 25.738281 -24.929688 27.03125 -23.671875 C 28.320312 -22.410156 29.320312 -20.925781 30.03125 -19.21875 C 30.75 -17.519531 31.109375 -15.691406 31.109375 -13.734375 L 31.109375 -13.65625 C 31.109375 -11.707031 30.742188 -9.878906 30.015625 -8.171875 C 29.285156 -6.472656 28.273438 -4.976562 26.984375 -3.6875 C 25.703125 -2.394531 24.164062 -1.378906 22.375 -0.640625 C 20.59375 0.0976562 18.648438 0.46875 16.546875 0.46875 Z M 16.625 -5.078125 C 17.820312 -5.078125 18.925781 -5.296875 19.9375 -5.734375 C 20.957031 -6.179688 21.820312 -6.796875 22.53125 -7.578125 C 23.25 -8.359375 23.8125 -9.257812 24.21875 -10.28125 C 24.625 -11.3125 24.828125 -12.410156 24.828125 -13.578125 L 24.828125 -13.65625 C 24.828125 -14.832031 24.625 -15.941406 24.21875 -16.984375 C 23.8125 -18.023438 23.238281 -18.929688 22.5 -19.703125 C 21.757812 -20.484375 20.878906 -21.101562 19.859375 -21.5625 C 18.847656 -22.019531 17.742188 -22.25 16.546875 -22.25 C 15.328125 -22.25 14.210938 -22.023438 13.203125 -21.578125 C 12.203125 -21.140625 11.34375 -20.53125 10.625 -19.75 C 9.914062 -18.96875 9.359375 -18.0625 8.953125 -17.03125 C 8.554688 -16.007812 8.359375 -14.910156 8.359375 -13.734375 L 8.359375 -13.65625 C 8.359375 -12.488281 8.554688 -11.382812 8.953125 -10.34375 C 9.359375 -9.300781 9.929688 -8.390625 10.671875 -7.609375 C 11.410156 -6.828125 12.28125 -6.207031 13.28125 -5.75 C 14.289062 -5.300781 15.40625 -5.078125 16.625 -5.078125 Z M 16.625 -5.078125 "/></g></g></g><g fill="#444444" fill-opacity="1"><g transform="translate(114.548079, 35.955921)"><g><path d="M 14.671875 0.421875 C 11.003906 0.421875 8.113281 -0.585938 6 -2.609375 C 3.894531 -4.640625 2.84375 -7.671875 2.84375 -11.703125 L 2.84375 -27.328125 L 8.859375 -27.328125 L 8.859375 -11.859375 C 8.859375 -9.628906 9.378906 -7.945312 10.421875 -6.8125 C 11.460938 -5.675781 12.90625 -5.109375 14.75 -5.109375 C 16.601562 -5.109375 18.046875 -5.65625 19.078125 -6.75 C 20.117188 -7.84375 20.640625 -9.484375 20.640625 -11.671875 L 20.640625 -27.328125 L 26.65625 -27.328125 L 26.65625 -11.90625 C 26.65625 -9.820312 26.375 -8.007812 25.8125 -6.46875 C 25.257812 -4.9375 24.460938 -3.65625 23.421875 -2.625 C 22.378906 -1.601562 21.113281 -0.835938 19.625 -0.328125 C 18.144531 0.171875 16.492188 0.421875 14.671875 0.421875 Z M 14.671875 0.421875 "/></g></g></g><g fill="#444444" fill-opacity="1"><g transform="translate(149.911786, 35.955921)"><g><path d="M 9.640625 -21.78125 L 1.328125 -21.78125 L 1.328125 -27.328125 L 23.96875 -27.328125 L 23.96875 -21.78125 L 15.65625 -21.78125 L 15.65625 0 L 9.640625 0 Z M 9.640625 -21.78125 "/></g></g></g></svg>