<svg xmlns="http://www.w3.org/2000/svg" xmlns:xlink="http://www.w3.org/1999/xlink" width="874" zoomAndPan="magnify" viewBox="0 0 655.5 48" height="64" preserveAspectRatio="xMidYMid meet" version="1.0"><defs><g/></defs><g fill="#444444" fill-opacity="1"><g transform="translate(6.512731, 35.996072)"><g><path d="M 12.6875 -27.609375 L 18.25 -27.609375 L 30 0 L 23.6875 0 L 21.1875 -6.140625 L 9.59375 -6.140625 L 7.09375 0 L 0.9375 0 Z M 19.03125 -11.46875 L 15.390625 -20.359375 L 11.75 -11.46875 Z M 19.03125 -11.46875 "/></g></g></g><g fill="#444444" fill-opacity="1"><g transform="translate(37.4459, 35.996072)"><g><path d="M 3.296875 -27.40625 L 9.3125 -27.40625 L 9.3125 -5.484375 L 22.984375 -5.484375 L 22.984375 0 L 3.296875 0 Z M 3.296875 -27.40625 "/></g></g></g><g fill="#444444" fill-opacity="1"><g transform="translate(61.683395, 35.996072)"><g><path d="M 3.296875 -27.40625 L 15.8125 -27.40625 C 19.289062 -27.40625 21.957031 -26.476562 23.8125 -24.625 C 25.375 -23.0625 26.15625 -20.972656 26.15625 -18.359375 L 26.15625 -18.28125 C 26.15625 -16.0625 25.613281 -14.253906 24.53125 -12.859375 C 23.445312 -11.460938 22.03125 -10.4375 20.28125 -9.78125 L 26.984375 0 L 19.9375 0 L 14.0625 -8.765625 L 9.3125 -8.765625 L 9.3125 0 L 3.296875 0 Z M 15.421875 -14.09375 C 16.910156 -14.09375 18.050781 -14.441406 18.84375 -15.140625 C 19.644531 -15.847656 20.046875 -16.789062 20.046875 -17.96875 L 20.046875 -18.046875 C 20.046875 -19.359375 19.628906 -20.335938 18.796875 -20.984375 C 17.960938 -21.640625 16.800781 -21.96875 15.3125 -21.96875 L 9.3125 -21.96875 L 9.3125 -14.09375 Z M 15.421875 -14.09375 "/></g></g></g><g fill="#444444" fill-opacity="1"><g transform="translate(89.993115, 35.996072)"><g><path d="M 3.296875 -27.40625 L 23.96875 -27.40625 L 23.96875 -22.046875 L 9.28125 -22.046875 L 9.28125 -16.484375 L 22.203125 -16.484375 L 22.203125 -11.125 L 9.28125 -11.125 L 9.28125 -5.359375 L 24.15625 -5.359375 L 24.15625 0 L 3.296875 0 Z M 3.296875 -27.40625 "/></g></g></g><g fill="#444444" fill-opacity="1"><g transform="translate(116.227564, 35.996072)"><g><path d="M 12.6875 -27.609375 L 18.25 -27.609375 L 30 0 L 23.6875 0 L 21.1875 -6.140625 L 9.59375 -6.140625 L 7.09375 0 L 0.9375 0 Z M 19.03125 -11.46875 L 15.390625 -20.359375 L 11.75 -11.46875 Z M 19.03125 -11.46875 "/></g></g></g><g fill="#444444" fill-opacity="1"><g transform="translate(147.160733, 35.996072)"><g><path d="M 3.296875 -27.40625 L 13.984375 -27.40625 C 16.117188 -27.40625 18.078125 -27.054688 19.859375 -26.359375 C 21.648438 -25.671875 23.191406 -24.710938 24.484375 -23.484375 C 25.785156 -22.265625 26.785156 -20.828125 27.484375 -19.171875 C 28.191406 -17.515625 28.546875 -15.71875 28.546875 -13.78125 L 28.546875 -13.703125 C 28.546875 -11.773438 28.191406 -9.972656 27.484375 -8.296875 C 26.785156 -6.628906 25.785156 -5.179688 24.484375 -3.953125 C 23.191406 -2.722656 21.648438 -1.753906 19.859375 -1.046875 C 18.078125 -0.347656 16.117188 0 13.984375 0 L 3.296875 0 Z M 9.3125 -21.96875 L 9.3125 -5.4375 L 13.984375 -5.4375 C 15.203125 -5.4375 16.320312 -5.632812 17.34375 -6.03125 C 18.363281 -6.425781 19.234375 -6.988281 19.953125 -7.71875 C 20.671875 -8.445312 21.226562 -9.304688 21.625 -10.296875 C 22.03125 -11.285156 22.234375 -12.394531 22.234375 -13.625 L 22.234375 -13.703125 C 22.234375 -14.898438 22.03125 -16.007812 21.625 -17.03125 C 21.226562 -18.050781 20.671875 -18.925781 19.953125 -19.65625 C 19.234375 -20.382812 18.363281 -20.953125 17.34375 -21.359375 C 16.320312 -21.765625 15.203125 -21.96875 13.984375 -21.96875 Z M 9.3125 -21.96875 "/></g></g></g><g fill="#444444" fill-opacity="1"><g transform="translate(177.780644, 35.996072)"><g><path d="M 11 -10.8125 L 0.46875 -27.40625 L 7.515625 -27.40625 L 14.0625 -16.40625 L 20.71875 -27.40625 L 27.5625 -27.40625 L 17.03125 -10.921875 L 17.03125 0 L 11 0 Z M 11 -10.8125 "/></g></g></g><g fill="#444444" fill-opacity="1"><g transform="translate(205.816262, 35.996072)"><g/></g></g><g fill="#444444" fill-opacity="1"><g transform="translate(217.563027, 35.996072)"><g><path d="M 3.296875 -27.40625 L 9.3125 -27.40625 L 9.3125 -16.5625 L 20.4375 -16.5625 L 20.4375 -27.40625 L 26.46875 -27.40625 L 26.46875 0 L 20.4375 0 L 20.4375 -11 L 9.3125 -11 L 9.3125 0 L 3.296875 0 Z M 3.296875 -27.40625 "/></g></g></g><g fill="#444444" fill-opacity="1"><g transform="translate(247.321521, 35.996072)"><g><path d="M 12.6875 -27.609375 L 18.25 -27.609375 L 30 0 L 23.6875 0 L 21.1875 -6.140625 L 9.59375 -6.140625 L 7.09375 0 L 0.9375 0 Z M 19.03125 -11.46875 L 15.390625 -20.359375 L 11.75 -11.46875 Z M 19.03125 -11.46875 "/></g></g></g><g fill="#444444" fill-opacity="1"><g transform="translate(278.25469, 35.996072)"><g><path d="M 0.9375 -27.40625 L 7.59375 -27.40625 L 14.765625 -8.109375 L 21.921875 -27.40625 L 28.421875 -27.40625 L 17.34375 0.203125 L 12.015625 0.203125 Z M 0.9375 -27.40625 "/></g></g></g><g fill="#444444" fill-opacity="1"><g transform="translate(307.621612, 35.996072)"><g><path d="M 3.296875 -27.40625 L 23.96875 -27.40625 L 23.96875 -22.046875 L 9.28125 -22.046875 L 9.28125 -16.484375 L 22.203125 -16.484375 L 22.203125 -11.125 L 9.28125 -11.125 L 9.28125 -5.359375 L 24.15625 -5.359375 L 24.15625 0 L 3.296875 0 Z M 3.296875 -27.40625 "/></g></g></g><g fill="#444444" fill-opacity="1"><g transform="translate(333.856062, 35.996072)"><g/></g></g><g fill="#444444" fill-opacity="1"><g transform="translate(345.602826, 35.996072)"><g><path d="M 12.6875 -27.609375 L 18.25 -27.609375 L 30 0 L 23.6875 0 L 21.1875 -6.140625 L 9.59375 -6.140625 L 7.09375 0 L 0.9375 0 Z M 19.03125 -11.46875 L 15.390625 -20.359375 L 11.75 -11.46875 Z M 19.03125 -11.46875 "/></g></g></g><g fill="#444444" fill-opacity="1"><g transform="translate(376.535995, 35.996072)"><g><path d="M 3.296875 -27.40625 L 8.84375 -27.40625 L 21.6875 -10.53125 L 21.6875 -27.40625 L 27.640625 -27.40625 L 27.640625 0 L 22.515625 0 L 9.234375 -17.421875 L 9.234375 0 L 3.296875 0 Z M 3.296875 -27.40625 "/></g></g></g><g fill="#444444" fill-opacity="1"><g transform="translate(407.469142, 35.996072)"><g/></g></g><g fill="#444444" fill-opacity="1"><g transform="translate(419.215884, 35.996072)"><g><path d="M 12.6875 -27.609375 L 18.25 -27.609375 L 30 0 L 23.6875 0 L 21.1875 -6.140625 L 9.59375 -6.140625 L 7.09375 0 L 0.9375 0 Z M 19.03125 -11.46875 L 15.390625 -20.359375 L 11.75 -11.46875 Z M 19.03125 -11.46875 "/></g></g></g><g fill="#444444" fill-opacity="1"><g transform="translate(450.149031, 35.996072)"><g><path d="M 16.125 0.46875 C 14.125 0.46875 12.257812 0.101562 10.53125 -0.625 C 8.8125 -1.351562 7.320312 -2.347656 6.0625 -3.609375 C 4.8125 -4.878906 3.832031 -6.375 3.125 -8.09375 C 2.425781 -9.820312 2.078125 -11.664062 2.078125 -13.625 L 2.078125 -13.703125 C 2.078125 -15.660156 2.425781 -17.492188 3.125 -19.203125 C 3.832031 -20.910156 4.8125 -22.410156 6.0625 -23.703125 C 7.320312 -24.992188 8.828125 -26.007812 10.578125 -26.75 C 12.328125 -27.5 14.257812 -27.875 16.375 -27.875 C 17.644531 -27.875 18.804688 -27.769531 19.859375 -27.5625 C 20.921875 -27.351562 21.882812 -27.066406 22.75 -26.703125 C 23.613281 -26.335938 24.410156 -25.894531 25.140625 -25.375 C 25.867188 -24.851562 26.546875 -24.28125 27.171875 -23.65625 L 23.34375 -19.21875 C 22.269531 -20.1875 21.175781 -20.941406 20.0625 -21.484375 C 18.957031 -22.035156 17.710938 -22.3125 16.328125 -22.3125 C 15.179688 -22.3125 14.117188 -22.085938 13.140625 -21.640625 C 12.160156 -21.203125 11.316406 -20.59375 10.609375 -19.8125 C 9.898438 -19.03125 9.347656 -18.125 8.953125 -17.09375 C 8.566406 -16.0625 8.375 -14.957031 8.375 -13.78125 L 8.375 -13.703125 C 8.375 -12.523438 8.566406 -11.414062 8.953125 -10.375 C 9.347656 -9.332031 9.890625 -8.414062 10.578125 -7.625 C 11.273438 -6.84375 12.113281 -6.222656 13.09375 -5.765625 C 14.070312 -5.316406 15.148438 -5.09375 16.328125 -5.09375 C 17.890625 -5.09375 19.210938 -5.378906 20.296875 -5.953125 C 21.378906 -6.523438 22.457031 -7.304688 23.53125 -8.296875 L 27.375 -4.421875 C 26.664062 -3.671875 25.929688 -2.992188 25.171875 -2.390625 C 24.421875 -1.785156 23.59375 -1.269531 22.6875 -0.84375 C 21.789062 -0.414062 20.804688 -0.09375 19.734375 0.125 C 18.660156 0.351562 17.457031 0.46875 16.125 0.46875 Z M 16.125 0.46875 "/></g></g></g><g fill="#444444" fill-opacity="1"><g transform="translate(479.046088, 35.996072)"><g><path d="M 16.125 0.46875 C 14.125 0.46875 12.257812 0.101562 10.53125 -0.625 C 8.8125 -1.351562 7.320312 -2.347656 6.0625 -3.609375 C 4.8125 -4.878906 3.832031 -6.375 3.125 -8.09375 C 2.425781 -9.820312 2.078125 -11.664062 2.078125 -13.625 L 2.078125 -13.703125 C 2.078125 -15.660156 2.425781 -17.492188 3.125 -19.203125 C 3.832031 -20.910156 4.8125 -22.410156 6.0625 -23.703125 C 7.320312 -24.992188 8.828125 -26.007812 10.578125 -26.75 C 12.328125 -27.5 14.257812 -27.875 16.375 -27.875 C 17.644531 -27.875 18.804688 -27.769531 19.859375 -27.5625 C 20.921875 -27.351562 21.882812 -27.066406 22.75 -26.703125 C 23.613281 -26.335938 24.410156 -25.894531 25.140625 -25.375 C 25.867188 -24.851562 26.546875 -24.28125 27.171875 -23.65625 L 23.34375 -19.21875 C 22.269531 -20.1875 21.175781 -20.941406 20.0625 -21.484375 C 18.957031 -22.035156 17.710938 -22.3125 16.328125 -22.3125 C 15.179688 -22.3125 14.117188 -22.085938 13.140625 -21.640625 C 12.160156 -21.203125 11.316406 -20.59375 10.609375 -19.8125 C 9.898438 -19.03125 9.347656 -18.125 8.953125 -17.09375 C 8.566406 -16.0625 8.375 -14.957031 8.375 -13.78125 L 8.375 -13.703125 C 8.375 -12.523438 8.566406 -11.414062 8.953125 -10.375 C 9.347656 -9.332031 9.890625 -8.414062 10.578125 -7.625 C 11.273438 -6.84375 12.113281 -6.222656 13.09375 -5.765625 C 14.070312 -5.316406 15.148438 -5.09375 16.328125 -5.09375 C 17.890625 -5.09375 19.210938 -5.378906 20.296875 -5.953125 C 21.378906 -6.523438 22.457031 -7.304688 23.53125 -8.296875 L 27.375 -4.421875 C 26.664062 -3.671875 25.929688 -2.992188 25.171875 -2.390625 C 24.421875 -1.785156 23.59375 -1.269531 22.6875 -0.84375 C 21.789062 -0.414062 20.804688 -0.09375 19.734375 0.125 C 18.660156 0.351562 17.457031 0.46875 16.125 0.46875 Z M 16.125 0.46875 "/></g></g></g><g fill="#444444" fill-opacity="1"><g transform="translate(507.943144, 35.996072)"><g><path d="M 16.609375 0.46875 C 14.492188 0.46875 12.546875 0.0976562 10.765625 -0.640625 C 8.992188 -1.390625 7.460938 -2.394531 6.171875 -3.65625 C 4.878906 -4.925781 3.875 -6.414062 3.15625 -8.125 C 2.4375 -9.832031 2.078125 -11.664062 2.078125 -13.625 L 2.078125 -13.703125 C 2.078125 -15.660156 2.441406 -17.492188 3.171875 -19.203125 C 3.898438 -20.910156 4.910156 -22.410156 6.203125 -23.703125 C 7.492188 -24.992188 9.035156 -26.007812 10.828125 -26.75 C 12.617188 -27.5 14.570312 -27.875 16.6875 -27.875 C 18.800781 -27.875 20.742188 -27.5 22.515625 -26.75 C 24.285156 -26.007812 25.816406 -25.003906 27.109375 -23.734375 C 28.398438 -22.472656 29.40625 -20.988281 30.125 -19.28125 C 30.84375 -17.570312 31.203125 -15.738281 31.203125 -13.78125 L 31.203125 -13.703125 C 31.203125 -11.742188 30.835938 -9.910156 30.109375 -8.203125 C 29.378906 -6.492188 28.367188 -4.992188 27.078125 -3.703125 C 25.785156 -2.410156 24.242188 -1.390625 22.453125 -0.640625 C 20.671875 0.0976562 18.722656 0.46875 16.609375 0.46875 Z M 16.6875 -5.09375 C 17.882812 -5.09375 18.988281 -5.3125 20 -5.75 C 21.019531 -6.195312 21.890625 -6.8125 22.609375 -7.59375 C 23.328125 -8.375 23.890625 -9.28125 24.296875 -10.3125 C 24.703125 -11.34375 24.90625 -12.445312 24.90625 -13.625 L 24.90625 -13.703125 C 24.90625 -14.878906 24.703125 -15.988281 24.296875 -17.03125 C 23.890625 -18.070312 23.3125 -18.984375 22.5625 -19.765625 C 21.820312 -20.554688 20.941406 -21.175781 19.921875 -21.625 C 18.910156 -22.082031 17.804688 -22.3125 16.609375 -22.3125 C 15.378906 -22.3125 14.257812 -22.085938 13.25 -21.640625 C 12.25 -21.203125 11.390625 -20.59375 10.671875 -19.8125 C 9.953125 -19.03125 9.390625 -18.125 8.984375 -17.09375 C 8.578125 -16.0625 8.375 -14.957031 8.375 -13.78125 L 8.375 -13.703125 C 8.375 -12.523438 8.578125 -11.414062 8.984375 -10.375 C 9.390625 -9.332031 9.960938 -8.414062 10.703125 -7.625 C 11.453125 -6.84375 12.328125 -6.222656 13.328125 -5.765625 C 14.335938 -5.316406 15.457031 -5.09375 16.6875 -5.09375 Z M 16.6875 -5.09375 "/></g></g></g><g fill="#444444" fill-opacity="1"><g transform="translate(541.225639, 35.996072)"><g><path d="M 14.71875 0.4375 C 11.039062 0.4375 8.144531 -0.578125 6.03125 -2.609375 C 3.914062 -4.648438 2.859375 -7.695312 2.859375 -11.75 L 2.859375 -27.40625 L 8.890625 -27.40625 L 8.890625 -11.90625 C 8.890625 -9.65625 9.410156 -7.960938 10.453125 -6.828125 C 11.492188 -5.691406 12.941406 -5.125 14.796875 -5.125 C 16.648438 -5.125 18.097656 -5.671875 19.140625 -6.765625 C 20.191406 -7.867188 20.71875 -9.515625 20.71875 -11.703125 L 20.71875 -27.40625 L 26.75 -27.40625 L 26.75 -11.9375 C 26.75 -9.851562 26.46875 -8.039062 25.90625 -6.5 C 25.34375 -4.957031 24.535156 -3.671875 23.484375 -2.640625 C 22.441406 -1.609375 21.175781 -0.835938 19.6875 -0.328125 C 18.207031 0.179688 16.550781 0.4375 14.71875 0.4375 Z M 14.71875 0.4375 "/></g></g></g><g fill="#444444" fill-opacity="1"><g transform="translate(570.827483, 35.996072)"><g><path d="M 3.296875 -27.40625 L 8.84375 -27.40625 L 21.6875 -10.53125 L 21.6875 -27.40625 L 27.640625 -27.40625 L 27.640625 0 L 22.515625 0 L 9.234375 -17.421875 L 9.234375 0 L 3.296875 0 Z M 3.296875 -27.40625 "/></g></g></g><g fill="#444444" fill-opacity="1"><g transform="translate(601.76063, 35.996072)"><g><path d="M 9.671875 -21.84375 L 1.328125 -21.84375 L 1.328125 -27.40625 L 24.046875 -27.40625 L 24.046875 -21.84375 L 15.703125 -21.84375 L 15.703125 0 L 9.671875 0 Z M 9.671875 -21.84375 "/></g></g></g><g fill="#444444" fill-opacity="1"><g transform="translate(627.133664, 35.996072)"><g><path d="M 6.8125 -15.65625 L 7.015625 -15.859375 C 9.492188 -15.960938 11.253906 -16.320312 12.296875 -16.9375 C 13.335938 -17.550781 13.859375 -18.378906 13.859375 -19.421875 L 13.859375 -19.5 C 13.859375 -20.382812 13.546875 -21.066406 12.921875 -21.546875 C 12.296875 -22.035156 11.410156 -22.28125 10.265625 -22.28125 C 9.160156 -22.28125 8.128906 -22.054688 7.171875 -21.609375 C 6.222656 -21.171875 5.296875 -20.492188 4.390625 -19.578125 L 0.78125 -23.53125 C 1.925781 -24.78125 3.273438 -25.796875 4.828125 -26.578125 C 6.390625 -27.367188 8.238281 -27.765625 10.375 -27.765625 C 11.78125 -27.765625 13.0625 -27.585938 14.21875 -27.234375 C 15.382812 -26.878906 16.382812 -26.351562 17.21875 -25.65625 C 18.0625 -24.96875 18.710938 -24.117188 19.171875 -23.109375 C 19.628906 -22.109375 19.859375 -20.957031 19.859375 -19.65625 L 19.859375 -19.578125 C 19.859375 -18.328125 19.65625 -17.253906 19.25 -16.359375 C 18.84375 -15.472656 18.289062 -14.71875 17.59375 -14.09375 C 16.90625 -13.46875 16.09375 -12.960938 15.15625 -12.578125 C 14.21875 -12.203125 13.210938 -11.910156 12.140625 -11.703125 L 11.703125 -9.3125 L 7.71875 -9.3125 Z M 6.421875 -6.265625 L 12.765625 -6.265625 L 12.765625 0 L 6.421875 0 Z M 6.421875 -6.265625 "/></g></g></g></svg>