<svg xmlns="http://www.w3.org/2000/svg" xmlns:xlink="http://www.w3.org/1999/xlink" width="138" zoomAndPan="magnify" viewBox="0 0 103.5 48" height="64" preserveAspectRatio="xMidYMid meet" version="1.0"><defs><g/></defs><g fill="#444444" fill-opacity="1"><g transform="translate(3.849799, 36.032346)"><g><path d="M 12.734375 -27.6875 L 18.3125 -27.6875 L 30.09375 0 L 23.765625 0 L 21.25 -6.171875 L 9.625 -6.171875 L 7.109375 0 L 0.9375 0 Z M 19.09375 -11.515625 L 15.4375 -20.421875 L 11.78125 -11.515625 Z M 19.09375 -11.515625 "/></g></g></g><g fill="#444444" fill-opacity="1"><g transform="translate(40.765837, 36.032346)"><g><path d="M 3.296875 -27.5 L 14.53125 -27.5 C 16.1875 -27.5 17.660156 -27.269531 18.953125 -26.8125 C 20.242188 -26.351562 21.34375 -25.703125 22.25 -24.859375 C 23.15625 -24.023438 23.847656 -23.023438 24.328125 -21.859375 C 24.816406 -20.691406 25.0625 -19.398438 25.0625 -17.984375 L 25.0625 -17.90625 C 25.0625 -16.3125 24.769531 -14.910156 24.1875 -13.703125 C 23.613281 -12.503906 22.820312 -11.5 21.8125 -10.6875 C 20.8125 -9.875 19.632812 -9.265625 18.28125 -8.859375 C 16.9375 -8.453125 15.488281 -8.25 13.9375 -8.25 L 9.34375 -8.25 L 9.34375 0 L 3.296875 0 Z M 14.140625 -13.625 C 15.660156 -13.625 16.835938 -14.023438 17.671875 -14.828125 C 18.515625 -15.628906 18.9375 -16.617188 18.9375 -17.796875 L 18.9375 -17.875 C 18.9375 -19.238281 18.492188 -20.269531 17.609375 -20.96875 C 16.734375 -21.675781 15.539062 -22.03125 14.03125 -22.03125 L 9.34375 -22.03125 L 9.34375 -13.625 Z M 14.140625 -13.625 "/></g></g></g><g fill="#444444" fill-opacity="1"><g transform="translate(72.890962, 36.032346)"><g><path d="M 3.296875 -27.5 L 14.53125 -27.5 C 16.1875 -27.5 17.660156 -27.269531 18.953125 -26.8125 C 20.242188 -26.351562 21.34375 -25.703125 22.25 -24.859375 C 23.15625 -24.023438 23.847656 -23.023438 24.328125 -21.859375 C 24.816406 -20.691406 25.0625 -19.398438 25.0625 -17.984375 L 25.0625 -17.90625 C 25.0625 -16.3125 24.769531 -14.910156 24.1875 -13.703125 C 23.613281 -12.503906 22.820312 -11.5 21.8125 -10.6875 C 20.8125 -9.875 19.632812 -9.265625 18.28125 -8.859375 C 16.9375 -8.453125 15.488281 -8.25 13.9375 -8.25 L 9.34375 -8.25 L 9.34375 0 L 3.296875 0 Z M 14.140625 -13.625 C 15.660156 -13.625 16.835938 -14.023438 17.671875 -14.828125 C 18.515625 -15.628906 18.9375 -16.617188 18.9375 -17.796875 L 18.9375 -17.875 C 18.9375 -19.238281 18.492188 -20.269531 17.609375 -20.96875 C 16.734375 -21.675781 15.539062 -22.03125 14.03125 -22.03125 L 9.34375 -22.03125 L 9.34375 -13.625 Z M 14.140625 -13.625 "/></g></g></g></svg>