<svg xmlns="http://www.w3.org/2000/svg" xmlns:xlink="http://www.w3.org/1999/xlink" width="499" zoomAndPan="magnify" viewBox="0 0 374.25 74.999997" height="100" preserveAspectRatio="xMidYMid meet" version="1.0"><defs><clipPath id="fd4d20c29b"><path d="M 0.015625 0.265625 L 373.5 0.265625 L 373.5 74.367188 L 0.015625 74.367188 Z M 0.015625 0.265625 " clip-rule="nonzero"/></clipPath><clipPath id="19ff5c7244"><path d="M 36.691406 0.265625 L 336.8125 0.265625 C 346.539062 0.265625 355.867188 4.128906 362.742188 11.007812 C 369.621094 17.882812 373.484375 27.210938 373.484375 36.9375 L 373.484375 38.054688 C 373.484375 47.78125 369.621094 57.109375 362.742188 63.988281 C 355.867188 70.863281 346.539062 74.730469 336.8125 74.730469 L 36.691406 74.730469 C 26.964844 74.730469 17.636719 70.863281 10.757812 63.988281 C 3.878906 57.109375 0.015625 47.78125 0.015625 38.054688 L 0.015625 36.9375 C 0.015625 27.210938 3.878906 17.882812 10.757812 11.007812 C 17.636719 4.128906 26.964844 0.265625 36.691406 0.265625 Z M 36.691406 0.265625 " clip-rule="nonzero"/></clipPath></defs><g clip-path="url(#fd4d20c29b)"><g clip-path="url(#19ff5c7244)"><path stroke-linecap="butt" transform="matrix(0.7485, 0, 0, 0.7485, 0.0162744, 0.264725)" fill="none" stroke-linejoin="miter" d="M 48.998174 0.00120284 L 449.961576 0.00120284 C 462.956316 0.00120284 475.418741 5.162567 484.603779 14.352823 C 493.794034 23.53786 498.955399 36.000286 498.955399 48.995026 L 498.955399 50.487594 C 498.955399 63.482334 493.794034 75.94476 484.603779 85.135016 C 475.418741 94.320053 462.956316 99.486636 449.961576 99.486636 L 48.998174 99.486636 C 36.003434 99.486636 23.541009 94.320053 14.350753 85.135016 C 5.160497 75.94476 -0.000867562 63.482334 -0.000867562 50.487594 L -0.000867562 48.995026 C -0.000867562 36.000286 5.160497 23.53786 14.350753 14.352823 C 23.541009 5.162567 36.003434 0.00120284 48.998174 0.00120284 Z M 48.998174 0.00120284 " stroke="#444444" stroke-width="10" stroke-opacity="1" stroke-miterlimit="4"/></g></g></svg>