<svg xmlns="http://www.w3.org/2000/svg" xmlns:xlink="http://www.w3.org/1999/xlink" width="170" zoomAndPan="magnify" viewBox="0 0 127.5 48" height="64" preserveAspectRatio="xMidYMid meet" version="1.0"><defs><g/></defs><g fill="#444444" fill-opacity="1"><g transform="translate(4.454393, 36.000733)"><g><path d="M 3.296875 -27.421875 L 24.171875 -27.421875 L 24.171875 -21.9375 L 9.328125 -21.9375 L 9.328125 -16.09375 L 22.40625 -16.09375 L 22.40625 -10.609375 L 9.328125 -10.609375 L 9.328125 0 L 3.296875 0 Z M 3.296875 -27.421875 "/></g></g></g><g fill="#444444" fill-opacity="1"><g transform="translate(36.028368, 36.000733)"><g><path d="M 3.5625 -27.421875 L 9.59375 -27.421875 L 9.59375 0 L 3.5625 0 Z M 3.5625 -27.421875 "/></g></g></g><g fill="#444444" fill-opacity="1"><g transform="translate(55.067781, 36.000733)"><g><path d="M 3.296875 -27.421875 L 8.859375 -27.421875 L 21.703125 -10.53125 L 21.703125 -27.421875 L 27.65625 -27.421875 L 27.65625 0 L 22.53125 0 L 9.25 -17.4375 L 9.25 0 L 3.296875 0 Z M 3.296875 -27.421875 "/></g></g></g><g fill="#444444" fill-opacity="1"><g transform="translate(91.890616, 36.000733)"><g><path d="M 3.296875 -27.421875 L 13.984375 -27.421875 C 16.128906 -27.421875 18.09375 -27.070312 19.875 -26.375 C 21.664062 -25.6875 23.207031 -24.726562 24.5 -23.5 C 25.789062 -22.269531 26.789062 -20.828125 27.5 -19.171875 C 28.207031 -17.515625 28.5625 -15.71875 28.5625 -13.78125 L 28.5625 -13.703125 C 28.5625 -11.773438 28.207031 -9.972656 27.5 -8.296875 C 26.789062 -6.628906 25.789062 -5.179688 24.5 -3.953125 C 23.207031 -2.722656 21.664062 -1.753906 19.875 -1.046875 C 18.09375 -0.347656 16.128906 0 13.984375 0 L 3.296875 0 Z M 9.328125 -21.96875 L 9.328125 -5.4375 L 13.984375 -5.4375 C 15.210938 -5.4375 16.332031 -5.632812 17.34375 -6.03125 C 18.363281 -6.425781 19.234375 -6.988281 19.953125 -7.71875 C 20.671875 -8.445312 21.234375 -9.304688 21.640625 -10.296875 C 22.046875 -11.296875 22.25 -12.40625 22.25 -13.625 L 22.25 -13.703125 C 22.25 -14.910156 22.046875 -16.019531 21.640625 -17.03125 C 21.234375 -18.050781 20.671875 -18.925781 19.953125 -19.65625 C 19.234375 -20.394531 18.363281 -20.960938 17.34375 -21.359375 C 16.332031 -21.765625 15.210938 -21.96875 13.984375 -21.96875 Z M 9.328125 -21.96875 "/></g></g></g></svg>