<svg xmlns="http://www.w3.org/2000/svg" xmlns:xlink="http://www.w3.org/1999/xlink" width="60" zoomAndPan="magnify" viewBox="0 0 45 44.999999" height="60" preserveAspectRatio="xMidYMid meet" version="1.0"><defs><filter x="0%" y="0%" width="100%" height="100%" id="5f5256738b"><feColorMatrix values="0 0 0 0 1 0 0 0 0 1 0 0 0 0 1 0 0 0 1 0" color-interpolation-filters="sRGB"/></filter><g/><mask id="1fee8f997c"><g filter="url(#5f5256738b)"><rect x="-4.5" width="54" fill="#000000" y="-4.5" height="53.999999" fill-opacity="0.5"/></g></mask><clipPath id="9abbe18efc"><path d="M 0 0 L 44.953125 0 L 44.953125 44.953125 L 0 44.953125 Z M 0 0 " clip-rule="nonzero"/></clipPath><clipPath id="05971925c5"><path d="M 22.476562 0 C 10.0625 0 0 10.0625 0 22.476562 C 0 34.890625 10.0625 44.953125 22.476562 44.953125 C 34.890625 44.953125 44.953125 34.890625 44.953125 22.476562 C 44.953125 10.0625 34.890625 0 22.476562 0 Z M 22.476562 0 " clip-rule="nonzero"/></clipPath><clipPath id="4efd037d0a"><rect x="0" width="45" y="0" height="45"/></clipPath><mask id="69d07f1d08"><g filter="url(#5f5256738b)"><rect x="-4.5" width="54" fill="#000000" y="-4.5" height="53.999999" fill-opacity="0.5"/></g></mask><clipPath id="95681a6df0"><rect x="0" width="19" y="0" height="40"/></clipPath><clipPath id="5043479bf6"><path d="M 0 0.0390625 L 44.953125 0.0390625 L 44.953125 44.992188 L 0 44.992188 Z M 0 0.0390625 " clip-rule="nonzero"/></clipPath><clipPath id="c81eeb989f"><path d="M 22.476562 0.0390625 C 10.0625 0.0390625 0 10.101562 0 22.515625 C 0 34.929688 10.0625 44.992188 22.476562 44.992188 C 34.890625 44.992188 44.953125 34.929688 44.953125 22.515625 C 44.953125 10.101562 34.890625 0.0390625 22.476562 0.0390625 Z M 22.476562 0.0390625 " clip-rule="nonzero"/></clipPath></defs><g mask="url(#1fee8f997c)"><g transform="matrix(1, 0, 0, 1, 0, 0)"><g clip-path="url(#4efd037d0a)"><g clip-path="url(#9abbe18efc)"><g clip-path="url(#05971925c5)"><path stroke-linecap="butt" transform="matrix(0.75, 0, 0, 0.75, 0.0000005, -0.000000000000005329)" fill="none" stroke-linejoin="miter" d="M 29.968751 0.000000000000007105 C 13.416667 0.000000000000007105 -0.000000666667 13.416668 -0.000000666667 29.968752 C -0.000000666667 46.520836 13.416667 59.937504 29.968751 59.937504 C 46.520836 59.937504 59.937503 46.520836 59.937503 29.968752 C 59.937503 13.416668 46.520836 0.000000000000007105 29.968751 0.000000000000007105 Z M 29.968751 0.000000000000007105 " stroke="#444444" stroke-width="10" stroke-opacity="1" stroke-miterlimit="4"/></g></g></g></g></g><g mask="url(#69d07f1d08)"><g transform="matrix(1, 0, 0, 1, 13, 2)"><g clip-path="url(#95681a6df0)"><g fill="#444444" fill-opacity="1"><g transform="translate(0.896133, 30.950039)"><g><path d="M 6.546875 -11.5 L 6.703125 -11.65625 C 8.796875 -11.707031 10.378906 -12.132812 11.453125 -12.9375 C 12.523438 -13.75 13.0625 -14.828125 13.0625 -16.171875 L 13.0625 -16.234375 C 13.0625 -16.804688 12.957031 -17.34375 12.75 -17.84375 C 12.539062 -18.34375 12.234375 -18.785156 11.828125 -19.171875 C 11.421875 -19.554688 10.925781 -19.851562 10.34375 -20.0625 C 9.769531 -20.28125 9.125 -20.390625 8.40625 -20.390625 C 7.207031 -20.390625 6.140625 -20.128906 5.203125 -19.609375 C 4.265625 -19.085938 3.394531 -18.34375 2.59375 -17.375 L 0.953125 -18.953125 C 1.867188 -20.054688 2.921875 -20.945312 4.109375 -21.625 C 5.304688 -22.3125 6.757812 -22.65625 8.46875 -22.65625 C 9.550781 -22.65625 10.53125 -22.492188 11.40625 -22.171875 C 12.28125 -21.859375 13.03125 -21.414062 13.65625 -20.84375 C 14.289062 -20.28125 14.773438 -19.613281 15.109375 -18.84375 C 15.453125 -18.082031 15.625 -17.242188 15.625 -16.328125 L 15.625 -16.265625 C 15.625 -15.265625 15.445312 -14.382812 15.09375 -13.625 C 14.75 -12.875 14.269531 -12.234375 13.65625 -11.703125 C 13.050781 -11.179688 12.347656 -10.757812 11.546875 -10.4375 C 10.753906 -10.125 9.898438 -9.90625 8.984375 -9.78125 L 8.65625 -6.328125 L 7.03125 -6.328125 Z M 6.359375 -3.359375 L 9.296875 -3.359375 L 9.296875 0 L 6.359375 0 Z M 6.359375 -3.359375 "/></g></g></g></g></g></g><g clip-path="url(#5043479bf6)"><g clip-path="url(#c81eeb989f)"><path stroke-linecap="butt" transform="matrix(0.75, 0, 0, 0.75, 0.0000005, 0.0395134)" fill="none" stroke-linejoin="miter" d="M 29.968751 -0.000601247 C 13.416667 -0.000601247 -0.000000666667 13.416066 -0.000000666667 29.968151 C -0.000000666667 46.520235 13.416667 59.936903 29.968751 59.936903 C 46.520836 59.936903 59.937503 46.520235 59.937503 29.968151 C 59.937503 13.416066 46.520836 -0.000601247 29.968751 -0.000601247 Z M 29.968751 -0.000601247 " stroke="#444444" stroke-width="20" stroke-opacity="1" stroke-miterlimit="4"/></g></g><g fill="#444444" fill-opacity="1"><g transform="translate(13.896133, 32.989553)"><g><path d="M 6.546875 -11.5 L 6.703125 -11.65625 C 8.796875 -11.707031 10.378906 -12.132812 11.453125 -12.9375 C 12.523438 -13.75 13.0625 -14.828125 13.0625 -16.171875 L 13.0625 -16.234375 C 13.0625 -16.804688 12.957031 -17.34375 12.75 -17.84375 C 12.539062 -18.34375 12.234375 -18.785156 11.828125 -19.171875 C 11.421875 -19.554688 10.925781 -19.851562 10.34375 -20.0625 C 9.769531 -20.28125 9.125 -20.390625 8.40625 -20.390625 C 7.207031 -20.390625 6.140625 -20.128906 5.203125 -19.609375 C 4.265625 -19.085938 3.394531 -18.34375 2.59375 -17.375 L 0.953125 -18.953125 C 1.867188 -20.054688 2.921875 -20.945312 4.109375 -21.625 C 5.304688 -22.3125 6.757812 -22.65625 8.46875 -22.65625 C 9.550781 -22.65625 10.53125 -22.492188 11.40625 -22.171875 C 12.28125 -21.859375 13.03125 -21.414062 13.65625 -20.84375 C 14.289062 -20.28125 14.773438 -19.613281 15.109375 -18.84375 C 15.453125 -18.082031 15.625 -17.242188 15.625 -16.328125 L 15.625 -16.265625 C 15.625 -15.265625 15.445312 -14.382812 15.09375 -13.625 C 14.75 -12.875 14.269531 -12.234375 13.65625 -11.703125 C 13.050781 -11.179688 12.347656 -10.757812 11.546875 -10.4375 C 10.753906 -10.125 9.898438 -9.90625 8.984375 -9.78125 L 8.65625 -6.328125 L 7.03125 -6.328125 Z M 6.359375 -3.359375 L 9.296875 -3.359375 L 9.296875 0 L 6.359375 0 Z M 6.359375 -3.359375 "/></g></g></g></svg>