<svg xmlns="http://www.w3.org/2000/svg" xmlns:xlink="http://www.w3.org/1999/xlink" width="200" zoomAndPan="magnify" viewBox="0 0 150 48" height="64" preserveAspectRatio="xMidYMid meet" version="1.0"><defs><g/></defs><g fill="#444444" fill-opacity="1"><g transform="translate(4.470971, 36.006247)"><g><path d="M 3.296875 -27.4375 L 9.328125 -27.4375 L 9.328125 -16.578125 L 20.453125 -16.578125 L 20.453125 -27.4375 L 26.484375 -27.4375 L 26.484375 0 L 20.453125 0 L 20.453125 -11.015625 L 9.328125 -11.015625 L 9.328125 0 L 3.296875 0 Z M 3.296875 -27.4375 "/></g></g></g><g fill="#444444" fill-opacity="1"><g transform="translate(40.134437, 36.006247)"><g><path d="M 16.609375 0.46875 C 14.492188 0.46875 12.546875 0.0976562 10.765625 -0.640625 C 8.992188 -1.390625 7.460938 -2.394531 6.171875 -3.65625 C 4.878906 -4.925781 3.875 -6.414062 3.15625 -8.125 C 2.4375 -9.84375 2.078125 -11.679688 2.078125 -13.640625 L 2.078125 -13.71875 C 2.078125 -15.675781 2.441406 -17.507812 3.171875 -19.21875 C 3.898438 -20.925781 4.910156 -22.425781 6.203125 -23.71875 C 7.503906 -25.019531 9.046875 -26.039062 10.828125 -26.78125 C 12.617188 -27.53125 14.570312 -27.90625 16.6875 -27.90625 C 18.8125 -27.90625 20.757812 -27.53125 22.53125 -26.78125 C 24.3125 -26.039062 25.847656 -25.035156 27.140625 -23.765625 C 28.429688 -22.492188 29.4375 -21.003906 30.15625 -19.296875 C 30.875 -17.585938 31.234375 -15.753906 31.234375 -13.796875 L 31.234375 -13.71875 C 31.234375 -11.757812 30.863281 -9.921875 30.125 -8.203125 C 29.394531 -6.492188 28.382812 -4.992188 27.09375 -3.703125 C 25.800781 -2.410156 24.257812 -1.390625 22.46875 -0.640625 C 20.6875 0.0976562 18.734375 0.46875 16.609375 0.46875 Z M 16.6875 -5.09375 C 17.894531 -5.09375 19.003906 -5.3125 20.015625 -5.75 C 21.035156 -6.195312 21.90625 -6.8125 22.625 -7.59375 C 23.34375 -8.382812 23.90625 -9.296875 24.3125 -10.328125 C 24.71875 -11.359375 24.921875 -12.460938 24.921875 -13.640625 L 24.921875 -13.71875 C 24.921875 -14.894531 24.71875 -16.003906 24.3125 -17.046875 C 23.90625 -18.085938 23.328125 -19 22.578125 -19.78125 C 21.835938 -20.570312 20.957031 -21.195312 19.9375 -21.65625 C 18.925781 -22.113281 17.816406 -22.34375 16.609375 -22.34375 C 15.390625 -22.34375 14.273438 -22.117188 13.265625 -21.671875 C 12.253906 -21.222656 11.390625 -20.609375 10.671875 -19.828125 C 9.953125 -19.046875 9.390625 -18.140625 8.984375 -17.109375 C 8.585938 -16.078125 8.390625 -14.972656 8.390625 -13.796875 L 8.390625 -13.71875 C 8.390625 -12.539062 8.585938 -11.425781 8.984375 -10.375 C 9.390625 -9.332031 9.960938 -8.421875 10.703125 -7.640625 C 11.453125 -6.859375 12.332031 -6.238281 13.34375 -5.78125 C 14.351562 -5.320312 15.46875 -5.09375 16.6875 -5.09375 Z M 16.6875 -5.09375 "/></g></g></g><g fill="#444444" fill-opacity="1"><g transform="translate(79.324798, 36.006247)"><g><path d="M 3.296875 -27.4375 L 9.796875 -27.4375 L 17 -15.828125 L 24.21875 -27.4375 L 30.71875 -27.4375 L 30.71875 0 L 24.734375 0 L 24.734375 -17.90625 L 17 -6.1875 L 16.84375 -6.1875 L 9.203125 -17.796875 L 9.203125 0 L 3.296875 0 Z M 3.296875 -27.4375 "/></g></g></g><g fill="#444444" fill-opacity="1"><g transform="translate(119.220544, 36.006247)"><g><path d="M 3.296875 -27.4375 L 23.984375 -27.4375 L 23.984375 -22.0625 L 9.28125 -22.0625 L 9.28125 -16.5 L 22.21875 -16.5 L 22.21875 -11.125 L 9.28125 -11.125 L 9.28125 -5.375 L 24.171875 -5.375 L 24.171875 0 L 3.296875 0 Z M 3.296875 -27.4375 "/></g></g></g></svg>