<svg xmlns="http://www.w3.org/2000/svg" xmlns:xlink="http://www.w3.org/1999/xlink" width="252" zoomAndPan="magnify" viewBox="0 0 189 32.249999" height="43" preserveAspectRatio="xMidYMid meet" version="1.0"><defs><g/></defs><g fill="#444444" fill-opacity="1"><g transform="translate(2.26481, 25.274851)"><g><path d="M 2.21875 -18.4375 L 6.265625 -18.4375 L 6.265625 -3.6875 L 15.46875 -3.6875 L 15.46875 0 L 2.21875 0 Z M 2.21875 -18.4375 "/></g></g></g><g fill="#444444" fill-opacity="1"><g transform="translate(18.570133, 25.274851)"><g><path d="M 2.21875 -18.4375 L 16.125 -18.4375 L 16.125 -14.828125 L 6.25 -14.828125 L 6.25 -11.09375 L 14.9375 -11.09375 L 14.9375 -7.484375 L 6.25 -7.484375 L 6.25 -3.609375 L 16.25 -3.609375 L 16.25 0 L 2.21875 0 Z M 2.21875 -18.4375 "/></g></g></g><g fill="#444444" fill-opacity="1"><g transform="translate(36.218873, 25.274851)"><g><path d="M 8.53125 -18.578125 L 12.28125 -18.578125 L 20.171875 0 L 15.9375 0 L 14.25 -4.140625 L 6.453125 -4.140625 L 4.765625 0 L 0.625 0 Z M 12.796875 -7.71875 L 10.359375 -13.703125 L 7.90625 -7.71875 Z M 12.796875 -7.71875 "/></g></g></g><g fill="#444444" fill-opacity="1"><g transform="translate(57.028583, 25.274851)"><g><path d="M 2.21875 -18.4375 L 10.640625 -18.4375 C 12.972656 -18.4375 14.765625 -17.8125 16.015625 -16.5625 C 17.066406 -15.507812 17.59375 -14.109375 17.59375 -12.359375 L 17.59375 -12.296875 C 17.59375 -10.804688 17.226562 -9.59375 16.5 -8.65625 C 15.769531 -7.71875 14.816406 -7.03125 13.640625 -6.59375 L 18.15625 0 L 13.40625 0 L 9.453125 -5.90625 L 6.265625 -5.90625 L 6.265625 0 L 2.21875 0 Z M 10.375 -9.484375 C 11.375 -9.484375 12.140625 -9.71875 12.671875 -10.1875 C 13.210938 -10.664062 13.484375 -11.300781 13.484375 -12.09375 L 13.484375 -12.140625 C 13.484375 -13.023438 13.203125 -13.6875 12.640625 -14.125 C 12.078125 -14.5625 11.296875 -14.78125 10.296875 -14.78125 L 6.265625 -14.78125 L 6.265625 -9.484375 Z M 10.375 -9.484375 "/></g></g></g><g fill="#444444" fill-opacity="1"><g transform="translate(76.073416, 25.274851)"><g><path d="M 2.21875 -18.4375 L 5.953125 -18.4375 L 14.59375 -7.09375 L 14.59375 -18.4375 L 18.59375 -18.4375 L 18.59375 0 L 15.140625 0 L 6.21875 -11.71875 L 6.21875 0 L 2.21875 0 Z M 2.21875 -18.4375 "/></g></g></g><g fill="#444444" fill-opacity="1"><g transform="translate(96.883126, 25.274851)"><g/></g></g><g fill="#444444" fill-opacity="1"><g transform="translate(104.78555, 25.274851)"><g><path d="M 2.21875 -18.4375 L 6.59375 -18.4375 L 11.4375 -10.640625 L 16.28125 -18.4375 L 20.65625 -18.4375 L 20.65625 0 L 16.625 0 L 16.625 -12.046875 L 11.4375 -4.15625 L 11.328125 -4.15625 L 6.1875 -11.953125 L 6.1875 0 L 2.21875 0 Z M 2.21875 -18.4375 "/></g></g></g><g fill="#444444" fill-opacity="1"><g transform="translate(127.649893, 25.274851)"><g><path d="M 11.171875 0.3125 C 9.742188 0.3125 8.429688 0.0625 7.234375 -0.4375 C 6.046875 -0.9375 5.015625 -1.609375 4.140625 -2.453125 C 3.273438 -3.304688 2.597656 -4.304688 2.109375 -5.453125 C 1.628906 -6.609375 1.390625 -7.847656 1.390625 -9.171875 L 1.390625 -9.21875 C 1.390625 -10.539062 1.632812 -11.773438 2.125 -12.921875 C 2.625 -14.066406 3.304688 -15.070312 4.171875 -15.9375 C 5.046875 -16.8125 6.082031 -17.5 7.28125 -18 C 8.488281 -18.5 9.800781 -18.75 11.21875 -18.75 C 12.644531 -18.75 13.953125 -18.5 15.140625 -18 C 16.335938 -17.5 17.367188 -16.820312 18.234375 -15.96875 C 19.109375 -15.125 19.785156 -14.125 20.265625 -12.96875 C 20.753906 -11.820312 21 -10.585938 21 -9.265625 L 21 -9.21875 C 21 -7.90625 20.75 -6.671875 20.25 -5.515625 C 19.757812 -4.367188 19.078125 -3.359375 18.203125 -2.484375 C 17.335938 -1.617188 16.300781 -0.9375 15.09375 -0.4375 C 13.894531 0.0625 12.585938 0.3125 11.171875 0.3125 Z M 11.21875 -3.421875 C 12.03125 -3.421875 12.773438 -3.570312 13.453125 -3.875 C 14.140625 -4.175781 14.722656 -4.585938 15.203125 -5.109375 C 15.691406 -5.640625 16.070312 -6.25 16.34375 -6.9375 C 16.613281 -7.632812 16.75 -8.378906 16.75 -9.171875 L 16.75 -9.21875 C 16.75 -10.007812 16.613281 -10.753906 16.34375 -11.453125 C 16.070312 -12.160156 15.6875 -12.773438 15.1875 -13.296875 C 14.6875 -13.828125 14.09375 -14.242188 13.40625 -14.546875 C 12.71875 -14.859375 11.972656 -15.015625 11.171875 -15.015625 C 10.347656 -15.015625 9.597656 -14.863281 8.921875 -14.5625 C 8.242188 -14.269531 7.660156 -13.859375 7.171875 -13.328125 C 6.691406 -12.804688 6.316406 -12.195312 6.046875 -11.5 C 5.773438 -10.800781 5.640625 -10.054688 5.640625 -9.265625 L 5.640625 -9.21875 C 5.640625 -8.425781 5.773438 -7.675781 6.046875 -6.96875 C 6.316406 -6.269531 6.703125 -5.65625 7.203125 -5.125 C 7.703125 -4.601562 8.289062 -4.1875 8.96875 -3.875 C 9.644531 -3.570312 10.394531 -3.421875 11.21875 -3.421875 Z M 11.21875 -3.421875 "/></g></g></g><g fill="#444444" fill-opacity="1"><g transform="translate(150.040087, 25.274851)"><g><path d="M 2.21875 -18.4375 L 10.640625 -18.4375 C 12.972656 -18.4375 14.765625 -17.8125 16.015625 -16.5625 C 17.066406 -15.507812 17.59375 -14.109375 17.59375 -12.359375 L 17.59375 -12.296875 C 17.59375 -10.804688 17.226562 -9.59375 16.5 -8.65625 C 15.769531 -7.71875 14.816406 -7.03125 13.640625 -6.59375 L 18.15625 0 L 13.40625 0 L 9.453125 -5.90625 L 6.265625 -5.90625 L 6.265625 0 L 2.21875 0 Z M 10.375 -9.484375 C 11.375 -9.484375 12.140625 -9.71875 12.671875 -10.1875 C 13.210938 -10.664062 13.484375 -11.300781 13.484375 -12.09375 L 13.484375 -12.140625 C 13.484375 -13.023438 13.203125 -13.6875 12.640625 -14.125 C 12.078125 -14.5625 11.296875 -14.78125 10.296875 -14.78125 L 6.265625 -14.78125 L 6.265625 -9.484375 Z M 10.375 -9.484375 "/></g></g></g><g fill="#444444" fill-opacity="1"><g transform="translate(169.08492, 25.274851)"><g><path d="M 2.21875 -18.4375 L 16.125 -18.4375 L 16.125 -14.828125 L 6.25 -14.828125 L 6.25 -11.09375 L 14.9375 -11.09375 L 14.9375 -7.484375 L 6.25 -7.484375 L 6.25 -3.609375 L 16.25 -3.609375 L 16.25 0 L 2.21875 0 Z M 2.21875 -18.4375 "/></g></g></g></svg>