<svg xmlns="http://www.w3.org/2000/svg" xmlns:xlink="http://www.w3.org/1999/xlink" width="249" zoomAndPan="magnify" viewBox="0 0 186.75 56.999997" height="76" preserveAspectRatio="xMidYMid meet" version="1.0"><defs><g/><clipPath id="fe2776d432"><path d="M 0.445312 0.0390625 L 186.195312 0.0390625 L 186.195312 56.960938 L 0.445312 56.960938 Z M 0.445312 0.0390625 " clip-rule="nonzero"/></clipPath><clipPath id="d54535d715"><path d="M 28.90625 0.0390625 L 157.59375 0.0390625 C 165.140625 0.0390625 172.382812 3.035156 177.71875 8.375 C 183.054688 13.710938 186.054688 20.953125 186.054688 28.5 C 186.054688 36.046875 183.054688 43.289062 177.71875 48.625 C 172.382812 53.964844 165.140625 56.960938 157.59375 56.960938 L 28.90625 56.960938 C 21.355469 56.960938 14.117188 53.964844 8.78125 48.625 C 3.441406 43.289062 0.445312 36.046875 0.445312 28.5 C 0.445312 20.953125 3.441406 13.710938 8.78125 8.375 C 14.117188 3.035156 21.355469 0.0390625 28.90625 0.0390625 Z M 28.90625 0.0390625 " clip-rule="nonzero"/></clipPath></defs><g clip-path="url(#fe2776d432)"><g clip-path="url(#d54535d715)"><path stroke-linecap="butt" transform="matrix(0.748997, 0, 0, 0.748997, 0.443988, 0.0383238)" fill="none" stroke-linejoin="miter" d="M 38.00049 0.000986192 L 209.813538 0.000986192 C 219.88951 0.000986192 229.558687 4.001126 236.682796 11.13045 C 243.806904 18.254558 247.812259 27.923736 247.812259 37.999707 C 247.812259 48.075679 243.806904 57.744857 236.682796 64.868965 C 229.558687 71.998289 219.88951 75.998428 209.813538 75.998428 L 38.00049 75.998428 C 27.919303 75.998428 18.255341 71.998289 11.131232 64.868965 C 4.001909 57.744857 0.00176877 48.075679 0.00176877 37.999707 C 0.00176877 27.923736 4.001909 18.254558 11.131232 11.13045 C 18.255341 4.001126 27.919303 0.000986192 38.00049 0.000986192 Z M 38.00049 0.000986192 " stroke="#444444" stroke-width="10" stroke-opacity="1" stroke-miterlimit="4"/></g></g><g fill="#444444" fill-opacity="1"><g transform="translate(49.473091, 33.742977)"><g><path d="M 1.25 -10.40625 L 3.546875 -10.40625 L 3.546875 -2.078125 L 8.734375 -2.078125 L 8.734375 0 L 1.25 0 Z M 1.25 -10.40625 "/></g></g></g><g fill="#444444" fill-opacity="1"><g transform="translate(60.91382, 33.742977)"><g><path d="M 1.25 -10.40625 L 9.109375 -10.40625 L 9.109375 -8.375 L 3.53125 -8.375 L 3.53125 -6.265625 L 8.4375 -6.265625 L 8.4375 -4.21875 L 3.53125 -4.21875 L 3.53125 -2.03125 L 9.171875 -2.03125 L 9.171875 0 L 1.25 0 Z M 1.25 -10.40625 "/></g></g></g><g fill="#444444" fill-opacity="1"><g transform="translate(73.11315, 33.742977)"><g><path d="M 3.671875 -8.296875 L 0.5 -8.296875 L 0.5 -10.40625 L 9.140625 -10.40625 L 9.140625 -8.296875 L 5.96875 -8.296875 L 5.96875 0 L 3.671875 0 Z M 3.671875 -8.296875 "/></g></g></g><g fill="#444444" fill-opacity="1"><g transform="translate(84.985236, 33.742977)"><g><path d="M 4.953125 0.15625 C 4.160156 0.15625 3.378906 0.0195312 2.609375 -0.25 C 1.847656 -0.53125 1.15625 -0.953125 0.53125 -1.515625 L 1.890625 -3.140625 C 2.367188 -2.753906 2.859375 -2.445312 3.359375 -2.21875 C 3.859375 -1.988281 4.40625 -1.875 5 -1.875 C 5.476562 -1.875 5.847656 -1.957031 6.109375 -2.125 C 6.367188 -2.300781 6.5 -2.546875 6.5 -2.859375 L 6.5 -2.890625 C 6.5 -3.035156 6.472656 -3.164062 6.421875 -3.28125 C 6.367188 -3.394531 6.265625 -3.5 6.109375 -3.59375 C 5.953125 -3.695312 5.738281 -3.796875 5.46875 -3.890625 C 5.195312 -3.992188 4.84375 -4.097656 4.40625 -4.203125 C 3.875 -4.335938 3.394531 -4.484375 2.96875 -4.640625 C 2.539062 -4.796875 2.175781 -4.988281 1.875 -5.21875 C 1.582031 -5.457031 1.351562 -5.75 1.1875 -6.09375 C 1.03125 -6.445312 0.953125 -6.878906 0.953125 -7.390625 L 0.953125 -7.421875 C 0.953125 -7.898438 1.039062 -8.328125 1.21875 -8.703125 C 1.394531 -9.085938 1.644531 -9.414062 1.96875 -9.6875 C 2.289062 -9.96875 2.675781 -10.179688 3.125 -10.328125 C 3.570312 -10.484375 4.0625 -10.5625 4.59375 -10.5625 C 5.351562 -10.5625 6.050781 -10.445312 6.6875 -10.21875 C 7.332031 -9.988281 7.925781 -9.660156 8.46875 -9.234375 L 7.28125 -7.515625 C 6.8125 -7.828125 6.351562 -8.070312 5.90625 -8.25 C 5.457031 -8.4375 5.007812 -8.53125 4.5625 -8.53125 C 4.113281 -8.53125 3.78125 -8.441406 3.5625 -8.265625 C 3.34375 -8.097656 3.234375 -7.882812 3.234375 -7.625 L 3.234375 -7.59375 C 3.234375 -7.425781 3.265625 -7.28125 3.328125 -7.15625 C 3.390625 -7.03125 3.503906 -6.914062 3.671875 -6.8125 C 3.835938 -6.71875 4.066406 -6.625 4.359375 -6.53125 C 4.648438 -6.445312 5.019531 -6.347656 5.46875 -6.234375 C 6 -6.097656 6.46875 -5.941406 6.875 -5.765625 C 7.289062 -5.585938 7.640625 -5.378906 7.921875 -5.140625 C 8.203125 -4.898438 8.414062 -4.613281 8.5625 -4.28125 C 8.707031 -3.957031 8.78125 -3.566406 8.78125 -3.109375 L 8.78125 -3.078125 C 8.78125 -2.566406 8.6875 -2.109375 8.5 -1.703125 C 8.3125 -1.296875 8.046875 -0.957031 7.703125 -0.6875 C 7.367188 -0.414062 6.96875 -0.207031 6.5 -0.0625 C 6.03125 0.0820312 5.515625 0.15625 4.953125 0.15625 Z M 4.953125 0.15625 "/></g></g></g><g fill="#444444" fill-opacity="1"><g transform="translate(96.738325, 33.742977)"><g/></g></g><g fill="#444444" fill-opacity="1"><g transform="translate(103.434063, 33.742977)"><g><path d="M 6.265625 0.171875 C 5.453125 0.171875 4.707031 0.0390625 4.03125 -0.21875 C 3.363281 -0.488281 2.789062 -0.859375 2.3125 -1.328125 C 1.832031 -1.804688 1.457031 -2.375 1.1875 -3.03125 C 0.914062 -3.6875 0.78125 -4.398438 0.78125 -5.171875 L 0.78125 -5.203125 C 0.78125 -5.953125 0.914062 -6.648438 1.1875 -7.296875 C 1.46875 -7.941406 1.847656 -8.507812 2.328125 -9 C 2.816406 -9.5 3.394531 -9.890625 4.0625 -10.171875 C 4.726562 -10.453125 5.457031 -10.59375 6.25 -10.59375 C 6.71875 -10.59375 7.140625 -10.554688 7.515625 -10.484375 C 7.898438 -10.421875 8.253906 -10.332031 8.578125 -10.21875 C 8.910156 -10.101562 9.21875 -9.953125 9.5 -9.765625 C 9.789062 -9.585938 10.070312 -9.382812 10.34375 -9.15625 L 8.890625 -7.421875 C 8.691406 -7.585938 8.492188 -7.734375 8.296875 -7.859375 C 8.097656 -7.992188 7.890625 -8.101562 7.671875 -8.1875 C 7.460938 -8.28125 7.234375 -8.351562 6.984375 -8.40625 C 6.742188 -8.457031 6.472656 -8.484375 6.171875 -8.484375 C 5.753906 -8.484375 5.363281 -8.394531 5 -8.21875 C 4.644531 -8.039062 4.328125 -7.804688 4.046875 -7.515625 C 3.773438 -7.222656 3.5625 -6.878906 3.40625 -6.484375 C 3.257812 -6.097656 3.1875 -5.679688 3.1875 -5.234375 L 3.1875 -5.203125 C 3.1875 -4.734375 3.257812 -4.296875 3.40625 -3.890625 C 3.5625 -3.484375 3.78125 -3.128906 4.0625 -2.828125 C 4.351562 -2.535156 4.6875 -2.304688 5.0625 -2.140625 C 5.445312 -1.984375 5.875 -1.90625 6.34375 -1.90625 C 7.1875 -1.90625 7.90625 -2.113281 8.5 -2.53125 L 8.5 -4.015625 L 6.1875 -4.015625 L 6.1875 -6 L 10.703125 -6 L 10.703125 -1.46875 C 10.171875 -1.007812 9.535156 -0.617188 8.796875 -0.296875 C 8.054688 0.015625 7.210938 0.171875 6.265625 0.171875 Z M 6.265625 0.171875 "/></g></g></g><g fill="#444444" fill-opacity="1"><g transform="translate(117.329091, 33.742977)"><g><path d="M 6.3125 0.171875 C 5.507812 0.171875 4.769531 0.03125 4.09375 -0.25 C 3.414062 -0.53125 2.832031 -0.910156 2.34375 -1.390625 C 1.851562 -1.867188 1.46875 -2.429688 1.1875 -3.078125 C 0.914062 -3.734375 0.78125 -4.429688 0.78125 -5.171875 L 0.78125 -5.203125 C 0.78125 -5.953125 0.921875 -6.648438 1.203125 -7.296875 C 1.484375 -7.941406 1.867188 -8.507812 2.359375 -9 C 2.847656 -9.5 3.429688 -9.890625 4.109375 -10.171875 C 4.785156 -10.453125 5.53125 -10.59375 6.34375 -10.59375 C 7.144531 -10.59375 7.878906 -10.453125 8.546875 -10.171875 C 9.222656 -9.890625 9.804688 -9.503906 10.296875 -9.015625 C 10.785156 -8.535156 11.164062 -7.972656 11.4375 -7.328125 C 11.71875 -6.679688 11.859375 -5.984375 11.859375 -5.234375 L 11.859375 -5.203125 C 11.859375 -4.460938 11.71875 -3.765625 11.4375 -3.109375 C 11.15625 -2.460938 10.769531 -1.894531 10.28125 -1.40625 C 9.789062 -0.914062 9.207031 -0.53125 8.53125 -0.25 C 7.851562 0.03125 7.113281 0.171875 6.3125 0.171875 Z M 6.34375 -1.9375 C 6.789062 -1.9375 7.207031 -2.019531 7.59375 -2.1875 C 7.988281 -2.351562 8.320312 -2.582031 8.59375 -2.875 C 8.863281 -3.175781 9.070312 -3.519531 9.21875 -3.90625 C 9.375 -4.300781 9.453125 -4.722656 9.453125 -5.171875 L 9.453125 -5.203125 C 9.453125 -5.648438 9.375 -6.070312 9.21875 -6.46875 C 9.070312 -6.863281 8.859375 -7.207031 8.578125 -7.5 C 8.296875 -7.800781 7.957031 -8.039062 7.5625 -8.21875 C 7.175781 -8.394531 6.757812 -8.484375 6.3125 -8.484375 C 5.84375 -8.484375 5.414062 -8.394531 5.03125 -8.21875 C 4.65625 -8.050781 4.328125 -7.816406 4.046875 -7.515625 C 3.773438 -7.222656 3.5625 -6.878906 3.40625 -6.484375 C 3.257812 -6.097656 3.1875 -5.679688 3.1875 -5.234375 L 3.1875 -5.203125 C 3.1875 -4.753906 3.257812 -4.332031 3.40625 -3.9375 C 3.5625 -3.539062 3.78125 -3.191406 4.0625 -2.890625 C 4.351562 -2.597656 4.6875 -2.363281 5.0625 -2.1875 C 5.445312 -2.019531 5.875 -1.9375 6.34375 -1.9375 Z M 6.34375 -1.9375 "/></g></g></g><g fill="#444444" fill-opacity="1"><g transform="translate(132.205841, 33.742977)"><g><path d="M 1.078125 -10.109375 L 1.078125 -10.40625 L 3.734375 -10.40625 L 3.734375 -10.109375 L 3.03125 -3.546875 L 1.78125 -3.546875 Z M 1.203125 -2.375 L 3.609375 -2.375 L 3.609375 0 L 1.203125 0 Z M 1.203125 -2.375 "/></g></g></g></svg>