<svg xmlns="http://www.w3.org/2000/svg" xmlns:xlink="http://www.w3.org/1999/xlink" width="400" zoomAndPan="magnify" viewBox="0 0 300 284.999983" height="380" preserveAspectRatio="xMidYMid meet" version="1.0"><defs><g/><clipPath id="28ef186931"><path d="M 21 42 L 241 42 L 241 236 L 21 236 Z M 21 42 " clip-rule="nonzero"/></clipPath><clipPath id="386ab94c55"><path d="M 173.050781 0 L 290.070312 135.539062 L 116.960938 285 L -0.0585938 149.460938 Z M 173.050781 0 " clip-rule="nonzero"/></clipPath><clipPath id="eb4fc3a758"><path d="M 173.050781 0 L 290.070312 135.539062 L 116.960938 285 L -0.0585938 149.460938 Z M 173.050781 0 " clip-rule="nonzero"/></clipPath><clipPath id="c209cf339f"><path d="M 173.050781 0 L 290.070312 135.539062 L 116.960938 285 L -0.0585938 149.460938 Z M 173.050781 0 " clip-rule="nonzero"/></clipPath><clipPath id="a400eca008"><path d="M 97.875 93.035156 C 99.207031 90.957031 100.21875 88.691406 101.332031 86.488281 C 108.40625 72.507812 119.953125 60.902344 133.6875 53.355469 C 147.421875 45.8125 163.273438 42.296875 178.925781 42.878906 C 188.195312 43.222656 197.453125 44.992188 206.019531 48.546875 C 214.585938 52.101562 222.445312 57.472656 228.507812 64.492188 C 234.566406 71.507812 238.773438 80.195312 240.054688 89.378906 C 241.335938 98.566406 239.605469 108.222656 234.808594 116.167969 C 230.773438 122.851562 224.796875 128.097656 219.074219 133.410156 C 213.351562 138.722656 207.664062 144.386719 204.460938 151.507812 C 200.578125 160.148438 200.757812 170 201.179688 179.464844 C 201.601562 188.925781 202.152344 198.695312 198.890625 207.589844 C 196.347656 214.523438 191.5625 220.542969 185.667969 225 C 179.777344 229.457031 172.8125 232.390625 165.605469 234.007812 C 151.191406 237.238281 136.144531 235.273438 121.667969 232.367188 C 103.128906 228.640625 84.730469 223.320312 68.167969 214.207031 C 51.605469 205.097656 36.890625 191.964844 28.109375 175.226562 C 23.5625 166.558594 20.640625 156.855469 21.035156 147.074219 C 21.433594 137.292969 25.402344 127.449219 32.832031 121.0625 C 37.414062 117.125 43.085938 114.636719 48.894531 112.964844 C 54.699219 111.296875 60.695312 110.398438 66.632812 109.289062 C 72.570312 108.175781 78.519531 106.832031 84.023438 104.34375 C 89.527344 101.851562 94.609375 98.121094 97.875 93.035156 Z M 97.875 93.035156 " clip-rule="nonzero"/></clipPath><linearGradient x1="2935.79567" gradientTransform="matrix(-0.482951, -0.559377, -0.559943, 0.483439, -1368.884799, 4493.804332)" y1="-5394.4302" x2="3330.621707" gradientUnits="userSpaceOnUse" y2="-5394.4302" id="a0db350707"><stop stop-opacity="1" stop-color="rgb(36.099243%, 93.699646%, 100%)" offset="0"/><stop stop-opacity="1" stop-color="rgb(36.099243%, 93.699646%, 100%)" offset="0.125"/><stop stop-opacity="1" stop-color="rgb(36.105347%, 93.696594%, 99.998474%)" offset="0.15625"/><stop stop-opacity="1" stop-color="rgb(36.520386%, 93.580627%, 99.949646%)" offset="0.160156"/><stop stop-opacity="1" stop-color="rgb(36.927795%, 93.466187%, 99.902344%)" offset="0.164062"/><stop stop-opacity="1" stop-color="rgb(37.335205%, 93.35022%, 99.853516%)" offset="0.167969"/><stop stop-opacity="1" stop-color="rgb(37.742615%, 93.235779%, 99.806213%)" offset="0.171875"/><stop stop-opacity="1" stop-color="rgb(38.150024%, 93.121338%, 99.757385%)" offset="0.175781"/><stop stop-opacity="1" stop-color="rgb(38.55896%, 93.006897%, 99.710083%)" offset="0.179687"/><stop stop-opacity="1" stop-color="rgb(38.96637%, 92.89093%, 99.662781%)" offset="0.183594"/><stop stop-opacity="1" stop-color="rgb(39.373779%, 92.776489%, 99.615479%)" offset="0.1875"/><stop stop-opacity="1" stop-color="rgb(39.781189%, 92.662048%, 99.56665%)" offset="0.191406"/><stop stop-opacity="1" stop-color="rgb(40.190125%, 92.547607%, 99.519348%)" offset="0.195312"/><stop stop-opacity="1" stop-color="rgb(40.597534%, 92.431641%, 99.47052%)" offset="0.199219"/><stop stop-opacity="1" stop-color="rgb(41.004944%, 92.3172%, 99.423218%)" offset="0.203125"/><stop stop-opacity="1" stop-color="rgb(41.412354%, 92.202759%, 99.37439%)" offset="0.207031"/><stop stop-opacity="1" stop-color="rgb(41.819763%, 92.088318%, 99.327087%)" offset="0.210937"/><stop stop-opacity="1" stop-color="rgb(42.227173%, 91.972351%, 99.279785%)" offset="0.214844"/><stop stop-opacity="1" stop-color="rgb(42.636108%, 91.85791%, 99.232483%)" offset="0.21875"/><stop stop-opacity="1" stop-color="rgb(43.043518%, 91.743469%, 99.183655%)" offset="0.222656"/><stop stop-opacity="1" stop-color="rgb(43.450928%, 91.629028%, 99.136353%)" offset="0.226562"/><stop stop-opacity="1" stop-color="rgb(43.858337%, 91.513062%, 99.087524%)" offset="0.230469"/><stop stop-opacity="1" stop-color="rgb(44.265747%, 91.398621%, 99.040222%)" offset="0.234375"/><stop stop-opacity="1" stop-color="rgb(44.673157%, 91.282654%, 98.99292%)" offset="0.238281"/><stop stop-opacity="1" stop-color="rgb(45.082092%, 91.168213%, 98.945618%)" offset="0.242188"/><stop stop-opacity="1" stop-color="rgb(45.489502%, 91.053772%, 98.89679%)" offset="0.246094"/><stop stop-opacity="1" stop-color="rgb(45.896912%, 90.939331%, 98.849487%)" offset="0.25"/><stop stop-opacity="1" stop-color="rgb(46.304321%, 90.823364%, 98.800659%)" offset="0.253906"/><stop stop-opacity="1" stop-color="rgb(46.713257%, 90.708923%, 98.753357%)" offset="0.257812"/><stop stop-opacity="1" stop-color="rgb(47.120667%, 90.594482%, 98.704529%)" offset="0.261719"/><stop stop-opacity="1" stop-color="rgb(47.528076%, 90.480042%, 98.657227%)" offset="0.265625"/><stop stop-opacity="1" stop-color="rgb(47.935486%, 90.364075%, 98.609924%)" offset="0.269531"/><stop stop-opacity="1" stop-color="rgb(48.342896%, 90.249634%, 98.562622%)" offset="0.273437"/><stop stop-opacity="1" stop-color="rgb(48.750305%, 90.135193%, 98.513794%)" offset="0.277344"/><stop stop-opacity="1" stop-color="rgb(49.159241%, 90.020752%, 98.466492%)" offset="0.28125"/><stop stop-opacity="1" stop-color="rgb(49.56665%, 89.904785%, 98.417664%)" offset="0.285156"/><stop stop-opacity="1" stop-color="rgb(49.97406%, 89.790344%, 98.370361%)" offset="0.289062"/><stop stop-opacity="1" stop-color="rgb(50.38147%, 89.675903%, 98.323059%)" offset="0.292969"/><stop stop-opacity="1" stop-color="rgb(50.790405%, 89.561462%, 98.275757%)" offset="0.296875"/><stop stop-opacity="1" stop-color="rgb(51.197815%, 89.445496%, 98.226929%)" offset="0.300781"/><stop stop-opacity="1" stop-color="rgb(51.605225%, 89.331055%, 98.179626%)" offset="0.304688"/><stop stop-opacity="1" stop-color="rgb(52.012634%, 89.216614%, 98.130798%)" offset="0.308594"/><stop stop-opacity="1" stop-color="rgb(52.420044%, 89.102173%, 98.083496%)" offset="0.3125"/><stop stop-opacity="1" stop-color="rgb(52.827454%, 88.986206%, 98.034668%)" offset="0.316406"/><stop stop-opacity="1" stop-color="rgb(53.236389%, 88.871765%, 97.987366%)" offset="0.320312"/><stop stop-opacity="1" stop-color="rgb(53.643799%, 88.757324%, 97.940063%)" offset="0.324219"/><stop stop-opacity="1" stop-color="rgb(54.051208%, 88.642883%, 97.892761%)" offset="0.328125"/><stop stop-opacity="1" stop-color="rgb(54.458618%, 88.526917%, 97.843933%)" offset="0.332031"/><stop stop-opacity="1" stop-color="rgb(54.866028%, 88.412476%, 97.796631%)" offset="0.335937"/><stop stop-opacity="1" stop-color="rgb(55.273438%, 88.298035%, 97.747803%)" offset="0.339844"/><stop stop-opacity="1" stop-color="rgb(55.682373%, 88.183594%, 97.7005%)" offset="0.34375"/><stop stop-opacity="1" stop-color="rgb(56.089783%, 88.067627%, 97.651672%)" offset="0.347656"/><stop stop-opacity="1" stop-color="rgb(56.497192%, 87.953186%, 97.60437%)" offset="0.351562"/><stop stop-opacity="1" stop-color="rgb(56.904602%, 87.838745%, 97.557068%)" offset="0.355469"/><stop stop-opacity="1" stop-color="rgb(57.313538%, 87.724304%, 97.509766%)" offset="0.359375"/><stop stop-opacity="1" stop-color="rgb(57.720947%, 87.608337%, 97.460938%)" offset="0.363281"/><stop stop-opacity="1" stop-color="rgb(58.128357%, 87.493896%, 97.413635%)" offset="0.367187"/><stop stop-opacity="1" stop-color="rgb(58.535767%, 87.37793%, 97.364807%)" offset="0.371094"/><stop stop-opacity="1" stop-color="rgb(58.943176%, 87.263489%, 97.317505%)" offset="0.375"/><stop stop-opacity="1" stop-color="rgb(59.350586%, 87.149048%, 97.270203%)" offset="0.378906"/><stop stop-opacity="1" stop-color="rgb(59.759521%, 87.034607%, 97.2229%)" offset="0.382812"/><stop stop-opacity="1" stop-color="rgb(60.166931%, 86.91864%, 97.174072%)" offset="0.386719"/><stop stop-opacity="1" stop-color="rgb(60.574341%, 86.804199%, 97.12677%)" offset="0.390625"/><stop stop-opacity="1" stop-color="rgb(60.98175%, 86.689758%, 97.077942%)" offset="0.394531"/><stop stop-opacity="1" stop-color="rgb(61.38916%, 86.575317%, 97.03064%)" offset="0.398438"/><stop stop-opacity="1" stop-color="rgb(61.79657%, 86.459351%, 96.981812%)" offset="0.402344"/><stop stop-opacity="1" stop-color="rgb(62.205505%, 86.34491%, 96.934509%)" offset="0.40625"/><stop stop-opacity="1" stop-color="rgb(62.612915%, 86.230469%, 96.887207%)" offset="0.410156"/><stop stop-opacity="1" stop-color="rgb(63.020325%, 86.116028%, 96.839905%)" offset="0.414062"/><stop stop-opacity="1" stop-color="rgb(63.427734%, 86.000061%, 96.791077%)" offset="0.417969"/><stop stop-opacity="1" stop-color="rgb(63.83667%, 85.88562%, 96.743774%)" offset="0.421875"/><stop stop-opacity="1" stop-color="rgb(64.24408%, 85.771179%, 96.694946%)" offset="0.425781"/><stop stop-opacity="1" stop-color="rgb(64.651489%, 85.656738%, 96.647644%)" offset="0.429687"/><stop stop-opacity="1" stop-color="rgb(65.058899%, 85.540771%, 96.600342%)" offset="0.433594"/><stop stop-opacity="1" stop-color="rgb(65.466309%, 85.426331%, 96.55304%)" offset="0.4375"/><stop stop-opacity="1" stop-color="rgb(65.873718%, 85.31189%, 96.504211%)" offset="0.441406"/><stop stop-opacity="1" stop-color="rgb(66.282654%, 85.197449%, 96.456909%)" offset="0.445312"/><stop stop-opacity="1" stop-color="rgb(66.690063%, 85.081482%, 96.408081%)" offset="0.449219"/><stop stop-opacity="1" stop-color="rgb(67.097473%, 84.967041%, 96.360779%)" offset="0.453125"/><stop stop-opacity="1" stop-color="rgb(67.504883%, 84.8526%, 96.311951%)" offset="0.457031"/><stop stop-opacity="1" stop-color="rgb(67.912292%, 84.738159%, 96.264648%)" offset="0.460937"/><stop stop-opacity="1" stop-color="rgb(68.319702%, 84.622192%, 96.217346%)" offset="0.464844"/><stop stop-opacity="1" stop-color="rgb(68.728638%, 84.507751%, 96.170044%)" offset="0.46875"/><stop stop-opacity="1" stop-color="rgb(69.136047%, 84.393311%, 96.121216%)" offset="0.472656"/><stop stop-opacity="1" stop-color="rgb(69.543457%, 84.27887%, 96.073914%)" offset="0.476562"/><stop stop-opacity="1" stop-color="rgb(69.950867%, 84.162903%, 96.025085%)" offset="0.480469"/><stop stop-opacity="1" stop-color="rgb(70.359802%, 84.048462%, 95.977783%)" offset="0.484375"/><stop stop-opacity="1" stop-color="rgb(70.767212%, 83.934021%, 95.928955%)" offset="0.488281"/><stop stop-opacity="1" stop-color="rgb(71.174622%, 83.81958%, 95.881653%)" offset="0.492188"/><stop stop-opacity="1" stop-color="rgb(71.582031%, 83.703613%, 95.834351%)" offset="0.496094"/><stop stop-opacity="1" stop-color="rgb(71.989441%, 83.589172%, 95.787048%)" offset="0.5"/><stop stop-opacity="1" stop-color="rgb(72.396851%, 83.473206%, 95.73822%)" offset="0.503906"/><stop stop-opacity="1" stop-color="rgb(72.805786%, 83.358765%, 95.690918%)" offset="0.507812"/><stop stop-opacity="1" stop-color="rgb(73.213196%, 83.244324%, 95.64209%)" offset="0.511719"/><stop stop-opacity="1" stop-color="rgb(73.620605%, 83.129883%, 95.594788%)" offset="0.515625"/><stop stop-opacity="1" stop-color="rgb(74.028015%, 83.013916%, 95.547485%)" offset="0.519531"/><stop stop-opacity="1" stop-color="rgb(74.436951%, 82.899475%, 95.500183%)" offset="0.523438"/><stop stop-opacity="1" stop-color="rgb(74.84436%, 82.785034%, 95.451355%)" offset="0.527344"/><stop stop-opacity="1" stop-color="rgb(75.25177%, 82.670593%, 95.404053%)" offset="0.53125"/><stop stop-opacity="1" stop-color="rgb(75.65918%, 82.554626%, 95.355225%)" offset="0.535156"/><stop stop-opacity="1" stop-color="rgb(76.066589%, 82.440186%, 95.307922%)" offset="0.539062"/><stop stop-opacity="1" stop-color="rgb(76.473999%, 82.325745%, 95.259094%)" offset="0.542969"/><stop stop-opacity="1" stop-color="rgb(76.882935%, 82.211304%, 95.211792%)" offset="0.546875"/><stop stop-opacity="1" stop-color="rgb(77.290344%, 82.095337%, 95.16449%)" offset="0.550781"/><stop stop-opacity="1" stop-color="rgb(77.697754%, 81.980896%, 95.117188%)" offset="0.554688"/><stop stop-opacity="1" stop-color="rgb(78.105164%, 81.866455%, 95.068359%)" offset="0.558594"/><stop stop-opacity="1" stop-color="rgb(78.512573%, 81.752014%, 95.021057%)" offset="0.5625"/><stop stop-opacity="1" stop-color="rgb(78.919983%, 81.636047%, 94.972229%)" offset="0.566406"/><stop stop-opacity="1" stop-color="rgb(79.328918%, 81.521606%, 94.924927%)" offset="0.570312"/><stop stop-opacity="1" stop-color="rgb(79.736328%, 81.407166%, 94.877625%)" offset="0.574219"/><stop stop-opacity="1" stop-color="rgb(80.143738%, 81.292725%, 94.830322%)" offset="0.578125"/><stop stop-opacity="1" stop-color="rgb(80.551147%, 81.176758%, 94.781494%)" offset="0.582031"/><stop stop-opacity="1" stop-color="rgb(80.960083%, 81.062317%, 94.734192%)" offset="0.585938"/><stop stop-opacity="1" stop-color="rgb(81.367493%, 80.947876%, 94.685364%)" offset="0.589844"/><stop stop-opacity="1" stop-color="rgb(81.774902%, 80.833435%, 94.638062%)" offset="0.59375"/><stop stop-opacity="1" stop-color="rgb(82.182312%, 80.717468%, 94.589233%)" offset="0.597656"/><stop stop-opacity="1" stop-color="rgb(82.589722%, 80.603027%, 94.541931%)" offset="0.601562"/><stop stop-opacity="1" stop-color="rgb(82.997131%, 80.488586%, 94.494629%)" offset="0.605469"/><stop stop-opacity="1" stop-color="rgb(83.406067%, 80.374146%, 94.447327%)" offset="0.609375"/><stop stop-opacity="1" stop-color="rgb(83.813477%, 80.258179%, 94.398499%)" offset="0.613281"/><stop stop-opacity="1" stop-color="rgb(84.220886%, 80.143738%, 94.351196%)" offset="0.617188"/><stop stop-opacity="1" stop-color="rgb(84.628296%, 80.029297%, 94.302368%)" offset="0.621094"/><stop stop-opacity="1" stop-color="rgb(85.035706%, 79.914856%, 94.255066%)" offset="0.625"/><stop stop-opacity="1" stop-color="rgb(85.443115%, 79.798889%, 94.207764%)" offset="0.628906"/><stop stop-opacity="1" stop-color="rgb(85.852051%, 79.684448%, 94.160461%)" offset="0.632812"/><stop stop-opacity="1" stop-color="rgb(86.25946%, 79.568481%, 94.111633%)" offset="0.636719"/><stop stop-opacity="1" stop-color="rgb(86.66687%, 79.454041%, 94.064331%)" offset="0.640625"/><stop stop-opacity="1" stop-color="rgb(87.07428%, 79.3396%, 94.015503%)" offset="0.644531"/><stop stop-opacity="1" stop-color="rgb(87.483215%, 79.225159%, 93.968201%)" offset="0.648438"/><stop stop-opacity="1" stop-color="rgb(87.890625%, 79.109192%, 93.919373%)" offset="0.652344"/><stop stop-opacity="1" stop-color="rgb(88.298035%, 78.994751%, 93.87207%)" offset="0.65625"/><stop stop-opacity="1" stop-color="rgb(88.705444%, 78.88031%, 93.824768%)" offset="0.660156"/><stop stop-opacity="1" stop-color="rgb(89.112854%, 78.765869%, 93.777466%)" offset="0.664062"/><stop stop-opacity="1" stop-color="rgb(89.520264%, 78.649902%, 93.728638%)" offset="0.667969"/><stop stop-opacity="1" stop-color="rgb(89.929199%, 78.535461%, 93.681335%)" offset="0.671875"/><stop stop-opacity="1" stop-color="rgb(90.336609%, 78.421021%, 93.632507%)" offset="0.675781"/><stop stop-opacity="1" stop-color="rgb(90.744019%, 78.30658%, 93.585205%)" offset="0.679688"/><stop stop-opacity="1" stop-color="rgb(91.151428%, 78.190613%, 93.536377%)" offset="0.683594"/><stop stop-opacity="1" stop-color="rgb(91.558838%, 78.076172%, 93.489075%)" offset="0.6875"/><stop stop-opacity="1" stop-color="rgb(91.966248%, 77.961731%, 93.441772%)" offset="0.691406"/><stop stop-opacity="1" stop-color="rgb(92.375183%, 77.84729%, 93.39447%)" offset="0.695312"/><stop stop-opacity="1" stop-color="rgb(92.782593%, 77.731323%, 93.345642%)" offset="0.699219"/><stop stop-opacity="1" stop-color="rgb(93.190002%, 77.616882%, 93.29834%)" offset="0.703125"/><stop stop-opacity="1" stop-color="rgb(93.597412%, 77.502441%, 93.249512%)" offset="0.707031"/><stop stop-opacity="1" stop-color="rgb(94.006348%, 77.388%, 93.202209%)" offset="0.710938"/><stop stop-opacity="1" stop-color="rgb(94.413757%, 77.272034%, 93.154907%)" offset="0.714844"/><stop stop-opacity="1" stop-color="rgb(94.821167%, 77.157593%, 93.107605%)" offset="0.71875"/><stop stop-opacity="1" stop-color="rgb(95.228577%, 77.043152%, 93.058777%)" offset="0.722656"/><stop stop-opacity="1" stop-color="rgb(95.635986%, 76.928711%, 93.011475%)" offset="0.726562"/><stop stop-opacity="1" stop-color="rgb(96.043396%, 76.812744%, 92.962646%)" offset="0.730469"/><stop stop-opacity="1" stop-color="rgb(96.452332%, 76.698303%, 92.915344%)" offset="0.734375"/><stop stop-opacity="1" stop-color="rgb(96.859741%, 76.583862%, 92.866516%)" offset="0.738281"/><stop stop-opacity="1" stop-color="rgb(97.267151%, 76.469421%, 92.819214%)" offset="0.742188"/><stop stop-opacity="1" stop-color="rgb(97.674561%, 76.353455%, 92.771912%)" offset="0.746094"/><stop stop-opacity="1" stop-color="rgb(98.083496%, 76.239014%, 92.724609%)" offset="0.75"/><stop stop-opacity="1" stop-color="rgb(98.490906%, 76.124573%, 92.675781%)" offset="0.753906"/><stop stop-opacity="1" stop-color="rgb(98.898315%, 76.010132%, 92.628479%)" offset="0.757812"/><stop stop-opacity="1" stop-color="rgb(99.305725%, 75.894165%, 92.579651%)" offset="0.761719"/><stop stop-opacity="1" stop-color="rgb(99.713135%, 75.779724%, 92.532349%)" offset="0.765625"/><stop stop-opacity="1" stop-color="rgb(99.856567%, 75.738525%, 92.515564%)" offset="0.78125"/><stop stop-opacity="1" stop-color="rgb(100%, 75.698853%, 92.498779%)" offset="0.8125"/><stop stop-opacity="1" stop-color="rgb(100%, 75.698853%, 92.498779%)" offset="0.875"/><stop stop-opacity="1" stop-color="rgb(100%, 75.698853%, 92.498779%)" offset="1"/></linearGradient><clipPath id="6a8b2d7f2c"><path d="M 137 100 L 299.984375 100 L 299.984375 245.675781 L 137 245.675781 Z M 137 100 " clip-rule="nonzero"/></clipPath><clipPath id="6d62e3d49d"><path d="M 203.238281 109.171875 C 220.328125 103.796875 238.066406 98.664062 255.886719 100.515625 C 264.800781 101.441406 273.609375 104.171875 281.066406 109.136719 C 288.519531 114.105469 294.550781 121.390625 297.300781 129.910156 C 300.03125 138.359375 299.464844 147.503906 298.191406 156.289062 C 296.917969 165.074219 294.957031 173.816406 294.980469 182.695312 C 295.003906 191.769531 297.101562 200.714844 297.605469 209.773438 C 297.859375 214.304688 297.707031 218.886719 296.707031 223.3125 C 295.707031 227.738281 293.828125 232.015625 290.898438 235.476562 C 287.058594 240.011719 281.542969 242.964844 275.742188 244.265625 C 269.945312 245.566406 263.871094 245.289062 258.046875 244.109375 C 246.394531 241.742188 235.804688 235.878906 224.691406 231.660156 C 208.675781 225.582031 191.515625 222.90625 175.59375 216.585938 C 167.632812 213.425781 159.96875 209.324219 153.484375 203.734375 C 146.996094 198.144531 141.714844 190.996094 139.113281 182.839844 C 136.191406 173.683594 136.789062 163.566406 140.125 154.550781 C 143.457031 145.535156 149.425781 137.609375 156.726562 131.351562 C 169.855469 120.089844 186.734375 114.363281 203.238281 109.171875 Z M 203.238281 109.171875 " clip-rule="nonzero"/></clipPath><linearGradient x1="-1317.30398" gradientTransform="matrix(-0.592679, 0, 0, 0.592371, -480.754512, 1972.283282)" y1="-3038.054" x2="-1040.945112" gradientUnits="userSpaceOnUse" y2="-3038.054" id="c5c3d88878"><stop stop-opacity="1" stop-color="rgb(100%, 92.89856%, 63.899231%)" offset="0"/><stop stop-opacity="1" stop-color="rgb(99.926758%, 92.721558%, 63.960266%)" offset="0.015625"/><stop stop-opacity="1" stop-color="rgb(99.803162%, 92.422485%, 64.065552%)" offset="0.0234375"/><stop stop-opacity="1" stop-color="rgb(99.700928%, 92.175293%, 64.152527%)" offset="0.03125"/><stop stop-opacity="1" stop-color="rgb(99.598694%, 91.928101%, 64.239502%)" offset="0.0390625"/><stop stop-opacity="1" stop-color="rgb(99.49646%, 91.680908%, 64.326477%)" offset="0.046875"/><stop stop-opacity="1" stop-color="rgb(99.394226%, 91.433716%, 64.413452%)" offset="0.0546875"/><stop stop-opacity="1" stop-color="rgb(99.293518%, 91.186523%, 64.500427%)" offset="0.0625"/><stop stop-opacity="1" stop-color="rgb(99.191284%, 90.939331%, 64.587402%)" offset="0.0703125"/><stop stop-opacity="1" stop-color="rgb(99.08905%, 90.692139%, 64.674377%)" offset="0.078125"/><stop stop-opacity="1" stop-color="rgb(98.986816%, 90.444946%, 64.761353%)" offset="0.0859375"/><stop stop-opacity="1" stop-color="rgb(98.886108%, 90.197754%, 64.848328%)" offset="0.09375"/><stop stop-opacity="1" stop-color="rgb(98.783875%, 89.950562%, 64.935303%)" offset="0.101563"/><stop stop-opacity="1" stop-color="rgb(98.681641%, 89.703369%, 65.020752%)" offset="0.109375"/><stop stop-opacity="1" stop-color="rgb(98.579407%, 89.456177%, 65.107727%)" offset="0.117188"/><stop stop-opacity="1" stop-color="rgb(98.477173%, 89.208984%, 65.194702%)" offset="0.125"/><stop stop-opacity="1" stop-color="rgb(98.376465%, 88.961792%, 65.281677%)" offset="0.132812"/><stop stop-opacity="1" stop-color="rgb(98.274231%, 88.7146%, 65.368652%)" offset="0.140625"/><stop stop-opacity="1" stop-color="rgb(98.171997%, 88.467407%, 65.455627%)" offset="0.148438"/><stop stop-opacity="1" stop-color="rgb(98.069763%, 88.220215%, 65.542603%)" offset="0.15625"/><stop stop-opacity="1" stop-color="rgb(97.969055%, 87.973022%, 65.629578%)" offset="0.164062"/><stop stop-opacity="1" stop-color="rgb(97.866821%, 87.72583%, 65.716553%)" offset="0.171875"/><stop stop-opacity="1" stop-color="rgb(97.764587%, 87.478638%, 65.803528%)" offset="0.179688"/><stop stop-opacity="1" stop-color="rgb(97.662354%, 87.231445%, 65.890503%)" offset="0.1875"/><stop stop-opacity="1" stop-color="rgb(97.561646%, 86.984253%, 65.977478%)" offset="0.195312"/><stop stop-opacity="1" stop-color="rgb(97.459412%, 86.737061%, 66.064453%)" offset="0.203125"/><stop stop-opacity="1" stop-color="rgb(97.357178%, 86.489868%, 66.151428%)" offset="0.210938"/><stop stop-opacity="1" stop-color="rgb(97.254944%, 86.242676%, 66.238403%)" offset="0.21875"/><stop stop-opacity="1" stop-color="rgb(97.15271%, 85.995483%, 66.325378%)" offset="0.226562"/><stop stop-opacity="1" stop-color="rgb(97.052002%, 85.748291%, 66.410828%)" offset="0.234375"/><stop stop-opacity="1" stop-color="rgb(96.949768%, 85.501099%, 66.497803%)" offset="0.242188"/><stop stop-opacity="1" stop-color="rgb(96.847534%, 85.253906%, 66.584778%)" offset="0.25"/><stop stop-opacity="1" stop-color="rgb(96.7453%, 85.006714%, 66.671753%)" offset="0.257812"/><stop stop-opacity="1" stop-color="rgb(96.644592%, 84.759521%, 66.758728%)" offset="0.265625"/><stop stop-opacity="1" stop-color="rgb(96.542358%, 84.512329%, 66.845703%)" offset="0.273438"/><stop stop-opacity="1" stop-color="rgb(96.440125%, 84.265137%, 66.932678%)" offset="0.28125"/><stop stop-opacity="1" stop-color="rgb(96.337891%, 84.017944%, 67.019653%)" offset="0.289063"/><stop stop-opacity="1" stop-color="rgb(96.237183%, 83.770752%, 67.106628%)" offset="0.296875"/><stop stop-opacity="1" stop-color="rgb(96.134949%, 83.52356%, 67.193604%)" offset="0.304688"/><stop stop-opacity="1" stop-color="rgb(96.032715%, 83.276367%, 67.280579%)" offset="0.3125"/><stop stop-opacity="1" stop-color="rgb(95.930481%, 83.029175%, 67.367554%)" offset="0.320313"/><stop stop-opacity="1" stop-color="rgb(95.828247%, 82.781982%, 67.454529%)" offset="0.328125"/><stop stop-opacity="1" stop-color="rgb(95.727539%, 82.53479%, 67.541504%)" offset="0.335938"/><stop stop-opacity="1" stop-color="rgb(95.625305%, 82.287598%, 67.628479%)" offset="0.34375"/><stop stop-opacity="1" stop-color="rgb(95.523071%, 82.040405%, 67.715454%)" offset="0.351563"/><stop stop-opacity="1" stop-color="rgb(95.420837%, 81.793213%, 67.800903%)" offset="0.359375"/><stop stop-opacity="1" stop-color="rgb(95.320129%, 81.546021%, 67.887878%)" offset="0.367188"/><stop stop-opacity="1" stop-color="rgb(95.217896%, 81.298828%, 67.974854%)" offset="0.375"/><stop stop-opacity="1" stop-color="rgb(95.115662%, 81.051636%, 68.061829%)" offset="0.382813"/><stop stop-opacity="1" stop-color="rgb(95.013428%, 80.804443%, 68.148804%)" offset="0.390625"/><stop stop-opacity="1" stop-color="rgb(94.911194%, 80.557251%, 68.235779%)" offset="0.398438"/><stop stop-opacity="1" stop-color="rgb(94.810486%, 80.310059%, 68.322754%)" offset="0.40625"/><stop stop-opacity="1" stop-color="rgb(94.708252%, 80.062866%, 68.409729%)" offset="0.414063"/><stop stop-opacity="1" stop-color="rgb(94.606018%, 79.815674%, 68.496704%)" offset="0.421875"/><stop stop-opacity="1" stop-color="rgb(94.503784%, 79.568481%, 68.583679%)" offset="0.429688"/><stop stop-opacity="1" stop-color="rgb(94.403076%, 79.321289%, 68.670654%)" offset="0.4375"/><stop stop-opacity="1" stop-color="rgb(94.300842%, 79.074097%, 68.757629%)" offset="0.445313"/><stop stop-opacity="1" stop-color="rgb(94.198608%, 78.826904%, 68.844604%)" offset="0.453125"/><stop stop-opacity="1" stop-color="rgb(94.096375%, 78.579712%, 68.93158%)" offset="0.460938"/><stop stop-opacity="1" stop-color="rgb(93.995667%, 78.33252%, 69.018555%)" offset="0.46875"/><stop stop-opacity="1" stop-color="rgb(93.893433%, 78.085327%, 69.10553%)" offset="0.476563"/><stop stop-opacity="1" stop-color="rgb(93.791199%, 77.838135%, 69.190979%)" offset="0.484375"/><stop stop-opacity="1" stop-color="rgb(93.688965%, 77.590942%, 69.277954%)" offset="0.492188"/><stop stop-opacity="1" stop-color="rgb(93.586731%, 77.34375%, 69.364929%)" offset="0.5"/><stop stop-opacity="1" stop-color="rgb(93.486023%, 77.096558%, 69.451904%)" offset="0.507813"/><stop stop-opacity="1" stop-color="rgb(93.383789%, 76.849365%, 69.538879%)" offset="0.515625"/><stop stop-opacity="1" stop-color="rgb(93.281555%, 76.602173%, 69.625854%)" offset="0.523438"/><stop stop-opacity="1" stop-color="rgb(93.179321%, 76.35498%, 69.71283%)" offset="0.53125"/><stop stop-opacity="1" stop-color="rgb(93.078613%, 76.107788%, 69.799805%)" offset="0.539063"/><stop stop-opacity="1" stop-color="rgb(92.976379%, 75.860596%, 69.88678%)" offset="0.546875"/><stop stop-opacity="1" stop-color="rgb(92.874146%, 75.613403%, 69.973755%)" offset="0.554688"/><stop stop-opacity="1" stop-color="rgb(92.771912%, 75.366211%, 70.06073%)" offset="0.5625"/><stop stop-opacity="1" stop-color="rgb(92.669678%, 75.119019%, 70.147705%)" offset="0.570313"/><stop stop-opacity="1" stop-color="rgb(92.56897%, 74.8703%, 70.23468%)" offset="0.578125"/><stop stop-opacity="1" stop-color="rgb(92.466736%, 74.623108%, 70.321655%)" offset="0.585938"/><stop stop-opacity="1" stop-color="rgb(92.364502%, 74.375916%, 70.40863%)" offset="0.59375"/><stop stop-opacity="1" stop-color="rgb(92.262268%, 74.128723%, 70.495605%)" offset="0.601563"/><stop stop-opacity="1" stop-color="rgb(92.16156%, 73.881531%, 70.582581%)" offset="0.609375"/><stop stop-opacity="1" stop-color="rgb(92.059326%, 73.634338%, 70.66803%)" offset="0.617188"/><stop stop-opacity="1" stop-color="rgb(91.957092%, 73.387146%, 70.755005%)" offset="0.625"/><stop stop-opacity="1" stop-color="rgb(91.854858%, 73.139954%, 70.84198%)" offset="0.632813"/><stop stop-opacity="1" stop-color="rgb(91.75415%, 72.892761%, 70.928955%)" offset="0.640625"/><stop stop-opacity="1" stop-color="rgb(91.651917%, 72.645569%, 71.01593%)" offset="0.648438"/><stop stop-opacity="1" stop-color="rgb(91.549683%, 72.398376%, 71.102905%)" offset="0.65625"/><stop stop-opacity="1" stop-color="rgb(91.447449%, 72.151184%, 71.18988%)" offset="0.664063"/><stop stop-opacity="1" stop-color="rgb(91.345215%, 71.903992%, 71.276855%)" offset="0.671875"/><stop stop-opacity="1" stop-color="rgb(91.244507%, 71.656799%, 71.363831%)" offset="0.679688"/><stop stop-opacity="1" stop-color="rgb(91.142273%, 71.409607%, 71.450806%)" offset="0.6875"/><stop stop-opacity="1" stop-color="rgb(91.040039%, 71.162415%, 71.537781%)" offset="0.695313"/><stop stop-opacity="1" stop-color="rgb(90.937805%, 70.915222%, 71.624756%)" offset="0.703125"/><stop stop-opacity="1" stop-color="rgb(90.837097%, 70.66803%, 71.711731%)" offset="0.710938"/><stop stop-opacity="1" stop-color="rgb(90.734863%, 70.420837%, 71.798706%)" offset="0.71875"/><stop stop-opacity="1" stop-color="rgb(90.632629%, 70.173645%, 71.885681%)" offset="0.726563"/><stop stop-opacity="1" stop-color="rgb(90.530396%, 69.926453%, 71.972656%)" offset="0.734375"/><stop stop-opacity="1" stop-color="rgb(90.428162%, 69.67926%, 72.058105%)" offset="0.742188"/><stop stop-opacity="1" stop-color="rgb(90.327454%, 69.432068%, 72.145081%)" offset="0.75"/><stop stop-opacity="1" stop-color="rgb(90.22522%, 69.184875%, 72.232056%)" offset="0.757813"/><stop stop-opacity="1" stop-color="rgb(90.122986%, 68.937683%, 72.319031%)" offset="0.765625"/><stop stop-opacity="1" stop-color="rgb(90.020752%, 68.690491%, 72.406006%)" offset="0.773438"/><stop stop-opacity="1" stop-color="rgb(89.920044%, 68.443298%, 72.492981%)" offset="0.78125"/><stop stop-opacity="1" stop-color="rgb(89.81781%, 68.196106%, 72.579956%)" offset="0.789063"/><stop stop-opacity="1" stop-color="rgb(89.715576%, 67.948914%, 72.666931%)" offset="0.796875"/><stop stop-opacity="1" stop-color="rgb(89.613342%, 67.701721%, 72.753906%)" offset="0.804688"/><stop stop-opacity="1" stop-color="rgb(89.512634%, 67.454529%, 72.840881%)" offset="0.8125"/><stop stop-opacity="1" stop-color="rgb(89.4104%, 67.207336%, 72.927856%)" offset="0.820313"/><stop stop-opacity="1" stop-color="rgb(89.308167%, 66.960144%, 73.014832%)" offset="0.828125"/><stop stop-opacity="1" stop-color="rgb(89.205933%, 66.712952%, 73.101807%)" offset="0.835938"/><stop stop-opacity="1" stop-color="rgb(89.103699%, 66.465759%, 73.188782%)" offset="0.84375"/><stop stop-opacity="1" stop-color="rgb(89.002991%, 66.218567%, 73.275757%)" offset="0.851563"/><stop stop-opacity="1" stop-color="rgb(88.900757%, 65.971375%, 73.362732%)" offset="0.859375"/><stop stop-opacity="1" stop-color="rgb(88.798523%, 65.724182%, 73.448181%)" offset="0.867188"/><stop stop-opacity="1" stop-color="rgb(88.696289%, 65.47699%, 73.535156%)" offset="0.875"/><stop stop-opacity="1" stop-color="rgb(88.595581%, 65.229797%, 73.622131%)" offset="0.882813"/><stop stop-opacity="1" stop-color="rgb(88.493347%, 64.982605%, 73.709106%)" offset="0.890625"/><stop stop-opacity="1" stop-color="rgb(88.391113%, 64.735413%, 73.796082%)" offset="0.898438"/><stop stop-opacity="1" stop-color="rgb(88.288879%, 64.48822%, 73.883057%)" offset="0.90625"/><stop stop-opacity="1" stop-color="rgb(88.186646%, 64.241028%, 73.970032%)" offset="0.914063"/><stop stop-opacity="1" stop-color="rgb(88.085938%, 63.993835%, 74.057007%)" offset="0.921875"/><stop stop-opacity="1" stop-color="rgb(87.983704%, 63.746643%, 74.143982%)" offset="0.929688"/><stop stop-opacity="1" stop-color="rgb(87.88147%, 63.499451%, 74.230957%)" offset="0.9375"/><stop stop-opacity="1" stop-color="rgb(87.779236%, 63.252258%, 74.317932%)" offset="0.945313"/><stop stop-opacity="1" stop-color="rgb(87.678528%, 63.005066%, 74.404907%)" offset="0.953125"/><stop stop-opacity="1" stop-color="rgb(87.576294%, 62.757874%, 74.491882%)" offset="0.960938"/><stop stop-opacity="1" stop-color="rgb(87.47406%, 62.510681%, 74.578857%)" offset="0.96875"/><stop stop-opacity="1" stop-color="rgb(87.371826%, 62.263489%, 74.665833%)" offset="0.976563"/><stop stop-opacity="1" stop-color="rgb(87.271118%, 62.016296%, 74.752808%)" offset="0.984375"/><stop stop-opacity="1" stop-color="rgb(87.159729%, 61.746216%, 74.847412%)" offset="1"/></linearGradient></defs><g clip-path="url(#28ef186931)"><g clip-path="url(#386ab94c55)"><g clip-path="url(#eb4fc3a758)"><g clip-path="url(#c209cf339f)"><g clip-path="url(#a400eca008)"><path fill="url(#a0db350707)" d="M 337.765625 153.984375 L 114.890625 346.40625 L -75.789062 125.550781 L 147.082031 -66.871094 Z M 337.765625 153.984375 " fill-rule="nonzero"/></g></g></g></g></g><g clip-path="url(#6a8b2d7f2c)"><g clip-path="url(#6d62e3d49d)"><path fill="url(#c5c3d88878)" d="M 299.984375 98.664062 L 299.984375 245.566406 L 136.191406 245.566406 L 136.191406 98.664062 Z M 299.984375 98.664062 " fill-rule="nonzero"/></g></g><g fill="#444444" fill-opacity="1"><g transform="translate(44.122533, 161.759936)"><g><path d="M 3.5 -29.125 L 25.671875 -29.125 L 25.671875 -23.296875 L 9.90625 -23.296875 L 9.90625 -17.09375 L 23.796875 -17.09375 L 23.796875 -11.28125 L 9.90625 -11.28125 L 9.90625 0 L 3.5 0 Z M 3.5 -29.125 "/></g></g></g><g fill="#444444" fill-opacity="1"><g transform="translate(71.413687, 161.759936)"><g><path d="M 3.5 -29.125 L 25.46875 -29.125 L 25.46875 -23.421875 L 9.859375 -23.421875 L 9.859375 -17.515625 L 23.59375 -17.515625 L 23.59375 -11.8125 L 9.859375 -11.8125 L 9.859375 -5.703125 L 25.671875 -5.703125 L 25.671875 0 L 3.5 0 Z M 3.5 -29.125 "/></g></g></g><g fill="#444444" fill-opacity="1"><g transform="translate(99.287273, 161.759936)"><g><path d="M 13.484375 -29.328125 L 19.390625 -29.328125 L 31.875 0 L 25.171875 0 L 22.515625 -6.53125 L 10.1875 -6.53125 L 7.53125 0 L 1 0 Z M 20.21875 -12.1875 L 16.359375 -21.640625 L 12.484375 -12.1875 Z M 20.21875 -12.1875 "/></g></g></g><g fill="#444444" fill-opacity="1"><g transform="translate(132.153142, 161.759936)"><g><path d="M 3.5 -29.125 L 16.8125 -29.125 C 20.5 -29.125 23.328125 -28.140625 25.296875 -26.171875 C 26.960938 -24.503906 27.796875 -22.285156 27.796875 -19.515625 L 27.796875 -19.4375 C 27.796875 -17.070312 27.21875 -15.144531 26.0625 -13.65625 C 24.914062 -12.175781 23.410156 -11.09375 21.546875 -10.40625 L 28.671875 0 L 21.171875 0 L 14.9375 -9.328125 L 9.90625 -9.328125 L 9.90625 0 L 3.5 0 Z M 16.390625 -14.984375 C 17.972656 -14.984375 19.1875 -15.351562 20.03125 -16.09375 C 20.875 -16.84375 21.296875 -17.84375 21.296875 -19.09375 L 21.296875 -19.1875 C 21.296875 -20.570312 20.851562 -21.609375 19.96875 -22.296875 C 19.082031 -22.992188 17.847656 -23.34375 16.265625 -23.34375 L 9.90625 -23.34375 L 9.90625 -14.984375 Z M 16.390625 -14.984375 "/></g></g></g><g fill="#444444" fill-opacity="1"><g transform="translate(162.231645, 161.759936)"><g><path d="M 3.5 -29.125 L 9.90625 -29.125 L 9.90625 -5.828125 L 24.421875 -5.828125 L 24.421875 0 L 3.5 0 Z M 3.5 -29.125 "/></g></g></g><g fill="#444444" fill-opacity="1"><g transform="translate(187.983506, 161.759936)"><g><path d="M 3.5 -29.125 L 25.46875 -29.125 L 25.46875 -23.421875 L 9.859375 -23.421875 L 9.859375 -17.515625 L 23.59375 -17.515625 L 23.59375 -11.8125 L 9.859375 -11.8125 L 9.859375 -5.703125 L 25.671875 -5.703125 L 25.671875 0 L 3.5 0 Z M 3.5 -29.125 "/></g></g></g><g fill="#444444" fill-opacity="1"><g transform="translate(215.857098, 161.759936)"><g><path d="M 13.859375 0.421875 C 11.640625 0.421875 9.460938 0.0390625 7.328125 -0.71875 C 5.191406 -1.488281 3.25 -2.664062 1.5 -4.25 L 5.28125 -8.78125 C 6.613281 -7.695312 7.976562 -6.835938 9.375 -6.203125 C 10.78125 -5.566406 12.316406 -5.25 13.984375 -5.25 C 15.316406 -5.25 16.347656 -5.488281 17.078125 -5.96875 C 17.816406 -6.457031 18.1875 -7.128906 18.1875 -7.984375 L 18.1875 -8.078125 C 18.1875 -8.492188 18.109375 -8.859375 17.953125 -9.171875 C 17.796875 -9.492188 17.503906 -9.789062 17.078125 -10.0625 C 16.648438 -10.34375 16.050781 -10.617188 15.28125 -10.890625 C 14.519531 -11.171875 13.53125 -11.46875 12.3125 -11.78125 C 10.84375 -12.132812 9.507812 -12.53125 8.3125 -12.96875 C 7.125 -13.414062 6.113281 -13.96875 5.28125 -14.625 C 4.445312 -15.28125 3.800781 -16.09375 3.34375 -17.0625 C 2.882812 -18.03125 2.65625 -19.238281 2.65625 -20.6875 L 2.65625 -20.765625 C 2.65625 -22.097656 2.90625 -23.296875 3.40625 -24.359375 C 3.90625 -25.429688 4.601562 -26.351562 5.5 -27.125 C 6.40625 -27.90625 7.484375 -28.503906 8.734375 -28.921875 C 9.984375 -29.335938 11.359375 -29.546875 12.859375 -29.546875 C 14.992188 -29.546875 16.953125 -29.222656 18.734375 -28.578125 C 20.523438 -27.941406 22.171875 -27.03125 23.671875 -25.84375 L 20.34375 -21.015625 C 19.039062 -21.898438 17.765625 -22.597656 16.515625 -23.109375 C 15.265625 -23.628906 14.019531 -23.890625 12.78125 -23.890625 C 11.53125 -23.890625 10.59375 -23.644531 9.96875 -23.15625 C 9.34375 -22.664062 9.03125 -22.0625 9.03125 -21.34375 L 9.03125 -21.265625 C 9.03125 -20.796875 9.117188 -20.382812 9.296875 -20.03125 C 9.472656 -19.6875 9.796875 -19.375 10.265625 -19.09375 C 10.742188 -18.820312 11.390625 -18.5625 12.203125 -18.3125 C 13.023438 -18.0625 14.0625 -17.769531 15.3125 -17.4375 C 16.78125 -17.050781 18.085938 -16.613281 19.234375 -16.125 C 20.390625 -15.632812 21.363281 -15.050781 22.15625 -14.375 C 22.945312 -13.695312 23.539062 -12.898438 23.9375 -11.984375 C 24.34375 -11.066406 24.546875 -9.972656 24.546875 -8.703125 L 24.546875 -8.609375 C 24.546875 -7.171875 24.28125 -5.890625 23.75 -4.765625 C 23.226562 -3.640625 22.492188 -2.695312 21.546875 -1.9375 C 20.609375 -1.175781 19.488281 -0.59375 18.1875 -0.1875 C 16.882812 0.21875 15.441406 0.421875 13.859375 0.421875 Z M 13.859375 0.421875 "/></g></g></g><g fill="#444444" fill-opacity="1"><g transform="translate(242.482611, 161.759936)"><g><path d="M 13.859375 0.421875 C 11.640625 0.421875 9.460938 0.0390625 7.328125 -0.71875 C 5.191406 -1.488281 3.25 -2.664062 1.5 -4.25 L 5.28125 -8.78125 C 6.613281 -7.695312 7.976562 -6.835938 9.375 -6.203125 C 10.78125 -5.566406 12.316406 -5.25 13.984375 -5.25 C 15.316406 -5.25 16.347656 -5.488281 17.078125 -5.96875 C 17.816406 -6.457031 18.1875 -7.128906 18.1875 -7.984375 L 18.1875 -8.078125 C 18.1875 -8.492188 18.109375 -8.859375 17.953125 -9.171875 C 17.796875 -9.492188 17.503906 -9.789062 17.078125 -10.0625 C 16.648438 -10.34375 16.050781 -10.617188 15.28125 -10.890625 C 14.519531 -11.171875 13.53125 -11.46875 12.3125 -11.78125 C 10.84375 -12.132812 9.507812 -12.53125 8.3125 -12.96875 C 7.125 -13.414062 6.113281 -13.96875 5.28125 -14.625 C 4.445312 -15.28125 3.800781 -16.09375 3.34375 -17.0625 C 2.882812 -18.03125 2.65625 -19.238281 2.65625 -20.6875 L 2.65625 -20.765625 C 2.65625 -22.097656 2.90625 -23.296875 3.40625 -24.359375 C 3.90625 -25.429688 4.601562 -26.351562 5.5 -27.125 C 6.40625 -27.90625 7.484375 -28.503906 8.734375 -28.921875 C 9.984375 -29.335938 11.359375 -29.546875 12.859375 -29.546875 C 14.992188 -29.546875 16.953125 -29.222656 18.734375 -28.578125 C 20.523438 -27.941406 22.171875 -27.03125 23.671875 -25.84375 L 20.34375 -21.015625 C 19.039062 -21.898438 17.765625 -22.597656 16.515625 -23.109375 C 15.265625 -23.628906 14.019531 -23.890625 12.78125 -23.890625 C 11.53125 -23.890625 10.59375 -23.644531 9.96875 -23.15625 C 9.34375 -22.664062 9.03125 -22.0625 9.03125 -21.34375 L 9.03125 -21.265625 C 9.03125 -20.796875 9.117188 -20.382812 9.296875 -20.03125 C 9.472656 -19.6875 9.796875 -19.375 10.265625 -19.09375 C 10.742188 -18.820312 11.390625 -18.5625 12.203125 -18.3125 C 13.023438 -18.0625 14.0625 -17.769531 15.3125 -17.4375 C 16.78125 -17.050781 18.085938 -16.613281 19.234375 -16.125 C 20.390625 -15.632812 21.363281 -15.050781 22.15625 -14.375 C 22.945312 -13.695312 23.539062 -12.898438 23.9375 -11.984375 C 24.34375 -11.066406 24.546875 -9.972656 24.546875 -8.703125 L 24.546875 -8.609375 C 24.546875 -7.171875 24.28125 -5.890625 23.75 -4.765625 C 23.226562 -3.640625 22.492188 -2.695312 21.546875 -1.9375 C 20.609375 -1.175781 19.488281 -0.59375 18.1875 -0.1875 C 16.882812 0.21875 15.441406 0.421875 13.859375 0.421875 Z M 13.859375 0.421875 "/></g></g></g><g fill="#444444" fill-opacity="1"><g transform="translate(97.246564, 194.594162)"><g><path d="M 7.015625 0.203125 C 6.117188 0.203125 5.296875 0.046875 4.546875 -0.265625 C 3.796875 -0.585938 3.144531 -1.015625 2.59375 -1.546875 C 2.050781 -2.078125 1.628906 -2.703125 1.328125 -3.421875 C 1.023438 -4.148438 0.875 -4.929688 0.875 -5.765625 L 0.875 -5.796875 C 0.875 -6.617188 1.023438 -7.390625 1.328125 -8.109375 C 1.640625 -8.835938 2.066406 -9.472656 2.609375 -10.015625 C 3.160156 -10.566406 3.8125 -11 4.5625 -11.3125 C 5.320312 -11.625 6.148438 -11.78125 7.046875 -11.78125 C 7.941406 -11.78125 8.765625 -11.625 9.515625 -11.3125 C 10.265625 -11 10.910156 -10.570312 11.453125 -10.03125 C 12.003906 -9.5 12.429688 -8.867188 12.734375 -8.140625 C 13.035156 -7.421875 13.1875 -6.648438 13.1875 -5.828125 L 13.1875 -5.796875 C 13.1875 -4.960938 13.03125 -4.179688 12.71875 -3.453125 C 12.414062 -2.734375 11.988281 -2.101562 11.4375 -1.5625 C 10.894531 -1.019531 10.242188 -0.585938 9.484375 -0.265625 C 8.734375 0.046875 7.910156 0.203125 7.015625 0.203125 Z M 7.046875 -2.15625 C 7.554688 -2.15625 8.023438 -2.25 8.453125 -2.4375 C 8.878906 -2.625 9.242188 -2.878906 9.546875 -3.203125 C 9.859375 -3.535156 10.097656 -3.921875 10.265625 -4.359375 C 10.441406 -4.796875 10.53125 -5.265625 10.53125 -5.765625 L 10.53125 -5.796875 C 10.53125 -6.285156 10.441406 -6.75 10.265625 -7.1875 C 10.097656 -7.632812 9.851562 -8.023438 9.53125 -8.359375 C 9.21875 -8.691406 8.847656 -8.953125 8.421875 -9.140625 C 7.992188 -9.335938 7.523438 -9.4375 7.015625 -9.4375 C 6.492188 -9.4375 6.019531 -9.34375 5.59375 -9.15625 C 5.175781 -8.96875 4.8125 -8.707031 4.5 -8.375 C 4.195312 -8.039062 3.960938 -7.65625 3.796875 -7.21875 C 3.628906 -6.78125 3.546875 -6.316406 3.546875 -5.828125 L 3.546875 -5.796875 C 3.546875 -5.296875 3.628906 -4.820312 3.796875 -4.375 C 3.960938 -3.9375 4.203125 -3.550781 4.515625 -3.21875 C 4.835938 -2.894531 5.207031 -2.632812 5.625 -2.4375 C 6.050781 -2.25 6.523438 -2.15625 7.046875 -2.15625 Z M 7.046875 -2.15625 "/></g></g></g><g fill="#444444" fill-opacity="1"><g transform="translate(111.308444, 194.594162)"><g><path d="M 1.125 -8.875 L 3.640625 -8.875 L 3.640625 -7.078125 C 3.890625 -7.679688 4.234375 -8.164062 4.671875 -8.53125 C 5.117188 -8.894531 5.71875 -9.0625 6.46875 -9.03125 L 6.46875 -6.40625 L 6.34375 -6.40625 C 5.5 -6.40625 4.835938 -6.148438 4.359375 -5.640625 C 3.878906 -5.128906 3.640625 -4.34375 3.640625 -3.28125 L 3.640625 0 L 1.125 0 Z M 1.125 -8.875 "/></g></g></g><g fill="#444444" fill-opacity="1"><g transform="translate(118.223579, 194.594162)"><g><path d="M 4.765625 0.171875 C 4.242188 0.171875 3.738281 0.0703125 3.25 -0.125 C 2.769531 -0.332031 2.34375 -0.628906 1.96875 -1.015625 C 1.59375 -1.410156 1.289062 -1.890625 1.0625 -2.453125 C 0.84375 -3.023438 0.734375 -3.679688 0.734375 -4.421875 L 0.734375 -4.453125 C 0.734375 -5.191406 0.84375 -5.84375 1.0625 -6.40625 C 1.289062 -6.976562 1.585938 -7.457031 1.953125 -7.84375 C 2.328125 -8.238281 2.753906 -8.535156 3.234375 -8.734375 C 3.722656 -8.929688 4.234375 -9.03125 4.765625 -9.03125 C 5.441406 -9.03125 5.992188 -8.894531 6.421875 -8.625 C 6.859375 -8.363281 7.226562 -8.054688 7.53125 -7.703125 L 7.53125 -12.078125 L 10.046875 -12.078125 L 10.046875 0 L 7.53125 0 L 7.53125 -1.28125 C 7.21875 -0.851562 6.84375 -0.503906 6.40625 -0.234375 C 5.976562 0.0351562 5.429688 0.171875 4.765625 0.171875 Z M 5.40625 -1.96875 C 5.707031 -1.96875 5.988281 -2.023438 6.25 -2.140625 C 6.507812 -2.253906 6.734375 -2.421875 6.921875 -2.640625 C 7.117188 -2.859375 7.273438 -3.117188 7.390625 -3.421875 C 7.503906 -3.722656 7.5625 -4.054688 7.5625 -4.421875 L 7.5625 -4.453125 C 7.5625 -4.816406 7.503906 -5.148438 7.390625 -5.453125 C 7.273438 -5.753906 7.117188 -6.007812 6.921875 -6.21875 C 6.734375 -6.4375 6.507812 -6.601562 6.25 -6.71875 C 5.988281 -6.84375 5.707031 -6.90625 5.40625 -6.90625 C 5.113281 -6.90625 4.835938 -6.84375 4.578125 -6.71875 C 4.316406 -6.601562 4.085938 -6.4375 3.890625 -6.21875 C 3.691406 -6.007812 3.535156 -5.753906 3.421875 -5.453125 C 3.304688 -5.160156 3.25 -4.828125 3.25 -4.453125 L 3.25 -4.421875 C 3.25 -4.054688 3.304688 -3.722656 3.421875 -3.421875 C 3.535156 -3.117188 3.691406 -2.859375 3.890625 -2.640625 C 4.085938 -2.421875 4.316406 -2.253906 4.578125 -2.140625 C 4.835938 -2.023438 5.113281 -1.96875 5.40625 -1.96875 Z M 5.40625 -1.96875 "/></g></g></g><g fill="#444444" fill-opacity="1"><g transform="translate(129.390365, 194.594162)"><g><path d="M 5.328125 0.203125 C 4.660156 0.203125 4.039062 0.09375 3.46875 -0.125 C 2.90625 -0.351562 2.414062 -0.671875 2 -1.078125 C 1.59375 -1.484375 1.269531 -1.960938 1.03125 -2.515625 C 0.800781 -3.078125 0.6875 -3.703125 0.6875 -4.390625 L 0.6875 -4.421875 C 0.6875 -5.046875 0.796875 -5.640625 1.015625 -6.203125 C 1.234375 -6.765625 1.535156 -7.253906 1.921875 -7.671875 C 2.304688 -8.097656 2.765625 -8.429688 3.296875 -8.671875 C 3.835938 -8.910156 4.429688 -9.03125 5.078125 -9.03125 C 5.816406 -9.03125 6.457031 -8.894531 7 -8.625 C 7.539062 -8.363281 7.988281 -8.007812 8.34375 -7.5625 C 8.707031 -7.125 8.972656 -6.613281 9.140625 -6.03125 C 9.316406 -5.445312 9.40625 -4.84375 9.40625 -4.21875 C 9.40625 -4.125 9.398438 -4.019531 9.390625 -3.90625 C 9.378906 -3.789062 9.367188 -3.675781 9.359375 -3.5625 L 3.1875 -3.5625 C 3.3125 -2.988281 3.5625 -2.550781 3.9375 -2.25 C 4.320312 -1.957031 4.796875 -1.8125 5.359375 -1.8125 C 5.773438 -1.8125 6.148438 -1.882812 6.484375 -2.03125 C 6.816406 -2.175781 7.160156 -2.410156 7.515625 -2.734375 L 8.953125 -1.453125 C 8.535156 -0.929688 8.023438 -0.523438 7.421875 -0.234375 C 6.828125 0.0546875 6.128906 0.203125 5.328125 0.203125 Z M 6.953125 -5.125 C 6.867188 -5.6875 6.664062 -6.140625 6.34375 -6.484375 C 6.03125 -6.835938 5.609375 -7.015625 5.078125 -7.015625 C 4.546875 -7.015625 4.117188 -6.84375 3.796875 -6.5 C 3.472656 -6.15625 3.257812 -5.695312 3.15625 -5.125 Z M 6.953125 -5.125 "/></g></g></g><g fill="#444444" fill-opacity="1"><g transform="translate(139.531461, 194.594162)"><g><path d="M 1.125 -8.875 L 3.640625 -8.875 L 3.640625 -7.078125 C 3.890625 -7.679688 4.234375 -8.164062 4.671875 -8.53125 C 5.117188 -8.894531 5.71875 -9.0625 6.46875 -9.03125 L 6.46875 -6.40625 L 6.34375 -6.40625 C 5.5 -6.40625 4.835938 -6.148438 4.359375 -5.640625 C 3.878906 -5.128906 3.640625 -4.34375 3.640625 -3.28125 L 3.640625 0 L 1.125 0 Z M 1.125 -8.875 "/></g></g></g><g fill="#444444" fill-opacity="1"><g transform="translate(146.446595, 194.594162)"><g/></g></g><g fill="#444444" fill-opacity="1"><g transform="translate(151.409612, 194.594162)"><g><path d="M 0.390625 -8.875 L 2.953125 -8.875 L 4.375 -3.484375 L 6.046875 -8.90625 L 8.203125 -8.90625 L 9.890625 -3.46875 L 11.34375 -8.875 L 13.84375 -8.875 L 11.09375 0.0625 L 8.8125 0.0625 L 7.109375 -5.375 L 5.375 0.0625 L 3.125 0.0625 Z M 0.390625 -8.875 "/></g></g></g><g fill="#444444" fill-opacity="1"><g transform="translate(165.653469, 194.594162)"><g><path d="M 1.171875 -12.078125 L 3.828125 -12.078125 L 3.828125 -9.84375 L 1.171875 -9.84375 Z M 1.234375 -8.875 L 3.75 -8.875 L 3.75 0 L 1.234375 0 Z M 1.234375 -8.875 "/></g></g></g><g fill="#444444" fill-opacity="1"><g transform="translate(170.649571, 194.594162)"><g><path d="M 4.125 0.15625 C 3.738281 0.15625 3.382812 0.113281 3.0625 0.03125 C 2.75 -0.0507812 2.476562 -0.195312 2.25 -0.40625 C 2.03125 -0.625 1.851562 -0.898438 1.71875 -1.234375 C 1.59375 -1.566406 1.53125 -1.992188 1.53125 -2.515625 L 1.53125 -6.71875 L 0.484375 -6.71875 L 0.484375 -8.875 L 1.53125 -8.875 L 1.53125 -11.140625 L 4.046875 -11.140625 L 4.046875 -8.875 L 6.140625 -8.875 L 6.140625 -6.71875 L 4.046875 -6.71875 L 4.046875 -2.921875 C 4.046875 -2.347656 4.316406 -2.0625 4.859375 -2.0625 C 5.304688 -2.0625 5.722656 -2.164062 6.109375 -2.375 L 6.109375 -0.359375 C 5.835938 -0.203125 5.539062 -0.078125 5.21875 0.015625 C 4.90625 0.109375 4.539062 0.15625 4.125 0.15625 Z M 4.125 0.15625 "/></g></g></g><g fill="#444444" fill-opacity="1"><g transform="translate(177.515075, 194.594162)"><g><path d="M 1.125 -12.078125 L 3.640625 -12.078125 L 3.640625 -7.609375 C 3.785156 -7.796875 3.941406 -7.972656 4.109375 -8.140625 C 4.285156 -8.316406 4.476562 -8.46875 4.6875 -8.59375 C 4.894531 -8.726562 5.125 -8.832031 5.375 -8.90625 C 5.632812 -8.988281 5.921875 -9.03125 6.234375 -9.03125 C 7.191406 -9.03125 7.929688 -8.738281 8.453125 -8.15625 C 8.984375 -7.570312 9.25 -6.765625 9.25 -5.734375 L 9.25 0 L 6.734375 0 L 6.734375 -4.953125 C 6.734375 -5.546875 6.597656 -5.992188 6.328125 -6.296875 C 6.066406 -6.597656 5.695312 -6.75 5.21875 -6.75 C 4.726562 -6.75 4.34375 -6.597656 4.0625 -6.296875 C 3.78125 -5.992188 3.640625 -5.546875 3.640625 -4.953125 L 3.640625 0 L 1.125 0 Z M 1.125 -12.078125 "/></g></g></g><g fill="#444444" fill-opacity="1"><g transform="translate(187.821606, 194.594162)"><g><path d="M 5.484375 0.203125 C 4.796875 0.203125 4.160156 0.0820312 3.578125 -0.15625 C 2.992188 -0.394531 2.488281 -0.71875 2.0625 -1.125 C 1.632812 -1.539062 1.296875 -2.023438 1.046875 -2.578125 C 0.804688 -3.140625 0.6875 -3.742188 0.6875 -4.390625 L 0.6875 -4.421875 C 0.6875 -5.054688 0.804688 -5.648438 1.046875 -6.203125 C 1.296875 -6.765625 1.632812 -7.253906 2.0625 -7.671875 C 2.5 -8.097656 3.007812 -8.429688 3.59375 -8.671875 C 4.175781 -8.910156 4.816406 -9.03125 5.515625 -9.03125 C 6.191406 -9.03125 6.820312 -8.910156 7.40625 -8.671875 C 8 -8.441406 8.503906 -8.117188 8.921875 -7.703125 C 9.347656 -7.285156 9.679688 -6.796875 9.921875 -6.234375 C 10.171875 -5.679688 10.296875 -5.085938 10.296875 -4.453125 L 10.296875 -4.421875 C 10.296875 -3.773438 10.171875 -3.171875 9.921875 -2.609375 C 9.679688 -2.054688 9.347656 -1.570312 8.921875 -1.15625 C 8.492188 -0.738281 7.984375 -0.40625 7.390625 -0.15625 C 6.804688 0.0820312 6.171875 0.203125 5.484375 0.203125 Z M 5.515625 -1.96875 C 5.878906 -1.96875 6.203125 -2.03125 6.484375 -2.15625 C 6.765625 -2.28125 7.003906 -2.453125 7.203125 -2.671875 C 7.398438 -2.898438 7.550781 -3.160156 7.65625 -3.453125 C 7.757812 -3.742188 7.8125 -4.054688 7.8125 -4.390625 L 7.8125 -4.421875 C 7.8125 -4.753906 7.753906 -5.066406 7.640625 -5.359375 C 7.535156 -5.648438 7.375 -5.90625 7.15625 -6.125 C 6.945312 -6.351562 6.695312 -6.53125 6.40625 -6.65625 C 6.125 -6.789062 5.816406 -6.859375 5.484375 -6.859375 C 5.117188 -6.859375 4.796875 -6.796875 4.515625 -6.671875 C 4.234375 -6.546875 3.988281 -6.375 3.78125 -6.15625 C 3.582031 -5.9375 3.429688 -5.679688 3.328125 -5.390625 C 3.222656 -5.097656 3.171875 -4.785156 3.171875 -4.453125 L 3.171875 -4.421875 C 3.171875 -4.085938 3.226562 -3.773438 3.34375 -3.484375 C 3.457031 -3.191406 3.617188 -2.929688 3.828125 -2.703125 C 4.035156 -2.472656 4.28125 -2.289062 4.5625 -2.15625 C 4.84375 -2.03125 5.160156 -1.96875 5.515625 -1.96875 Z M 5.515625 -1.96875 "/></g></g></g><g fill="#444444" fill-opacity="1"><g transform="translate(198.806423, 194.594162)"><g><path d="M 4.078125 0.171875 C 3.109375 0.171875 2.363281 -0.117188 1.84375 -0.703125 C 1.320312 -1.296875 1.0625 -2.101562 1.0625 -3.125 L 1.0625 -8.875 L 3.578125 -8.875 L 3.578125 -3.921875 C 3.578125 -3.328125 3.707031 -2.878906 3.96875 -2.578125 C 4.238281 -2.273438 4.613281 -2.125 5.09375 -2.125 C 5.582031 -2.125 5.96875 -2.273438 6.25 -2.578125 C 6.53125 -2.878906 6.671875 -3.328125 6.671875 -3.921875 L 6.671875 -8.875 L 9.1875 -8.875 L 9.1875 0 L 6.671875 0 L 6.671875 -1.25 C 6.523438 -1.0625 6.363281 -0.882812 6.1875 -0.71875 C 6.019531 -0.550781 5.832031 -0.398438 5.625 -0.265625 C 5.414062 -0.128906 5.179688 -0.0234375 4.921875 0.046875 C 4.671875 0.128906 4.390625 0.171875 4.078125 0.171875 Z M 4.078125 0.171875 "/></g></g></g><g fill="#444444" fill-opacity="1"><g transform="translate(209.112954, 194.594162)"><g><path d="M 4.125 0.15625 C 3.738281 0.15625 3.382812 0.113281 3.0625 0.03125 C 2.75 -0.0507812 2.476562 -0.195312 2.25 -0.40625 C 2.03125 -0.625 1.851562 -0.898438 1.71875 -1.234375 C 1.59375 -1.566406 1.53125 -1.992188 1.53125 -2.515625 L 1.53125 -6.71875 L 0.484375 -6.71875 L 0.484375 -8.875 L 1.53125 -8.875 L 1.53125 -11.140625 L 4.046875 -11.140625 L 4.046875 -8.875 L 6.140625 -8.875 L 6.140625 -6.71875 L 4.046875 -6.71875 L 4.046875 -2.921875 C 4.046875 -2.347656 4.316406 -2.0625 4.859375 -2.0625 C 5.304688 -2.0625 5.722656 -2.164062 6.109375 -2.375 L 6.109375 -0.359375 C 5.835938 -0.203125 5.539062 -0.078125 5.21875 0.015625 C 4.90625 0.109375 4.539062 0.15625 4.125 0.15625 Z M 4.125 0.15625 "/></g></g></g><g fill="#444444" fill-opacity="1"><g transform="translate(140.029003, 217.641941)"><g><path d="M 1.5625 -6.71875 L 0.515625 -6.71875 L 0.515625 -8.78125 L 1.5625 -8.78125 L 1.5625 -9.34375 C 1.5625 -10.300781 1.796875 -11.019531 2.265625 -11.5 C 2.734375 -11.957031 3.410156 -12.1875 4.296875 -12.1875 C 4.691406 -12.1875 5.03125 -12.164062 5.3125 -12.125 C 5.59375 -12.082031 5.851562 -12.023438 6.09375 -11.953125 L 6.09375 -9.859375 C 5.90625 -9.929688 5.722656 -9.984375 5.546875 -10.015625 C 5.367188 -10.054688 5.171875 -10.078125 4.953125 -10.078125 C 4.335938 -10.078125 4.03125 -9.757812 4.03125 -9.125 L 4.03125 -8.765625 L 6.078125 -8.765625 L 6.078125 -6.71875 L 4.078125 -6.71875 L 4.078125 0 L 1.5625 0 Z M 1.5625 -6.71875 "/></g></g></g><g fill="#444444" fill-opacity="1"><g transform="translate(146.348579, 217.641941)"><g><path d="M 5.328125 0.203125 C 4.660156 0.203125 4.039062 0.09375 3.46875 -0.125 C 2.90625 -0.351562 2.414062 -0.671875 2 -1.078125 C 1.59375 -1.484375 1.269531 -1.960938 1.03125 -2.515625 C 0.800781 -3.078125 0.6875 -3.703125 0.6875 -4.390625 L 0.6875 -4.421875 C 0.6875 -5.046875 0.796875 -5.640625 1.015625 -6.203125 C 1.234375 -6.765625 1.535156 -7.253906 1.921875 -7.671875 C 2.304688 -8.097656 2.765625 -8.429688 3.296875 -8.671875 C 3.835938 -8.910156 4.429688 -9.03125 5.078125 -9.03125 C 5.816406 -9.03125 6.457031 -8.894531 7 -8.625 C 7.539062 -8.363281 7.988281 -8.007812 8.34375 -7.5625 C 8.707031 -7.125 8.972656 -6.613281 9.140625 -6.03125 C 9.316406 -5.445312 9.40625 -4.84375 9.40625 -4.21875 C 9.40625 -4.125 9.398438 -4.019531 9.390625 -3.90625 C 9.378906 -3.789062 9.367188 -3.675781 9.359375 -3.5625 L 3.1875 -3.5625 C 3.3125 -2.988281 3.5625 -2.550781 3.9375 -2.25 C 4.320312 -1.957031 4.796875 -1.8125 5.359375 -1.8125 C 5.773438 -1.8125 6.148438 -1.882812 6.484375 -2.03125 C 6.816406 -2.175781 7.160156 -2.410156 7.515625 -2.734375 L 8.953125 -1.453125 C 8.535156 -0.929688 8.023438 -0.523438 7.421875 -0.234375 C 6.828125 0.0546875 6.128906 0.203125 5.328125 0.203125 Z M 6.953125 -5.125 C 6.867188 -5.6875 6.664062 -6.140625 6.34375 -6.484375 C 6.03125 -6.835938 5.609375 -7.015625 5.078125 -7.015625 C 4.546875 -7.015625 4.117188 -6.84375 3.796875 -6.5 C 3.472656 -6.15625 3.257812 -5.695312 3.15625 -5.125 Z M 6.953125 -5.125 "/></g></g></g><g fill="#444444" fill-opacity="1"><g transform="translate(156.489674, 217.641941)"><g><path d="M 3.640625 0.171875 C 3.222656 0.171875 2.828125 0.113281 2.453125 0 C 2.085938 -0.125 1.765625 -0.300781 1.484375 -0.53125 C 1.210938 -0.757812 0.992188 -1.039062 0.828125 -1.375 C 0.671875 -1.71875 0.59375 -2.109375 0.59375 -2.546875 L 0.59375 -2.578125 C 0.59375 -3.066406 0.679688 -3.488281 0.859375 -3.84375 C 1.035156 -4.195312 1.28125 -4.488281 1.59375 -4.71875 C 1.90625 -4.945312 2.28125 -5.117188 2.71875 -5.234375 C 3.15625 -5.347656 3.640625 -5.40625 4.171875 -5.40625 C 4.617188 -5.40625 5.007812 -5.375 5.34375 -5.3125 C 5.6875 -5.25 6.019531 -5.160156 6.34375 -5.046875 L 6.34375 -5.203125 C 6.34375 -5.722656 6.179688 -6.117188 5.859375 -6.390625 C 5.535156 -6.671875 5.0625 -6.8125 4.4375 -6.8125 C 3.945312 -6.8125 3.515625 -6.769531 3.140625 -6.6875 C 2.773438 -6.601562 2.390625 -6.488281 1.984375 -6.34375 L 1.359375 -8.25 C 1.835938 -8.46875 2.34375 -8.640625 2.875 -8.765625 C 3.40625 -8.898438 4.046875 -8.96875 4.796875 -8.96875 C 5.492188 -8.96875 6.085938 -8.878906 6.578125 -8.703125 C 7.066406 -8.535156 7.472656 -8.289062 7.796875 -7.96875 C 8.128906 -7.644531 8.367188 -7.242188 8.515625 -6.765625 C 8.671875 -6.285156 8.75 -5.742188 8.75 -5.140625 L 8.75 0 L 6.328125 0 L 6.328125 -0.953125 C 6.015625 -0.617188 5.640625 -0.347656 5.203125 -0.140625 C 4.773438 0.0664062 4.253906 0.171875 3.640625 0.171875 Z M 4.40625 -1.578125 C 5 -1.578125 5.472656 -1.71875 5.828125 -2 C 6.191406 -2.289062 6.375 -2.664062 6.375 -3.125 L 6.375 -3.578125 C 6.15625 -3.671875 5.910156 -3.75 5.640625 -3.8125 C 5.367188 -3.875 5.078125 -3.90625 4.765625 -3.90625 C 4.222656 -3.90625 3.796875 -3.800781 3.484375 -3.59375 C 3.179688 -3.382812 3.03125 -3.082031 3.03125 -2.6875 L 3.03125 -2.640625 C 3.03125 -2.304688 3.15625 -2.046875 3.40625 -1.859375 C 3.664062 -1.671875 4 -1.578125 4.40625 -1.578125 Z M 4.40625 -1.578125 "/></g></g></g><g fill="#444444" fill-opacity="1"><g transform="translate(166.283363, 217.641941)"><g><path d="M 1.125 -8.875 L 3.640625 -8.875 L 3.640625 -7.078125 C 3.890625 -7.679688 4.234375 -8.164062 4.671875 -8.53125 C 5.117188 -8.894531 5.71875 -9.0625 6.46875 -9.03125 L 6.46875 -6.40625 L 6.34375 -6.40625 C 5.5 -6.40625 4.835938 -6.148438 4.359375 -5.640625 C 3.878906 -5.128906 3.640625 -4.34375 3.640625 -3.28125 L 3.640625 0 L 1.125 0 Z M 1.125 -8.875 "/></g></g></g></svg>