<svg xmlns="http://www.w3.org/2000/svg" xmlns:xlink="http://www.w3.org/1999/xlink" width="846" zoomAndPan="magnify" viewBox="0 0 634.5 603.000004" height="804" preserveAspectRatio="xMidYMid meet" version="1.0"><defs><g/><clipPath id="12f5df0cb7"><path d="M 44 90 L 509 90 L 509 499 L 44 499 Z M 44 90 " clip-rule="nonzero"/></clipPath><clipPath id="45ac59598c"><path d="M 365.96875 0 L 613.269531 286.4375 L 247.425781 602.292969 L 0.128906 315.859375 Z M 365.96875 0 " clip-rule="nonzero"/></clipPath><clipPath id="bca823f16c"><path d="M 365.96875 0 L 613.269531 286.4375 L 247.425781 602.292969 L 0.128906 315.859375 Z M 365.96875 0 " clip-rule="nonzero"/></clipPath><clipPath id="597920b492"><path d="M 365.96875 0 L 613.269531 286.4375 L 247.425781 602.292969 L 0.128906 315.859375 Z M 365.96875 0 " clip-rule="nonzero"/></clipPath><clipPath id="eb9145b96c"><path d="M 207.097656 196.613281 C 209.914062 192.222656 212.046875 187.433594 214.402344 182.777344 C 229.355469 153.230469 253.757812 128.703125 282.78125 112.757812 C 311.808594 96.808594 345.304688 89.382812 378.386719 90.613281 C 397.976562 91.339844 417.542969 95.074219 435.644531 102.585938 C 453.746094 110.097656 470.359375 121.453125 483.167969 136.285156 C 495.972656 151.117188 504.867188 169.472656 507.574219 188.882812 C 510.28125 208.296875 506.625 228.707031 496.484375 245.496094 C 487.953125 259.621094 475.332031 270.707031 463.234375 281.933594 C 451.140625 293.160156 439.117188 305.132812 432.351562 320.179688 C 424.140625 338.445312 424.523438 359.265625 425.417969 379.265625 C 426.308594 399.261719 427.464844 419.902344 420.574219 438.707031 C 415.203125 453.359375 405.085938 466.078125 392.632812 475.496094 C 380.183594 484.914062 365.464844 491.117188 350.234375 494.53125 C 319.773438 501.363281 287.96875 497.210938 257.375 491.066406 C 218.199219 483.195312 179.316406 471.945312 144.316406 452.695312 C 109.3125 433.441406 78.214844 405.683594 59.65625 370.3125 C 50.046875 351.996094 43.867188 331.492188 44.707031 310.816406 C 45.542969 290.144531 53.9375 269.339844 69.636719 255.847656 C 79.320312 247.519531 91.308594 242.261719 103.578125 238.734375 C 115.851562 235.207031 128.519531 233.308594 141.070312 230.960938 C 153.617188 228.609375 166.191406 225.773438 177.824219 220.507812 C 189.457031 215.242188 200.195312 207.363281 207.09375 196.613281 Z M 207.097656 196.613281 " clip-rule="nonzero"/></clipPath><linearGradient x1="2935.793315" gradientTransform="matrix(-1.020636, -1.18215, -1.183369, 1.021689, -2892.78518, 9497.015053)" y1="-5394.4302" x2="3330.623996" gradientUnits="userSpaceOnUse" y2="-5394.4302" id="5c6c9e2b6e"><stop stop-opacity="1" stop-color="rgb(36.099243%, 93.699646%, 100%)" offset="0"/><stop stop-opacity="1" stop-color="rgb(36.099243%, 93.699646%, 100%)" offset="0.125"/><stop stop-opacity="1" stop-color="rgb(36.105347%, 93.696594%, 99.998474%)" offset="0.15625"/><stop stop-opacity="1" stop-color="rgb(36.51886%, 93.580627%, 99.949646%)" offset="0.160156"/><stop stop-opacity="1" stop-color="rgb(36.927795%, 93.466187%, 99.902344%)" offset="0.164063"/><stop stop-opacity="1" stop-color="rgb(37.335205%, 93.35022%, 99.853516%)" offset="0.167969"/><stop stop-opacity="1" stop-color="rgb(37.742615%, 93.235779%, 99.806213%)" offset="0.171875"/><stop stop-opacity="1" stop-color="rgb(38.150024%, 93.121338%, 99.757385%)" offset="0.175781"/><stop stop-opacity="1" stop-color="rgb(38.55896%, 93.006897%, 99.710083%)" offset="0.179688"/><stop stop-opacity="1" stop-color="rgb(38.96637%, 92.89093%, 99.662781%)" offset="0.183594"/><stop stop-opacity="1" stop-color="rgb(39.373779%, 92.776489%, 99.615479%)" offset="0.1875"/><stop stop-opacity="1" stop-color="rgb(39.781189%, 92.662048%, 99.56665%)" offset="0.191406"/><stop stop-opacity="1" stop-color="rgb(40.188599%, 92.547607%, 99.519348%)" offset="0.195313"/><stop stop-opacity="1" stop-color="rgb(40.596008%, 92.431641%, 99.47052%)" offset="0.199219"/><stop stop-opacity="1" stop-color="rgb(41.004944%, 92.3172%, 99.423218%)" offset="0.203125"/><stop stop-opacity="1" stop-color="rgb(41.412354%, 92.202759%, 99.37439%)" offset="0.207031"/><stop stop-opacity="1" stop-color="rgb(41.819763%, 92.088318%, 99.327087%)" offset="0.210938"/><stop stop-opacity="1" stop-color="rgb(42.227173%, 91.972351%, 99.279785%)" offset="0.214844"/><stop stop-opacity="1" stop-color="rgb(42.636108%, 91.85791%, 99.232483%)" offset="0.21875"/><stop stop-opacity="1" stop-color="rgb(43.043518%, 91.743469%, 99.183655%)" offset="0.222656"/><stop stop-opacity="1" stop-color="rgb(43.450928%, 91.629028%, 99.136353%)" offset="0.226563"/><stop stop-opacity="1" stop-color="rgb(43.858337%, 91.513062%, 99.087524%)" offset="0.230469"/><stop stop-opacity="1" stop-color="rgb(44.265747%, 91.398621%, 99.040222%)" offset="0.234375"/><stop stop-opacity="1" stop-color="rgb(44.673157%, 91.28418%, 98.99292%)" offset="0.238281"/><stop stop-opacity="1" stop-color="rgb(45.082092%, 91.169739%, 98.945618%)" offset="0.242188"/><stop stop-opacity="1" stop-color="rgb(45.489502%, 91.053772%, 98.89679%)" offset="0.246094"/><stop stop-opacity="1" stop-color="rgb(45.896912%, 90.939331%, 98.849487%)" offset="0.25"/><stop stop-opacity="1" stop-color="rgb(46.304321%, 90.823364%, 98.800659%)" offset="0.253906"/><stop stop-opacity="1" stop-color="rgb(46.711731%, 90.708923%, 98.753357%)" offset="0.257812"/><stop stop-opacity="1" stop-color="rgb(47.119141%, 90.594482%, 98.704529%)" offset="0.261719"/><stop stop-opacity="1" stop-color="rgb(47.528076%, 90.480042%, 98.657227%)" offset="0.265625"/><stop stop-opacity="1" stop-color="rgb(47.935486%, 90.364075%, 98.609924%)" offset="0.269531"/><stop stop-opacity="1" stop-color="rgb(48.342896%, 90.249634%, 98.562622%)" offset="0.273438"/><stop stop-opacity="1" stop-color="rgb(48.750305%, 90.135193%, 98.513794%)" offset="0.277344"/><stop stop-opacity="1" stop-color="rgb(49.159241%, 90.020752%, 98.466492%)" offset="0.28125"/><stop stop-opacity="1" stop-color="rgb(49.56665%, 89.904785%, 98.417664%)" offset="0.285156"/><stop stop-opacity="1" stop-color="rgb(49.97406%, 89.790344%, 98.370361%)" offset="0.289062"/><stop stop-opacity="1" stop-color="rgb(50.38147%, 89.675903%, 98.323059%)" offset="0.292969"/><stop stop-opacity="1" stop-color="rgb(50.788879%, 89.561462%, 98.275757%)" offset="0.296875"/><stop stop-opacity="1" stop-color="rgb(51.196289%, 89.445496%, 98.226929%)" offset="0.300781"/><stop stop-opacity="1" stop-color="rgb(51.605225%, 89.331055%, 98.179626%)" offset="0.304688"/><stop stop-opacity="1" stop-color="rgb(52.012634%, 89.216614%, 98.130798%)" offset="0.308594"/><stop stop-opacity="1" stop-color="rgb(52.420044%, 89.102173%, 98.083496%)" offset="0.3125"/><stop stop-opacity="1" stop-color="rgb(52.827454%, 88.986206%, 98.034668%)" offset="0.316406"/><stop stop-opacity="1" stop-color="rgb(53.236389%, 88.871765%, 97.987366%)" offset="0.320313"/><stop stop-opacity="1" stop-color="rgb(53.643799%, 88.757324%, 97.940063%)" offset="0.324219"/><stop stop-opacity="1" stop-color="rgb(54.051208%, 88.642883%, 97.892761%)" offset="0.328125"/><stop stop-opacity="1" stop-color="rgb(54.458618%, 88.526917%, 97.843933%)" offset="0.332031"/><stop stop-opacity="1" stop-color="rgb(54.866028%, 88.412476%, 97.796631%)" offset="0.335938"/><stop stop-opacity="1" stop-color="rgb(55.273438%, 88.298035%, 97.747803%)" offset="0.339844"/><stop stop-opacity="1" stop-color="rgb(55.682373%, 88.183594%, 97.7005%)" offset="0.34375"/><stop stop-opacity="1" stop-color="rgb(56.089783%, 88.067627%, 97.651672%)" offset="0.347656"/><stop stop-opacity="1" stop-color="rgb(56.497192%, 87.953186%, 97.60437%)" offset="0.351562"/><stop stop-opacity="1" stop-color="rgb(56.904602%, 87.838745%, 97.557068%)" offset="0.355469"/><stop stop-opacity="1" stop-color="rgb(57.312012%, 87.724304%, 97.509766%)" offset="0.359375"/><stop stop-opacity="1" stop-color="rgb(57.719421%, 87.608337%, 97.460938%)" offset="0.363281"/><stop stop-opacity="1" stop-color="rgb(58.128357%, 87.493896%, 97.413635%)" offset="0.367188"/><stop stop-opacity="1" stop-color="rgb(58.535767%, 87.37793%, 97.364807%)" offset="0.371094"/><stop stop-opacity="1" stop-color="rgb(58.943176%, 87.263489%, 97.317505%)" offset="0.375"/><stop stop-opacity="1" stop-color="rgb(59.350586%, 87.149048%, 97.270203%)" offset="0.378906"/><stop stop-opacity="1" stop-color="rgb(59.759521%, 87.034607%, 97.2229%)" offset="0.382812"/><stop stop-opacity="1" stop-color="rgb(60.166931%, 86.91864%, 97.174072%)" offset="0.386719"/><stop stop-opacity="1" stop-color="rgb(60.574341%, 86.804199%, 97.12677%)" offset="0.390625"/><stop stop-opacity="1" stop-color="rgb(60.98175%, 86.689758%, 97.077942%)" offset="0.394531"/><stop stop-opacity="1" stop-color="rgb(61.38916%, 86.575317%, 97.03064%)" offset="0.398438"/><stop stop-opacity="1" stop-color="rgb(61.79657%, 86.459351%, 96.981812%)" offset="0.402344"/><stop stop-opacity="1" stop-color="rgb(62.205505%, 86.34491%, 96.934509%)" offset="0.40625"/><stop stop-opacity="1" stop-color="rgb(62.612915%, 86.230469%, 96.887207%)" offset="0.410156"/><stop stop-opacity="1" stop-color="rgb(63.020325%, 86.116028%, 96.839905%)" offset="0.414063"/><stop stop-opacity="1" stop-color="rgb(63.427734%, 86.000061%, 96.791077%)" offset="0.417969"/><stop stop-opacity="1" stop-color="rgb(63.83667%, 85.88562%, 96.743774%)" offset="0.421875"/><stop stop-opacity="1" stop-color="rgb(64.24408%, 85.771179%, 96.694946%)" offset="0.425781"/><stop stop-opacity="1" stop-color="rgb(64.651489%, 85.656738%, 96.647644%)" offset="0.429688"/><stop stop-opacity="1" stop-color="rgb(65.058899%, 85.540771%, 96.600342%)" offset="0.433594"/><stop stop-opacity="1" stop-color="rgb(65.466309%, 85.426331%, 96.55304%)" offset="0.4375"/><stop stop-opacity="1" stop-color="rgb(65.873718%, 85.31189%, 96.504211%)" offset="0.441406"/><stop stop-opacity="1" stop-color="rgb(66.282654%, 85.197449%, 96.456909%)" offset="0.445313"/><stop stop-opacity="1" stop-color="rgb(66.690063%, 85.081482%, 96.408081%)" offset="0.449219"/><stop stop-opacity="1" stop-color="rgb(67.097473%, 84.967041%, 96.360779%)" offset="0.453125"/><stop stop-opacity="1" stop-color="rgb(67.504883%, 84.8526%, 96.311951%)" offset="0.457031"/><stop stop-opacity="1" stop-color="rgb(67.912292%, 84.738159%, 96.264648%)" offset="0.460938"/><stop stop-opacity="1" stop-color="rgb(68.319702%, 84.622192%, 96.217346%)" offset="0.464844"/><stop stop-opacity="1" stop-color="rgb(68.728638%, 84.507751%, 96.170044%)" offset="0.46875"/><stop stop-opacity="1" stop-color="rgb(69.136047%, 84.393311%, 96.121216%)" offset="0.472656"/><stop stop-opacity="1" stop-color="rgb(69.543457%, 84.27887%, 96.073914%)" offset="0.476562"/><stop stop-opacity="1" stop-color="rgb(69.950867%, 84.162903%, 96.025085%)" offset="0.480469"/><stop stop-opacity="1" stop-color="rgb(70.359802%, 84.048462%, 95.977783%)" offset="0.484375"/><stop stop-opacity="1" stop-color="rgb(70.767212%, 83.934021%, 95.928955%)" offset="0.488281"/><stop stop-opacity="1" stop-color="rgb(71.174622%, 83.81958%, 95.881653%)" offset="0.492188"/><stop stop-opacity="1" stop-color="rgb(71.582031%, 83.703613%, 95.834351%)" offset="0.496094"/><stop stop-opacity="1" stop-color="rgb(71.989441%, 83.589172%, 95.787048%)" offset="0.5"/><stop stop-opacity="1" stop-color="rgb(72.396851%, 83.473206%, 95.73822%)" offset="0.503906"/><stop stop-opacity="1" stop-color="rgb(72.805786%, 83.358765%, 95.690918%)" offset="0.507812"/><stop stop-opacity="1" stop-color="rgb(73.213196%, 83.244324%, 95.64209%)" offset="0.511719"/><stop stop-opacity="1" stop-color="rgb(73.620605%, 83.129883%, 95.594788%)" offset="0.515625"/><stop stop-opacity="1" stop-color="rgb(74.028015%, 83.013916%, 95.547485%)" offset="0.519531"/><stop stop-opacity="1" stop-color="rgb(74.436951%, 82.899475%, 95.500183%)" offset="0.523438"/><stop stop-opacity="1" stop-color="rgb(74.84436%, 82.785034%, 95.451355%)" offset="0.527344"/><stop stop-opacity="1" stop-color="rgb(75.25177%, 82.670593%, 95.404053%)" offset="0.53125"/><stop stop-opacity="1" stop-color="rgb(75.65918%, 82.554626%, 95.355225%)" offset="0.535156"/><stop stop-opacity="1" stop-color="rgb(76.066589%, 82.440186%, 95.307922%)" offset="0.539062"/><stop stop-opacity="1" stop-color="rgb(76.473999%, 82.325745%, 95.259094%)" offset="0.542969"/><stop stop-opacity="1" stop-color="rgb(76.882935%, 82.211304%, 95.211792%)" offset="0.546875"/><stop stop-opacity="1" stop-color="rgb(77.290344%, 82.095337%, 95.16449%)" offset="0.550781"/><stop stop-opacity="1" stop-color="rgb(77.697754%, 81.980896%, 95.117188%)" offset="0.554687"/><stop stop-opacity="1" stop-color="rgb(78.105164%, 81.866455%, 95.068359%)" offset="0.558594"/><stop stop-opacity="1" stop-color="rgb(78.512573%, 81.752014%, 95.021057%)" offset="0.5625"/><stop stop-opacity="1" stop-color="rgb(78.919983%, 81.636047%, 94.972229%)" offset="0.566406"/><stop stop-opacity="1" stop-color="rgb(79.328918%, 81.521606%, 94.924927%)" offset="0.570313"/><stop stop-opacity="1" stop-color="rgb(79.736328%, 81.407166%, 94.877625%)" offset="0.574219"/><stop stop-opacity="1" stop-color="rgb(80.143738%, 81.292725%, 94.830322%)" offset="0.578125"/><stop stop-opacity="1" stop-color="rgb(80.551147%, 81.176758%, 94.781494%)" offset="0.582031"/><stop stop-opacity="1" stop-color="rgb(80.960083%, 81.062317%, 94.734192%)" offset="0.585938"/><stop stop-opacity="1" stop-color="rgb(81.367493%, 80.947876%, 94.685364%)" offset="0.589844"/><stop stop-opacity="1" stop-color="rgb(81.774902%, 80.833435%, 94.638062%)" offset="0.59375"/><stop stop-opacity="1" stop-color="rgb(82.182312%, 80.717468%, 94.589233%)" offset="0.597656"/><stop stop-opacity="1" stop-color="rgb(82.589722%, 80.603027%, 94.541931%)" offset="0.601562"/><stop stop-opacity="1" stop-color="rgb(82.997131%, 80.488586%, 94.494629%)" offset="0.605469"/><stop stop-opacity="1" stop-color="rgb(83.406067%, 80.374146%, 94.447327%)" offset="0.609375"/><stop stop-opacity="1" stop-color="rgb(83.813477%, 80.258179%, 94.398499%)" offset="0.613281"/><stop stop-opacity="1" stop-color="rgb(84.220886%, 80.143738%, 94.351196%)" offset="0.617188"/><stop stop-opacity="1" stop-color="rgb(84.628296%, 80.027771%, 94.302368%)" offset="0.621094"/><stop stop-opacity="1" stop-color="rgb(85.037231%, 79.91333%, 94.255066%)" offset="0.625"/><stop stop-opacity="1" stop-color="rgb(85.444641%, 79.798889%, 94.207764%)" offset="0.628906"/><stop stop-opacity="1" stop-color="rgb(85.852051%, 79.684448%, 94.160461%)" offset="0.632812"/><stop stop-opacity="1" stop-color="rgb(86.25946%, 79.568481%, 94.111633%)" offset="0.636719"/><stop stop-opacity="1" stop-color="rgb(86.66687%, 79.454041%, 94.064331%)" offset="0.640625"/><stop stop-opacity="1" stop-color="rgb(87.07428%, 79.3396%, 94.015503%)" offset="0.644531"/><stop stop-opacity="1" stop-color="rgb(87.483215%, 79.225159%, 93.968201%)" offset="0.648438"/><stop stop-opacity="1" stop-color="rgb(87.890625%, 79.109192%, 93.919373%)" offset="0.652344"/><stop stop-opacity="1" stop-color="rgb(88.298035%, 78.994751%, 93.87207%)" offset="0.65625"/><stop stop-opacity="1" stop-color="rgb(88.705444%, 78.88031%, 93.824768%)" offset="0.660156"/><stop stop-opacity="1" stop-color="rgb(89.112854%, 78.765869%, 93.777466%)" offset="0.664062"/><stop stop-opacity="1" stop-color="rgb(89.520264%, 78.649902%, 93.728638%)" offset="0.667969"/><stop stop-opacity="1" stop-color="rgb(89.929199%, 78.535461%, 93.681335%)" offset="0.671875"/><stop stop-opacity="1" stop-color="rgb(90.336609%, 78.421021%, 93.632507%)" offset="0.675781"/><stop stop-opacity="1" stop-color="rgb(90.744019%, 78.30658%, 93.585205%)" offset="0.679687"/><stop stop-opacity="1" stop-color="rgb(91.151428%, 78.190613%, 93.536377%)" offset="0.683594"/><stop stop-opacity="1" stop-color="rgb(91.560364%, 78.076172%, 93.489075%)" offset="0.6875"/><stop stop-opacity="1" stop-color="rgb(91.967773%, 77.961731%, 93.441772%)" offset="0.691406"/><stop stop-opacity="1" stop-color="rgb(92.375183%, 77.84729%, 93.39447%)" offset="0.695313"/><stop stop-opacity="1" stop-color="rgb(92.782593%, 77.731323%, 93.345642%)" offset="0.699219"/><stop stop-opacity="1" stop-color="rgb(93.190002%, 77.616882%, 93.29834%)" offset="0.703125"/><stop stop-opacity="1" stop-color="rgb(93.597412%, 77.502441%, 93.249512%)" offset="0.707031"/><stop stop-opacity="1" stop-color="rgb(94.006348%, 77.388%, 93.202209%)" offset="0.710938"/><stop stop-opacity="1" stop-color="rgb(94.413757%, 77.272034%, 93.154907%)" offset="0.714844"/><stop stop-opacity="1" stop-color="rgb(94.821167%, 77.157593%, 93.107605%)" offset="0.71875"/><stop stop-opacity="1" stop-color="rgb(95.228577%, 77.043152%, 93.058777%)" offset="0.722656"/><stop stop-opacity="1" stop-color="rgb(95.637512%, 76.928711%, 93.011475%)" offset="0.726562"/><stop stop-opacity="1" stop-color="rgb(96.044922%, 76.812744%, 92.962646%)" offset="0.730469"/><stop stop-opacity="1" stop-color="rgb(96.452332%, 76.698303%, 92.915344%)" offset="0.734375"/><stop stop-opacity="1" stop-color="rgb(96.859741%, 76.583862%, 92.866516%)" offset="0.738281"/><stop stop-opacity="1" stop-color="rgb(97.267151%, 76.469421%, 92.819214%)" offset="0.742188"/><stop stop-opacity="1" stop-color="rgb(97.674561%, 76.353455%, 92.771912%)" offset="0.746094"/><stop stop-opacity="1" stop-color="rgb(98.083496%, 76.239014%, 92.724609%)" offset="0.75"/><stop stop-opacity="1" stop-color="rgb(98.490906%, 76.123047%, 92.675781%)" offset="0.753906"/><stop stop-opacity="1" stop-color="rgb(98.898315%, 76.008606%, 92.628479%)" offset="0.757812"/><stop stop-opacity="1" stop-color="rgb(99.305725%, 75.894165%, 92.579651%)" offset="0.761719"/><stop stop-opacity="1" stop-color="rgb(99.713135%, 75.779724%, 92.532349%)" offset="0.765625"/><stop stop-opacity="1" stop-color="rgb(99.856567%, 75.738525%, 92.515564%)" offset="0.78125"/><stop stop-opacity="1" stop-color="rgb(100%, 75.698853%, 92.498779%)" offset="0.8125"/><stop stop-opacity="1" stop-color="rgb(100%, 75.698853%, 92.498779%)" offset="0.875"/><stop stop-opacity="1" stop-color="rgb(100%, 75.698853%, 92.498779%)" offset="1"/></linearGradient><clipPath id="476c4dd863"><path d="M 290 211 L 633 211 L 633 519 L 290 519 Z M 290 211 " clip-rule="nonzero"/></clipPath><clipPath id="54dc61e84a"><path d="M 429.753906 230.738281 C 465.875 219.375 503.363281 208.53125 541.023438 212.445312 C 559.855469 214.402344 578.476562 220.175781 594.230469 230.667969 C 609.984375 241.160156 622.734375 256.558594 628.546875 274.566406 C 634.3125 292.417969 633.117188 311.746094 630.425781 330.308594 C 627.730469 348.875 623.589844 367.351562 623.640625 386.109375 C 623.691406 405.285156 628.125 424.191406 629.1875 443.335938 C 629.71875 452.910156 629.398438 462.589844 627.285156 471.945312 C 625.171875 481.296875 621.207031 490.335938 615.011719 497.652344 C 606.898438 507.238281 595.242188 513.472656 582.984375 516.222656 C 570.730469 518.96875 557.890625 518.390625 545.582031 515.890625 C 520.964844 510.890625 498.582031 498.503906 475.097656 489.589844 C 441.253906 476.746094 404.980469 471.082031 371.335938 457.726562 C 354.511719 451.050781 338.320312 442.390625 324.609375 430.574219 C 310.898438 418.761719 299.738281 403.648438 294.238281 386.414062 C 288.066406 367.0625 289.332031 345.683594 296.375 326.632812 C 303.421875 307.585938 316.035156 290.832031 331.460938 277.609375 C 359.210938 253.8125 394.875 241.710938 429.753906 230.738281 Z M 429.753906 230.738281 " clip-rule="nonzero"/></clipPath><linearGradient x1="-1316.913569" gradientTransform="matrix(-1.252529, 0, 0, 1.251822, -1015.74692, 4167.936627)" y1="-3038.054" x2="-1040.945142" gradientUnits="userSpaceOnUse" y2="-3038.054" id="9ebda23319"><stop stop-opacity="1" stop-color="rgb(100%, 92.89856%, 63.899231%)" offset="0"/><stop stop-opacity="1" stop-color="rgb(99.967957%, 92.823792%, 63.925171%)" offset="0.0078125"/><stop stop-opacity="1" stop-color="rgb(99.885559%, 92.625427%, 63.993835%)" offset="0.015625"/><stop stop-opacity="1" stop-color="rgb(99.784851%, 92.379761%, 64.080811%)" offset="0.0234375"/><stop stop-opacity="1" stop-color="rgb(99.682617%, 92.132568%, 64.167786%)" offset="0.03125"/><stop stop-opacity="1" stop-color="rgb(99.580383%, 91.885376%, 64.254761%)" offset="0.0390625"/><stop stop-opacity="1" stop-color="rgb(99.479675%, 91.638184%, 64.341736%)" offset="0.046875"/><stop stop-opacity="1" stop-color="rgb(99.377441%, 91.390991%, 64.428711%)" offset="0.0546875"/><stop stop-opacity="1" stop-color="rgb(99.275208%, 91.145325%, 64.515686%)" offset="0.0625"/><stop stop-opacity="1" stop-color="rgb(99.1745%, 90.898132%, 64.601135%)" offset="0.0703125"/><stop stop-opacity="1" stop-color="rgb(99.072266%, 90.65094%, 64.68811%)" offset="0.078125"/><stop stop-opacity="1" stop-color="rgb(98.970032%, 90.403748%, 64.775085%)" offset="0.0859375"/><stop stop-opacity="1" stop-color="rgb(98.869324%, 90.158081%, 64.862061%)" offset="0.09375"/><stop stop-opacity="1" stop-color="rgb(98.76709%, 89.910889%, 64.949036%)" offset="0.101562"/><stop stop-opacity="1" stop-color="rgb(98.664856%, 89.663696%, 65.036011%)" offset="0.109375"/><stop stop-opacity="1" stop-color="rgb(98.564148%, 89.416504%, 65.122986%)" offset="0.117188"/><stop stop-opacity="1" stop-color="rgb(98.461914%, 89.169312%, 65.208435%)" offset="0.125"/><stop stop-opacity="1" stop-color="rgb(98.35968%, 88.923645%, 65.29541%)" offset="0.132813"/><stop stop-opacity="1" stop-color="rgb(98.258972%, 88.676453%, 65.382385%)" offset="0.140625"/><stop stop-opacity="1" stop-color="rgb(98.156738%, 88.42926%, 65.46936%)" offset="0.148438"/><stop stop-opacity="1" stop-color="rgb(98.054504%, 88.182068%, 65.556335%)" offset="0.15625"/><stop stop-opacity="1" stop-color="rgb(97.953796%, 87.936401%, 65.643311%)" offset="0.164062"/><stop stop-opacity="1" stop-color="rgb(97.851562%, 87.689209%, 65.730286%)" offset="0.171875"/><stop stop-opacity="1" stop-color="rgb(97.749329%, 87.442017%, 65.815735%)" offset="0.179688"/><stop stop-opacity="1" stop-color="rgb(97.648621%, 87.194824%, 65.90271%)" offset="0.1875"/><stop stop-opacity="1" stop-color="rgb(97.546387%, 86.947632%, 65.989685%)" offset="0.195312"/><stop stop-opacity="1" stop-color="rgb(97.444153%, 86.701965%, 66.07666%)" offset="0.203125"/><stop stop-opacity="1" stop-color="rgb(97.341919%, 86.454773%, 66.163635%)" offset="0.210938"/><stop stop-opacity="1" stop-color="rgb(97.241211%, 86.207581%, 66.25061%)" offset="0.21875"/><stop stop-opacity="1" stop-color="rgb(97.138977%, 85.960388%, 66.337585%)" offset="0.226563"/><stop stop-opacity="1" stop-color="rgb(97.036743%, 85.713196%, 66.423035%)" offset="0.234375"/><stop stop-opacity="1" stop-color="rgb(96.936035%, 85.467529%, 66.51001%)" offset="0.242188"/><stop stop-opacity="1" stop-color="rgb(96.833801%, 85.220337%, 66.596985%)" offset="0.25"/><stop stop-opacity="1" stop-color="rgb(96.731567%, 84.973145%, 66.68396%)" offset="0.257813"/><stop stop-opacity="1" stop-color="rgb(96.630859%, 84.725952%, 66.770935%)" offset="0.265625"/><stop stop-opacity="1" stop-color="rgb(96.528625%, 84.480286%, 66.85791%)" offset="0.273438"/><stop stop-opacity="1" stop-color="rgb(96.426392%, 84.233093%, 66.944885%)" offset="0.28125"/><stop stop-opacity="1" stop-color="rgb(96.325684%, 83.985901%, 67.030334%)" offset="0.289062"/><stop stop-opacity="1" stop-color="rgb(96.22345%, 83.738708%, 67.11731%)" offset="0.296875"/><stop stop-opacity="1" stop-color="rgb(96.121216%, 83.491516%, 67.204285%)" offset="0.304688"/><stop stop-opacity="1" stop-color="rgb(96.020508%, 83.24585%, 67.29126%)" offset="0.3125"/><stop stop-opacity="1" stop-color="rgb(95.918274%, 82.998657%, 67.378235%)" offset="0.320312"/><stop stop-opacity="1" stop-color="rgb(95.81604%, 82.751465%, 67.46521%)" offset="0.328125"/><stop stop-opacity="1" stop-color="rgb(95.715332%, 82.504272%, 67.552185%)" offset="0.335937"/><stop stop-opacity="1" stop-color="rgb(95.613098%, 82.25708%, 67.637634%)" offset="0.34375"/><stop stop-opacity="1" stop-color="rgb(95.510864%, 82.011414%, 67.724609%)" offset="0.351563"/><stop stop-opacity="1" stop-color="rgb(95.410156%, 81.764221%, 67.811584%)" offset="0.359375"/><stop stop-opacity="1" stop-color="rgb(95.307922%, 81.517029%, 67.89856%)" offset="0.367188"/><stop stop-opacity="1" stop-color="rgb(95.205688%, 81.269836%, 67.985535%)" offset="0.375"/><stop stop-opacity="1" stop-color="rgb(95.10498%, 81.02417%, 68.07251%)" offset="0.382812"/><stop stop-opacity="1" stop-color="rgb(95.002747%, 80.776978%, 68.159485%)" offset="0.390625"/><stop stop-opacity="1" stop-color="rgb(94.900513%, 80.529785%, 68.244934%)" offset="0.398438"/><stop stop-opacity="1" stop-color="rgb(94.799805%, 80.282593%, 68.331909%)" offset="0.40625"/><stop stop-opacity="1" stop-color="rgb(94.697571%, 80.0354%, 68.418884%)" offset="0.414062"/><stop stop-opacity="1" stop-color="rgb(94.595337%, 79.789734%, 68.505859%)" offset="0.421875"/><stop stop-opacity="1" stop-color="rgb(94.493103%, 79.542542%, 68.592834%)" offset="0.429687"/><stop stop-opacity="1" stop-color="rgb(94.392395%, 79.295349%, 68.67981%)" offset="0.4375"/><stop stop-opacity="1" stop-color="rgb(94.290161%, 79.048157%, 68.766785%)" offset="0.445313"/><stop stop-opacity="1" stop-color="rgb(94.187927%, 78.800964%, 68.852234%)" offset="0.453125"/><stop stop-opacity="1" stop-color="rgb(94.087219%, 78.555298%, 68.939209%)" offset="0.460938"/><stop stop-opacity="1" stop-color="rgb(93.984985%, 78.308105%, 69.026184%)" offset="0.46875"/><stop stop-opacity="1" stop-color="rgb(93.882751%, 78.060913%, 69.113159%)" offset="0.476562"/><stop stop-opacity="1" stop-color="rgb(93.782043%, 77.813721%, 69.200134%)" offset="0.484375"/><stop stop-opacity="1" stop-color="rgb(93.67981%, 77.568054%, 69.287109%)" offset="0.492188"/><stop stop-opacity="1" stop-color="rgb(93.577576%, 77.320862%, 69.374084%)" offset="0.5"/><stop stop-opacity="1" stop-color="rgb(93.476868%, 77.073669%, 69.459534%)" offset="0.507812"/><stop stop-opacity="1" stop-color="rgb(93.374634%, 76.826477%, 69.546509%)" offset="0.515625"/><stop stop-opacity="1" stop-color="rgb(93.2724%, 76.579285%, 69.633484%)" offset="0.523438"/><stop stop-opacity="1" stop-color="rgb(93.171692%, 76.333618%, 69.720459%)" offset="0.53125"/><stop stop-opacity="1" stop-color="rgb(93.069458%, 76.086426%, 69.807434%)" offset="0.539063"/><stop stop-opacity="1" stop-color="rgb(92.967224%, 75.839233%, 69.894409%)" offset="0.546875"/><stop stop-opacity="1" stop-color="rgb(92.866516%, 75.592041%, 69.981384%)" offset="0.554688"/><stop stop-opacity="1" stop-color="rgb(92.764282%, 75.344849%, 70.066833%)" offset="0.5625"/><stop stop-opacity="1" stop-color="rgb(92.662048%, 75.099182%, 70.153809%)" offset="0.570312"/><stop stop-opacity="1" stop-color="rgb(92.56134%, 74.85199%, 70.240784%)" offset="0.578125"/><stop stop-opacity="1" stop-color="rgb(92.459106%, 74.604797%, 70.327759%)" offset="0.585938"/><stop stop-opacity="1" stop-color="rgb(92.356873%, 74.357605%, 70.414734%)" offset="0.59375"/><stop stop-opacity="1" stop-color="rgb(92.256165%, 74.111938%, 70.501709%)" offset="0.601562"/><stop stop-opacity="1" stop-color="rgb(92.153931%, 73.864746%, 70.588684%)" offset="0.609375"/><stop stop-opacity="1" stop-color="rgb(92.051697%, 73.617554%, 70.674133%)" offset="0.617188"/><stop stop-opacity="1" stop-color="rgb(91.950989%, 73.370361%, 70.761108%)" offset="0.625"/><stop stop-opacity="1" stop-color="rgb(91.848755%, 73.123169%, 70.848083%)" offset="0.632812"/><stop stop-opacity="1" stop-color="rgb(91.746521%, 72.877502%, 70.935059%)" offset="0.640625"/><stop stop-opacity="1" stop-color="rgb(91.645813%, 72.63031%, 71.022034%)" offset="0.648438"/><stop stop-opacity="1" stop-color="rgb(91.543579%, 72.383118%, 71.109009%)" offset="0.65625"/><stop stop-opacity="1" stop-color="rgb(91.441345%, 72.135925%, 71.195984%)" offset="0.664062"/><stop stop-opacity="1" stop-color="rgb(91.339111%, 71.890259%, 71.281433%)" offset="0.671875"/><stop stop-opacity="1" stop-color="rgb(91.238403%, 71.643066%, 71.368408%)" offset="0.679688"/><stop stop-opacity="1" stop-color="rgb(91.136169%, 71.395874%, 71.455383%)" offset="0.6875"/><stop stop-opacity="1" stop-color="rgb(91.033936%, 71.148682%, 71.542358%)" offset="0.695312"/><stop stop-opacity="1" stop-color="rgb(90.933228%, 70.901489%, 71.629333%)" offset="0.703125"/><stop stop-opacity="1" stop-color="rgb(90.830994%, 70.655823%, 71.716309%)" offset="0.710938"/><stop stop-opacity="1" stop-color="rgb(90.72876%, 70.40863%, 71.803284%)" offset="0.71875"/><stop stop-opacity="1" stop-color="rgb(90.628052%, 70.161438%, 71.888733%)" offset="0.726563"/><stop stop-opacity="1" stop-color="rgb(90.525818%, 69.914246%, 71.975708%)" offset="0.734375"/><stop stop-opacity="1" stop-color="rgb(90.423584%, 69.667053%, 72.062683%)" offset="0.742188"/><stop stop-opacity="1" stop-color="rgb(90.322876%, 69.421387%, 72.149658%)" offset="0.75"/><stop stop-opacity="1" stop-color="rgb(90.220642%, 69.174194%, 72.236633%)" offset="0.757812"/><stop stop-opacity="1" stop-color="rgb(90.118408%, 68.927002%, 72.323608%)" offset="0.765625"/><stop stop-opacity="1" stop-color="rgb(90.0177%, 68.67981%, 72.410583%)" offset="0.773438"/><stop stop-opacity="1" stop-color="rgb(89.915466%, 68.434143%, 72.496033%)" offset="0.78125"/><stop stop-opacity="1" stop-color="rgb(89.813232%, 68.186951%, 72.583008%)" offset="0.789062"/><stop stop-opacity="1" stop-color="rgb(89.712524%, 67.939758%, 72.669983%)" offset="0.796875"/><stop stop-opacity="1" stop-color="rgb(89.610291%, 67.692566%, 72.756958%)" offset="0.804688"/><stop stop-opacity="1" stop-color="rgb(89.508057%, 67.445374%, 72.843933%)" offset="0.8125"/><stop stop-opacity="1" stop-color="rgb(89.407349%, 67.199707%, 72.930908%)" offset="0.820312"/><stop stop-opacity="1" stop-color="rgb(89.305115%, 66.952515%, 73.017883%)" offset="0.828125"/><stop stop-opacity="1" stop-color="rgb(89.202881%, 66.705322%, 73.103333%)" offset="0.835938"/><stop stop-opacity="1" stop-color="rgb(89.102173%, 66.45813%, 73.190308%)" offset="0.84375"/><stop stop-opacity="1" stop-color="rgb(88.999939%, 66.210938%, 73.277283%)" offset="0.851562"/><stop stop-opacity="1" stop-color="rgb(88.897705%, 65.965271%, 73.364258%)" offset="0.859375"/><stop stop-opacity="1" stop-color="rgb(88.796997%, 65.718079%, 73.451233%)" offset="0.867188"/><stop stop-opacity="1" stop-color="rgb(88.694763%, 65.470886%, 73.538208%)" offset="0.875"/><stop stop-opacity="1" stop-color="rgb(88.592529%, 65.223694%, 73.625183%)" offset="0.882812"/><stop stop-opacity="1" stop-color="rgb(88.490295%, 64.978027%, 73.710632%)" offset="0.890625"/><stop stop-opacity="1" stop-color="rgb(88.389587%, 64.730835%, 73.797607%)" offset="0.898438"/><stop stop-opacity="1" stop-color="rgb(88.287354%, 64.483643%, 73.884583%)" offset="0.90625"/><stop stop-opacity="1" stop-color="rgb(88.18512%, 64.23645%, 73.971558%)" offset="0.914063"/><stop stop-opacity="1" stop-color="rgb(88.084412%, 63.989258%, 74.058533%)" offset="0.921875"/><stop stop-opacity="1" stop-color="rgb(87.982178%, 63.743591%, 74.145508%)" offset="0.929688"/><stop stop-opacity="1" stop-color="rgb(87.879944%, 63.496399%, 74.232483%)" offset="0.9375"/><stop stop-opacity="1" stop-color="rgb(87.779236%, 63.249207%, 74.317932%)" offset="0.945313"/><stop stop-opacity="1" stop-color="rgb(87.677002%, 63.002014%, 74.404907%)" offset="0.953125"/><stop stop-opacity="1" stop-color="rgb(87.574768%, 62.754822%, 74.491882%)" offset="0.960938"/><stop stop-opacity="1" stop-color="rgb(87.47406%, 62.509155%, 74.578857%)" offset="0.96875"/><stop stop-opacity="1" stop-color="rgb(87.371826%, 62.261963%, 74.665833%)" offset="0.976562"/><stop stop-opacity="1" stop-color="rgb(87.269592%, 62.014771%, 74.752808%)" offset="0.984375"/><stop stop-opacity="1" stop-color="rgb(87.158203%, 61.74469%, 74.847412%)" offset="1"/></linearGradient></defs><g clip-path="url(#12f5df0cb7)"><g clip-path="url(#45ac59598c)"><g clip-path="url(#bca823f16c)"><g clip-path="url(#597920b492)"><g clip-path="url(#eb9145b96c)"><path fill="url(#5c6c9e2b6e)" d="M 714.066406 325.417969 L 243.058594 732.074219 L -159.921875 265.328125 L 311.089844 -141.332031 Z M 714.066406 325.417969 " fill-rule="nonzero"/></g></g></g></g></g><g clip-path="url(#476c4dd863)"><g clip-path="url(#54dc61e84a)"><path fill="url(#9ebda23319)" d="M 633.726562 208.53125 L 633.726562 518.96875 L 288.066406 518.96875 L 288.066406 208.53125 Z M 633.726562 208.53125 " fill-rule="nonzero"/></g></g><g fill="#444444" fill-opacity="1"><g transform="translate(93.476935, 341.881272)"><g><path d="M 7.390625 -61.546875 L 54.25 -61.546875 L 54.25 -49.234375 L 20.921875 -49.234375 L 20.921875 -36.140625 L 50.296875 -36.140625 L 50.296875 -23.828125 L 20.921875 -23.828125 L 20.921875 0 L 7.390625 0 Z M 7.390625 -61.546875 "/></g></g></g><g fill="#444444" fill-opacity="1"><g transform="translate(151.157058, 341.881272)"><g><path d="M 7.390625 -61.546875 L 53.8125 -61.546875 L 53.8125 -49.5 L 20.84375 -49.5 L 20.84375 -37.015625 L 49.859375 -37.015625 L 49.859375 -24.96875 L 20.84375 -24.96875 L 20.84375 -12.046875 L 54.25 -12.046875 L 54.25 0 L 7.390625 0 Z M 7.390625 -61.546875 "/></g></g></g><g fill="#444444" fill-opacity="1"><g transform="translate(210.068158, 341.881272)"><g><path d="M 28.484375 -61.984375 L 40.96875 -61.984375 L 67.34375 0 L 53.1875 0 L 47.5625 -13.796875 L 21.546875 -13.796875 L 15.90625 0 L 2.109375 0 Z M 42.734375 -25.765625 L 34.546875 -45.71875 L 26.375 -25.765625 Z M 42.734375 -25.765625 "/></g></g></g><g fill="#444444" fill-opacity="1"><g transform="translate(279.530497, 341.881272)"><g><path d="M 7.390625 -61.546875 L 35.515625 -61.546875 C 43.316406 -61.546875 49.296875 -59.460938 53.453125 -55.296875 C 56.972656 -51.785156 58.734375 -47.097656 58.734375 -41.234375 L 58.734375 -41.0625 C 58.734375 -36.082031 57.515625 -32.019531 55.078125 -28.875 C 52.648438 -25.738281 49.472656 -23.441406 45.546875 -21.984375 L 60.578125 0 L 44.75 0 L 31.5625 -19.6875 L 20.921875 -19.6875 L 20.921875 0 L 7.390625 0 Z M 34.640625 -31.65625 C 37.984375 -31.65625 40.546875 -32.445312 42.328125 -34.03125 C 44.117188 -35.613281 45.015625 -37.722656 45.015625 -40.359375 L 45.015625 -40.53125 C 45.015625 -43.457031 44.078125 -45.65625 42.203125 -47.125 C 40.328125 -48.59375 37.71875 -49.328125 34.375 -49.328125 L 20.921875 -49.328125 L 20.921875 -31.65625 Z M 34.640625 -31.65625 "/></g></g></g><g fill="#444444" fill-opacity="1"><g transform="translate(343.10171, 341.881272)"><g><path d="M 7.390625 -61.546875 L 20.921875 -61.546875 L 20.921875 -12.3125 L 51.609375 -12.3125 L 51.609375 0 L 7.390625 0 Z M 7.390625 -61.546875 "/></g></g></g><g fill="#444444" fill-opacity="1"><g transform="translate(397.528523, 341.881272)"><g><path d="M 7.390625 -61.546875 L 53.8125 -61.546875 L 53.8125 -49.5 L 20.84375 -49.5 L 20.84375 -37.015625 L 49.859375 -37.015625 L 49.859375 -24.96875 L 20.84375 -24.96875 L 20.84375 -12.046875 L 54.25 -12.046875 L 54.25 0 L 7.390625 0 Z M 7.390625 -61.546875 "/></g></g></g><g fill="#444444" fill-opacity="1"><g transform="translate(456.439635, 341.881272)"><g><path d="M 29.28125 0.875 C 24.59375 0.875 19.988281 0.0703125 15.46875 -1.53125 C 10.957031 -3.144531 6.859375 -5.625 3.171875 -8.96875 L 11.171875 -18.546875 C 13.984375 -16.265625 16.867188 -14.445312 19.828125 -13.09375 C 22.785156 -11.75 26.023438 -11.078125 29.546875 -11.078125 C 32.359375 -11.078125 34.539062 -11.585938 36.09375 -12.609375 C 37.644531 -13.640625 38.421875 -15.0625 38.421875 -16.875 L 38.421875 -17.0625 C 38.421875 -17.9375 38.257812 -18.707031 37.9375 -19.375 C 37.613281 -20.050781 37 -20.679688 36.09375 -21.265625 C 35.1875 -21.859375 33.925781 -22.445312 32.3125 -23.03125 C 30.695312 -23.625 28.601562 -24.238281 26.03125 -24.875 C 22.914062 -25.644531 20.097656 -26.5 17.578125 -27.4375 C 15.054688 -28.375 12.914062 -29.53125 11.15625 -30.90625 C 9.40625 -32.28125 8.046875 -33.992188 7.078125 -36.046875 C 6.109375 -38.097656 5.625 -40.648438 5.625 -43.703125 L 5.625 -43.875 C 5.625 -46.6875 6.148438 -49.21875 7.203125 -51.46875 C 8.265625 -53.726562 9.742188 -55.675781 11.640625 -57.3125 C 13.546875 -58.957031 15.816406 -60.21875 18.453125 -61.09375 C 21.097656 -61.976562 24.003906 -62.421875 27.171875 -62.421875 C 31.679688 -62.421875 35.828125 -61.742188 39.609375 -60.390625 C 43.390625 -59.046875 46.863281 -57.113281 50.03125 -54.59375 L 43 -44.40625 C 40.238281 -46.28125 37.539062 -47.757812 34.90625 -48.84375 C 32.269531 -49.925781 29.628906 -50.46875 26.984375 -50.46875 C 24.347656 -50.46875 22.367188 -49.953125 21.046875 -48.921875 C 19.734375 -47.898438 19.078125 -46.628906 19.078125 -45.109375 L 19.078125 -44.921875 C 19.078125 -43.929688 19.265625 -43.066406 19.640625 -42.328125 C 20.023438 -41.597656 20.71875 -40.941406 21.71875 -40.359375 C 22.71875 -39.773438 24.082031 -39.21875 25.8125 -38.6875 C 27.539062 -38.15625 29.722656 -37.539062 32.359375 -36.84375 C 35.460938 -36.019531 38.226562 -35.09375 40.65625 -34.0625 C 43.09375 -33.039062 45.144531 -31.8125 46.8125 -30.375 C 48.488281 -28.9375 49.75 -27.25 50.59375 -25.3125 C 51.445312 -23.382812 51.875 -21.070312 51.875 -18.375 L 51.875 -18.203125 C 51.875 -15.148438 51.316406 -12.4375 50.203125 -10.0625 C 49.085938 -7.6875 47.53125 -5.691406 45.53125 -4.078125 C 43.539062 -2.472656 41.171875 -1.242188 38.421875 -0.390625 C 35.671875 0.453125 32.625 0.875 29.28125 0.875 Z M 29.28125 0.875 "/></g></g></g><g fill="#444444" fill-opacity="1"><g transform="translate(512.71292, 341.881272)"><g><path d="M 29.28125 0.875 C 24.59375 0.875 19.988281 0.0703125 15.46875 -1.53125 C 10.957031 -3.144531 6.859375 -5.625 3.171875 -8.96875 L 11.171875 -18.546875 C 13.984375 -16.265625 16.867188 -14.445312 19.828125 -13.09375 C 22.785156 -11.75 26.023438 -11.078125 29.546875 -11.078125 C 32.359375 -11.078125 34.539062 -11.585938 36.09375 -12.609375 C 37.644531 -13.640625 38.421875 -15.0625 38.421875 -16.875 L 38.421875 -17.0625 C 38.421875 -17.9375 38.257812 -18.707031 37.9375 -19.375 C 37.613281 -20.050781 37 -20.679688 36.09375 -21.265625 C 35.1875 -21.859375 33.925781 -22.445312 32.3125 -23.03125 C 30.695312 -23.625 28.601562 -24.238281 26.03125 -24.875 C 22.914062 -25.644531 20.097656 -26.5 17.578125 -27.4375 C 15.054688 -28.375 12.914062 -29.53125 11.15625 -30.90625 C 9.40625 -32.28125 8.046875 -33.992188 7.078125 -36.046875 C 6.109375 -38.097656 5.625 -40.648438 5.625 -43.703125 L 5.625 -43.875 C 5.625 -46.6875 6.148438 -49.21875 7.203125 -51.46875 C 8.265625 -53.726562 9.742188 -55.675781 11.640625 -57.3125 C 13.546875 -58.957031 15.816406 -60.21875 18.453125 -61.09375 C 21.097656 -61.976562 24.003906 -62.421875 27.171875 -62.421875 C 31.679688 -62.421875 35.828125 -61.742188 39.609375 -60.390625 C 43.390625 -59.046875 46.863281 -57.113281 50.03125 -54.59375 L 43 -44.40625 C 40.238281 -46.28125 37.539062 -47.757812 34.90625 -48.84375 C 32.269531 -49.925781 29.628906 -50.46875 26.984375 -50.46875 C 24.347656 -50.46875 22.367188 -49.953125 21.046875 -48.921875 C 19.734375 -47.898438 19.078125 -46.628906 19.078125 -45.109375 L 19.078125 -44.921875 C 19.078125 -43.929688 19.265625 -43.066406 19.640625 -42.328125 C 20.023438 -41.597656 20.71875 -40.941406 21.71875 -40.359375 C 22.71875 -39.773438 24.082031 -39.21875 25.8125 -38.6875 C 27.539062 -38.15625 29.722656 -37.539062 32.359375 -36.84375 C 35.460938 -36.019531 38.226562 -35.09375 40.65625 -34.0625 C 43.09375 -33.039062 45.144531 -31.8125 46.8125 -30.375 C 48.488281 -28.9375 49.75 -27.25 50.59375 -25.3125 C 51.445312 -23.382812 51.875 -21.070312 51.875 -18.375 L 51.875 -18.203125 C 51.875 -15.148438 51.316406 -12.4375 50.203125 -10.0625 C 49.085938 -7.6875 47.53125 -5.691406 45.53125 -4.078125 C 43.539062 -2.472656 41.171875 -1.242188 38.421875 -0.390625 C 35.671875 0.453125 32.625 0.875 29.28125 0.875 Z M 29.28125 0.875 "/></g></g></g><g fill="#444444" fill-opacity="1"><g transform="translate(165.45785, 411.276728)"><g><path d="M 14.828125 0.421875 C 12.941406 0.421875 11.203125 0.0859375 9.609375 -0.578125 C 8.023438 -1.242188 6.65625 -2.140625 5.5 -3.265625 C 4.351562 -4.398438 3.457031 -5.726562 2.8125 -7.25 C 2.175781 -8.78125 1.859375 -10.421875 1.859375 -12.171875 L 1.859375 -12.234375 C 1.859375 -13.984375 2.179688 -15.617188 2.828125 -17.140625 C 3.484375 -18.671875 4.390625 -20.015625 5.546875 -21.171875 C 6.703125 -22.328125 8.078125 -23.234375 9.671875 -23.890625 C 11.265625 -24.554688 13.003906 -24.890625 14.890625 -24.890625 C 16.785156 -24.890625 18.523438 -24.554688 20.109375 -23.890625 C 21.691406 -23.234375 23.0625 -22.335938 24.21875 -21.203125 C 25.375 -20.078125 26.269531 -18.75 26.90625 -17.21875 C 27.550781 -15.695312 27.875 -14.0625 27.875 -12.3125 L 27.875 -12.234375 C 27.875 -10.484375 27.546875 -8.84375 26.890625 -7.3125 C 26.234375 -5.789062 25.328125 -4.453125 24.171875 -3.296875 C 23.023438 -2.148438 21.648438 -1.242188 20.046875 -0.578125 C 18.453125 0.0859375 16.710938 0.421875 14.828125 0.421875 Z M 14.890625 -4.546875 C 15.960938 -4.546875 16.953125 -4.742188 17.859375 -5.140625 C 18.773438 -5.535156 19.550781 -6.082031 20.1875 -6.78125 C 20.832031 -7.476562 21.332031 -8.285156 21.6875 -9.203125 C 22.050781 -10.128906 22.234375 -11.117188 22.234375 -12.171875 L 22.234375 -12.234375 C 22.234375 -13.285156 22.050781 -14.273438 21.6875 -15.203125 C 21.332031 -16.140625 20.820312 -16.957031 20.15625 -17.65625 C 19.488281 -18.351562 18.703125 -18.90625 17.796875 -19.3125 C 16.890625 -19.726562 15.898438 -19.9375 14.828125 -19.9375 C 13.734375 -19.9375 12.734375 -19.738281 11.828125 -19.34375 C 10.929688 -18.945312 10.160156 -18.394531 9.515625 -17.6875 C 8.878906 -16.988281 8.378906 -16.175781 8.015625 -15.25 C 7.660156 -14.332031 7.484375 -13.351562 7.484375 -12.3125 L 7.484375 -12.234375 C 7.484375 -11.191406 7.660156 -10.203125 8.015625 -9.265625 C 8.378906 -8.335938 8.894531 -7.519531 9.5625 -6.8125 C 10.226562 -6.113281 11.007812 -5.5625 11.90625 -5.15625 C 12.800781 -4.75 13.796875 -4.546875 14.890625 -4.546875 Z M 14.890625 -4.546875 "/></g></g></g><g fill="#444444" fill-opacity="1"><g transform="translate(195.177774, 411.276728)"><g><path d="M 2.375 -18.75 L 7.6875 -18.75 L 7.6875 -14.96875 C 8.226562 -16.25 8.960938 -17.273438 9.890625 -18.046875 C 10.828125 -18.816406 12.085938 -19.164062 13.671875 -19.09375 L 13.671875 -13.53125 L 13.390625 -13.53125 C 11.617188 -13.53125 10.222656 -12.992188 9.203125 -11.921875 C 8.191406 -10.847656 7.6875 -9.179688 7.6875 -6.921875 L 7.6875 0 L 2.375 0 Z M 2.375 -18.75 "/></g></g></g><g fill="#444444" fill-opacity="1"><g transform="translate(209.792979, 411.276728)"><g><path d="M 10.078125 0.34375 C 8.972656 0.34375 7.90625 0.132812 6.875 -0.28125 C 5.851562 -0.695312 4.945312 -1.316406 4.15625 -2.140625 C 3.363281 -2.972656 2.726562 -3.988281 2.25 -5.1875 C 1.769531 -6.394531 1.53125 -7.78125 1.53125 -9.34375 L 1.53125 -9.40625 C 1.53125 -10.96875 1.769531 -12.347656 2.25 -13.546875 C 2.726562 -14.742188 3.359375 -15.753906 4.140625 -16.578125 C 4.921875 -17.410156 5.820312 -18.035156 6.84375 -18.453125 C 7.875 -18.878906 8.953125 -19.09375 10.078125 -19.09375 C 11.492188 -19.09375 12.660156 -18.8125 13.578125 -18.25 C 14.503906 -17.695312 15.28125 -17.046875 15.90625 -16.296875 L 15.90625 -25.53125 L 21.21875 -25.53125 L 21.21875 0 L 15.90625 0 L 15.90625 -2.6875 C 15.257812 -1.800781 14.472656 -1.070312 13.546875 -0.5 C 12.628906 0.0625 11.472656 0.34375 10.078125 0.34375 Z M 11.4375 -4.15625 C 12.0625 -4.15625 12.644531 -4.273438 13.1875 -4.515625 C 13.738281 -4.765625 14.21875 -5.117188 14.625 -5.578125 C 15.039062 -6.035156 15.367188 -6.582031 15.609375 -7.21875 C 15.859375 -7.863281 15.984375 -8.570312 15.984375 -9.34375 L 15.984375 -9.40625 C 15.984375 -10.175781 15.859375 -10.878906 15.609375 -11.515625 C 15.367188 -12.160156 15.039062 -12.707031 14.625 -13.15625 C 14.21875 -13.613281 13.738281 -13.960938 13.1875 -14.203125 C 12.644531 -14.453125 12.0625 -14.578125 11.4375 -14.578125 C 10.800781 -14.578125 10.207031 -14.453125 9.65625 -14.203125 C 9.113281 -13.960938 8.632812 -13.613281 8.21875 -13.15625 C 7.800781 -12.707031 7.46875 -12.164062 7.21875 -11.53125 C 6.976562 -10.90625 6.859375 -10.195312 6.859375 -9.40625 L 6.859375 -9.34375 C 6.859375 -8.570312 6.976562 -7.863281 7.21875 -7.21875 C 7.46875 -6.582031 7.800781 -6.035156 8.21875 -5.578125 C 8.632812 -5.117188 9.113281 -4.765625 9.65625 -4.515625 C 10.207031 -4.273438 10.800781 -4.15625 11.4375 -4.15625 Z M 11.4375 -4.15625 "/></g></g></g><g fill="#444444" fill-opacity="1"><g transform="translate(233.394094, 411.276728)"><g><path d="M 11.265625 0.421875 C 9.859375 0.421875 8.554688 0.1875 7.359375 -0.28125 C 6.160156 -0.75 5.125 -1.410156 4.25 -2.265625 C 3.375 -3.128906 2.691406 -4.148438 2.203125 -5.328125 C 1.710938 -6.503906 1.46875 -7.816406 1.46875 -9.265625 L 1.46875 -9.34375 C 1.46875 -10.664062 1.691406 -11.921875 2.140625 -13.109375 C 2.597656 -14.296875 3.234375 -15.332031 4.046875 -16.21875 C 4.867188 -17.101562 5.84375 -17.800781 6.96875 -18.3125 C 8.101562 -18.832031 9.359375 -19.09375 10.734375 -19.09375 C 12.296875 -19.09375 13.644531 -18.8125 14.78125 -18.25 C 15.925781 -17.695312 16.878906 -16.945312 17.640625 -16 C 18.398438 -15.050781 18.957031 -13.960938 19.3125 -12.734375 C 19.675781 -11.515625 19.859375 -10.242188 19.859375 -8.921875 C 19.859375 -8.710938 19.851562 -8.488281 19.84375 -8.25 C 19.832031 -8.019531 19.816406 -7.773438 19.796875 -7.515625 L 6.75 -7.515625 C 7.007812 -6.304688 7.539062 -5.390625 8.34375 -4.765625 C 9.144531 -4.148438 10.140625 -3.84375 11.328125 -3.84375 C 12.210938 -3.84375 13.003906 -3.992188 13.703125 -4.296875 C 14.398438 -4.597656 15.125 -5.085938 15.875 -5.765625 L 18.921875 -3.078125 C 18.035156 -1.984375 16.960938 -1.125 15.703125 -0.5 C 14.441406 0.113281 12.960938 0.421875 11.265625 0.421875 Z M 14.6875 -10.84375 C 14.519531 -12.03125 14.097656 -12.988281 13.421875 -13.71875 C 12.742188 -14.457031 11.847656 -14.828125 10.734375 -14.828125 C 9.617188 -14.828125 8.71875 -14.460938 8.03125 -13.734375 C 7.34375 -13.015625 6.890625 -12.050781 6.671875 -10.84375 Z M 14.6875 -10.84375 "/></g></g></g><g fill="#444444" fill-opacity="1"><g transform="translate(254.827398, 411.276728)"><g><path d="M 2.375 -18.75 L 7.6875 -18.75 L 7.6875 -14.96875 C 8.226562 -16.25 8.960938 -17.273438 9.890625 -18.046875 C 10.828125 -18.816406 12.085938 -19.164062 13.671875 -19.09375 L 13.671875 -13.53125 L 13.390625 -13.53125 C 11.617188 -13.53125 10.222656 -12.992188 9.203125 -11.921875 C 8.191406 -10.847656 7.6875 -9.179688 7.6875 -6.921875 L 7.6875 0 L 2.375 0 Z M 2.375 -18.75 "/></g></g></g><g fill="#444444" fill-opacity="1"><g transform="translate(269.442603, 411.276728)"><g/></g></g><g fill="#444444" fill-opacity="1"><g transform="translate(279.931989, 411.276728)"><g><path d="M 0.84375 -18.75 L 6.21875 -18.75 L 9.234375 -7.375 L 12.765625 -18.8125 L 17.34375 -18.8125 L 20.90625 -7.34375 L 23.984375 -18.75 L 29.265625 -18.75 L 23.421875 0.140625 L 18.640625 0.140625 L 15.03125 -11.359375 L 11.359375 0.140625 L 6.609375 0.140625 Z M 0.84375 -18.75 "/></g></g></g><g fill="#444444" fill-opacity="1"><g transform="translate(310.036521, 411.276728)"><g><path d="M 2.484375 -25.53125 L 8.078125 -25.53125 L 8.078125 -20.8125 L 2.484375 -20.8125 Z M 2.625 -18.75 L 7.9375 -18.75 L 7.9375 0 L 2.625 0 Z M 2.625 -18.75 "/></g></g></g><g fill="#444444" fill-opacity="1"><g transform="translate(320.595832, 411.276728)"><g><path d="M 8.703125 0.3125 C 7.890625 0.3125 7.148438 0.222656 6.484375 0.046875 C 5.816406 -0.117188 5.242188 -0.421875 4.765625 -0.859375 C 4.296875 -1.304688 3.925781 -1.882812 3.65625 -2.59375 C 3.382812 -3.3125 3.25 -4.21875 3.25 -5.3125 L 3.25 -14.203125 L 1.015625 -14.203125 L 1.015625 -18.75 L 3.25 -18.75 L 3.25 -23.53125 L 8.5625 -23.53125 L 8.5625 -18.75 L 12.96875 -18.75 L 12.96875 -14.203125 L 8.5625 -14.203125 L 8.5625 -6.1875 C 8.5625 -4.976562 9.132812 -4.375 10.28125 -4.375 C 11.207031 -4.375 12.082031 -4.59375 12.90625 -5.03125 L 12.90625 -0.765625 C 12.34375 -0.441406 11.722656 -0.179688 11.046875 0.015625 C 10.367188 0.210938 9.585938 0.3125 8.703125 0.3125 Z M 8.703125 0.3125 "/></g></g></g><g fill="#444444" fill-opacity="1"><g transform="translate(335.106143, 411.276728)"><g><path d="M 2.375 -25.53125 L 7.6875 -25.53125 L 7.6875 -16.078125 C 7.988281 -16.484375 8.320312 -16.863281 8.6875 -17.21875 C 9.050781 -17.582031 9.453125 -17.90625 9.890625 -18.1875 C 10.335938 -18.46875 10.828125 -18.6875 11.359375 -18.84375 C 11.898438 -19.007812 12.507812 -19.09375 13.1875 -19.09375 C 15.207031 -19.09375 16.769531 -18.472656 17.875 -17.234375 C 18.988281 -16.003906 19.546875 -14.304688 19.546875 -12.140625 L 19.546875 0 L 14.234375 0 L 14.234375 -10.453125 C 14.234375 -11.710938 13.953125 -12.660156 13.390625 -13.296875 C 12.828125 -13.941406 12.035156 -14.265625 11.015625 -14.265625 C 9.984375 -14.265625 9.171875 -13.941406 8.578125 -13.296875 C 7.984375 -12.660156 7.6875 -11.710938 7.6875 -10.453125 L 7.6875 0 L 2.375 0 Z M 2.375 -25.53125 "/></g></g></g><g fill="#444444" fill-opacity="1"><g transform="translate(356.889099, 411.276728)"><g><path d="M 11.578125 0.421875 C 10.128906 0.421875 8.785156 0.171875 7.546875 -0.328125 C 6.316406 -0.828125 5.25 -1.515625 4.34375 -2.390625 C 3.445312 -3.265625 2.742188 -4.289062 2.234375 -5.46875 C 1.722656 -6.644531 1.46875 -7.910156 1.46875 -9.265625 L 1.46875 -9.34375 C 1.46875 -10.6875 1.722656 -11.945312 2.234375 -13.125 C 2.742188 -14.300781 3.453125 -15.332031 4.359375 -16.21875 C 5.273438 -17.101562 6.347656 -17.800781 7.578125 -18.3125 C 8.816406 -18.832031 10.171875 -19.09375 11.640625 -19.09375 C 13.085938 -19.09375 14.425781 -18.84375 15.65625 -18.34375 C 16.894531 -17.84375 17.960938 -17.15625 18.859375 -16.28125 C 19.765625 -15.40625 20.472656 -14.378906 20.984375 -13.203125 C 21.492188 -12.023438 21.75 -10.757812 21.75 -9.40625 L 21.75 -9.34375 C 21.75 -7.988281 21.492188 -6.722656 20.984375 -5.546875 C 20.472656 -4.367188 19.757812 -3.335938 18.84375 -2.453125 C 17.9375 -1.566406 16.863281 -0.863281 15.625 -0.34375 C 14.394531 0.164062 13.046875 0.421875 11.578125 0.421875 Z M 11.640625 -4.15625 C 12.410156 -4.15625 13.09375 -4.289062 13.6875 -4.5625 C 14.28125 -4.832031 14.785156 -5.195312 15.203125 -5.65625 C 15.628906 -6.125 15.953125 -6.664062 16.171875 -7.28125 C 16.390625 -7.90625 16.5 -8.566406 16.5 -9.265625 L 16.5 -9.34375 C 16.5 -10.039062 16.382812 -10.695312 16.15625 -11.3125 C 15.925781 -11.925781 15.585938 -12.472656 15.140625 -12.953125 C 14.703125 -13.429688 14.175781 -13.8125 13.5625 -14.09375 C 12.957031 -14.375 12.296875 -14.515625 11.578125 -14.515625 C 10.804688 -14.515625 10.125 -14.378906 9.53125 -14.109375 C 8.9375 -13.835938 8.425781 -13.46875 8 -13 C 7.582031 -12.539062 7.265625 -12 7.046875 -11.375 C 6.828125 -10.757812 6.71875 -10.101562 6.71875 -9.40625 L 6.71875 -9.34375 C 6.71875 -8.632812 6.832031 -7.972656 7.0625 -7.359375 C 7.289062 -6.742188 7.628906 -6.195312 8.078125 -5.71875 C 8.523438 -5.238281 9.046875 -4.859375 9.640625 -4.578125 C 10.234375 -4.296875 10.898438 -4.15625 11.640625 -4.15625 Z M 11.640625 -4.15625 "/></g></g></g><g fill="#444444" fill-opacity="1"><g transform="translate(380.105617, 411.276728)"><g><path d="M 8.609375 0.34375 C 6.578125 0.34375 5.003906 -0.269531 3.890625 -1.5 C 2.785156 -2.738281 2.234375 -4.441406 2.234375 -6.609375 L 2.234375 -18.75 L 7.546875 -18.75 L 7.546875 -8.28125 C 7.546875 -7.03125 7.828125 -6.082031 8.390625 -5.4375 C 8.953125 -4.789062 9.742188 -4.46875 10.765625 -4.46875 C 11.796875 -4.46875 12.609375 -4.789062 13.203125 -5.4375 C 13.796875 -6.082031 14.09375 -7.03125 14.09375 -8.28125 L 14.09375 -18.75 L 19.40625 -18.75 L 19.40625 0 L 14.09375 0 L 14.09375 -2.65625 C 13.789062 -2.257812 13.457031 -1.878906 13.09375 -1.515625 C 12.726562 -1.160156 12.320312 -0.84375 11.875 -0.5625 C 11.4375 -0.28125 10.945312 -0.0625 10.40625 0.09375 C 9.875 0.257812 9.273438 0.34375 8.609375 0.34375 Z M 8.609375 0.34375 "/></g></g></g><g fill="#444444" fill-opacity="1"><g transform="translate(401.888573, 411.276728)"><g><path d="M 8.703125 0.3125 C 7.890625 0.3125 7.148438 0.222656 6.484375 0.046875 C 5.816406 -0.117188 5.242188 -0.421875 4.765625 -0.859375 C 4.296875 -1.304688 3.925781 -1.882812 3.65625 -2.59375 C 3.382812 -3.3125 3.25 -4.21875 3.25 -5.3125 L 3.25 -14.203125 L 1.015625 -14.203125 L 1.015625 -18.75 L 3.25 -18.75 L 3.25 -23.53125 L 8.5625 -23.53125 L 8.5625 -18.75 L 12.96875 -18.75 L 12.96875 -14.203125 L 8.5625 -14.203125 L 8.5625 -6.1875 C 8.5625 -4.976562 9.132812 -4.375 10.28125 -4.375 C 11.207031 -4.375 12.082031 -4.59375 12.90625 -5.03125 L 12.90625 -0.765625 C 12.34375 -0.441406 11.722656 -0.179688 11.046875 0.015625 C 10.367188 0.210938 9.585938 0.3125 8.703125 0.3125 Z M 8.703125 0.3125 "/></g></g></g><g fill="#444444" fill-opacity="1"><g transform="translate(416.398896, 411.276728)"><g/></g></g><g fill="#444444" fill-opacity="1"><g transform="translate(426.88827, 411.276728)"><g><path d="M 3.28125 -14.203125 L 1.078125 -14.203125 L 1.078125 -18.5625 L 3.28125 -18.5625 L 3.28125 -19.75 C 3.28125 -21.78125 3.785156 -23.296875 4.796875 -24.296875 C 5.773438 -25.273438 7.207031 -25.765625 9.09375 -25.765625 C 9.925781 -25.765625 10.640625 -25.71875 11.234375 -25.625 C 11.835938 -25.539062 12.382812 -25.414062 12.875 -25.25 L 12.875 -20.84375 C 12.476562 -20.976562 12.09375 -21.085938 11.71875 -21.171875 C 11.34375 -21.253906 10.921875 -21.296875 10.453125 -21.296875 C 9.171875 -21.296875 8.53125 -20.617188 8.53125 -19.265625 L 8.53125 -18.53125 L 12.828125 -18.53125 L 12.828125 -14.203125 L 8.609375 -14.203125 L 8.609375 0 L 3.28125 0 Z M 3.28125 -14.203125 "/></g></g></g><g fill="#444444" fill-opacity="1"><g transform="translate(440.244745, 411.276728)"><g><path d="M 11.265625 0.421875 C 9.859375 0.421875 8.554688 0.1875 7.359375 -0.28125 C 6.160156 -0.75 5.125 -1.410156 4.25 -2.265625 C 3.375 -3.128906 2.691406 -4.148438 2.203125 -5.328125 C 1.710938 -6.503906 1.46875 -7.816406 1.46875 -9.265625 L 1.46875 -9.34375 C 1.46875 -10.664062 1.691406 -11.921875 2.140625 -13.109375 C 2.597656 -14.296875 3.234375 -15.332031 4.046875 -16.21875 C 4.867188 -17.101562 5.84375 -17.800781 6.96875 -18.3125 C 8.101562 -18.832031 9.359375 -19.09375 10.734375 -19.09375 C 12.296875 -19.09375 13.644531 -18.8125 14.78125 -18.25 C 15.925781 -17.695312 16.878906 -16.945312 17.640625 -16 C 18.398438 -15.050781 18.957031 -13.960938 19.3125 -12.734375 C 19.675781 -11.515625 19.859375 -10.242188 19.859375 -8.921875 C 19.859375 -8.710938 19.851562 -8.488281 19.84375 -8.25 C 19.832031 -8.019531 19.816406 -7.773438 19.796875 -7.515625 L 6.75 -7.515625 C 7.007812 -6.304688 7.539062 -5.390625 8.34375 -4.765625 C 9.144531 -4.148438 10.140625 -3.84375 11.328125 -3.84375 C 12.210938 -3.84375 13.003906 -3.992188 13.703125 -4.296875 C 14.398438 -4.597656 15.125 -5.085938 15.875 -5.765625 L 18.921875 -3.078125 C 18.035156 -1.984375 16.960938 -1.125 15.703125 -0.5 C 14.441406 0.113281 12.960938 0.421875 11.265625 0.421875 Z M 14.6875 -10.84375 C 14.519531 -12.03125 14.097656 -12.988281 13.421875 -13.71875 C 12.742188 -14.457031 11.847656 -14.828125 10.734375 -14.828125 C 9.617188 -14.828125 8.71875 -14.460938 8.03125 -13.734375 C 7.34375 -13.015625 6.890625 -12.050781 6.671875 -10.84375 Z M 14.6875 -10.84375 "/></g></g></g><g fill="#444444" fill-opacity="1"><g transform="translate(461.678061, 411.276728)"><g><path d="M 7.6875 0.34375 C 6.800781 0.34375 5.96875 0.222656 5.1875 -0.015625 C 4.40625 -0.265625 3.722656 -0.632812 3.140625 -1.125 C 2.554688 -1.613281 2.097656 -2.210938 1.765625 -2.921875 C 1.429688 -3.628906 1.265625 -4.453125 1.265625 -5.390625 L 1.265625 -5.453125 C 1.265625 -6.484375 1.445312 -7.367188 1.8125 -8.109375 C 2.1875 -8.859375 2.707031 -9.476562 3.375 -9.96875 C 4.039062 -10.457031 4.832031 -10.820312 5.75 -11.0625 C 6.675781 -11.3125 7.695312 -11.4375 8.8125 -11.4375 C 9.769531 -11.4375 10.601562 -11.363281 11.3125 -11.21875 C 12.019531 -11.082031 12.710938 -10.898438 13.390625 -10.671875 L 13.390625 -10.984375 C 13.390625 -12.097656 13.050781 -12.945312 12.375 -13.53125 C 11.695312 -14.113281 10.695312 -14.40625 9.375 -14.40625 C 8.34375 -14.40625 7.4375 -14.316406 6.65625 -14.140625 C 5.875 -13.960938 5.054688 -13.710938 4.203125 -13.390625 L 2.875 -17.453125 C 3.894531 -17.890625 4.960938 -18.25 6.078125 -18.53125 C 7.203125 -18.8125 8.554688 -18.953125 10.140625 -18.953125 C 11.609375 -18.953125 12.859375 -18.769531 13.890625 -18.40625 C 14.929688 -18.050781 15.789062 -17.535156 16.46875 -16.859375 C 17.164062 -16.160156 17.675781 -15.300781 18 -14.28125 C 18.332031 -13.269531 18.5 -12.132812 18.5 -10.875 L 18.5 0 L 13.359375 0 L 13.359375 -2.03125 C 12.703125 -1.300781 11.921875 -0.722656 11.015625 -0.296875 C 10.109375 0.128906 9 0.34375 7.6875 0.34375 Z M 9.296875 -3.328125 C 10.554688 -3.328125 11.566406 -3.628906 12.328125 -4.234375 C 13.085938 -4.835938 13.46875 -5.628906 13.46875 -6.609375 L 13.46875 -7.546875 C 13 -7.765625 12.476562 -7.9375 11.90625 -8.0625 C 11.332031 -8.1875 10.722656 -8.25 10.078125 -8.25 C 8.929688 -8.25 8.03125 -8.023438 7.375 -7.578125 C 6.726562 -7.140625 6.40625 -6.503906 6.40625 -5.671875 L 6.40625 -5.59375 C 6.40625 -4.875 6.671875 -4.316406 7.203125 -3.921875 C 7.742188 -3.523438 8.441406 -3.328125 9.296875 -3.328125 Z M 9.296875 -3.328125 "/></g></g></g><g fill="#444444" fill-opacity="1"><g transform="translate(482.377107, 411.276728)"><g><path d="M 2.375 -18.75 L 7.6875 -18.75 L 7.6875 -14.96875 C 8.226562 -16.25 8.960938 -17.273438 9.890625 -18.046875 C 10.828125 -18.816406 12.085938 -19.164062 13.671875 -19.09375 L 13.671875 -13.53125 L 13.390625 -13.53125 C 11.617188 -13.53125 10.222656 -12.992188 9.203125 -11.921875 C 8.191406 -10.847656 7.6875 -9.179688 7.6875 -6.921875 L 7.6875 0 L 2.375 0 Z M 2.375 -18.75 "/></g></g></g></svg>