<svg xmlns="http://www.w3.org/2000/svg" xmlns:xlink="http://www.w3.org/1999/xlink" width="196" zoomAndPan="magnify" viewBox="0 0 147 48" height="64" preserveAspectRatio="xMidYMid meet" version="1.0"><defs><g/></defs><g fill="#444444" fill-opacity="1"><g transform="translate(4.431783, 35.969807)"><g><path d="M 3.28125 -27.359375 L 9.765625 -27.359375 L 16.953125 -15.78125 L 24.15625 -27.359375 L 30.640625 -27.359375 L 30.640625 0 L 24.65625 0 L 24.65625 -17.859375 L 16.953125 -6.171875 L 16.796875 -6.171875 L 9.1875 -17.734375 L 9.1875 0 L 3.28125 0 Z M 3.28125 -27.359375 "/></g></g></g><g fill="#444444" fill-opacity="1"><g transform="translate(44.211178, 35.969807)"><g><path d="M 3.28125 -27.359375 L 23.921875 -27.359375 L 23.921875 -22 L 9.265625 -22 L 9.265625 -16.453125 L 22.15625 -16.453125 L 22.15625 -11.09375 L 9.265625 -11.09375 L 9.265625 -5.359375 L 24.109375 -5.359375 L 24.109375 0 L 3.28125 0 Z M 3.28125 -27.359375 "/></g></g></g><g fill="#444444" fill-opacity="1"><g transform="translate(76.254007, 35.969807)"><g><path d="M 3.28125 -27.359375 L 8.828125 -27.359375 L 21.65625 -10.515625 L 21.65625 -27.359375 L 27.59375 -27.359375 L 27.59375 0 L 22.46875 0 L 9.21875 -17.390625 L 9.21875 0 L 3.28125 0 Z M 3.28125 -27.359375 "/></g></g></g><g fill="#444444" fill-opacity="1"><g transform="translate(112.985672, 35.969807)"><g><path d="M 14.6875 0.4375 C 11.019531 0.4375 8.128906 -0.578125 6.015625 -2.609375 C 3.910156 -4.648438 2.859375 -7.6875 2.859375 -11.71875 L 2.859375 -27.359375 L 8.875 -27.359375 L 8.875 -11.875 C 8.875 -9.632812 9.394531 -7.945312 10.4375 -6.8125 C 11.476562 -5.6875 12.921875 -5.125 14.765625 -5.125 C 16.617188 -5.125 18.066406 -5.671875 19.109375 -6.765625 C 20.148438 -7.859375 20.671875 -9.5 20.671875 -11.6875 L 20.671875 -27.359375 L 26.6875 -27.359375 L 26.6875 -11.921875 C 26.6875 -9.835938 26.40625 -8.023438 25.84375 -6.484375 C 25.289062 -4.953125 24.492188 -3.671875 23.453125 -2.640625 C 22.410156 -1.609375 21.144531 -0.835938 19.65625 -0.328125 C 18.164062 0.179688 16.507812 0.4375 14.6875 0.4375 Z M 14.6875 0.4375 "/></g></g></g></svg>