<svg xmlns="http://www.w3.org/2000/svg" xmlns:xlink="http://www.w3.org/1999/xlink" width="782" zoomAndPan="magnify" viewBox="0 0 586.5 48" height="64" preserveAspectRatio="xMidYMid meet" version="1.0"><defs><g/></defs><g fill="#444444" fill-opacity="1"><g transform="translate(5.808689, 36.003195)"><g><path d="M 3.296875 -27.4375 L 13.984375 -27.4375 C 16.128906 -27.4375 18.097656 -27.085938 19.890625 -26.390625 C 21.679688 -25.703125 23.222656 -24.742188 24.515625 -23.515625 C 25.804688 -22.285156 26.800781 -20.835938 27.5 -19.171875 C 28.207031 -17.515625 28.5625 -15.722656 28.5625 -13.796875 L 28.5625 -13.71875 C 28.5625 -11.78125 28.207031 -9.972656 27.5 -8.296875 C 26.800781 -6.628906 25.804688 -5.179688 24.515625 -3.953125 C 23.222656 -2.722656 21.679688 -1.753906 19.890625 -1.046875 C 18.097656 -0.347656 16.128906 0 13.984375 0 L 3.296875 0 Z M 9.328125 -21.984375 L 9.328125 -5.453125 L 13.984375 -5.453125 C 15.210938 -5.453125 16.335938 -5.644531 17.359375 -6.03125 C 18.378906 -6.425781 19.25 -6.988281 19.96875 -7.71875 C 20.6875 -8.445312 21.25 -9.304688 21.65625 -10.296875 C 22.0625 -11.296875 22.265625 -12.410156 22.265625 -13.640625 L 22.265625 -13.71875 C 22.265625 -14.914062 22.0625 -16.023438 21.65625 -17.046875 C 21.25 -18.066406 20.6875 -18.941406 19.96875 -19.671875 C 19.25 -20.398438 18.378906 -20.96875 17.359375 -21.375 C 16.335938 -21.78125 15.210938 -21.984375 13.984375 -21.984375 Z M 9.328125 -21.984375 "/></g></g></g><g fill="#444444" fill-opacity="1"><g transform="translate(36.446069, 36.003195)"><g><path d="M 16.609375 0.46875 C 14.492188 0.46875 12.546875 0.0976562 10.765625 -0.640625 C 8.992188 -1.390625 7.460938 -2.394531 6.171875 -3.65625 C 4.878906 -4.925781 3.875 -6.414062 3.15625 -8.125 C 2.4375 -9.84375 2.078125 -11.679688 2.078125 -13.640625 L 2.078125 -13.71875 C 2.078125 -15.675781 2.441406 -17.507812 3.171875 -19.21875 C 3.898438 -20.925781 4.910156 -22.425781 6.203125 -23.71875 C 7.503906 -25.019531 9.046875 -26.039062 10.828125 -26.78125 C 12.617188 -27.53125 14.570312 -27.90625 16.6875 -27.90625 C 18.8125 -27.90625 20.757812 -27.53125 22.53125 -26.78125 C 24.3125 -26.039062 25.847656 -25.035156 27.140625 -23.765625 C 28.429688 -22.492188 29.4375 -21.003906 30.15625 -19.296875 C 30.875 -17.585938 31.234375 -15.753906 31.234375 -13.796875 L 31.234375 -13.71875 C 31.234375 -11.757812 30.863281 -9.921875 30.125 -8.203125 C 29.394531 -6.492188 28.382812 -4.992188 27.09375 -3.703125 C 25.800781 -2.410156 24.257812 -1.390625 22.46875 -0.640625 C 20.6875 0.0976562 18.734375 0.46875 16.609375 0.46875 Z M 16.6875 -5.09375 C 17.894531 -5.09375 19.003906 -5.3125 20.015625 -5.75 C 21.035156 -6.195312 21.90625 -6.8125 22.625 -7.59375 C 23.34375 -8.382812 23.90625 -9.296875 24.3125 -10.328125 C 24.71875 -11.359375 24.921875 -12.460938 24.921875 -13.640625 L 24.921875 -13.71875 C 24.921875 -14.894531 24.71875 -16.003906 24.3125 -17.046875 C 23.90625 -18.085938 23.328125 -19 22.578125 -19.78125 C 21.835938 -20.570312 20.957031 -21.195312 19.9375 -21.65625 C 18.925781 -22.113281 17.816406 -22.34375 16.609375 -22.34375 C 15.390625 -22.34375 14.273438 -22.117188 13.265625 -21.671875 C 12.253906 -21.222656 11.390625 -20.609375 10.671875 -19.828125 C 9.953125 -19.046875 9.390625 -18.140625 8.984375 -17.109375 C 8.585938 -16.078125 8.390625 -14.972656 8.390625 -13.796875 L 8.390625 -13.71875 C 8.390625 -12.539062 8.585938 -11.425781 8.984375 -10.375 C 9.390625 -9.332031 9.960938 -8.421875 10.703125 -7.640625 C 11.453125 -6.859375 12.332031 -6.238281 13.34375 -5.78125 C 14.351562 -5.320312 15.46875 -5.09375 16.6875 -5.09375 Z M 16.6875 -5.09375 "/></g></g></g><g fill="#444444" fill-opacity="1"><g transform="translate(69.747576, 36.003195)"><g><path d="M 3.296875 -27.4375 L 8.859375 -27.4375 L 21.703125 -10.546875 L 21.703125 -27.4375 L 27.671875 -27.4375 L 27.671875 0 L 22.53125 0 L 9.25 -17.4375 L 9.25 0 L 3.296875 0 Z M 3.296875 -27.4375 "/></g></g></g><g fill="#444444" fill-opacity="1"><g transform="translate(100.698394, 36.003195)"><g><path d="M 1.21875 -17.28125 C 3.988281 -17.570312 5.269531 -18.863281 5.0625 -21.15625 L 2.625 -21.15625 L 2.625 -27.4375 L 8.96875 -27.4375 L 8.96875 -22.140625 C 8.96875 -19.554688 8.34375 -17.695312 7.09375 -16.5625 C 5.84375 -15.425781 4.050781 -14.84375 1.71875 -14.8125 Z M 1.21875 -17.28125 "/></g></g></g><g fill="#444444" fill-opacity="1"><g transform="translate(111.903368, 36.003195)"><g><path d="M 9.671875 -21.859375 L 1.328125 -21.859375 L 1.328125 -27.4375 L 24.0625 -27.4375 L 24.0625 -21.859375 L 15.71875 -21.859375 L 15.71875 0 L 9.671875 0 Z M 9.671875 -21.859375 "/></g></g></g><g fill="#444444" fill-opacity="1"><g transform="translate(137.290878, 36.003195)"><g/></g></g><g fill="#444444" fill-opacity="1"><g transform="translate(149.044344, 36.003195)"><g><path d="M 3.296875 -27.4375 L 9.328125 -27.4375 L 9.328125 -16.578125 L 20.453125 -16.578125 L 20.453125 -27.4375 L 26.484375 -27.4375 L 26.484375 0 L 20.453125 0 L 20.453125 -11.015625 L 9.328125 -11.015625 L 9.328125 0 L 3.296875 0 Z M 3.296875 -27.4375 "/></g></g></g><g fill="#444444" fill-opacity="1"><g transform="translate(178.819817, 36.003195)"><g><path d="M 12.703125 -27.625 L 18.265625 -27.625 L 30.015625 0 L 23.703125 0 L 21.203125 -6.15625 L 9.59375 -6.15625 L 7.09375 0 L 0.9375 0 Z M 19.046875 -11.484375 L 15.40625 -20.375 L 11.75 -11.484375 Z M 19.046875 -11.484375 "/></g></g></g><g fill="#444444" fill-opacity="1"><g transform="translate(209.770635, 36.003195)"><g><path d="M 0.9375 -27.4375 L 7.609375 -27.4375 L 14.78125 -8.109375 L 21.9375 -27.4375 L 28.453125 -27.4375 L 17.359375 0.203125 L 12.03125 0.203125 Z M 0.9375 -27.4375 "/></g></g></g><g fill="#444444" fill-opacity="1"><g transform="translate(239.154312, 36.003195)"><g><path d="M 3.296875 -27.4375 L 23.984375 -27.4375 L 23.984375 -22.0625 L 9.28125 -22.0625 L 9.28125 -16.5 L 22.21875 -16.5 L 22.21875 -11.125 L 9.28125 -11.125 L 9.28125 -5.375 L 24.171875 -5.375 L 24.171875 0 L 3.296875 0 Z M 3.296875 -27.4375 "/></g></g></g><g fill="#444444" fill-opacity="1"><g transform="translate(265.40373, 36.003195)"><g/></g></g><g fill="#444444" fill-opacity="1"><g transform="translate(277.157196, 36.003195)"><g><path d="M 12.703125 -27.625 L 18.265625 -27.625 L 30.015625 0 L 23.703125 0 L 21.203125 -6.15625 L 9.59375 -6.15625 L 7.09375 0 L 0.9375 0 Z M 19.046875 -11.484375 L 15.40625 -20.375 L 11.75 -11.484375 Z M 19.046875 -11.484375 "/></g></g></g><g fill="#444444" fill-opacity="1"><g transform="translate(308.108014, 36.003195)"><g><path d="M 3.296875 -27.4375 L 8.859375 -27.4375 L 21.703125 -10.546875 L 21.703125 -27.4375 L 27.671875 -27.4375 L 27.671875 0 L 22.53125 0 L 9.25 -17.4375 L 9.25 0 L 3.296875 0 Z M 3.296875 -27.4375 "/></g></g></g><g fill="#444444" fill-opacity="1"><g transform="translate(339.058832, 36.003195)"><g/></g></g><g fill="#444444" fill-opacity="1"><g transform="translate(350.812299, 36.003195)"><g><path d="M 12.703125 -27.625 L 18.265625 -27.625 L 30.015625 0 L 23.703125 0 L 21.203125 -6.15625 L 9.59375 -6.15625 L 7.09375 0 L 0.9375 0 Z M 19.046875 -11.484375 L 15.40625 -20.375 L 11.75 -11.484375 Z M 19.046875 -11.484375 "/></g></g></g><g fill="#444444" fill-opacity="1"><g transform="translate(381.763117, 36.003195)"><g><path d="M 16.140625 0.46875 C 14.128906 0.46875 12.257812 0.101562 10.53125 -0.625 C 8.8125 -1.351562 7.320312 -2.351562 6.0625 -3.625 C 4.8125 -4.894531 3.832031 -6.390625 3.125 -8.109375 C 2.425781 -9.835938 2.078125 -11.679688 2.078125 -13.640625 L 2.078125 -13.71875 C 2.078125 -15.675781 2.425781 -17.507812 3.125 -19.21875 C 3.832031 -20.925781 4.8125 -22.425781 6.0625 -23.71875 C 7.320312 -25.019531 8.828125 -26.039062 10.578125 -26.78125 C 12.328125 -27.53125 14.257812 -27.90625 16.375 -27.90625 C 17.65625 -27.90625 18.820312 -27.800781 19.875 -27.59375 C 20.9375 -27.382812 21.898438 -27.09375 22.765625 -26.71875 C 23.628906 -26.351562 24.425781 -25.910156 25.15625 -25.390625 C 25.882812 -24.867188 26.566406 -24.296875 27.203125 -23.671875 L 23.359375 -19.234375 C 22.285156 -20.203125 21.191406 -20.960938 20.078125 -21.515625 C 18.972656 -22.066406 17.726562 -22.34375 16.34375 -22.34375 C 15.1875 -22.34375 14.117188 -22.117188 13.140625 -21.671875 C 12.160156 -21.222656 11.316406 -20.609375 10.609375 -19.828125 C 9.910156 -19.046875 9.363281 -18.140625 8.96875 -17.109375 C 8.582031 -16.078125 8.390625 -14.972656 8.390625 -13.796875 L 8.390625 -13.71875 C 8.390625 -12.539062 8.582031 -11.425781 8.96875 -10.375 C 9.363281 -9.332031 9.90625 -8.421875 10.59375 -7.640625 C 11.289062 -6.859375 12.128906 -6.238281 13.109375 -5.78125 C 14.085938 -5.320312 15.164062 -5.09375 16.34375 -5.09375 C 17.90625 -5.09375 19.226562 -5.378906 20.3125 -5.953125 C 21.394531 -6.523438 22.472656 -7.3125 23.546875 -8.3125 L 27.390625 -4.421875 C 26.679688 -3.671875 25.945312 -2.992188 25.1875 -2.390625 C 24.4375 -1.785156 23.609375 -1.269531 22.703125 -0.84375 C 21.804688 -0.414062 20.820312 -0.09375 19.75 0.125 C 18.675781 0.351562 17.472656 0.46875 16.140625 0.46875 Z M 16.140625 0.46875 "/></g></g></g><g fill="#444444" fill-opacity="1"><g transform="translate(410.67666, 36.003195)"><g><path d="M 16.140625 0.46875 C 14.128906 0.46875 12.257812 0.101562 10.53125 -0.625 C 8.8125 -1.351562 7.320312 -2.351562 6.0625 -3.625 C 4.8125 -4.894531 3.832031 -6.390625 3.125 -8.109375 C 2.425781 -9.835938 2.078125 -11.679688 2.078125 -13.640625 L 2.078125 -13.71875 C 2.078125 -15.675781 2.425781 -17.507812 3.125 -19.21875 C 3.832031 -20.925781 4.8125 -22.425781 6.0625 -23.71875 C 7.320312 -25.019531 8.828125 -26.039062 10.578125 -26.78125 C 12.328125 -27.53125 14.257812 -27.90625 16.375 -27.90625 C 17.65625 -27.90625 18.820312 -27.800781 19.875 -27.59375 C 20.9375 -27.382812 21.898438 -27.09375 22.765625 -26.71875 C 23.628906 -26.351562 24.425781 -25.910156 25.15625 -25.390625 C 25.882812 -24.867188 26.566406 -24.296875 27.203125 -23.671875 L 23.359375 -19.234375 C 22.285156 -20.203125 21.191406 -20.960938 20.078125 -21.515625 C 18.972656 -22.066406 17.726562 -22.34375 16.34375 -22.34375 C 15.1875 -22.34375 14.117188 -22.117188 13.140625 -21.671875 C 12.160156 -21.222656 11.316406 -20.609375 10.609375 -19.828125 C 9.910156 -19.046875 9.363281 -18.140625 8.96875 -17.109375 C 8.582031 -16.078125 8.390625 -14.972656 8.390625 -13.796875 L 8.390625 -13.71875 C 8.390625 -12.539062 8.582031 -11.425781 8.96875 -10.375 C 9.363281 -9.332031 9.90625 -8.421875 10.59375 -7.640625 C 11.289062 -6.859375 12.128906 -6.238281 13.109375 -5.78125 C 14.085938 -5.320312 15.164062 -5.09375 16.34375 -5.09375 C 17.90625 -5.09375 19.226562 -5.378906 20.3125 -5.953125 C 21.394531 -6.523438 22.472656 -7.3125 23.546875 -8.3125 L 27.390625 -4.421875 C 26.679688 -3.671875 25.945312 -2.992188 25.1875 -2.390625 C 24.4375 -1.785156 23.609375 -1.269531 22.703125 -0.84375 C 21.804688 -0.414062 20.820312 -0.09375 19.75 0.125 C 18.675781 0.351562 17.472656 0.46875 16.140625 0.46875 Z M 16.140625 0.46875 "/></g></g></g><g fill="#444444" fill-opacity="1"><g transform="translate(439.590204, 36.003195)"><g><path d="M 16.609375 0.46875 C 14.492188 0.46875 12.546875 0.0976562 10.765625 -0.640625 C 8.992188 -1.390625 7.460938 -2.394531 6.171875 -3.65625 C 4.878906 -4.925781 3.875 -6.414062 3.15625 -8.125 C 2.4375 -9.84375 2.078125 -11.679688 2.078125 -13.640625 L 2.078125 -13.71875 C 2.078125 -15.675781 2.441406 -17.507812 3.171875 -19.21875 C 3.898438 -20.925781 4.910156 -22.425781 6.203125 -23.71875 C 7.503906 -25.019531 9.046875 -26.039062 10.828125 -26.78125 C 12.617188 -27.53125 14.570312 -27.90625 16.6875 -27.90625 C 18.8125 -27.90625 20.757812 -27.53125 22.53125 -26.78125 C 24.3125 -26.039062 25.847656 -25.035156 27.140625 -23.765625 C 28.429688 -22.492188 29.4375 -21.003906 30.15625 -19.296875 C 30.875 -17.585938 31.234375 -15.753906 31.234375 -13.796875 L 31.234375 -13.71875 C 31.234375 -11.757812 30.863281 -9.921875 30.125 -8.203125 C 29.394531 -6.492188 28.382812 -4.992188 27.09375 -3.703125 C 25.800781 -2.410156 24.257812 -1.390625 22.46875 -0.640625 C 20.6875 0.0976562 18.734375 0.46875 16.609375 0.46875 Z M 16.6875 -5.09375 C 17.894531 -5.09375 19.003906 -5.3125 20.015625 -5.75 C 21.035156 -6.195312 21.90625 -6.8125 22.625 -7.59375 C 23.34375 -8.382812 23.90625 -9.296875 24.3125 -10.328125 C 24.71875 -11.359375 24.921875 -12.460938 24.921875 -13.640625 L 24.921875 -13.71875 C 24.921875 -14.894531 24.71875 -16.003906 24.3125 -17.046875 C 23.90625 -18.085938 23.328125 -19 22.578125 -19.78125 C 21.835938 -20.570312 20.957031 -21.195312 19.9375 -21.65625 C 18.925781 -22.113281 17.816406 -22.34375 16.609375 -22.34375 C 15.390625 -22.34375 14.273438 -22.117188 13.265625 -21.671875 C 12.253906 -21.222656 11.390625 -20.609375 10.671875 -19.828125 C 9.953125 -19.046875 9.390625 -18.140625 8.984375 -17.109375 C 8.585938 -16.078125 8.390625 -14.972656 8.390625 -13.796875 L 8.390625 -13.71875 C 8.390625 -12.539062 8.585938 -11.425781 8.984375 -10.375 C 9.390625 -9.332031 9.960938 -8.421875 10.703125 -7.640625 C 11.453125 -6.859375 12.332031 -6.238281 13.34375 -5.78125 C 14.351562 -5.320312 15.46875 -5.09375 16.6875 -5.09375 Z M 16.6875 -5.09375 "/></g></g></g><g fill="#444444" fill-opacity="1"><g transform="translate(472.891732, 36.003195)"><g><path d="M 14.734375 0.4375 C 11.046875 0.4375 8.144531 -0.582031 6.03125 -2.625 C 3.914062 -4.664062 2.859375 -7.707031 2.859375 -11.75 L 2.859375 -27.4375 L 8.890625 -27.4375 L 8.890625 -11.90625 C 8.890625 -9.664062 9.410156 -7.976562 10.453125 -6.84375 C 11.503906 -5.707031 12.957031 -5.140625 14.8125 -5.140625 C 16.664062 -5.140625 18.113281 -5.6875 19.15625 -6.78125 C 20.207031 -7.875 20.734375 -9.519531 20.734375 -11.71875 L 20.734375 -27.4375 L 26.765625 -27.4375 L 26.765625 -11.953125 C 26.765625 -9.859375 26.484375 -8.039062 25.921875 -6.5 C 25.359375 -4.957031 24.550781 -3.671875 23.5 -2.640625 C 22.457031 -1.609375 21.191406 -0.835938 19.703125 -0.328125 C 18.222656 0.179688 16.566406 0.4375 14.734375 0.4375 Z M 14.734375 0.4375 "/></g></g></g><g fill="#444444" fill-opacity="1"><g transform="translate(502.510465, 36.003195)"><g><path d="M 3.296875 -27.4375 L 8.859375 -27.4375 L 21.703125 -10.546875 L 21.703125 -27.4375 L 27.671875 -27.4375 L 27.671875 0 L 22.53125 0 L 9.25 -17.4375 L 9.25 0 L 3.296875 0 Z M 3.296875 -27.4375 "/></g></g></g><g fill="#444444" fill-opacity="1"><g transform="translate(533.461261, 36.003195)"><g><path d="M 9.671875 -21.859375 L 1.328125 -21.859375 L 1.328125 -27.4375 L 24.0625 -27.4375 L 24.0625 -21.859375 L 15.71875 -21.859375 L 15.71875 0 L 9.671875 0 Z M 9.671875 -21.859375 "/></g></g></g><g fill="#444444" fill-opacity="1"><g transform="translate(558.848772, 36.003195)"><g><path d="M 6.8125 -15.671875 L 7.015625 -15.875 C 9.492188 -15.976562 11.253906 -16.335938 12.296875 -16.953125 C 13.347656 -17.566406 13.875 -18.394531 13.875 -19.4375 L 13.875 -19.515625 C 13.875 -20.398438 13.554688 -21.082031 12.921875 -21.5625 C 12.296875 -22.050781 11.410156 -22.296875 10.265625 -22.296875 C 9.171875 -22.296875 8.144531 -22.070312 7.1875 -21.625 C 6.238281 -21.1875 5.304688 -20.507812 4.390625 -19.59375 L 0.78125 -23.546875 C 1.9375 -24.804688 3.289062 -25.828125 4.84375 -26.609375 C 6.394531 -27.390625 8.242188 -27.78125 10.390625 -27.78125 C 11.796875 -27.78125 13.078125 -27.601562 14.234375 -27.25 C 15.398438 -26.894531 16.398438 -26.375 17.234375 -25.6875 C 18.078125 -25 18.726562 -24.148438 19.1875 -23.140625 C 19.644531 -22.128906 19.875 -20.972656 19.875 -19.671875 L 19.875 -19.59375 C 19.875 -18.34375 19.671875 -17.269531 19.265625 -16.375 C 18.859375 -15.488281 18.304688 -14.734375 17.609375 -14.109375 C 16.921875 -13.484375 16.101562 -12.976562 15.15625 -12.59375 C 14.21875 -12.21875 13.210938 -11.925781 12.140625 -11.71875 L 11.71875 -9.328125 L 7.71875 -9.328125 Z M 6.421875 -6.265625 L 12.78125 -6.265625 L 12.78125 0 L 6.421875 0 Z M 6.421875 -6.265625 "/></g></g></g></svg>