<svg xmlns="http://www.w3.org/2000/svg" xmlns:xlink="http://www.w3.org/1999/xlink" width="298" zoomAndPan="magnify" viewBox="0 0 223.5 48" height="64" preserveAspectRatio="xMidYMid meet" version="1.0"><defs><g/></defs><g fill="#444444" fill-opacity="1"><g transform="translate(5.117803, 36.022106)"><g><path d="M 3.296875 -27.46875 L 14.515625 -27.46875 C 16.171875 -27.46875 17.644531 -27.238281 18.9375 -26.78125 C 20.226562 -26.320312 21.328125 -25.675781 22.234375 -24.84375 C 23.140625 -24.007812 23.832031 -23.007812 24.3125 -21.84375 C 24.800781 -20.675781 25.046875 -19.382812 25.046875 -17.96875 L 25.046875 -17.890625 C 25.046875 -16.296875 24.753906 -14.894531 24.171875 -13.6875 C 23.597656 -12.488281 22.804688 -11.484375 21.796875 -10.671875 C 20.796875 -9.859375 19.617188 -9.25 18.265625 -8.84375 C 16.921875 -8.445312 15.476562 -8.25 13.9375 -8.25 L 9.34375 -8.25 L 9.34375 0 L 3.296875 0 Z M 14.125 -13.625 C 15.644531 -13.625 16.820312 -14.019531 17.65625 -14.8125 C 18.5 -15.613281 18.921875 -16.601562 18.921875 -17.78125 L 18.921875 -17.859375 C 18.921875 -19.222656 18.476562 -20.253906 17.59375 -20.953125 C 16.71875 -21.660156 15.523438 -22.015625 14.015625 -22.015625 L 9.34375 -22.015625 L 9.34375 -13.625 Z M 14.125 -13.625 "/></g></g></g><g fill="#444444" fill-opacity="1"><g transform="translate(37.216657, 36.022106)"><g><path d="M 3.296875 -27.46875 L 15.859375 -27.46875 C 19.335938 -27.46875 22.003906 -26.539062 23.859375 -24.6875 C 25.429688 -23.113281 26.21875 -21.019531 26.21875 -18.40625 L 26.21875 -18.328125 C 26.21875 -16.109375 25.675781 -14.296875 24.59375 -12.890625 C 23.507812 -11.492188 22.085938 -10.46875 20.328125 -9.8125 L 27.046875 0 L 19.984375 0 L 14.09375 -8.796875 L 9.34375 -8.796875 L 9.34375 0 L 3.296875 0 Z M 15.46875 -14.125 C 16.957031 -14.125 18.097656 -14.476562 18.890625 -15.1875 C 19.691406 -15.894531 20.09375 -16.835938 20.09375 -18.015625 L 20.09375 -18.09375 C 20.09375 -19.40625 19.671875 -20.382812 18.828125 -21.03125 C 17.992188 -21.6875 16.832031 -22.015625 15.34375 -22.015625 L 9.34375 -22.015625 L 9.34375 -14.125 Z M 15.46875 -14.125 "/></g></g></g><g fill="#444444" fill-opacity="1"><g transform="translate(71.473585, 36.022106)"><g><path d="M 16.640625 0.46875 C 14.523438 0.46875 12.578125 0.0976562 10.796875 -0.640625 C 9.015625 -1.390625 7.472656 -2.398438 6.171875 -3.671875 C 4.878906 -4.941406 3.875 -6.429688 3.15625 -8.140625 C 2.4375 -9.859375 2.078125 -11.695312 2.078125 -13.65625 L 2.078125 -13.734375 C 2.078125 -15.703125 2.441406 -17.539062 3.171875 -19.25 C 3.910156 -20.96875 4.925781 -22.472656 6.21875 -23.765625 C 7.507812 -25.054688 9.050781 -26.078125 10.84375 -26.828125 C 12.644531 -27.578125 14.601562 -27.953125 16.71875 -27.953125 C 18.84375 -27.953125 20.789062 -27.578125 22.5625 -26.828125 C 24.34375 -26.078125 25.878906 -25.066406 27.171875 -23.796875 C 28.472656 -22.535156 29.484375 -21.046875 30.203125 -19.328125 C 30.921875 -17.617188 31.28125 -15.78125 31.28125 -13.8125 L 31.28125 -13.734375 C 31.28125 -11.773438 30.910156 -9.9375 30.171875 -8.21875 C 29.441406 -6.507812 28.429688 -5.003906 27.140625 -3.703125 C 25.847656 -2.410156 24.304688 -1.390625 22.515625 -0.640625 C 20.722656 0.0976562 18.765625 0.46875 16.640625 0.46875 Z M 16.71875 -5.109375 C 17.925781 -5.109375 19.039062 -5.328125 20.0625 -5.765625 C 21.082031 -6.210938 21.953125 -6.828125 22.671875 -7.609375 C 23.390625 -8.398438 23.953125 -9.3125 24.359375 -10.34375 C 24.765625 -11.375 24.96875 -12.476562 24.96875 -13.65625 L 24.96875 -13.734375 C 24.96875 -14.910156 24.765625 -16.019531 24.359375 -17.0625 C 23.953125 -18.113281 23.375 -19.03125 22.625 -19.8125 C 21.882812 -20.601562 21.003906 -21.226562 19.984375 -21.6875 C 18.960938 -22.144531 17.847656 -22.375 16.640625 -22.375 C 15.410156 -22.375 14.289062 -22.148438 13.28125 -21.703125 C 12.28125 -21.253906 11.414062 -20.640625 10.6875 -19.859375 C 9.96875 -19.078125 9.40625 -18.164062 9 -17.125 C 8.601562 -16.09375 8.40625 -14.988281 8.40625 -13.8125 L 8.40625 -13.734375 C 8.40625 -12.554688 8.601562 -11.441406 9 -10.390625 C 9.40625 -9.347656 9.984375 -8.429688 10.734375 -7.640625 C 11.484375 -6.859375 12.359375 -6.238281 13.359375 -5.78125 C 14.367188 -5.332031 15.488281 -5.109375 16.71875 -5.109375 Z M 16.71875 -5.109375 "/></g></g></g><g fill="#444444" fill-opacity="1"><g transform="translate(110.713683, 36.022106)"><g><path d="M 3.296875 -27.46875 L 24.21875 -27.46875 L 24.21875 -21.984375 L 9.34375 -21.984375 L 9.34375 -16.125 L 22.453125 -16.125 L 22.453125 -10.640625 L 9.34375 -10.640625 L 9.34375 0 L 3.296875 0 Z M 3.296875 -27.46875 "/></g></g></g><g fill="#444444" fill-opacity="1"><g transform="translate(142.34169, 36.022106)"><g><path d="M 3.578125 -27.46875 L 9.609375 -27.46875 L 9.609375 0 L 3.578125 0 Z M 3.578125 -27.46875 "/></g></g></g><g fill="#444444" fill-opacity="1"><g transform="translate(161.413683, 36.022106)"><g><path d="M 3.296875 -27.46875 L 9.34375 -27.46875 L 9.34375 -5.5 L 23.046875 -5.5 L 23.046875 0 L 3.296875 0 Z M 3.296875 -27.46875 "/></g></g></g><g fill="#444444" fill-opacity="1"><g transform="translate(191.589892, 36.022106)"><g><path d="M 3.296875 -27.46875 L 24.015625 -27.46875 L 24.015625 -22.09375 L 9.296875 -22.09375 L 9.296875 -16.53125 L 22.25 -16.53125 L 22.25 -11.140625 L 9.296875 -11.140625 L 9.296875 -5.375 L 24.21875 -5.375 L 24.21875 0 L 3.296875 0 Z M 3.296875 -27.46875 "/></g></g></g></svg>