<svg xmlns="http://www.w3.org/2000/svg" xmlns:xlink="http://www.w3.org/1999/xlink" width="50" zoomAndPan="magnify" viewBox="0 0 37.5 37.499999" height="50" preserveAspectRatio="xMidYMid meet" version="1.0"><defs><clipPath id="90607155f8"><path d="M 0 0 L 36.664062 0 L 36.664062 36.664062 L 0 36.664062 Z M 0 0 " clip-rule="nonzero"/></clipPath><clipPath id="6fbefe1ee9"><path d="M 18.332031 0 C 8.207031 0 0 8.207031 0 18.332031 C 0 28.457031 8.207031 36.664062 18.332031 36.664062 C 28.457031 36.664062 36.664062 28.457031 36.664062 18.332031 C 36.664062 8.207031 28.457031 0 18.332031 0 Z M 18.332031 0 " clip-rule="nonzero"/></clipPath><clipPath id="ca75e2130e"><path d="M 0 0 L 36.660156 0 L 36.660156 36.660156 L 0 36.660156 Z M 0 0 " clip-rule="nonzero"/></clipPath><clipPath id="fd73f1e7b7"><path d="M 18.328125 0 C 8.207031 0 0 8.207031 0 18.328125 C 0 28.453125 8.207031 36.660156 18.328125 36.660156 C 28.453125 36.660156 36.660156 28.453125 36.660156 18.328125 C 36.660156 8.207031 28.453125 0 18.328125 0 Z M 18.328125 0 " clip-rule="nonzero"/></clipPath></defs><g clip-path="url(#90607155f8)"><g clip-path="url(#6fbefe1ee9)"><path fill="#444444" d="M 0 0 L 36.664062 0 L 36.664062 36.664062 L 0 36.664062 Z M 0 0 " fill-opacity="1" fill-rule="nonzero"/></g></g><g clip-path="url(#ca75e2130e)"><g clip-path="url(#fd73f1e7b7)"><path stroke-linecap="butt" transform="matrix(0.740132, 0, 0, 0.740132, 0.0000005, 0.000000000000060478)" fill="none" stroke-linejoin="miter" d="M 24.763334 -0.000000000000081712 C 11.088611 -0.000000000000081712 -0.000000675556 11.088612 -0.000000675556 24.763335 C -0.000000675556 38.443336 11.088611 49.531948 24.763334 49.531948 C 38.443335 49.531948 49.531947 38.443336 49.531947 24.763335 C 49.531947 11.088612 38.443335 -0.000000000000081712 24.763334 -0.000000000000081712 Z M 24.763334 -0.000000000000081712 " stroke="#444444" stroke-width="20" stroke-opacity="1" stroke-miterlimit="4"/></g></g></svg>