<svg xmlns="http://www.w3.org/2000/svg" xmlns:xlink="http://www.w3.org/1999/xlink" width="50" zoomAndPan="magnify" viewBox="0 0 37.5 37.499999" height="50" preserveAspectRatio="xMidYMid meet" version="1.0"><defs><clipPath id="ba794c8976"><path d="M 0.179688 0.179688 L 36.816406 0.179688 L 36.816406 36.816406 L 0.179688 36.816406 Z M 0.179688 0.179688 " clip-rule="nonzero"/></clipPath><clipPath id="9e3962ce5a"><path d="M 18.5 0.179688 C 8.382812 0.179688 0.179688 8.382812 0.179688 18.5 C 0.179688 28.617188 8.382812 36.816406 18.5 36.816406 C 28.617188 36.816406 36.816406 28.617188 36.816406 18.5 C 36.816406 8.382812 28.617188 0.179688 18.5 0.179688 Z M 18.5 0.179688 " clip-rule="nonzero"/></clipPath></defs><g clip-path="url(#ba794c8976)"><g clip-path="url(#9e3962ce5a)"><path stroke-linecap="butt" transform="matrix(0.740132, 0, 0, 0.740132, 0.181369, 0.181368)" fill="none" stroke-linejoin="miter" d="M 24.750508 -0.0022712 C 11.081062 -0.0022712 -0.00227188 11.081063 -0.00227188 24.750508 C -0.00227188 38.419954 11.081062 49.49801 24.750508 49.49801 C 38.419953 49.49801 49.498009 38.419954 49.498009 24.750508 C 49.498009 11.081063 38.419953 -0.0022712 24.750508 -0.0022712 Z M 24.750508 -0.0022712 " stroke="#444444" stroke-width="20" stroke-opacity="1" stroke-miterlimit="4"/></g></g></svg>