<svg xmlns="http://www.w3.org/2000/svg" xmlns:xlink="http://www.w3.org/1999/xlink" width="586" zoomAndPan="magnify" viewBox="0 0 439.5 33.749998" height="45" preserveAspectRatio="xMidYMid meet" version="1.0"><defs><g/></defs><g fill="#444444" fill-opacity="1"><g transform="translate(3.811525, 26.241534)"><g><path d="M 11.453125 0.328125 C 10.023438 0.328125 8.695312 0.0703125 7.46875 -0.4375 C 6.25 -0.957031 5.191406 -1.664062 4.296875 -2.5625 C 3.410156 -3.46875 2.71875 -4.53125 2.21875 -5.75 C 1.71875 -6.96875 1.46875 -8.273438 1.46875 -9.671875 L 1.46875 -9.71875 C 1.46875 -11.113281 1.71875 -12.414062 2.21875 -13.625 C 2.71875 -14.84375 3.410156 -15.910156 4.296875 -16.828125 C 5.191406 -17.742188 6.257812 -18.460938 7.5 -18.984375 C 8.738281 -19.515625 10.109375 -19.78125 11.609375 -19.78125 C 12.515625 -19.78125 13.34375 -19.703125 14.09375 -19.546875 C 14.84375 -19.398438 15.523438 -19.195312 16.140625 -18.9375 C 16.753906 -18.6875 17.316406 -18.375 17.828125 -18 C 18.347656 -17.632812 18.832031 -17.226562 19.28125 -16.78125 L 16.5625 -13.640625 C 15.800781 -14.328125 15.023438 -14.863281 14.234375 -15.25 C 13.453125 -15.632812 12.566406 -15.828125 11.578125 -15.828125 C 10.765625 -15.828125 10.007812 -15.671875 9.3125 -15.359375 C 8.625 -15.046875 8.03125 -14.609375 7.53125 -14.046875 C 7.03125 -13.492188 6.640625 -12.851562 6.359375 -12.125 C 6.078125 -11.394531 5.9375 -10.613281 5.9375 -9.78125 L 5.9375 -9.71875 C 5.9375 -8.882812 6.078125 -8.097656 6.359375 -7.359375 C 6.640625 -6.617188 7.023438 -5.96875 7.515625 -5.40625 C 8.003906 -4.851562 8.59375 -4.414062 9.28125 -4.09375 C 9.976562 -3.769531 10.742188 -3.609375 11.578125 -3.609375 C 12.691406 -3.609375 13.632812 -3.8125 14.40625 -4.21875 C 15.175781 -4.625 15.941406 -5.179688 16.703125 -5.890625 L 19.421875 -3.140625 C 18.921875 -2.597656 18.398438 -2.113281 17.859375 -1.6875 C 17.328125 -1.269531 16.738281 -0.90625 16.09375 -0.59375 C 15.457031 -0.289062 14.757812 -0.0625 14 0.09375 C 13.238281 0.25 12.390625 0.328125 11.453125 0.328125 Z M 11.453125 0.328125 "/></g></g></g><g fill="#444444" fill-opacity="1"><g transform="translate(28.476762, 26.241534)"><g><path d="M 6.109375 0.28125 C 5.410156 0.28125 4.75 0.179688 4.125 -0.015625 C 3.5 -0.210938 2.957031 -0.503906 2.5 -0.890625 C 2.039062 -1.273438 1.675781 -1.75 1.40625 -2.3125 C 1.132812 -2.882812 1 -3.539062 1 -4.28125 L 1 -4.328125 C 1 -5.148438 1.144531 -5.851562 1.4375 -6.4375 C 1.738281 -7.03125 2.148438 -7.519531 2.671875 -7.90625 C 3.203125 -8.300781 3.832031 -8.59375 4.5625 -8.78125 C 5.300781 -8.976562 6.113281 -9.078125 7 -9.078125 C 7.757812 -9.078125 8.421875 -9.019531 8.984375 -8.90625 C 9.546875 -8.800781 10.097656 -8.65625 10.640625 -8.46875 L 10.640625 -8.71875 C 10.640625 -9.613281 10.367188 -10.289062 9.828125 -10.75 C 9.296875 -11.21875 8.503906 -11.453125 7.453125 -11.453125 C 6.628906 -11.453125 5.90625 -11.378906 5.28125 -11.234375 C 4.664062 -11.097656 4.015625 -10.898438 3.328125 -10.640625 L 2.28125 -13.859375 C 3.09375 -14.210938 3.941406 -14.5 4.828125 -14.71875 C 5.722656 -14.945312 6.800781 -15.0625 8.0625 -15.0625 C 9.226562 -15.0625 10.222656 -14.914062 11.046875 -14.625 C 11.867188 -14.34375 12.546875 -13.929688 13.078125 -13.390625 C 13.640625 -12.835938 14.050781 -12.15625 14.3125 -11.34375 C 14.570312 -10.539062 14.703125 -9.640625 14.703125 -8.640625 L 14.703125 0 L 10.609375 0 L 10.609375 -1.609375 C 10.085938 -1.035156 9.46875 -0.578125 8.75 -0.234375 C 8.03125 0.109375 7.148438 0.28125 6.109375 0.28125 Z M 7.390625 -2.640625 C 8.390625 -2.640625 9.191406 -2.878906 9.796875 -3.359375 C 10.398438 -3.835938 10.703125 -4.46875 10.703125 -5.25 L 10.703125 -6 C 10.328125 -6.164062 9.910156 -6.300781 9.453125 -6.40625 C 9.003906 -6.507812 8.519531 -6.5625 8 -6.5625 C 7.09375 -6.5625 6.378906 -6.382812 5.859375 -6.03125 C 5.335938 -5.675781 5.078125 -5.164062 5.078125 -4.5 L 5.078125 -4.4375 C 5.078125 -3.863281 5.289062 -3.421875 5.71875 -3.109375 C 6.144531 -2.796875 6.703125 -2.640625 7.390625 -2.640625 Z M 7.390625 -2.640625 "/></g></g></g><g fill="#444444" fill-opacity="1"><g transform="translate(49.086774, 26.241534)"><g><path d="M 2.078125 -20.28125 L 6.3125 -20.28125 L 6.3125 0 L 2.078125 0 Z M 2.078125 -20.28125 "/></g></g></g><g fill="#444444" fill-opacity="1"><g transform="translate(61.641882, 26.241534)"><g><path d="M 1.96875 -20.28125 L 6.421875 -20.28125 L 6.421875 -16.53125 L 1.96875 -16.53125 Z M 2.078125 -14.890625 L 6.3125 -14.890625 L 6.3125 0 L 2.078125 0 Z M 2.078125 -14.890625 "/></g></g></g><g fill="#444444" fill-opacity="1"><g transform="translate(74.196984, 26.241534)"><g><path d="M 2.609375 -11.28125 L 0.859375 -11.28125 L 0.859375 -14.75 L 2.609375 -14.75 L 2.609375 -15.703125 C 2.609375 -17.304688 3.007812 -18.507812 3.8125 -19.3125 C 4.582031 -20.082031 5.71875 -20.46875 7.21875 -20.46875 C 7.882812 -20.46875 8.453125 -20.429688 8.921875 -20.359375 C 9.398438 -20.285156 9.832031 -20.1875 10.21875 -20.0625 L 10.21875 -16.5625 C 9.90625 -16.664062 9.597656 -16.75 9.296875 -16.8125 C 9.003906 -16.882812 8.675781 -16.921875 8.3125 -16.921875 C 7.289062 -16.921875 6.78125 -16.382812 6.78125 -15.3125 L 6.78125 -14.71875 L 10.203125 -14.71875 L 10.203125 -11.28125 L 6.828125 -11.28125 L 6.828125 0 L 2.609375 0 Z M 2.609375 -11.28125 "/></g></g></g><g fill="#444444" fill-opacity="1"><g transform="translate(88.974123, 26.241534)"><g><path d="M 9.203125 0.328125 C 8.046875 0.328125 6.976562 0.128906 6 -0.265625 C 5.019531 -0.660156 4.171875 -1.203125 3.453125 -1.890625 C 2.742188 -2.585938 2.1875 -3.40625 1.78125 -4.34375 C 1.375 -5.28125 1.171875 -6.285156 1.171875 -7.359375 L 1.171875 -7.421875 C 1.171875 -8.492188 1.375 -9.492188 1.78125 -10.421875 C 2.1875 -11.359375 2.75 -12.179688 3.46875 -12.890625 C 4.195312 -13.597656 5.050781 -14.15625 6.03125 -14.5625 C 7.007812 -14.96875 8.082031 -15.171875 9.25 -15.171875 C 10.394531 -15.171875 11.457031 -14.96875 12.4375 -14.5625 C 13.425781 -14.164062 14.273438 -13.617188 14.984375 -12.921875 C 15.703125 -12.234375 16.265625 -11.421875 16.671875 -10.484375 C 17.078125 -9.546875 17.28125 -8.539062 17.28125 -7.46875 L 17.28125 -7.421875 C 17.28125 -6.347656 17.078125 -5.34375 16.671875 -4.40625 C 16.265625 -3.46875 15.695312 -2.644531 14.96875 -1.9375 C 14.25 -1.238281 13.398438 -0.6875 12.421875 -0.28125 C 11.441406 0.125 10.367188 0.328125 9.203125 0.328125 Z M 9.25 -3.3125 C 9.863281 -3.3125 10.40625 -3.414062 10.875 -3.625 C 11.34375 -3.832031 11.742188 -4.125 12.078125 -4.5 C 12.410156 -4.875 12.664062 -5.304688 12.84375 -5.796875 C 13.019531 -6.285156 13.109375 -6.804688 13.109375 -7.359375 L 13.109375 -7.421875 C 13.109375 -7.972656 13.015625 -8.492188 12.828125 -8.984375 C 12.648438 -9.472656 12.382812 -9.90625 12.03125 -10.28125 C 11.675781 -10.664062 11.257812 -10.96875 10.78125 -11.1875 C 10.300781 -11.414062 9.773438 -11.53125 9.203125 -11.53125 C 8.585938 -11.53125 8.039062 -11.421875 7.5625 -11.203125 C 7.09375 -10.992188 6.691406 -10.703125 6.359375 -10.328125 C 6.023438 -9.960938 5.769531 -9.535156 5.59375 -9.046875 C 5.414062 -8.554688 5.328125 -8.03125 5.328125 -7.46875 L 5.328125 -7.421875 C 5.328125 -6.859375 5.421875 -6.332031 5.609375 -5.84375 C 5.796875 -5.351562 6.0625 -4.914062 6.40625 -4.53125 C 6.757812 -4.15625 7.171875 -3.859375 7.640625 -3.640625 C 8.117188 -3.421875 8.65625 -3.3125 9.25 -3.3125 Z M 9.25 -3.3125 "/></g></g></g><g fill="#444444" fill-opacity="1"><g transform="translate(111.583962, 26.241534)"><g><path d="M 1.890625 -14.890625 L 6.109375 -14.890625 L 6.109375 -11.890625 C 6.535156 -12.910156 7.117188 -13.722656 7.859375 -14.328125 C 8.597656 -14.941406 9.597656 -15.222656 10.859375 -15.171875 L 10.859375 -10.75 L 10.640625 -10.75 C 9.234375 -10.75 8.125 -10.320312 7.3125 -9.46875 C 6.507812 -8.625 6.109375 -7.300781 6.109375 -5.5 L 6.109375 0 L 1.890625 0 Z M 1.890625 -14.890625 "/></g></g></g><g fill="#444444" fill-opacity="1"><g transform="translate(127.361027, 26.241534)"><g><path d="M 1.890625 -14.890625 L 6.109375 -14.890625 L 6.109375 -12.78125 C 6.347656 -13.09375 6.609375 -13.390625 6.890625 -13.671875 C 7.179688 -13.960938 7.503906 -14.21875 7.859375 -14.4375 C 8.210938 -14.664062 8.601562 -14.84375 9.03125 -14.96875 C 9.457031 -15.101562 9.9375 -15.171875 10.46875 -15.171875 C 12.082031 -15.171875 13.328125 -14.675781 14.203125 -13.6875 C 15.085938 -12.707031 15.53125 -11.359375 15.53125 -9.640625 L 15.53125 0 L 11.3125 0 L 11.3125 -8.3125 C 11.3125 -9.3125 11.085938 -10.0625 10.640625 -10.5625 C 10.191406 -11.070312 9.5625 -11.328125 8.75 -11.328125 C 7.9375 -11.328125 7.289062 -11.070312 6.8125 -10.5625 C 6.34375 -10.0625 6.109375 -9.3125 6.109375 -8.3125 L 6.109375 0 L 1.890625 0 Z M 1.890625 -14.890625 "/></g></g></g><g fill="#444444" fill-opacity="1"><g transform="translate(148.83207, 26.241534)"><g><path d="M 1.96875 -20.28125 L 6.421875 -20.28125 L 6.421875 -16.53125 L 1.96875 -16.53125 Z M 2.078125 -14.890625 L 6.3125 -14.890625 L 6.3125 0 L 2.078125 0 Z M 2.078125 -14.890625 "/></g></g></g><g fill="#444444" fill-opacity="1"><g transform="translate(161.387172, 26.241534)"><g><path d="M 6.109375 0.28125 C 5.410156 0.28125 4.75 0.179688 4.125 -0.015625 C 3.5 -0.210938 2.957031 -0.503906 2.5 -0.890625 C 2.039062 -1.273438 1.675781 -1.75 1.40625 -2.3125 C 1.132812 -2.882812 1 -3.539062 1 -4.28125 L 1 -4.328125 C 1 -5.148438 1.144531 -5.851562 1.4375 -6.4375 C 1.738281 -7.03125 2.148438 -7.519531 2.671875 -7.90625 C 3.203125 -8.300781 3.832031 -8.59375 4.5625 -8.78125 C 5.300781 -8.976562 6.113281 -9.078125 7 -9.078125 C 7.757812 -9.078125 8.421875 -9.019531 8.984375 -8.90625 C 9.546875 -8.800781 10.097656 -8.65625 10.640625 -8.46875 L 10.640625 -8.71875 C 10.640625 -9.613281 10.367188 -10.289062 9.828125 -10.75 C 9.296875 -11.21875 8.503906 -11.453125 7.453125 -11.453125 C 6.628906 -11.453125 5.90625 -11.378906 5.28125 -11.234375 C 4.664062 -11.097656 4.015625 -10.898438 3.328125 -10.640625 L 2.28125 -13.859375 C 3.09375 -14.210938 3.941406 -14.5 4.828125 -14.71875 C 5.722656 -14.945312 6.800781 -15.0625 8.0625 -15.0625 C 9.226562 -15.0625 10.222656 -14.914062 11.046875 -14.625 C 11.867188 -14.34375 12.546875 -13.929688 13.078125 -13.390625 C 13.640625 -12.835938 14.050781 -12.15625 14.3125 -11.34375 C 14.570312 -10.539062 14.703125 -9.640625 14.703125 -8.640625 L 14.703125 0 L 10.609375 0 L 10.609375 -1.609375 C 10.085938 -1.035156 9.46875 -0.578125 8.75 -0.234375 C 8.03125 0.109375 7.148438 0.28125 6.109375 0.28125 Z M 7.390625 -2.640625 C 8.390625 -2.640625 9.191406 -2.878906 9.796875 -3.359375 C 10.398438 -3.835938 10.703125 -4.46875 10.703125 -5.25 L 10.703125 -6 C 10.328125 -6.164062 9.910156 -6.300781 9.453125 -6.40625 C 9.003906 -6.507812 8.519531 -6.5625 8 -6.5625 C 7.09375 -6.5625 6.378906 -6.382812 5.859375 -6.03125 C 5.335938 -5.675781 5.078125 -5.164062 5.078125 -4.5 L 5.078125 -4.4375 C 5.078125 -3.863281 5.289062 -3.421875 5.71875 -3.109375 C 6.144531 -2.796875 6.703125 -2.640625 7.390625 -2.640625 Z M 7.390625 -2.640625 "/></g></g></g><g fill="#444444" fill-opacity="1"><g transform="translate(181.997181, 26.241534)"><g/></g></g><g fill="#444444" fill-opacity="1"><g transform="translate(194.496728, 26.241534)"><g><path d="M 2.328125 -19.453125 L 10.28125 -19.453125 C 11.445312 -19.453125 12.488281 -19.285156 13.40625 -18.953125 C 14.320312 -18.628906 15.097656 -18.171875 15.734375 -17.578125 C 16.378906 -16.992188 16.867188 -16.285156 17.203125 -15.453125 C 17.546875 -14.628906 17.71875 -13.71875 17.71875 -12.71875 L 17.71875 -12.671875 C 17.71875 -11.535156 17.515625 -10.539062 17.109375 -9.6875 C 16.703125 -8.84375 16.140625 -8.128906 15.421875 -7.546875 C 14.710938 -6.972656 13.878906 -6.539062 12.921875 -6.25 C 11.972656 -5.96875 10.953125 -5.828125 9.859375 -5.828125 L 6.609375 -5.828125 L 6.609375 0 L 2.328125 0 Z M 10 -9.640625 C 11.070312 -9.640625 11.90625 -9.921875 12.5 -10.484375 C 13.09375 -11.046875 13.390625 -11.742188 13.390625 -12.578125 L 13.390625 -12.640625 C 13.390625 -13.597656 13.078125 -14.328125 12.453125 -14.828125 C 11.835938 -15.328125 10.992188 -15.578125 9.921875 -15.578125 L 6.609375 -15.578125 L 6.609375 -9.640625 Z M 10 -9.640625 "/></g></g></g><g fill="#444444" fill-opacity="1"><g transform="translate(217.217687, 26.241534)"><g><path d="M 1.96875 -20.28125 L 6.421875 -20.28125 L 6.421875 -16.53125 L 1.96875 -16.53125 Z M 2.078125 -14.890625 L 6.3125 -14.890625 L 6.3125 0 L 2.078125 0 Z M 2.078125 -14.890625 "/></g></g></g><g fill="#444444" fill-opacity="1"><g transform="translate(229.772801, 26.241534)"><g><path d="M 1.390625 -2.96875 L 9.078125 -11.46875 L 1.640625 -11.46875 L 1.640625 -14.890625 L 14.328125 -14.890625 L 14.328125 -11.921875 L 6.609375 -3.421875 L 14.328125 -3.421875 L 14.328125 0 L 1.390625 0 Z M 1.390625 -2.96875 "/></g></g></g><g fill="#444444" fill-opacity="1"><g transform="translate(249.57733, 26.241534)"><g><path d="M 1.390625 -2.96875 L 9.078125 -11.46875 L 1.640625 -11.46875 L 1.640625 -14.890625 L 14.328125 -14.890625 L 14.328125 -11.921875 L 6.609375 -3.421875 L 14.328125 -3.421875 L 14.328125 0 L 1.390625 0 Z M 1.390625 -2.96875 "/></g></g></g><g fill="#444444" fill-opacity="1"><g transform="translate(269.38186, 26.241534)"><g><path d="M 6.109375 0.28125 C 5.410156 0.28125 4.75 0.179688 4.125 -0.015625 C 3.5 -0.210938 2.957031 -0.503906 2.5 -0.890625 C 2.039062 -1.273438 1.675781 -1.75 1.40625 -2.3125 C 1.132812 -2.882812 1 -3.539062 1 -4.28125 L 1 -4.328125 C 1 -5.148438 1.144531 -5.851562 1.4375 -6.4375 C 1.738281 -7.03125 2.148438 -7.519531 2.671875 -7.90625 C 3.203125 -8.300781 3.832031 -8.59375 4.5625 -8.78125 C 5.300781 -8.976562 6.113281 -9.078125 7 -9.078125 C 7.757812 -9.078125 8.421875 -9.019531 8.984375 -8.90625 C 9.546875 -8.800781 10.097656 -8.65625 10.640625 -8.46875 L 10.640625 -8.71875 C 10.640625 -9.613281 10.367188 -10.289062 9.828125 -10.75 C 9.296875 -11.21875 8.503906 -11.453125 7.453125 -11.453125 C 6.628906 -11.453125 5.90625 -11.378906 5.28125 -11.234375 C 4.664062 -11.097656 4.015625 -10.898438 3.328125 -10.640625 L 2.28125 -13.859375 C 3.09375 -14.210938 3.941406 -14.5 4.828125 -14.71875 C 5.722656 -14.945312 6.800781 -15.0625 8.0625 -15.0625 C 9.226562 -15.0625 10.222656 -14.914062 11.046875 -14.625 C 11.867188 -14.34375 12.546875 -13.929688 13.078125 -13.390625 C 13.640625 -12.835938 14.050781 -12.15625 14.3125 -11.34375 C 14.570312 -10.539062 14.703125 -9.640625 14.703125 -8.640625 L 14.703125 0 L 10.609375 0 L 10.609375 -1.609375 C 10.085938 -1.035156 9.46875 -0.578125 8.75 -0.234375 C 8.03125 0.109375 7.148438 0.28125 6.109375 0.28125 Z M 7.390625 -2.640625 C 8.390625 -2.640625 9.191406 -2.878906 9.796875 -3.359375 C 10.398438 -3.835938 10.703125 -4.46875 10.703125 -5.25 L 10.703125 -6 C 10.328125 -6.164062 9.910156 -6.300781 9.453125 -6.40625 C 9.003906 -6.507812 8.519531 -6.5625 8 -6.5625 C 7.09375 -6.5625 6.378906 -6.382812 5.859375 -6.03125 C 5.335938 -5.675781 5.078125 -5.164062 5.078125 -4.5 L 5.078125 -4.4375 C 5.078125 -3.863281 5.289062 -3.421875 5.71875 -3.109375 C 6.144531 -2.796875 6.703125 -2.640625 7.390625 -2.640625 Z M 7.390625 -2.640625 "/></g></g></g><g fill="#444444" fill-opacity="1"><g transform="translate(289.99188, 26.241534)"><g/></g></g><g fill="#444444" fill-opacity="1"><g transform="translate(302.491428, 26.241534)"><g><path d="M 2.328125 -19.453125 L 6.609375 -19.453125 L 6.609375 -10.953125 L 14.453125 -19.453125 L 19.703125 -19.453125 L 11.75 -11.203125 L 20.03125 0 L 14.890625 0 L 8.859375 -8.28125 L 6.609375 -5.9375 L 6.609375 0 L 2.328125 0 Z M 2.328125 -19.453125 "/></g></g></g><g fill="#444444" fill-opacity="1"><g transform="translate(326.934455, 26.241534)"><g><path d="M 1.96875 -20.28125 L 6.421875 -20.28125 L 6.421875 -16.53125 L 1.96875 -16.53125 Z M 2.078125 -14.890625 L 6.3125 -14.890625 L 6.3125 0 L 2.078125 0 Z M 2.078125 -14.890625 "/></g></g></g><g fill="#444444" fill-opacity="1"><g transform="translate(339.489568, 26.241534)"><g><path d="M 6.921875 0.25 C 6.265625 0.25 5.671875 0.175781 5.140625 0.03125 C 4.617188 -0.101562 4.164062 -0.34375 3.78125 -0.6875 C 3.40625 -1.039062 3.109375 -1.5 2.890625 -2.0625 C 2.679688 -2.632812 2.578125 -3.351562 2.578125 -4.21875 L 2.578125 -11.28125 L 0.8125 -11.28125 L 0.8125 -14.890625 L 2.578125 -14.890625 L 2.578125 -18.703125 L 6.8125 -18.703125 L 6.8125 -14.890625 L 10.3125 -14.890625 L 10.3125 -11.28125 L 6.8125 -11.28125 L 6.8125 -4.921875 C 6.8125 -3.953125 7.265625 -3.46875 8.171875 -3.46875 C 8.910156 -3.46875 9.601562 -3.644531 10.25 -4 L 10.25 -0.609375 C 9.800781 -0.347656 9.304688 -0.140625 8.765625 0.015625 C 8.234375 0.171875 7.617188 0.25 6.921875 0.25 Z M 6.921875 0.25 "/></g></g></g><g fill="#444444" fill-opacity="1"><g transform="translate(355.183307, 26.241534)"><g><path d="M 8.921875 0.328125 C 7.804688 0.328125 6.769531 0.125 5.8125 -0.28125 C 4.863281 -0.6875 4.046875 -1.234375 3.359375 -1.921875 C 2.671875 -2.617188 2.132812 -3.4375 1.75 -4.375 C 1.363281 -5.3125 1.171875 -6.304688 1.171875 -7.359375 L 1.171875 -7.421875 C 1.171875 -8.472656 1.363281 -9.46875 1.75 -10.40625 C 2.132812 -11.351562 2.671875 -12.179688 3.359375 -12.890625 C 4.046875 -13.597656 4.863281 -14.15625 5.8125 -14.5625 C 6.769531 -14.96875 7.820312 -15.171875 8.96875 -15.171875 C 10.375 -15.171875 11.539062 -14.945312 12.46875 -14.5 C 13.394531 -14.050781 14.210938 -13.441406 14.921875 -12.671875 L 12.328125 -9.890625 C 11.847656 -10.390625 11.351562 -10.785156 10.84375 -11.078125 C 10.332031 -11.378906 9.703125 -11.53125 8.953125 -11.53125 C 8.410156 -11.53125 7.921875 -11.421875 7.484375 -11.203125 C 7.046875 -10.992188 6.664062 -10.703125 6.34375 -10.328125 C 6.019531 -9.960938 5.769531 -9.535156 5.59375 -9.046875 C 5.414062 -8.554688 5.328125 -8.03125 5.328125 -7.46875 L 5.328125 -7.421875 C 5.328125 -6.847656 5.414062 -6.3125 5.59375 -5.8125 C 5.769531 -5.3125 6.023438 -4.875 6.359375 -4.5 C 6.691406 -4.125 7.085938 -3.832031 7.546875 -3.625 C 8.015625 -3.414062 8.535156 -3.3125 9.109375 -3.3125 C 9.816406 -3.3125 10.429688 -3.453125 10.953125 -3.734375 C 11.484375 -4.023438 12.007812 -4.410156 12.53125 -4.890625 L 15 -2.390625 C 14.28125 -1.585938 13.457031 -0.929688 12.53125 -0.421875 C 11.601562 0.078125 10.398438 0.328125 8.921875 0.328125 Z M 8.921875 0.328125 "/></g></g></g><g fill="#444444" fill-opacity="1"><g transform="translate(375.210033, 26.241534)"><g><path d="M 1.890625 -20.28125 L 6.109375 -20.28125 L 6.109375 -12.78125 C 6.347656 -13.09375 6.609375 -13.390625 6.890625 -13.671875 C 7.179688 -13.960938 7.503906 -14.21875 7.859375 -14.4375 C 8.210938 -14.664062 8.601562 -14.84375 9.03125 -14.96875 C 9.457031 -15.101562 9.9375 -15.171875 10.46875 -15.171875 C 12.082031 -15.171875 13.328125 -14.675781 14.203125 -13.6875 C 15.085938 -12.707031 15.53125 -11.359375 15.53125 -9.640625 L 15.53125 0 L 11.3125 0 L 11.3125 -8.3125 C 11.3125 -9.3125 11.085938 -10.0625 10.640625 -10.5625 C 10.191406 -11.070312 9.5625 -11.328125 8.75 -11.328125 C 7.9375 -11.328125 7.289062 -11.070312 6.8125 -10.5625 C 6.34375 -10.0625 6.109375 -9.3125 6.109375 -8.3125 L 6.109375 0 L 1.890625 0 Z M 1.890625 -20.28125 "/></g></g></g><g fill="#444444" fill-opacity="1"><g transform="translate(396.681065, 26.241534)"><g><path d="M 8.953125 0.328125 C 7.835938 0.328125 6.800781 0.144531 5.84375 -0.21875 C 4.894531 -0.59375 4.070312 -1.117188 3.375 -1.796875 C 2.675781 -2.484375 2.132812 -3.296875 1.75 -4.234375 C 1.363281 -5.171875 1.171875 -6.210938 1.171875 -7.359375 L 1.171875 -7.421875 C 1.171875 -8.472656 1.347656 -9.46875 1.703125 -10.40625 C 2.066406 -11.351562 2.570312 -12.179688 3.21875 -12.890625 C 3.863281 -13.597656 4.632812 -14.15625 5.53125 -14.5625 C 6.4375 -14.96875 7.4375 -15.171875 8.53125 -15.171875 C 9.769531 -15.171875 10.84375 -14.945312 11.75 -14.5 C 12.65625 -14.050781 13.410156 -13.453125 14.015625 -12.703125 C 14.617188 -11.953125 15.0625 -11.09375 15.34375 -10.125 C 15.632812 -9.15625 15.78125 -8.140625 15.78125 -7.078125 C 15.78125 -6.910156 15.773438 -6.734375 15.765625 -6.546875 C 15.753906 -6.367188 15.738281 -6.175781 15.71875 -5.96875 L 5.359375 -5.96875 C 5.566406 -5.007812 5.988281 -4.285156 6.625 -3.796875 C 7.257812 -3.304688 8.050781 -3.0625 9 -3.0625 C 9.707031 -3.0625 10.335938 -3.179688 10.890625 -3.421875 C 11.441406 -3.660156 12.015625 -4.046875 12.609375 -4.578125 L 15.03125 -2.4375 C 14.320312 -1.570312 13.46875 -0.894531 12.46875 -0.40625 C 11.46875 0.0820312 10.296875 0.328125 8.953125 0.328125 Z M 11.671875 -8.609375 C 11.535156 -9.554688 11.195312 -10.320312 10.65625 -10.90625 C 10.125 -11.488281 9.414062 -11.78125 8.53125 -11.78125 C 7.644531 -11.78125 6.925781 -11.492188 6.375 -10.921875 C 5.832031 -10.347656 5.476562 -9.578125 5.3125 -8.609375 Z M 11.671875 -8.609375 "/></g></g></g><g fill="#444444" fill-opacity="1"><g transform="translate(417.87438, 26.241534)"><g><path d="M 1.890625 -14.890625 L 6.109375 -14.890625 L 6.109375 -12.78125 C 6.347656 -13.09375 6.609375 -13.390625 6.890625 -13.671875 C 7.179688 -13.960938 7.503906 -14.21875 7.859375 -14.4375 C 8.210938 -14.664062 8.601562 -14.84375 9.03125 -14.96875 C 9.457031 -15.101562 9.9375 -15.171875 10.46875 -15.171875 C 12.082031 -15.171875 13.328125 -14.675781 14.203125 -13.6875 C 15.085938 -12.707031 15.53125 -11.359375 15.53125 -9.640625 L 15.53125 0 L 11.3125 0 L 11.3125 -8.3125 C 11.3125 -9.3125 11.085938 -10.0625 10.640625 -10.5625 C 10.191406 -11.070312 9.5625 -11.328125 8.75 -11.328125 C 7.9375 -11.328125 7.289062 -11.070312 6.8125 -10.5625 C 6.34375 -10.0625 6.109375 -9.3125 6.109375 -8.3125 L 6.109375 0 L 1.890625 0 Z M 1.890625 -14.890625 "/></g></g></g></svg>