<svg xmlns="http://www.w3.org/2000/svg" xmlns:xlink="http://www.w3.org/1999/xlink" width="382" zoomAndPan="magnify" viewBox="0 0 286.5 48" height="64" preserveAspectRatio="xMidYMid meet" version="1.0"><defs><g/></defs><g fill="#444444" fill-opacity="1"><g transform="translate(2.701481, 35.973898)"><g><path d="M 3.28125 -27.359375 L 15.796875 -27.359375 C 19.265625 -27.359375 21.921875 -26.4375 23.765625 -24.59375 C 25.328125 -23.03125 26.109375 -20.941406 26.109375 -18.328125 L 26.109375 -18.25 C 26.109375 -16.039062 25.566406 -14.238281 24.484375 -12.84375 C 23.410156 -11.445312 22 -10.421875 20.25 -9.765625 L 26.9375 0 L 19.90625 0 L 14.03125 -8.75 L 9.296875 -8.75 L 9.296875 0 L 3.28125 0 Z M 15.40625 -14.078125 C 16.882812 -14.078125 18.019531 -14.425781 18.8125 -15.125 C 19.613281 -15.832031 20.015625 -16.769531 20.015625 -17.9375 L 20.015625 -18.015625 C 20.015625 -19.328125 19.597656 -20.304688 18.765625 -20.953125 C 17.929688 -21.609375 16.769531 -21.9375 15.28125 -21.9375 L 9.296875 -21.9375 L 9.296875 -14.078125 Z M 15.40625 -14.078125 "/></g></g></g><g fill="#444444" fill-opacity="1"><g transform="translate(30.960925, 35.973898)"><g><path d="M 3.28125 -27.359375 L 23.921875 -27.359375 L 23.921875 -22.015625 L 9.265625 -22.015625 L 9.265625 -16.453125 L 22.171875 -16.453125 L 22.171875 -11.109375 L 9.265625 -11.109375 L 9.265625 -5.359375 L 24.125 -5.359375 L 24.125 0 L 3.28125 0 Z M 3.28125 -27.359375 "/></g></g></g><g fill="#444444" fill-opacity="1"><g transform="translate(57.148785, 35.973898)"><g><path d="M 13.015625 0.390625 C 10.929688 0.390625 8.882812 0.03125 6.875 -0.6875 C 4.875 -1.40625 3.050781 -2.503906 1.40625 -3.984375 L 4.96875 -8.25 C 6.21875 -7.226562 7.5 -6.414062 8.8125 -5.8125 C 10.132812 -5.21875 11.578125 -4.921875 13.140625 -4.921875 C 14.390625 -4.921875 15.359375 -5.148438 16.046875 -5.609375 C 16.734375 -6.066406 17.078125 -6.695312 17.078125 -7.5 L 17.078125 -7.578125 C 17.078125 -7.972656 17.003906 -8.316406 16.859375 -8.609375 C 16.722656 -8.910156 16.453125 -9.191406 16.046875 -9.453125 C 15.640625 -9.722656 15.078125 -9.988281 14.359375 -10.25 C 13.648438 -10.507812 12.722656 -10.78125 11.578125 -11.0625 C 10.191406 -11.40625 8.9375 -11.785156 7.8125 -12.203125 C 6.695312 -12.617188 5.75 -13.128906 4.96875 -13.734375 C 4.1875 -14.347656 3.578125 -15.109375 3.140625 -16.015625 C 2.710938 -16.929688 2.5 -18.066406 2.5 -19.421875 L 2.5 -19.5 C 2.5 -20.757812 2.734375 -21.890625 3.203125 -22.890625 C 3.671875 -23.890625 4.328125 -24.753906 5.171875 -25.484375 C 6.023438 -26.210938 7.035156 -26.769531 8.203125 -27.15625 C 9.378906 -27.550781 10.671875 -27.75 12.078125 -27.75 C 14.085938 -27.75 15.929688 -27.445312 17.609375 -26.84375 C 19.296875 -26.25 20.84375 -25.394531 22.25 -24.28125 L 19.109375 -19.75 C 17.890625 -20.582031 16.691406 -21.238281 15.515625 -21.71875 C 14.347656 -22.195312 13.175781 -22.4375 12 -22.4375 C 10.832031 -22.4375 9.953125 -22.207031 9.359375 -21.75 C 8.773438 -21.300781 8.484375 -20.738281 8.484375 -20.0625 L 8.484375 -19.984375 C 8.484375 -19.535156 8.566406 -19.144531 8.734375 -18.8125 C 8.898438 -18.488281 9.207031 -18.195312 9.65625 -17.9375 C 10.101562 -17.675781 10.707031 -17.425781 11.46875 -17.1875 C 12.238281 -16.957031 13.210938 -16.6875 14.390625 -16.375 C 15.765625 -16.007812 16.992188 -15.597656 18.078125 -15.140625 C 19.160156 -14.691406 20.070312 -14.144531 20.8125 -13.5 C 21.5625 -12.863281 22.125 -12.113281 22.5 -11.25 C 22.875 -10.394531 23.0625 -9.367188 23.0625 -8.171875 L 23.0625 -8.09375 C 23.0625 -6.738281 22.8125 -5.53125 22.3125 -4.46875 C 21.820312 -3.414062 21.132812 -2.53125 20.25 -1.8125 C 19.363281 -1.101562 18.304688 -0.554688 17.078125 -0.171875 C 15.859375 0.203125 14.503906 0.390625 13.015625 0.390625 Z M 13.015625 0.390625 "/></g></g></g><g fill="#444444" fill-opacity="1"><g transform="translate(82.164057, 35.973898)"><g><path d="M 9.65625 -21.8125 L 1.328125 -21.8125 L 1.328125 -27.359375 L 24 -27.359375 L 24 -21.8125 L 15.671875 -21.8125 L 15.671875 0 L 9.65625 0 Z M 9.65625 -21.8125 "/></g></g></g><g fill="#444444" fill-opacity="1"><g transform="translate(107.49203, 35.973898)"><g><path d="M 12.671875 -27.5625 L 18.21875 -27.5625 L 29.953125 0 L 23.65625 0 L 21.15625 -6.140625 L 9.578125 -6.140625 L 7.078125 0 L 0.9375 0 Z M 19 -11.453125 L 15.359375 -20.328125 L 11.734375 -11.453125 Z M 19 -11.453125 "/></g></g></g><g fill="#444444" fill-opacity="1"><g transform="translate(138.370265, 35.973898)"><g><path d="M 14.703125 0.4375 C 11.023438 0.4375 8.128906 -0.578125 6.015625 -2.609375 C 3.910156 -4.648438 2.859375 -7.691406 2.859375 -11.734375 L 2.859375 -27.359375 L 8.875 -27.359375 L 8.875 -11.890625 C 8.875 -9.640625 9.394531 -7.945312 10.4375 -6.8125 C 11.476562 -5.6875 12.925781 -5.125 14.78125 -5.125 C 16.625 -5.125 18.066406 -5.671875 19.109375 -6.765625 C 20.160156 -7.859375 20.6875 -9.5 20.6875 -11.6875 L 20.6875 -27.359375 L 26.703125 -27.359375 L 26.703125 -11.921875 C 26.703125 -9.835938 26.421875 -8.023438 25.859375 -6.484375 C 25.296875 -4.953125 24.492188 -3.671875 23.453125 -2.640625 C 22.410156 -1.609375 21.144531 -0.835938 19.65625 -0.328125 C 18.175781 0.179688 16.523438 0.4375 14.703125 0.4375 Z M 14.703125 0.4375 "/></g></g></g><g fill="#444444" fill-opacity="1"><g transform="translate(167.91956, 35.973898)"><g><path d="M 3.28125 -27.359375 L 15.796875 -27.359375 C 19.265625 -27.359375 21.921875 -26.4375 23.765625 -24.59375 C 25.328125 -23.03125 26.109375 -20.941406 26.109375 -18.328125 L 26.109375 -18.25 C 26.109375 -16.039062 25.566406 -14.238281 24.484375 -12.84375 C 23.410156 -11.445312 22 -10.421875 20.25 -9.765625 L 26.9375 0 L 19.90625 0 L 14.03125 -8.75 L 9.296875 -8.75 L 9.296875 0 L 3.28125 0 Z M 15.40625 -14.078125 C 16.882812 -14.078125 18.019531 -14.425781 18.8125 -15.125 C 19.613281 -15.832031 20.015625 -16.769531 20.015625 -17.9375 L 20.015625 -18.015625 C 20.015625 -19.328125 19.597656 -20.304688 18.765625 -20.953125 C 17.929688 -21.609375 16.769531 -21.9375 15.28125 -21.9375 L 9.296875 -21.9375 L 9.296875 -14.078125 Z M 15.40625 -14.078125 "/></g></g></g><g fill="#444444" fill-opacity="1"><g transform="translate(196.179004, 35.973898)"><g><path d="M 12.671875 -27.5625 L 18.21875 -27.5625 L 29.953125 0 L 23.65625 0 L 21.15625 -6.140625 L 9.578125 -6.140625 L 7.078125 0 L 0.9375 0 Z M 19 -11.453125 L 15.359375 -20.328125 L 11.734375 -11.453125 Z M 19 -11.453125 "/></g></g></g><g fill="#444444" fill-opacity="1"><g transform="translate(227.057239, 35.973898)"><g><path d="M 3.28125 -27.359375 L 8.828125 -27.359375 L 21.65625 -10.515625 L 21.65625 -27.359375 L 27.59375 -27.359375 L 27.59375 0 L 22.484375 0 L 9.21875 -17.390625 L 9.21875 0 L 3.28125 0 Z M 3.28125 -27.359375 "/></g></g></g><g fill="#444444" fill-opacity="1"><g transform="translate(257.935473, 35.973898)"><g><path d="M 9.65625 -21.8125 L 1.328125 -21.8125 L 1.328125 -27.359375 L 24 -27.359375 L 24 -21.8125 L 15.671875 -21.8125 L 15.671875 0 L 9.65625 0 Z M 9.65625 -21.8125 "/></g></g></g></svg>