<svg xmlns="http://www.w3.org/2000/svg" xmlns:xlink="http://www.w3.org/1999/xlink" width="228" zoomAndPan="magnify" viewBox="0 0 171 48" height="64" preserveAspectRatio="xMidYMid meet" version="1.0"><defs><filter x="0%" y="0%" width="100%" height="100%" id="f8d97d3494"><feColorMatrix values="0 0 0 0 1 0 0 0 0 1 0 0 0 0 1 0 0 0 1 0" color-interpolation-filters="sRGB"/></filter><g/><clipPath id="4117fe469a"><path d="M 1.746094 0 L 169.253906 0 L 169.253906 47 L 1.746094 47 Z M 1.746094 0 " clip-rule="nonzero"/></clipPath><mask id="5265d08c0c"><g filter="url(#f8d97d3494)"><rect x="-17.1" width="205.2" fill="#000000" y="-4.8" height="57.6" fill-opacity="0.75"/></g></mask><clipPath id="e148c16216"><rect x="0" width="169" y="0" height="47"/></clipPath></defs><g clip-path="url(#4117fe469a)"><g mask="url(#5265d08c0c)"><g transform="matrix(1, 0, 0, 1, 1, 0.000000000000005041)"><g clip-path="url(#e148c16216)"><g fill="#444444" fill-opacity="1"><g transform="translate(0.744897, 36.005139)"><g><path d="M 13.046875 0.390625 C 10.960938 0.390625 8.910156 0.03125 6.890625 -0.6875 C 4.878906 -1.40625 3.050781 -2.507812 1.40625 -4 L 4.984375 -8.265625 C 6.234375 -7.242188 7.515625 -6.429688 8.828125 -5.828125 C 10.148438 -5.234375 11.597656 -4.9375 13.171875 -4.9375 C 14.421875 -4.9375 15.390625 -5.164062 16.078125 -5.625 C 16.773438 -6.082031 17.125 -6.71875 17.125 -7.53125 L 17.125 -7.609375 C 17.125 -7.992188 17.050781 -8.335938 16.90625 -8.640625 C 16.757812 -8.941406 16.484375 -9.222656 16.078125 -9.484375 C 15.679688 -9.742188 15.125 -10.003906 14.40625 -10.265625 C 13.6875 -10.523438 12.75 -10.800781 11.59375 -11.09375 C 10.207031 -11.425781 8.953125 -11.800781 7.828125 -12.21875 C 6.710938 -12.644531 5.757812 -13.160156 4.96875 -13.765625 C 4.1875 -14.378906 3.582031 -15.144531 3.15625 -16.0625 C 2.726562 -16.976562 2.515625 -18.113281 2.515625 -19.46875 L 2.515625 -19.546875 C 2.515625 -20.804688 2.75 -21.9375 3.21875 -22.9375 C 3.6875 -23.945312 4.34375 -24.816406 5.1875 -25.546875 C 6.039062 -26.273438 7.054688 -26.835938 8.234375 -27.234375 C 9.410156 -27.628906 10.703125 -27.828125 12.109375 -27.828125 C 14.117188 -27.828125 15.96875 -27.523438 17.65625 -26.921875 C 19.34375 -26.316406 20.890625 -25.453125 22.296875 -24.328125 L 19.15625 -19.796875 C 17.9375 -20.628906 16.738281 -21.285156 15.5625 -21.765625 C 14.382812 -22.253906 13.207031 -22.5 12.03125 -22.5 C 10.851562 -22.5 9.96875 -22.269531 9.375 -21.8125 C 8.789062 -21.351562 8.5 -20.785156 8.5 -20.109375 L 8.5 -20.03125 C 8.5 -19.582031 8.582031 -19.191406 8.75 -18.859375 C 8.925781 -18.535156 9.234375 -18.242188 9.671875 -17.984375 C 10.117188 -17.722656 10.726562 -17.472656 11.5 -17.234375 C 12.269531 -17.003906 13.242188 -16.734375 14.421875 -16.421875 C 15.804688 -16.054688 17.039062 -15.644531 18.125 -15.1875 C 19.207031 -14.726562 20.117188 -14.175781 20.859375 -13.53125 C 21.609375 -12.894531 22.171875 -12.144531 22.546875 -11.28125 C 22.929688 -10.425781 23.125 -9.394531 23.125 -8.1875 L 23.125 -8.109375 C 23.125 -6.753906 22.875 -5.546875 22.375 -4.484375 C 21.875 -3.429688 21.179688 -2.546875 20.296875 -1.828125 C 19.410156 -1.109375 18.351562 -0.554688 17.125 -0.171875 C 15.894531 0.203125 14.535156 0.390625 13.046875 0.390625 Z M 13.046875 0.390625 "/></g></g></g><g fill="#444444" fill-opacity="1"><g transform="translate(25.822871, 36.005139)"><g><path d="M 3.5625 -27.4375 L 9.59375 -27.4375 L 9.59375 0 L 3.5625 0 Z M 3.5625 -27.4375 "/></g></g></g><g fill="#444444" fill-opacity="1"><g transform="translate(38.988807, 36.005139)"><g><path d="M 16.5 0.46875 C 14.351562 0.46875 12.398438 0.117188 10.640625 -0.578125 C 8.878906 -1.285156 7.363281 -2.265625 6.09375 -3.515625 C 4.820312 -4.773438 3.832031 -6.265625 3.125 -7.984375 C 2.425781 -9.710938 2.078125 -11.597656 2.078125 -13.640625 L 2.078125 -13.71875 C 2.078125 -15.675781 2.4375 -17.507812 3.15625 -19.21875 C 3.875 -20.925781 4.875 -22.425781 6.15625 -23.71875 C 7.4375 -25.019531 8.953125 -26.039062 10.703125 -26.78125 C 12.453125 -27.53125 14.367188 -27.90625 16.453125 -27.90625 C 17.679688 -27.90625 18.796875 -27.816406 19.796875 -27.640625 C 20.804688 -27.472656 21.742188 -27.234375 22.609375 -26.921875 C 23.472656 -26.609375 24.28125 -26.21875 25.03125 -25.75 C 25.789062 -25.28125 26.523438 -24.742188 27.234375 -24.140625 L 23.4375 -19.546875 C 22.914062 -19.992188 22.390625 -20.382812 21.859375 -20.71875 C 21.335938 -21.0625 20.796875 -21.347656 20.234375 -21.578125 C 19.671875 -21.816406 19.0625 -22.003906 18.40625 -22.140625 C 17.757812 -22.273438 17.046875 -22.34375 16.265625 -22.34375 C 15.160156 -22.34375 14.128906 -22.113281 13.171875 -21.65625 C 12.222656 -21.195312 11.390625 -20.582031 10.671875 -19.8125 C 9.953125 -19.039062 9.390625 -18.140625 8.984375 -17.109375 C 8.585938 -16.078125 8.390625 -14.972656 8.390625 -13.796875 L 8.390625 -13.71875 C 8.390625 -12.457031 8.585938 -11.296875 8.984375 -10.234375 C 9.390625 -9.179688 9.960938 -8.265625 10.703125 -7.484375 C 11.453125 -6.703125 12.332031 -6.09375 13.34375 -5.65625 C 14.351562 -5.226562 15.46875 -5.015625 16.6875 -5.015625 C 18.9375 -5.015625 20.832031 -5.5625 22.375 -6.65625 L 22.375 -10.578125 L 16.296875 -10.578125 L 16.296875 -15.796875 L 28.21875 -15.796875 L 28.21875 -3.875 C 26.800781 -2.675781 25.117188 -1.648438 23.171875 -0.796875 C 21.234375 0.046875 19.007812 0.46875 16.5 0.46875 Z M 16.5 0.46875 "/></g></g></g><g fill="#444444" fill-opacity="1"><g transform="translate(69.709324, 36.005139)"><g><path d="M 3.296875 -27.4375 L 8.859375 -27.4375 L 21.703125 -10.546875 L 21.703125 -27.4375 L 27.671875 -27.4375 L 27.671875 0 L 22.53125 0 L 9.25 -17.4375 L 9.25 0 L 3.296875 0 Z M 3.296875 -27.4375 "/></g></g></g><g fill="#444444" fill-opacity="1"><g transform="translate(100.664956, 36.005139)"><g/></g></g><g fill="#444444" fill-opacity="1"><g transform="translate(112.42025, 36.005139)"><g><path d="M 14.734375 0.4375 C 11.046875 0.4375 8.144531 -0.582031 6.03125 -2.625 C 3.914062 -4.664062 2.859375 -7.707031 2.859375 -11.75 L 2.859375 -27.4375 L 8.890625 -27.4375 L 8.890625 -11.90625 C 8.890625 -9.664062 9.410156 -7.976562 10.453125 -6.84375 C 11.503906 -5.707031 12.957031 -5.140625 14.8125 -5.140625 C 16.664062 -5.140625 18.113281 -5.6875 19.15625 -6.78125 C 20.207031 -7.875 20.734375 -9.519531 20.734375 -11.71875 L 20.734375 -27.4375 L 26.765625 -27.4375 L 26.765625 -11.953125 C 26.765625 -9.859375 26.484375 -8.039062 25.921875 -6.5 C 25.359375 -4.957031 24.550781 -3.671875 23.5 -2.640625 C 22.457031 -1.609375 21.191406 -0.835938 19.703125 -0.328125 C 18.222656 0.179688 16.566406 0.4375 14.734375 0.4375 Z M 14.734375 0.4375 "/></g></g></g><g fill="#444444" fill-opacity="1"><g transform="translate(142.043612, 36.005139)"><g><path d="M 3.296875 -27.4375 L 14.5 -27.4375 C 16.144531 -27.4375 17.613281 -27.207031 18.90625 -26.75 C 20.195312 -26.289062 21.289062 -25.640625 22.1875 -24.796875 C 23.09375 -23.960938 23.785156 -22.960938 24.265625 -21.796875 C 24.753906 -20.640625 25 -19.359375 25 -17.953125 L 25 -17.875 C 25 -16.28125 24.710938 -14.878906 24.140625 -13.671875 C 23.566406 -12.472656 22.773438 -11.46875 21.765625 -10.65625 C 20.765625 -9.84375 19.585938 -9.234375 18.234375 -8.828125 C 16.890625 -8.429688 15.445312 -8.234375 13.90625 -8.234375 L 9.328125 -8.234375 L 9.328125 0 L 3.296875 0 Z M 14.109375 -13.59375 C 15.617188 -13.59375 16.789062 -13.988281 17.625 -14.78125 C 18.46875 -15.582031 18.890625 -16.570312 18.890625 -17.75 L 18.890625 -17.828125 C 18.890625 -19.191406 18.453125 -20.222656 17.578125 -20.921875 C 16.703125 -21.628906 15.503906 -21.984375 13.984375 -21.984375 L 9.328125 -21.984375 L 9.328125 -13.59375 Z M 14.109375 -13.59375 "/></g></g></g></g></g></g></g></svg>