<svg xmlns="http://www.w3.org/2000/svg" xmlns:xlink="http://www.w3.org/1999/xlink" width="212" zoomAndPan="magnify" viewBox="0 0 159 48" height="64" preserveAspectRatio="xMidYMid meet" version="1.0"><defs><g/></defs><g fill="#444444" fill-opacity="1"><g transform="translate(1.60408, 35.750884)"><g><path d="M 13.046875 0.390625 C 10.953125 0.390625 8.898438 0.03125 6.890625 -0.6875 C 4.878906 -1.40625 3.050781 -2.507812 1.40625 -4 L 4.96875 -8.265625 C 6.226562 -7.242188 7.515625 -6.429688 8.828125 -5.828125 C 10.148438 -5.234375 11.59375 -4.9375 13.15625 -4.9375 C 14.414062 -4.9375 15.390625 -5.164062 16.078125 -5.625 C 16.773438 -6.082031 17.125 -6.710938 17.125 -7.515625 L 17.125 -7.59375 C 17.125 -7.988281 17.050781 -8.335938 16.90625 -8.640625 C 16.757812 -8.941406 16.484375 -9.222656 16.078125 -9.484375 C 15.671875 -9.742188 15.109375 -10.003906 14.390625 -10.265625 C 13.671875 -10.523438 12.738281 -10.796875 11.59375 -11.078125 C 10.207031 -11.421875 8.953125 -11.800781 7.828125 -12.21875 C 6.710938 -12.632812 5.757812 -13.148438 4.96875 -13.765625 C 4.1875 -14.378906 3.578125 -15.144531 3.140625 -16.0625 C 2.710938 -16.976562 2.5 -18.113281 2.5 -19.46875 L 2.5 -19.546875 C 2.5 -20.796875 2.734375 -21.921875 3.203125 -22.921875 C 3.679688 -23.929688 4.34375 -24.800781 5.1875 -25.53125 C 6.039062 -26.269531 7.050781 -26.832031 8.21875 -27.21875 C 9.394531 -27.613281 10.691406 -27.8125 12.109375 -27.8125 C 14.117188 -27.8125 15.960938 -27.507812 17.640625 -26.90625 C 19.328125 -26.3125 20.875 -25.453125 22.28125 -24.328125 L 19.15625 -19.78125 C 17.925781 -20.613281 16.722656 -21.269531 15.546875 -21.75 C 14.367188 -22.238281 13.195312 -22.484375 12.03125 -22.484375 C 10.851562 -22.484375 9.96875 -22.253906 9.375 -21.796875 C 8.789062 -21.335938 8.5 -20.769531 8.5 -20.09375 L 8.5 -20.015625 C 8.5 -19.566406 8.582031 -19.179688 8.75 -18.859375 C 8.925781 -18.535156 9.234375 -18.242188 9.671875 -17.984375 C 10.117188 -17.722656 10.726562 -17.472656 11.5 -17.234375 C 12.269531 -17.003906 13.242188 -16.726562 14.421875 -16.40625 C 15.796875 -16.039062 17.023438 -15.628906 18.109375 -15.171875 C 19.203125 -14.722656 20.117188 -14.175781 20.859375 -13.53125 C 21.597656 -12.894531 22.15625 -12.144531 22.53125 -11.28125 C 22.914062 -10.414062 23.109375 -9.382812 23.109375 -8.1875 L 23.109375 -8.109375 C 23.109375 -6.753906 22.859375 -5.546875 22.359375 -4.484375 C 21.867188 -3.429688 21.175781 -2.546875 20.28125 -1.828125 C 19.394531 -1.109375 18.335938 -0.554688 17.109375 -0.171875 C 15.890625 0.203125 14.535156 0.390625 13.046875 0.390625 Z M 13.046875 0.390625 "/></g></g></g><g fill="#444444" fill-opacity="1"><g transform="translate(26.668787, 35.750884)"><g><path d="M 3.5625 -27.421875 L 9.59375 -27.421875 L 9.59375 0 L 3.5625 0 Z M 3.5625 -27.421875 "/></g></g></g><g fill="#444444" fill-opacity="1"><g transform="translate(39.827758, 35.750884)"><g><path d="M 16.484375 0.46875 C 14.347656 0.46875 12.394531 0.117188 10.625 -0.578125 C 8.863281 -1.285156 7.347656 -2.265625 6.078125 -3.515625 C 4.816406 -4.773438 3.832031 -6.265625 3.125 -7.984375 C 2.425781 -9.710938 2.078125 -11.59375 2.078125 -13.625 L 2.078125 -13.703125 C 2.078125 -15.660156 2.4375 -17.492188 3.15625 -19.203125 C 3.875 -20.921875 4.867188 -22.425781 6.140625 -23.71875 C 7.421875 -25.007812 8.9375 -26.023438 10.6875 -26.765625 C 12.4375 -27.515625 14.359375 -27.890625 16.453125 -27.890625 C 17.679688 -27.890625 18.796875 -27.800781 19.796875 -27.625 C 20.804688 -27.457031 21.738281 -27.21875 22.59375 -26.90625 C 23.457031 -26.59375 24.269531 -26.203125 25.03125 -25.734375 C 25.789062 -25.265625 26.519531 -24.726562 27.21875 -24.125 L 23.421875 -19.546875 C 22.898438 -19.992188 22.378906 -20.382812 21.859375 -20.71875 C 21.335938 -21.0625 20.796875 -21.347656 20.234375 -21.578125 C 19.671875 -21.816406 19.0625 -22 18.40625 -22.125 C 17.757812 -22.257812 17.039062 -22.328125 16.25 -22.328125 C 15.15625 -22.328125 14.128906 -22.097656 13.171875 -21.640625 C 12.222656 -21.179688 11.390625 -20.566406 10.671875 -19.796875 C 9.953125 -19.023438 9.390625 -18.125 8.984375 -17.09375 C 8.578125 -16.0625 8.375 -14.957031 8.375 -13.78125 L 8.375 -13.703125 C 8.375 -12.453125 8.578125 -11.296875 8.984375 -10.234375 C 9.390625 -9.179688 9.960938 -8.265625 10.703125 -7.484375 C 11.453125 -6.703125 12.328125 -6.09375 13.328125 -5.65625 C 14.335938 -5.226562 15.457031 -5.015625 16.6875 -5.015625 C 18.9375 -5.015625 20.828125 -5.5625 22.359375 -6.65625 L 22.359375 -10.578125 L 16.296875 -10.578125 L 16.296875 -15.78125 L 28.203125 -15.78125 L 28.203125 -3.875 C 26.796875 -2.675781 25.117188 -1.648438 23.171875 -0.796875 C 21.222656 0.046875 18.992188 0.46875 16.484375 0.46875 Z M 16.484375 0.46875 "/></g></g></g><g fill="#444444" fill-opacity="1"><g transform="translate(70.532022, 35.750884)"><g><path d="M 3.296875 -27.421875 L 8.859375 -27.421875 L 21.703125 -10.53125 L 21.703125 -27.421875 L 27.65625 -27.421875 L 27.65625 0 L 22.53125 0 L 9.25 -17.4375 L 9.25 0 L 3.296875 0 Z M 3.296875 -27.421875 "/></g></g></g><g fill="#444444" fill-opacity="1"><g transform="translate(101.471278, 35.750884)"><g/></g></g><g fill="#444444" fill-opacity="1"><g transform="translate(113.220353, 35.750884)"><g><path d="M 3.5625 -27.421875 L 9.59375 -27.421875 L 9.59375 0 L 3.5625 0 Z M 3.5625 -27.421875 "/></g></g></g><g fill="#444444" fill-opacity="1"><g transform="translate(126.379324, 35.750884)"><g><path d="M 3.296875 -27.421875 L 8.859375 -27.421875 L 21.703125 -10.53125 L 21.703125 -27.421875 L 27.65625 -27.421875 L 27.65625 0 L 22.53125 0 L 9.25 -17.4375 L 9.25 0 L 3.296875 0 Z M 3.296875 -27.421875 "/></g></g></g></svg>