<svg xmlns="http://www.w3.org/2000/svg" xmlns:xlink="http://www.w3.org/1999/xlink" width="354" zoomAndPan="magnify" viewBox="0 0 265.5 48" height="64" preserveAspectRatio="xMidYMid meet" version="1.0"><defs><g/></defs><g fill="#444444" fill-opacity="1"><g transform="translate(2.464285, 35.98613)"><g><path d="M 3.28125 -27.390625 L 24.140625 -27.390625 L 24.140625 -21.90625 L 9.3125 -21.90625 L 9.3125 -16.078125 L 22.375 -16.078125 L 22.375 -10.609375 L 9.3125 -10.609375 L 9.3125 0 L 3.28125 0 Z M 3.28125 -27.390625 "/></g></g></g><g fill="#444444" fill-opacity="1"><g transform="translate(34.001137, 35.98613)"><g><path d="M 3.28125 -27.390625 L 23.9375 -27.390625 L 23.9375 -22.03125 L 9.265625 -22.03125 L 9.265625 -16.46875 L 22.1875 -16.46875 L 22.1875 -11.109375 L 9.265625 -11.109375 L 9.265625 -5.359375 L 24.140625 -5.359375 L 24.140625 0 L 3.28125 0 Z M 3.28125 -27.390625 "/></g></g></g><g fill="#444444" fill-opacity="1"><g transform="translate(66.085733, 35.98613)"><g><path d="M 12.671875 -27.578125 L 18.234375 -27.578125 L 29.96875 0 L 23.671875 0 L 21.171875 -6.140625 L 9.578125 -6.140625 L 7.078125 0 L 0.9375 0 Z M 19.015625 -11.46875 L 15.375 -20.34375 L 11.734375 -11.46875 Z M 19.015625 -11.46875 "/></g></g></g><g fill="#444444" fill-opacity="1"><g transform="translate(102.865305, 35.98613)"><g><path d="M 3.28125 -27.390625 L 15.8125 -27.390625 C 19.28125 -27.390625 21.9375 -26.460938 23.78125 -24.609375 C 25.351562 -23.046875 26.140625 -20.957031 26.140625 -18.34375 L 26.140625 -18.265625 C 26.140625 -16.054688 25.597656 -14.253906 24.515625 -12.859375 C 23.429688 -11.460938 22.015625 -10.4375 20.265625 -9.78125 L 26.953125 0 L 19.921875 0 L 14.046875 -8.765625 L 9.3125 -8.765625 L 9.3125 0 L 3.28125 0 Z M 15.421875 -14.078125 C 16.898438 -14.078125 18.035156 -14.429688 18.828125 -15.140625 C 19.628906 -15.847656 20.03125 -16.785156 20.03125 -17.953125 L 20.03125 -18.03125 C 20.03125 -19.34375 19.613281 -20.320312 18.78125 -20.96875 C 17.945312 -21.625 16.785156 -21.953125 15.296875 -21.953125 L 9.3125 -21.953125 L 9.3125 -14.078125 Z M 15.421875 -14.078125 "/></g></g></g><g fill="#444444" fill-opacity="1"><g transform="translate(137.023521, 35.98613)"><g><path d="M 3.28125 -27.390625 L 9.3125 -27.390625 L 9.3125 -5.484375 L 22.96875 -5.484375 L 22.96875 0 L 3.28125 0 Z M 3.28125 -27.390625 "/></g></g></g><g fill="#444444" fill-opacity="1"><g transform="translate(167.112754, 35.98613)"><g><path d="M 3.28125 -27.390625 L 23.9375 -27.390625 L 23.9375 -22.03125 L 9.265625 -22.03125 L 9.265625 -16.46875 L 22.1875 -16.46875 L 22.1875 -11.109375 L 9.265625 -11.109375 L 9.265625 -5.359375 L 24.140625 -5.359375 L 24.140625 0 L 3.28125 0 Z M 3.28125 -27.390625 "/></g></g></g><g fill="#444444" fill-opacity="1"><g transform="translate(199.197341, 35.98613)"><g><path d="M 13.03125 0.390625 C 10.945312 0.390625 8.898438 0.03125 6.890625 -0.6875 C 4.878906 -1.40625 3.050781 -2.503906 1.40625 -3.984375 L 4.96875 -8.25 C 6.21875 -7.238281 7.5 -6.429688 8.8125 -5.828125 C 10.132812 -5.234375 11.578125 -4.9375 13.140625 -4.9375 C 14.398438 -4.9375 15.375 -5.160156 16.0625 -5.609375 C 16.75 -6.066406 17.09375 -6.703125 17.09375 -7.515625 L 17.09375 -7.59375 C 17.09375 -7.976562 17.019531 -8.320312 16.875 -8.625 C 16.738281 -8.925781 16.46875 -9.207031 16.0625 -9.46875 C 15.65625 -9.726562 15.09375 -9.988281 14.375 -10.25 C 13.65625 -10.507812 12.722656 -10.785156 11.578125 -11.078125 C 10.191406 -11.410156 8.9375 -11.785156 7.8125 -12.203125 C 6.695312 -12.617188 5.75 -13.132812 4.96875 -13.75 C 4.1875 -14.363281 3.578125 -15.125 3.140625 -16.03125 C 2.710938 -16.945312 2.5 -18.082031 2.5 -19.4375 L 2.5 -19.515625 C 2.5 -20.773438 2.734375 -21.90625 3.203125 -22.90625 C 3.671875 -23.90625 4.328125 -24.769531 5.171875 -25.5 C 6.023438 -26.238281 7.039062 -26.800781 8.21875 -27.1875 C 9.394531 -27.582031 10.6875 -27.78125 12.09375 -27.78125 C 14.101562 -27.78125 15.945312 -27.476562 17.625 -26.875 C 19.3125 -26.28125 20.859375 -25.421875 22.265625 -24.296875 L 19.125 -19.765625 C 17.90625 -20.597656 16.707031 -21.253906 15.53125 -21.734375 C 14.351562 -22.210938 13.179688 -22.453125 12.015625 -22.453125 C 10.835938 -22.453125 9.953125 -22.222656 9.359375 -21.765625 C 8.773438 -21.316406 8.484375 -20.753906 8.484375 -20.078125 L 8.484375 -20 C 8.484375 -19.550781 8.566406 -19.160156 8.734375 -18.828125 C 8.910156 -18.503906 9.21875 -18.210938 9.65625 -17.953125 C 10.101562 -17.691406 10.710938 -17.441406 11.484375 -17.203125 C 12.253906 -16.972656 13.222656 -16.703125 14.390625 -16.390625 C 15.773438 -16.023438 17.007812 -15.613281 18.09375 -15.15625 C 19.175781 -14.695312 20.085938 -14.148438 20.828125 -13.515625 C 21.578125 -12.878906 22.140625 -12.128906 22.515625 -11.265625 C 22.890625 -10.410156 23.078125 -9.378906 23.078125 -8.171875 L 23.078125 -8.09375 C 23.078125 -6.738281 22.828125 -5.53125 22.328125 -4.46875 C 21.835938 -3.414062 21.148438 -2.53125 20.265625 -1.8125 C 19.378906 -1.101562 18.320312 -0.554688 17.09375 -0.171875 C 15.875 0.203125 14.519531 0.390625 13.03125 0.390625 Z M 13.03125 0.390625 "/></g></g></g><g fill="#444444" fill-opacity="1"><g transform="translate(230.10819, 35.98613)"><g><path d="M 13.03125 0.390625 C 10.945312 0.390625 8.898438 0.03125 6.890625 -0.6875 C 4.878906 -1.40625 3.050781 -2.503906 1.40625 -3.984375 L 4.96875 -8.25 C 6.21875 -7.238281 7.5 -6.429688 8.8125 -5.828125 C 10.132812 -5.234375 11.578125 -4.9375 13.140625 -4.9375 C 14.398438 -4.9375 15.375 -5.160156 16.0625 -5.609375 C 16.75 -6.066406 17.09375 -6.703125 17.09375 -7.515625 L 17.09375 -7.59375 C 17.09375 -7.976562 17.019531 -8.320312 16.875 -8.625 C 16.738281 -8.925781 16.46875 -9.207031 16.0625 -9.46875 C 15.65625 -9.726562 15.09375 -9.988281 14.375 -10.25 C 13.65625 -10.507812 12.722656 -10.785156 11.578125 -11.078125 C 10.191406 -11.410156 8.9375 -11.785156 7.8125 -12.203125 C 6.695312 -12.617188 5.75 -13.132812 4.96875 -13.75 C 4.1875 -14.363281 3.578125 -15.125 3.140625 -16.03125 C 2.710938 -16.945312 2.5 -18.082031 2.5 -19.4375 L 2.5 -19.515625 C 2.5 -20.773438 2.734375 -21.90625 3.203125 -22.90625 C 3.671875 -23.90625 4.328125 -24.769531 5.171875 -25.5 C 6.023438 -26.238281 7.039062 -26.800781 8.21875 -27.1875 C 9.394531 -27.582031 10.6875 -27.78125 12.09375 -27.78125 C 14.101562 -27.78125 15.945312 -27.476562 17.625 -26.875 C 19.3125 -26.28125 20.859375 -25.421875 22.265625 -24.296875 L 19.125 -19.765625 C 17.90625 -20.597656 16.707031 -21.253906 15.53125 -21.734375 C 14.351562 -22.210938 13.179688 -22.453125 12.015625 -22.453125 C 10.835938 -22.453125 9.953125 -22.222656 9.359375 -21.765625 C 8.773438 -21.316406 8.484375 -20.753906 8.484375 -20.078125 L 8.484375 -20 C 8.484375 -19.550781 8.566406 -19.160156 8.734375 -18.828125 C 8.910156 -18.503906 9.21875 -18.210938 9.65625 -17.953125 C 10.101562 -17.691406 10.710938 -17.441406 11.484375 -17.203125 C 12.253906 -16.972656 13.222656 -16.703125 14.390625 -16.390625 C 15.773438 -16.023438 17.007812 -15.613281 18.09375 -15.15625 C 19.175781 -14.695312 20.085938 -14.148438 20.828125 -13.515625 C 21.578125 -12.878906 22.140625 -12.128906 22.515625 -11.265625 C 22.890625 -10.410156 23.078125 -9.378906 23.078125 -8.171875 L 23.078125 -8.09375 C 23.078125 -6.738281 22.828125 -5.53125 22.328125 -4.46875 C 21.835938 -3.414062 21.148438 -2.53125 20.265625 -1.8125 C 19.378906 -1.101562 18.320312 -0.554688 17.09375 -0.171875 C 15.875 0.203125 14.519531 0.390625 13.03125 0.390625 Z M 13.03125 0.390625 "/></g></g></g></svg>