<svg xmlns="http://www.w3.org/2000/svg" xmlns:xlink="http://www.w3.org/1999/xlink" width="225" zoomAndPan="magnify" viewBox="0 0 168.75 48" height="64" preserveAspectRatio="xMidYMid meet" version="1.0"><defs><g/><clipPath id="f28b7faaf1"><path d="M 1.597656 0 L 166.054688 0 L 166.054688 46.777344 L 1.597656 46.777344 Z M 1.597656 0 " clip-rule="nonzero"/></clipPath></defs><g fill="#444444" fill-opacity="1"><g transform="translate(14.850308, 33.012036)"><g><path d="M 10.25 0.296875 C 7.6875 0.296875 5.664062 -0.410156 4.1875 -1.828125 C 2.71875 -3.242188 1.984375 -5.363281 1.984375 -8.1875 L 1.984375 -19.09375 L 6.1875 -19.09375 L 6.1875 -8.296875 C 6.1875 -6.734375 6.550781 -5.554688 7.28125 -4.765625 C 8.007812 -3.972656 9.019531 -3.578125 10.3125 -3.578125 C 11.601562 -3.578125 12.613281 -3.957031 13.34375 -4.71875 C 14.070312 -5.476562 14.4375 -6.625 14.4375 -8.15625 L 14.4375 -19.09375 L 18.640625 -19.09375 L 18.640625 -8.328125 C 18.640625 -6.867188 18.441406 -5.601562 18.046875 -4.53125 C 17.648438 -3.457031 17.085938 -2.5625 16.359375 -1.84375 C 15.640625 -1.125 14.757812 -0.585938 13.71875 -0.234375 C 12.6875 0.117188 11.53125 0.296875 10.25 0.296875 Z M 10.25 0.296875 "/></g></g></g><g fill="#444444" fill-opacity="1"><g transform="translate(39.569794, 33.012036)"><g><path d="M 2.296875 -19.09375 L 10.09375 -19.09375 C 11.238281 -19.09375 12.257812 -18.929688 13.15625 -18.609375 C 14.0625 -18.296875 14.828125 -17.847656 15.453125 -17.265625 C 16.078125 -16.679688 16.554688 -15.984375 16.890625 -15.171875 C 17.234375 -14.367188 17.40625 -13.476562 17.40625 -12.5 L 17.40625 -12.4375 C 17.40625 -11.332031 17.203125 -10.359375 16.796875 -9.515625 C 16.398438 -8.679688 15.851562 -7.984375 15.15625 -7.421875 C 14.457031 -6.859375 13.640625 -6.4375 12.703125 -6.15625 C 11.765625 -5.875 10.757812 -5.734375 9.6875 -5.734375 L 6.5 -5.734375 L 6.5 0 L 2.296875 0 Z M 9.828125 -9.46875 C 10.878906 -9.46875 11.695312 -9.742188 12.28125 -10.296875 C 12.863281 -10.847656 13.15625 -11.535156 13.15625 -12.359375 L 13.15625 -12.40625 C 13.15625 -13.351562 12.847656 -14.070312 12.234375 -14.5625 C 11.628906 -15.0625 10.796875 -15.3125 9.734375 -15.3125 L 6.5 -15.3125 L 6.5 -9.46875 Z M 9.828125 -9.46875 "/></g></g></g><g fill="#444444" fill-opacity="1"><g transform="translate(61.888327, 33.012036)"><g><path d="M 2.296875 -19.09375 L 9.734375 -19.09375 C 11.222656 -19.09375 12.59375 -18.851562 13.84375 -18.375 C 15.09375 -17.894531 16.164062 -17.226562 17.0625 -16.375 C 17.96875 -15.519531 18.664062 -14.515625 19.15625 -13.359375 C 19.644531 -12.203125 19.890625 -10.953125 19.890625 -9.609375 L 19.890625 -9.546875 C 19.890625 -8.203125 19.644531 -6.945312 19.15625 -5.78125 C 18.664062 -4.613281 17.96875 -3.601562 17.0625 -2.75 C 16.164062 -1.894531 15.09375 -1.222656 13.84375 -0.734375 C 12.59375 -0.242188 11.222656 0 9.734375 0 L 2.296875 0 Z M 6.5 -15.3125 L 6.5 -3.796875 L 9.734375 -3.796875 C 10.585938 -3.796875 11.367188 -3.929688 12.078125 -4.203125 C 12.796875 -4.472656 13.40625 -4.863281 13.90625 -5.375 C 14.40625 -5.882812 14.796875 -6.484375 15.078125 -7.171875 C 15.359375 -7.867188 15.5 -8.644531 15.5 -9.5 L 15.5 -9.546875 C 15.5 -10.378906 15.359375 -11.148438 15.078125 -11.859375 C 14.796875 -12.578125 14.40625 -13.1875 13.90625 -13.6875 C 13.40625 -14.195312 12.796875 -14.59375 12.078125 -14.875 C 11.367188 -15.164062 10.585938 -15.3125 9.734375 -15.3125 Z M 6.5 -15.3125 "/></g></g></g><g fill="#444444" fill-opacity="1"><g transform="translate(87.317189, 33.012036)"><g><path d="M 8.84375 -19.234375 L 12.71875 -19.234375 L 20.890625 0 L 16.5 0 L 14.765625 -4.28125 L 6.6875 -4.28125 L 4.9375 0 L 0.65625 0 Z M 13.265625 -8 L 10.71875 -14.1875 L 8.1875 -8 Z M 13.265625 -8 "/></g></g></g><g fill="#444444" fill-opacity="1"><g transform="translate(112.964318, 33.012036)"><g><path d="M 6.734375 -15.21875 L 0.921875 -15.21875 L 0.921875 -19.09375 L 16.75 -19.09375 L 16.75 -15.21875 L 10.9375 -15.21875 L 10.9375 0 L 6.734375 0 Z M 6.734375 -15.21875 "/></g></g></g><g fill="#444444" fill-opacity="1"><g transform="translate(134.737174, 33.012036)"><g><path d="M 2.296875 -19.09375 L 16.703125 -19.09375 L 16.703125 -15.359375 L 6.46875 -15.359375 L 6.46875 -11.484375 L 15.46875 -11.484375 L 15.46875 -7.75 L 6.46875 -7.75 L 6.46875 -3.734375 L 16.828125 -3.734375 L 16.828125 0 L 2.296875 0 Z M 2.296875 -19.09375 "/></g></g></g><g clip-path="url(#f28b7faaf1)"><path stroke-linecap="butt" transform="matrix(0.73091, 0, 0, 0.73091, 1.599489, 0.000282243)" fill="none" stroke-linejoin="miter" d="M -0.00250764 -0.000386153 L 225.294545 -0.000386153 L 225.294545 64.329736 L -0.00250764 64.329736 Z M -0.00250764 -0.000386153 " stroke="#444444" stroke-width="10.051769" stroke-opacity="1" stroke-miterlimit="4"/></g></svg>