<svg xmlns="http://www.w3.org/2000/svg" xmlns:xlink="http://www.w3.org/1999/xlink" width="265" zoomAndPan="magnify" viewBox="0 0 198.75 193.499995" height="258" preserveAspectRatio="xMidYMid meet" version="1.0"><defs><filter x="0%" y="0%" width="100%" height="100%" id="b669232ffd"><feColorMatrix values="0 0 0 0 1 0 0 0 0 1 0 0 0 0 1 0 0 0 1 0" color-interpolation-filters="sRGB"/></filter><g/><clipPath id="f0d3e96768"><path d="M 0.132812 0 L 198.371094 0 L 198.371094 193 L 0.132812 193 Z M 0.132812 0 " clip-rule="nonzero"/></clipPath><mask id="4fd37480d4"><g filter="url(#b669232ffd)"><rect x="-19.875" width="238.5" fill="#000000" y="-19.349999" height="232.199994" fill-opacity="0.5"/></g></mask><clipPath id="a55c225a8f"><path d="M 0.246094 0.195312 L 56.253906 0.195312 L 56.253906 56.207031 L 0.246094 56.207031 Z M 0.246094 0.195312 " clip-rule="nonzero"/></clipPath><clipPath id="a6e16eecf6"><path d="M 28.25 0.195312 L 0.246094 37.503906 L 18.898438 37.503906 L 18.898438 56.207031 L 37.601562 56.207031 L 37.601562 37.503906 L 56.253906 37.503906 Z M 28.25 0.195312 " clip-rule="nonzero"/></clipPath><clipPath id="7b5eaf6db8"><rect x="0" width="57" y="0" height="57"/></clipPath><mask id="d1174dd254"><g filter="url(#b669232ffd)"><rect x="-19.875" width="238.5" fill="#000000" y="-19.349999" height="232.199994" fill-opacity="0.5"/></g></mask><clipPath id="565c72347e"><rect x="0" width="77" y="0" height="18"/></clipPath></defs><g clip-path="url(#f0d3e96768)"><rect x="-19.875" width="238.5" fill="#d9d9d9" y="-19.349999" height="232.199994" fill-opacity="1"/></g><g mask="url(#4fd37480d4)"><g transform="matrix(1, 0, 0, 1, 71, 56)"><g clip-path="url(#7b5eaf6db8)"><g clip-path="url(#a55c225a8f)"><g clip-path="url(#a6e16eecf6)"><path fill="#444444" d="M 0.246094 0.195312 L 56.253906 0.195312 L 56.253906 56.207031 L 0.246094 56.207031 Z M 0.246094 0.195312 " fill-opacity="1" fill-rule="nonzero"/></g></g></g></g></g><g mask="url(#d1174dd254)"><g transform="matrix(1, 0, 0, 1, 62, 119)"><g clip-path="url(#565c72347e)"><g fill="#444444" fill-opacity="1"><g transform="translate(0.880947, 13.487623)"><g><path d="M 5.25 0.15625 C 3.9375 0.15625 2.898438 -0.203125 2.140625 -0.921875 C 1.390625 -1.648438 1.015625 -2.738281 1.015625 -4.1875 L 1.015625 -9.765625 L 3.171875 -9.765625 L 3.171875 -4.234375 C 3.171875 -3.441406 3.351562 -2.84375 3.71875 -2.4375 C 4.09375 -2.03125 4.613281 -1.828125 5.28125 -1.828125 C 5.9375 -1.828125 6.445312 -2.019531 6.8125 -2.40625 C 7.1875 -2.800781 7.375 -3.390625 7.375 -4.171875 L 7.375 -9.765625 L 9.53125 -9.765625 L 9.53125 -4.25 C 9.53125 -3.507812 9.429688 -2.863281 9.234375 -2.3125 C 9.035156 -1.769531 8.75 -1.3125 8.375 -0.9375 C 8 -0.570312 7.546875 -0.296875 7.015625 -0.109375 C 6.484375 0.0664062 5.894531 0.15625 5.25 0.15625 Z M 5.25 0.15625 "/></g></g></g><g fill="#444444" fill-opacity="1"><g transform="translate(13.515363, 13.487623)"><g><path d="M 1.171875 -9.765625 L 5.15625 -9.765625 C 5.75 -9.765625 6.273438 -9.679688 6.734375 -9.515625 C 7.191406 -9.359375 7.582031 -9.128906 7.90625 -8.828125 C 8.226562 -8.535156 8.472656 -8.179688 8.640625 -7.765625 C 8.816406 -7.347656 8.90625 -6.890625 8.90625 -6.390625 L 8.90625 -6.359375 C 8.90625 -5.796875 8.800781 -5.300781 8.59375 -4.875 C 8.382812 -4.445312 8.101562 -4.085938 7.75 -3.796875 C 7.394531 -3.503906 6.976562 -3.285156 6.5 -3.140625 C 6.019531 -3.003906 5.503906 -2.9375 4.953125 -2.9375 L 3.328125 -2.9375 L 3.328125 0 L 1.171875 0 Z M 5.015625 -4.84375 C 5.554688 -4.84375 5.972656 -4.984375 6.265625 -5.265625 C 6.566406 -5.546875 6.71875 -5.898438 6.71875 -6.328125 L 6.71875 -6.34375 C 6.71875 -6.832031 6.5625 -7.203125 6.25 -7.453125 C 5.945312 -7.703125 5.523438 -7.828125 4.984375 -7.828125 L 3.328125 -7.828125 L 3.328125 -4.84375 Z M 5.015625 -4.84375 "/></g></g></g><g fill="#444444" fill-opacity="1"><g transform="translate(24.922705, 13.487623)"><g><path d="M 1.171875 -9.765625 L 3.328125 -9.765625 L 3.328125 -1.953125 L 8.1875 -1.953125 L 8.1875 0 L 1.171875 0 Z M 1.171875 -9.765625 "/></g></g></g><g fill="#444444" fill-opacity="1"><g transform="translate(35.646796, 13.487623)"><g><path d="M 5.921875 0.171875 C 5.160156 0.171875 4.460938 0.0390625 3.828125 -0.21875 C 3.203125 -0.488281 2.65625 -0.847656 2.1875 -1.296875 C 1.726562 -1.753906 1.367188 -2.285156 1.109375 -2.890625 C 0.859375 -3.503906 0.734375 -4.160156 0.734375 -4.859375 L 0.734375 -4.890625 C 0.734375 -5.585938 0.863281 -6.238281 1.125 -6.84375 C 1.382812 -7.457031 1.742188 -7.992188 2.203125 -8.453125 C 2.671875 -8.910156 3.222656 -9.269531 3.859375 -9.53125 C 4.492188 -9.800781 5.1875 -9.9375 5.9375 -9.9375 C 6.695312 -9.9375 7.390625 -9.800781 8.015625 -9.53125 C 8.648438 -9.269531 9.195312 -8.910156 9.65625 -8.453125 C 10.125 -8.003906 10.484375 -7.472656 10.734375 -6.859375 C 10.992188 -6.253906 11.125 -5.601562 11.125 -4.90625 L 11.125 -4.890625 C 11.125 -4.191406 10.992188 -3.535156 10.734375 -2.921875 C 10.472656 -2.316406 10.109375 -1.78125 9.640625 -1.3125 C 9.179688 -0.851562 8.632812 -0.488281 8 -0.21875 C 7.363281 0.0390625 6.671875 0.171875 5.921875 0.171875 Z M 5.9375 -1.8125 C 6.363281 -1.8125 6.757812 -1.890625 7.125 -2.046875 C 7.488281 -2.203125 7.796875 -2.421875 8.046875 -2.703125 C 8.304688 -2.984375 8.507812 -3.304688 8.65625 -3.671875 C 8.800781 -4.046875 8.875 -4.441406 8.875 -4.859375 L 8.875 -4.890625 C 8.875 -5.304688 8.800781 -5.695312 8.65625 -6.0625 C 8.507812 -6.4375 8.300781 -6.765625 8.03125 -7.046875 C 7.769531 -7.328125 7.457031 -7.546875 7.09375 -7.703125 C 6.738281 -7.867188 6.347656 -7.953125 5.921875 -7.953125 C 5.484375 -7.953125 5.082031 -7.875 4.71875 -7.71875 C 4.363281 -7.5625 4.054688 -7.34375 3.796875 -7.0625 C 3.546875 -6.78125 3.347656 -6.457031 3.203125 -6.09375 C 3.054688 -5.726562 2.984375 -5.332031 2.984375 -4.90625 L 2.984375 -4.890625 C 2.984375 -4.460938 3.054688 -4.0625 3.203125 -3.6875 C 3.347656 -3.320312 3.550781 -3 3.8125 -2.71875 C 4.082031 -2.4375 4.394531 -2.210938 4.75 -2.046875 C 5.101562 -1.890625 5.5 -1.8125 5.9375 -1.8125 Z M 5.9375 -1.8125 "/></g></g></g><g fill="#444444" fill-opacity="1"><g transform="translate(49.591948, 13.487623)"><g><path d="M 4.515625 -9.84375 L 6.5 -9.84375 L 10.6875 0 L 8.4375 0 L 7.546875 -2.1875 L 3.421875 -2.1875 L 2.53125 0 L 0.328125 0 Z M 6.78125 -4.09375 L 5.484375 -7.25 L 4.1875 -4.09375 Z M 6.78125 -4.09375 "/></g></g></g><g fill="#444444" fill-opacity="1"><g transform="translate(62.700454, 13.487623)"><g><path d="M 1.171875 -9.765625 L 4.984375 -9.765625 C 5.742188 -9.765625 6.441406 -9.640625 7.078125 -9.390625 C 7.710938 -9.148438 8.257812 -8.8125 8.71875 -8.375 C 9.1875 -7.9375 9.546875 -7.421875 9.796875 -6.828125 C 10.046875 -6.234375 10.171875 -5.59375 10.171875 -4.90625 L 10.171875 -4.890625 C 10.171875 -4.191406 10.046875 -3.546875 9.796875 -2.953125 C 9.546875 -2.359375 9.1875 -1.84375 8.71875 -1.40625 C 8.257812 -0.96875 7.710938 -0.625 7.078125 -0.375 C 6.441406 -0.125 5.742188 0 4.984375 0 L 1.171875 0 Z M 3.328125 -7.828125 L 3.328125 -1.9375 L 4.984375 -1.9375 C 5.421875 -1.9375 5.816406 -2.003906 6.171875 -2.140625 C 6.535156 -2.285156 6.847656 -2.488281 7.109375 -2.75 C 7.367188 -3.007812 7.566406 -3.316406 7.703125 -3.671875 C 7.847656 -4.023438 7.921875 -4.421875 7.921875 -4.859375 L 7.921875 -4.890625 C 7.921875 -5.316406 7.847656 -5.707031 7.703125 -6.0625 C 7.566406 -6.425781 7.367188 -6.738281 7.109375 -7 C 6.847656 -7.257812 6.535156 -7.460938 6.171875 -7.609375 C 5.816406 -7.753906 5.421875 -7.828125 4.984375 -7.828125 Z M 3.328125 -7.828125 "/></g></g></g></g></g></g></svg>